<?xml version="1.0" standalone="no"?>
<!DOCTYPE svg PUBLIC "-//W3C//DTD SVG 1.1//EN" "http://www.w3.org/Graphics/SVG/1.1/DTD/svg11.dtd" >
<svg xmlns="http://www.w3.org/2000/svg">
<metadata></metadata>
<defs>
<font id="ywft_absent_grotesque_mediuMd" horiz-adv-x="1153" >
<font-face units-per-em="2048" ascent="1638" descent="-410" />
<missing-glyph horiz-adv-x="614" />
<glyph horiz-adv-x="2048" />
<glyph horiz-adv-x="2048" />
<glyph unicode="&#xd;" horiz-adv-x="2048" />
<glyph unicode=" "  horiz-adv-x="614" />
<glyph unicode="&#x09;" horiz-adv-x="614" />
<glyph unicode="&#xa0;" horiz-adv-x="614" />
<glyph unicode="!" horiz-adv-x="487" d="M391 1296q-2 -6 1.5 -47.5t-3.5 -44.5q4 -4 6 -17t-4 -16q0 -127 4 -131q0 -6 -3.5 -14t-2.5 -12q-1 -4 1.5 -19.5t2.5 -21.5q1 -12 1 -23t-0.5 -22.5t-0.5 -18.5q-3 -21 4 -63q-5 -5 -4.5 -21t-5.5 -24q1 -2 -0.5 -8t-1.5 -7q-1 -24 0 -39.5t3 -30.5t3 -28q5 -72 6 -86 q-12 -84 -55 -153q-34 -84 -37 -99q-2 -6 -7 -14t-7 -12q-1 -2 -4 -10.5t-4.5 -11.5l-5 -10t-6 -10.5t-6 -7.5t-7.5 -6q-2 -2 -14 -2q-17 0 -19 8q-4 6 -16 14.5t-12 18.5q0 8 -13.5 34t-15.5 30q-26 77 -31 84q-31 50 -35 69q-2 8 -0.5 30t0.5 30q-4 12 -4 49q-1 6 2 23 t2 20q-4 12 -6 43.5t4 42.5q-1 7 2 24t2 25t-5.5 29t-4.5 32q2 20 2 123q7 67 0 105q0 3 1.5 16.5t3 22t5.5 8.5q1 3 -5.5 16.5t3.5 16.5q-4 8 -14 20q0 6 6 8q2 3 -2 31t4 43q-8 19 10 58q5 8 7 8q3 0 18 10q5 1 22 4t25 6q11 1 52.5 0.5t58.5 5.5q17 5 46 2t44 -12 q7 -3 9.5 -32t0.5 -36zM358 184v1q3 -13 0 -13q8 -3 -1.5 -67.5t-16.5 -67.5q9 -15 -7 -29.5t-37 -21.5t-22 -2q-5 -13 -100 -13q-9 0 -16 3.5t-12 12t-8.5 16.5t-6 20t-4 19.5t-3 19t-1.5 14.5q0 69 -4 90q-2 6 3 12.5t14.5 14t10.5 8.5q7 3 7 -4q13 7 38 5t31 -1q3 1 17 4 t20 4t17 2.5t19.5 0.5t16.5 -3q19 3 33 -6q7 -4 8 -5.5t4 -13.5z" />
<glyph unicode="&#x22;" horiz-adv-x="702" d="M268 1303q4 -33 0 -52q0 -26 -10 -43v-20q-1 -5 -2.5 -19.5t-4 -26.5t-7.5 -16q-9 -9 -15 -39q-4 -28 -10 -43q-2 0 -4 -7.5t-4 -17.5t-4 -13q-4 -8 -7 -18t-6.5 -26t-7.5 -28q-7 -14 -13 -56t-9 -51q-17 -42 -27 -47q-12 -7 -20 6q-4 8 -9 27.5t-8 34.5l-2 16 q-3 0 -8.5 59t-3.5 62q0 2 -1 23.5t-5 31.5q-2 11 -2.5 22.5t0.5 22.5q-2 3 -0.5 17.5t0.5 17.5q-2 7 -3.5 15.5t-2 16.5t-1 16.5t-0.5 16t0.5 14.5t1 12.5t0.5 9.5t1 6v2q-12 47 2 63q-2 7 7.5 21.5t10.5 17.5q5 2 12 11.5t11 11.5q27 15 49 20q27 5 57 -12q13 -9 31 -29 q0 -3 6.5 -14.5t7.5 -15.5zM594 1348q41 -48 41 -164q0 -79 -37 -223q-13 -54 -27 -97q-18 -55 -32 -55l-19 6q-22 11 -37 66q-18 62 -37 178q-17 104 -4 186q15 89 52 115q60 39 100 -12z" />
<glyph unicode="#" horiz-adv-x="1200" d="M1053 893q57 -8 56 -22q-1 -6 -11 -13q-22 -78 -23 -82q-2 -7 -6.5 -21.5t-8.5 -24.5t-9 -19q-2 -3 -17 -5t-28 -3.5t-13 -4.5q-14 4 -20.5 4t-28 -4t-22.5 -4q-4 0 -27 4t-37.5 2t-17.5 -14q-3 -14 -14.5 -42t-14.5 -42q-4 -15 -19 -47t-18 -51q59 -19 82 -12 q30 4 51 -5q11 -3 39 -3.5t43 -4.5q4 0 15 0.5t15.5 0.5t14 -1.5t11 -5.5t5.5 -11t-1 -18q-2 -9 -2.5 -47.5t-4.5 -67t-16 -28.5q-1 -2 -24 -3.5t-27 -4.5q-31 5 -45 0q-9 -2 -32 -1.5t-34 -2.5q-10 -2 -29 0t-28 0q-10 -1 -30.5 1.5t-28.5 2.5q-11 -10 -19.5 -35.5 t-15.5 -34.5q-17 -21 -17 -37q0 -20 -16 -36l-23 -46q-7 -26 -20 -53q-4 -6 -6 -18.5t-8 -16.5t-23 -2q-27 4 -86 4q-4 1 -10.5 4.5t-12.5 5t-12 1.5q-38 0 -43 2q-3 10 -0.5 21t10.5 30l9 18q14 34 20 54q5 21 23.5 66t23.5 71q-15 1 -30.5 0t-34 0.5t-27.5 5.5 q-12 -10 -35 -68q-8 -29 -35 -69q-4 -6 -8.5 -22t-7.5 -29l-2 -13q-3 -9 -6.5 -23.5t-6.5 -23t-8 -17.5t-14.5 -13.5t-23.5 -4.5q-53 -4 -86 4q-1 0 -16.5 2t-26.5 4.5t-13 6.5q-4 10 -2 19.5t7 26.5t6 23q1 13 7 35.5t7 30.5q2 11 5.5 33t6 36t7.5 32t12 32q-10 3 -34.5 1 t-49.5 1t-25 14q0 13 -1 37t-1 37q0 97 2 100q2 4 4 8.5t2.5 7t3 4t6.5 1.5q1 0 20.5 -0.5t35.5 -0.5t35.5 1.5t32.5 5.5t16 10q8 21 16.5 62.5t13.5 58.5q2 9 7.5 25t7.5 22q0 5 0.5 8t-2.5 5t-5.5 3t-7 1.5t-8 0.5t-8 -0.5t-6.5 -0.5q-10 0 -18.5 0.5t-23.5 2t-22.5 6 t-5.5 11.5q6 23 -1.5 68t-6.5 61q1 5 -1.5 18.5t-0.5 16.5q3 3 9.5 5.5t8.5 4.5q10 -1 35.5 0.5t36.5 -0.5q12 -1 33 6q6 -2 28.5 -2.5t24.5 0.5q1 2 8 4q6 2 6 3t-4 2q14 -2 37 67q6 15 17.5 44t17.5 44q16 40 43 90q3 5 9 22t13 30.5t15 17.5q6 0 19 -4.5t16 -5.5 q11 -2 33.5 -2.5t29.5 -1.5q8 -1 34 -2q57 0 57 -10l-1 -3q-13 -30 -39.5 -86.5t-46.5 -104.5t-34 -93l43 2q19 -5 28.5 -3.5t18.5 17.5q5 8 10 24.5t10 24.5q5 6 35 64q4 9 9.5 25t11 28t14.5 22q10 11 20.5 47t24.5 46q15 0 60.5 -7.5t58.5 -7.5q33 0 51 -6q2 4 8 0t8 -4 q1 -9 -8 -37q-7 -22 -25.5 -64t-23.5 -63q-4 -12 -22 -54.5t-21 -66.5q31 -9 87.5 -10t76.5 -4zM606 649q-3 10 1 21t2.5 15.5t-17.5 6.5q-14 2 -41 2q-8 0 -14 -4q-13 -10 -21 -4q-4 -33 -20 -90q-2 -6 -8 -23.5t-9 -25.5q-2 -4 -2 -10.5t-2 -8.5q8 0 17 -6q3 0 9.5 1.5 t11.5 1.5t9 -3q4 4 12 4t17 -2t12 -2q7 -1 14.5 19t14.5 52t8 34q0 2 3 11t3 11z" />
<glyph unicode="$" horiz-adv-x="901" d="M815 551q2 -7 5.5 -18.5t5.5 -18t4.5 -20.5t3.5 -33q0 -3 -7 -66q-1 -14 -7.5 -36t-8.5 -31q-4 -19 -15.5 -44t-23.5 -32q-10 -6 -22 -25q-17 -26 -43 -43q-11 -7 -33.5 -15.5t-30.5 -12.5q-10 1 -40 -5.5t-44 -0.5q-3 -17 2 -48t7 -50.5t-11 -45.5q-6 3 -4 8 q-3 -5 -9 -6.5t-15 -2t-13 -1.5q-9 -2 -74 -8q-7 -1 -23 1t-20 -3q-4 0 -12.5 -2t-11.5 -2q-5 0 -8 3.5t-4 10.5t-1.5 12.5t0 13.5t0.5 9t3 29.5t1 47t-12 21.5q-14 3 -38.5 15.5t-32.5 15.5q-87 40 -121 115q-1 2 -6.5 3.5t-8.5 8.5q-6 6 -8 16q-30 62 -27 75q1 5 5 7 q5 4 7.5 7t6.5 6q4 1 11.5 9.5t11.5 10.5q45 35 63 51q13 13 72 -57q1 -1 10.5 -11.5t11.5 -12.5t11 -10.5t13.5 -11t12.5 -7.5t15.5 -7t15.5 -2q4 12 1.5 44t-1.5 44q2 16 2 93q-1 10 0.5 46t-2.5 46q-30 30 -43 35q-17 6 -31 16q-1 1 -3 2t-3 2q-4 2 -10 8l-8 8h-2l-7 7 q-8 4 -12 4q-2 6 -10 11.5t-10 8.5q-8 11 -47 33q-12 5 -48 37q-19 14 -47 47q-18 21 -18 61q-1 8 -6 26.5t-6 27.5q0 43 10 61q2 3 13 33.5t22 42.5q24 34 61 55q12 7 36 15.5t30 11.5q1 0 9.5 2.5t17.5 4.5t18.5 4.5t15.5 4t6 0.5q29 -4 33 30t-2 56q0 5 -2.5 21.5t-3 26 t3.5 20.5q7 11 18.5 13t28.5 -1.5t23 -3.5q11 0 31.5 0.5t37 0.5t31.5 -1q19 -1 24.5 -18.5t5 -44t3.5 -37.5q-4 -8 -4 -41q0 -19 5.5 -27.5t24.5 -9.5q12 -1 24.5 -5t20 -7.5t21.5 -11t22 -11.5q6 -3 19.5 -9t24.5 -11.5t20 -12.5q28 -28 37 -33q12 -9 15 -14t0.5 -13 t-1.5 -14q-2 0 -4 2q5 -6 -10.5 -44t-24.5 -39q2 -6 -6.5 -24t-17.5 -17q-16 0 -29 10q-4 4 -7.5 5t-8.5 1.5t-9 1.5q-24 15 -51 27q-35 20 -47 20q-5 -2 -7 -10.5t-1.5 -16.5t1.5 -18t1 -12q-6 -38 4 -54q0 -2 -1 -7.5t-0.5 -10.5t3.5 -10q14 -23 88 -53q41 -18 68 -45 q7 -13 25 -34.5t22 -27.5q1 -1 18 -19.5t19 -29.5l4 -16t5 -21.5t1 -13.5q-1 -5 5.5 -16t6.5 -19zM330 840q6 5 3.5 30t2.5 33t-1 28q-5 15 -13 9q-4 -2 -9 -4t-8 -3t-7.5 -5.5t-10.5 -12.5q0 -1 -2.5 -6t0.5 -8q-2 -7 0.5 -14t8.5 -14.5t11 -12t14 -11.5t11 -9zM553 580 q-1 -29 0 -81t0 -94.5t-6 -80.5q8 3 22.5 5t24.5 9q25 19 39 35q13 18 17 51.5t-1 44.5q2 -2 2 -4q5 17 -35 57q-29 34 -63 58z" />
<glyph unicode="%" horiz-adv-x="1316" d="M762 682q-7 -10 -20 -27t-21 -29t-14 -28q-4 -8 -26 -35.5t-26 -40.5q-5 -15 -21.5 -43t-21.5 -41q-23 -45 -73 -106q-10 -22 -39 -59.5t-39 -57.5q-7 -17 -18.5 -35.5t-30 -45.5t-23.5 -34q-1 -1 -18 -31t-31 -44.5t-25 -8.5q-91 47 -110 66q-11 20 16.5 72.5t54.5 81.5 q15 15 40 51.5t32 54.5q3 8 52.5 83t58.5 85q55 62 92 141q2 10 5 18t5 11.5t5.5 8.5t4.5 7q23 27 54 92q38 44 53 91q40 52 49 84q3 9 18 29t23 28q7 2 20 26t17 29q18 22 41.5 75t34.5 71q12 20 31 71.5t34 77.5q2 6 43 -10t90.5 -39t55.5 -25q8 -19 -25 -47 q-29 -46 -49 -88q-9 -22 -31.5 -60.5t-30.5 -56.5q-6 -13 -23.5 -38.5t-23.5 -40.5q-6 -16 -15.5 -30t-25.5 -33.5t-22 -27.5q-24 -53 -55 -92q-5 -7 -23 -30.5t-31.5 -42t-17.5 -27.5zM1260 477q12 -70 0.5 -153.5t-43.5 -153.5q-34 -58 -84 -101t-107 -42 q-43 -8 -101 10.5t-96 46.5q-118 101 -112 262q0 100 10 131q3 7 13 52l10 40q9 35 24.5 57.5t34 40t27.5 31.5q5 9 43.5 45t42.5 33q10 0 33 9t30 10q9 0 23.5 1t25 1t19.5 -2l15 -3l15 -3t12.5 -3.5t13.5 -5.5t13 -8q8 -7 27.5 -17.5t26.5 -19.5q1 -1 15 -15.5t17 -19 t9.5 -18.5t9.5 -31q24 -83 33 -174zM1073 250q16 16 23.5 28t14 37.5t5 67.5t-9.5 106q0 2 -6.5 20t-14.5 40t-10 29q-9 20 -44.5 34t-53.5 -4q-31 -25 -45 -59q-5 -8 -17 -30t-18 -32q-9 -15 -17 -58.5t-8 -59.5q0 -13 25 -70q12 -30 26.5 -43t47.5 -25q31 -10 58 -4t44 23 zM346 625q-13 0 -90 20q-13 3 -30 11t-27.5 14t-32 19t-25.5 16q-4 4 -24 27.5t-17 23.5q-6 -1 -11 5t-7 13t-4 14.5t-2 8.5q-2 14 -8.5 39.5t-8.5 37.5q-7 74 -4 170q0 11 1.5 23t2.5 22t5 24.5t6 22.5t7.5 24.5t7 22t8 24.5t7.5 22q6 3 13.5 15t13.5 16q6 6 24 27.5 t33 31.5q28 8 56 24q4 0 16 3.5t20 3.5l19 1q-4 3 4 6l4 1q7 -3 22 0t27 0q71 -17 84 -19l31 -7q31 -6 39 -11q3 -2 13.5 -5t23.5 -11q23 -26 41 -72q1 -4 9 -20.5t14 -33t11.5 -35t4 -34t-10.5 -23.5q-5 -5 -8.5 -39t-3.5 -49q-5 -82 -29 -172q-6 -64 -6 -67 q-1 -3 -12.5 -19.5t-13.5 -31.5q-3 -10 -30.5 -28t-31.5 -36q-5 -8 -16.5 -13t-29 -6.5t-31 -1.5t-32 0.5t-22.5 0.5zM229 1030q3 -10 2 -23.5t5 -23.5q-2 -20 1 -37t9.5 -37.5t9.5 -34.5q8 -34 34 -45t72 9q34 17 44.5 95.5t-9.5 131.5q3 31 -9.5 54.5t-32.5 32t-41.5 7.5 t-39 -17.5t-22.5 -43.5q-16 -17 -21 -30t-3.5 -25t1.5 -13z" />
<glyph unicode="&#x26;" horiz-adv-x="1409" d="M1243 295q23 4 56 -1t44 -20q-9 -24 -13 -53t-6 -64.5t-5 -54.5q-2 -3 -3.5 -12.5t-3 -17.5t-3.5 -9l-4 -4q-6 -6 -11 -6l-14 -2q-6 -1 -26 -3.5t-38 -4.5t-28 -2q-19 0 -31 -6h-31q-5 -1 -28.5 1.5t-26.5 -1.5q-7 9 -43 16q-27 10 -57 37q-17 14 -32 13.5t-23.5 -7.5 t-24.5 -24q-7 -7 -23 -17t-28.5 -17t-12.5 -9t-15 -5.5t-32 -7t-20 -6.5q-6 3 -47 0.5t-45 -6.5q-9 -11 -26.5 -13t-40 0t-32.5 1q-4 0 -33 2t-30 -4q-3 -1 -17 1.5t-26 5t-12 1.5q-5 -2 -19.5 0t-34 6t-20.5 4q-13 6 -38.5 11.5t-39.5 13.5q-27 27 -57 30q2 6 -37 25 q-5 3 -20.5 16.5t-22.5 18.5q-37 35 -58 102q-8 22 -11.5 47.5t-4.5 43t2.5 49.5t5 42.5t9 47.5t8.5 41q4 24 26 71q3 7 11 25t12 26q12 22 47 62q5 5 23 20t24 23q15 21 49 53.5t49 32.5q3 4 8 7.5t6.5 5t1 5.5t-4.5 11q0 1 -6 13t-11 23t-2 11q-28 39 -53 123v65 q-1 20 9 52.5t11 41.5q0 17 14 39t31 35q43 43 54 57q6 8 47 29q6 3 25.5 5t27.5 9q3 0 16.5 5.5t25 10t11.5 1.5q8 8 47 8q16 1 44 -0.5t38 -1.5q8 0 30.5 -4.5t29.5 -3.5q5 0 21 -8.5t16 -12.5q10 3 32.5 -17.5t36.5 -37.5q1 -2 10 -12.5t12.5 -18t4.5 -16.5 q4 -5 7.5 -23.5t8.5 -23.5q21 -41 -4 -152q-20 -92 -39 -92q1 -6 2 -9t-3 -10t-5.5 -9.5t-6.5 -8.5l-5 -6q-2 -3 -7.5 -14.5t-11.5 -18.5q-15 -11 -28 -41q-7 -13 8 -51q5 -10 21 -31.5t22 -33.5q29 -53 76 -86q5 -5 59 -68q10 -12 21 0t24.5 42.5t17.5 37.5q5 6 10.5 23 t6.5 20q12 20 18 35q2 3 13 18.5t16.5 23.5t12.5 20.5t9 21.5q2 4 7.5 3.5t14.5 -5.5t17 -10.5t15.5 -10.5t9.5 -6q6 -2 15.5 -10.5t13.5 -10.5q3 -2 8 -6t10 -6q4 -2 6.5 -3t4 -1h3t2.5 -1l3 -3t4 -6q8 -10 9.5 -14.5t-5.5 -16.5q0 -49 -8 -49q2 -10 -11 -64 q-4 -7 -6.5 -16t-5 -20.5t-4.5 -18.5q-4 -5 -6.5 -12t-5 -16t-4.5 -15q-19 -45 -21 -61q-13 -10 -20 -43q-2 -8 -5 -16t-4 -11.5t1 -9t8 -12.5q28 -35 67 -29zM750 242q21 2 46 14t17 27q-9 17 -37 45.5t-37 40.5q-4 6 -14 18.5t-14 18.5q-2 3 -16 15t-15 17q-4 14 -66 76 q-6 5 -20 20t-19 19q-21 21 -18 33q-3 0 -14 -11q-15 -9 -39 -37.5t-29 -33.5q-45 -45 -72 -101q-9 -19 -2 -61q1 -8 11.5 -24t17.5 -23q6 -7 34 -18t38 -19q4 -4 19 -7t29.5 -5.5t16.5 -3.5q24 -4 66 -4h53q26 -2 64 4zM666 1051q10 14 5.5 45t-12.5 41q-10 13 -23.5 17.5 t-23.5 -5.5q-2 -2 -6.5 -11t-8 -16.5t-5.5 -7.5q-6 -2 -6 -27q-12 -12 -5 -59.5t25 -50.5q4 2 9.5 8.5t11 16t8.5 12.5q7 5 18 20t13 17z" />
<glyph unicode="'" horiz-adv-x="331" d="M242 1346q5 -3 14.5 -29.5t5.5 -32.5q-3 -3 -6.5 -31.5t-6.5 -56t-5 -27.5q-4 -7 -17 -61q-3 -13 -19 -56t-18 -51q0 -2 -3 -25t-9 -34q-16 -29 -24 -49q-1 -4 -9.5 -19.5t-7.5 -23.5q-1 -3 -2.5 -6.5t-7.5 -9.5t-12 -5q-9 2 -19 27v47q0 4 -5 33t-5 45q-4 70 -4 98 q-6 53 -6 133q0 2 -3.5 27.5t-3.5 45t7 18.5q-4 24 16 44t45 25q68 14 105 -26z" />
<glyph unicode="(" horiz-adv-x="638" d="M532 1157q-40 -17 -67 -47t-41 -72t-21 -78.5t-13.5 -89t-12.5 -79.5q-22 -118 -15 -256q0 -20 4 -68.5t3 -75.5q0 -10 3.5 -29.5t2.5 -33.5q1 -4 3.5 -18.5t5.5 -24.5t7 -17q3 -6 10.5 -21.5t11 -21.5t10.5 -16t14.5 -16.5t17.5 -12.5q31 -19 47 -30q6 0 23.5 -7 t21.5 -8q10 -6 16.5 -18.5t-0.5 -24.5q2 -7 0 -31.5t6 -25.5q9 -9 5 -25.5t-17 -13.5q-23 0 -35 4q-11 4 -45 8.5t-43 7.5q-19 3 -65 23q-3 4 -20 12t-23 8q0 5 -16 17t-17 14q-4 5 -17.5 15.5t-19.5 19.5q-15 18 -37 37q-10 12 -25.5 35t-25.5 34q-1 2 -7.5 16t-12.5 26 t-9 12q0 8 -10 38t-14 35q-8 12 -11 43.5t-4 36.5q-3 11 -4.5 35.5t-3.5 32.5q-5 31 10 123q4 21 7.5 66t7.5 67q3 10 11 46t11.5 49.5t11.5 43.5t14 47.5t15 42t19 45.5q25 68 45 94q7 11 30.5 38t32.5 34q7 4 33 30.5t66.5 53.5t93.5 41q0 5 19 7q11 2 11 3q0 -1 8.5 1.5 t17.5 5t11 2.5q10 -18 13 -46q6 -56 -2 -108q-1 -9 -3 -13.5t-4 -5.5t-8.5 -2.5t-11.5 -3.5q-8 -3 -19 -10z" />
<glyph unicode=")" horiz-adv-x="550" d="M78 1237q-5 3 -7 8t-2.5 11.5t0 11t2 12t1.5 10.5q0 2 3 24t7.5 33.5t13.5 10.5l49 -2q-6 12 62 -7q15 -4 18 -6q18 -2 35.5 -11t26 -16t28.5 -26q3 -3 16 -15t17 -16.5t14.5 -15t15.5 -17t12.5 -17t12.5 -21t9 -21.5q48 -117 63.5 -262.5t-2.5 -271.5q-4 -28 -16.5 -79 t-16.5 -71q-10 -46 -30 -106q-23 -79 -41 -127q-6 -20 -26 -59.5t-26 -57.5q-7 -24 -32 -57q-6 -6 -16 -20.5t-7 -18.5q-2 -3 -13.5 -17t-12.5 -20q-7 -18 -38 -28t-51 -5q0 4 -4 10t-8.5 11t-5.5 6q-31 36 -39 53q0 14 13.5 40.5t15.5 33.5q4 14 20 47t19 53q4 23 27 78 t24 86q2 27 19.5 83t19.5 85q2 19 17 62.5t14 66.5q-1 15 4 57t0 58q-6 23 2 45q0 8 -3 30.5t-3 30.5q0 9 -2.5 25t-2.5 24q0 19 -8 44t-14 38.5t-25 48t-22 39.5q-9 17 -46.5 43.5t-45.5 36.5q-12 16 -35 35z" />
<glyph unicode="*" horiz-adv-x="1026" d="M956 977q2 -13 -9 -19.5t-23 -9t-13 -4.5l-18 -10q-18 -10 -19 -12q-3 1 -9.5 -0.5t-11 -4t-11.5 -6t-8 -4.5q-25 -15 -76 -24q-8 -5 -26.5 -1.5t-26.5 6t-25.5 9t-24.5 8.5q-18 5 -49 21t-49 22q-1 -4 7 -12t19 -16l11 -9q3 -3 11 -8t14 -10t10 -10q0 -1 4.5 -4.5t10 -8 t7.5 -6.5t13.5 -8.5t18 -13t5.5 -13.5q7 -2 25 -26.5t14 -30.5q0 -2 2 -2t2 -2q2 -2 0 -2q10 -31 21 -33q-3 -4 10 -24t12 -25q0 3 2 -2q1 -2 2 -7l2 -5q3 -10 -4 -14.5t-8 -10.5q-5 1 -31 -17t-32 -20q-7 -3 -18.5 -10t-22 -11.5t-21.5 -4.5q-16 -10 -24 -13.5t-17.5 -0.5 t-19.5 16q-9 14 -23.5 42t-17.5 33q-1 2 -19.5 32t-19.5 46q0 25 3.5 80.5t2.5 85.5q-3 -2 -6.5 -16t-6 -30.5t-3.5 -20.5q5 -14 -2 -54.5t-21 -54.5q-22 -26 -41 -51q-1 -1 -20.5 -26t-33 -37t-26.5 -15q0 2 -31.5 20.5t-33.5 22.5q-16 24 -29 37q-7 7 -17 23t-14 22 q-3 4 -10 11t-10 11q-4 6 5.5 18.5t8.5 18.5q10 4 19.5 17.5t19 34t12.5 24.5q14 24 35.5 39.5t51.5 29.5t46 25q5 3 17.5 9t19.5 12q0 8 2 12q-2 3 -7 3t-7 3q-3 -3 -10 0q-2 -4 -4.5 -6t-4.5 -3t-6.5 -3.5t-7.5 -3.5q-37 -16 -45 -27q-10 -1 -28.5 -7t-24.5 -7l-12 -6 q-3 0 -14.5 3t-16.5 1q-8 -4 -30.5 4t-24.5 8q-25 3 -43 10q-3 1 -14.5 3t-22 4t-22 6t-18.5 9.5t-7 12.5q-1 6 5.5 25.5t13.5 35.5l7 17q-4 4 4.5 25t22 47t14.5 28q13 25 28 26t44 -9q14 -4 40.5 -14t41.5 -13q84 -29 141 -84q4 14 -22.5 45t-24.5 49q-3 -7 -2 -10 q-7 3 -9.5 52.5t-0.5 62.5q1 4 5 42l3 29q1 4 -0.5 15t-1.5 12q12 10 47 -2q20 -3 68.5 1t72.5 1q1 0 20 1t31 -0.5t19 -6.5q-5 -38 -2 -86q0 -1 0.5 -42t-0.5 -42v-45q-4 -4 -16 -26.5t-29 -32.5q-5 -7 -37 -39q-8 -6 -21 -19q5 -2 5 -8q98 72 114 78q13 5 32.5 13.5 t32.5 13t27 4.5q5 0 35 10q12 5 36 9.5t30 6.5q3 1 14.5 6.5t12.5 4.5t12 -3q6 -5 12.5 -16t7.5 -12q32 -41 29 -78q-1 -17 11 -44t13 -40z" />
<glyph unicode="+" horiz-adv-x="989" d="M901 530q2 -6 1.5 -14t-2 -21.5t-1.5 -15.5q-1 -14 -5 -39t-5 -37q0 -7 -1 -15.5t-3 -20.5t-8 -18t-15 -1q-18 10 -55 10q-47 -3 -219 2q-14 -123 -17 -270q-1 -4 0.5 -25.5t-2.5 -27.5q-2 -6 -9 -6.5t-17 2t-13 2.5q-86 -5 -102 -4q-38 0 -41 2q-4 22 0 67l-1 51 q0 51 1 52q0 92 -2 92v61q-2 0 -5 0.5l-9 1.5l-9 1.5t-2 0.5q-19 0 -84 -1.5t-100 -0.5q-83 0 -86 17q6 18 8 18q-6 24 -6 51q6 57 -4 72q-10 21 82 19q14 1 51.5 0.5t50.5 1.5q82 10 113 8q1 24 -1.5 84t-0.5 92q2 29 2 86q0 4 1.5 20t0.5 25q-3 25 44 19l7 -1q37 2 103 -2 q2 0 9.5 0.5t12 0.5t10.5 -2t9 -5q5 -2 1 -15t-3 -18q16 -65 8 -96q-4 -29 0 -59q1 -11 -1 -31t-2 -37t5 -31q2 -8 1.5 -15.5t0.5 -16.5q0 -5 3 -7.5t8.5 -3t10 0.5t12 2.5t9.5 1.5q12 0 34.5 -1.5t41 -1.5t34.5 3q25 5 109 -5q3 0 15 3.5t19.5 2.5t12.5 -8z" />
<glyph unicode="," horiz-adv-x="368" d="M76 0q-9 67 -4 90q1 11 0.5 31.5t0.5 37t5 31.5q5 32 12 39h19q17 3 59.5 1t56.5 1q8 -1 27 2.5t31 2.5t14 -11q5 -21 0 -71q-2 -12 -2 -35q0 -3 1 -10t1 -13t-2 -10q-6 -18 -6 -68q0 -42 -6 -49q3 -13 -6 -31t-21 -28q-3 -3 -6 -8t-7 -8.5t-10 -6.5q-7 -3 -21.5 -10 t-21.5 -10q-22 -12 -88 -25q-4 2 -14 31q-1 6 0.5 10t6 9t7.5 10q19 6 21 14q1 3 8 13t8 14q5 10 8 30q1 13 -3.5 17t-18.5 4q-20 0 -23 2q-2 0 -7 -1.5t-8.5 -2t-6.5 1t-4 6.5z" />
<glyph unicode="-" horiz-adv-x="722" d="M651 743q3 -8 3 -18.5t-0.5 -17t-3 -21t-3.5 -18.5q-1 -7 0.5 -28t-4.5 -28l-14 -14q-5 -4 -10.5 -4.5t-10.5 -3.5q-3 -2 -10.5 -3t-17 -1.5t-13.5 -1.5q-8 -2 -24 3t-23 5q-2 1 -12.5 -1t-18.5 -1q-18 2 -59 2q0 2 -8 2t-15.5 -2t-7.5 -6q-6 6 -26 -2q-13 -3 -39 -0.5 t-51.5 6t-24.5 2.5h-33q-1 -4 -11 -4.5t-20 0.5l-10 2q-2 0 -15.5 -3.5t-14.5 -4.5l-35 -4q-25 0 -35 8q-12 8 -14 23t2 36.5t4 26.5q0 10 2 27t2 20q0 7 -4.5 26.5t-2 31.5t16.5 18q7 -6 43.5 -3.5t64 6t33.5 -2.5q2 2 2 8q8 -3 17 0q4 0 14.5 -1.5t18.5 -1t14 4.5 q4 1 34 -1.5t34 -0.5q18 8 54.5 7t51.5 -5q0 3 46 4.5t91 -2.5t43 -16q0 -11 2 -19q3 -9 -2 -29z" />
<glyph unicode="." horiz-adv-x="368" d="M260 229q10 -1 19 0t15.5 -3.5t6.5 -16.5q0 -8 -2 -26t-2 -27q2 -29 -8 -113q-1 -3 -2 -23.5t-8 -27.5q-3 -4 -31 -1t-33 3q-57 5 -68 4q-4 0 -17.5 -0.5t-22 -0.5t-19.5 2t-18 5q5 26 0 102q0 9 2 28.5t2 29.5q0 6 -2 18.5t-2.5 20t0.5 17.5t4 18q8 1 41 -2t41 2 q9 4 37 -2q12 -2 33.5 -3.5t33.5 -3.5z" />
<glyph unicode="/" horiz-adv-x="882" d="M242 -18q-10 -3 -30.5 -3t-31.5 -2q-4 0 -25.5 -4t-42 -6.5t-42.5 -3.5t-33.5 5.5t-7.5 19.5q11 35 42.5 107.5t43.5 113.5q1 6 10 25t12 24q7 9 17 38t14 36q5 9 8 29t8 30q2 4 8 13t10 17.5t5 14.5q2 15 7 29.5t13.5 32.5t12.5 28q3 12 12 31.5t12 28.5q3 8 10 22 t13 24t6 11q2 -2 14 31q5 15 18 41t17 35q33 103 47 112q1 1 17 12q6 3 6 17q5 26 16 31q5 4 27 36q9 43 26 62q4 3 10.5 22.5t6.5 24.5q8 0 18 27q31 60 37 80q3 13 14 33.5t15 31.5q9 34 14 41q18 27 20 35q0 5 15 28q5 6 10.5 7.5t15.5 -0.5t15 -2q82 6 90 8q5 1 20 0 t23 0q40 5 53 -8q-6 -12 -6 -33q-10 -14 -16 -26.5t-13 -20.5q-1 -1 -11.5 -18.5t-16 -30t-7.5 -23.5q-3 -16 -10.5 -39t-15.5 -24q-6 -20 -23.5 -56t-21.5 -49q-4 -11 -17 -34.5t-16 -37.5q-4 -16 -11.5 -32t-17 -35l-14.5 -29q-19 -39 -49.5 -105.5t-36.5 -78.5 q-29 -62 -81 -183t-79 -180q-55 -107 -71 -161q-12 -25 -17 -25q-2 -25 -20 -61q-2 -3 -10 -26.5t-17 -40t-18 -17.5z" />
<glyph unicode="0" horiz-adv-x="1042" d="M864 1249q44 -74 67 -166.5t19 -179.5q-1 -22 -4 -63.5t-4 -63.5q-1 -9 -7.5 -29.5t-4.5 -35.5q1 -14 -4 -68q-3 -36 -8.5 -104.5t-8.5 -104.5q-8 -71 -28 -151q-14 -58 -39 -101q-15 -40 -21 -47q-4 -8 -18 -25t-17 -26q-16 -12 -43.5 -39t-52.5 -44t-55 -21 q-9 -2 -47 -11q-3 -1 -17 -2.5t-22 -3.5q-6 3 -38 0.5t-38 -2.5q-1 -4 -77 19t-85 28q-105 51 -157 174q-10 21 -17.5 43.5t-13 49.5t-9.5 46t-7 52t-4 47t-3.5 52t-3.5 48q5 26 -0.5 82t-5.5 68q0 88 10 198q-2 24 3.5 51.5t20 72t15.5 48.5q12 54 54 136q5 7 12 20 t11.5 20t12 17t15.5 18q55 55 102 86q57 35 130.5 49.5t146 6t138 -45.5t103.5 -98zM469 289q17 -7 23 -9.5t20.5 -6t26.5 -2t24 7.5q15 4 21 12q6 4 13 13.5t13 12.5q1 10 14.5 14.5t14.5 8.5q5 52 6 55q9 34 14 66q0 1 1.5 13t4.5 21.5t7 14.5q5 5 -0.5 17t-1.5 18 q8 13 0 57t-4 62q11 56 8 118q0 98 -6 129q-3 11 -7.5 35t-9.5 37q-3 7 -11 21.5t-11 21.5q-3 6 -7 10.5t-11 9.5t-10 7t-13.5 8.5t-12.5 7.5q-14 -1 -23 -0.5t-20 0t-22 -3.5q-9 -2 -26 -11.5t-21 -11.5q-19 -11 -33 -29t-23 -44t-13 -44.5t-9.5 -51.5t-7.5 -44 q-4 -25 -2 -74.5t-2 -72.5q-2 -34 -2 -47.5t2.5 -48t3.5 -47.5q1 -9 2 -44.5t5 -59t13 -42.5q12 -30 18 -43.5t21 -33.5t33 -27z" />
<glyph unicode="1" horiz-adv-x="704" d="M549 1368q18 -8 18 -90q1 -15 -1.5 -42t-2.5 -38q1 -10 -3 -31t-1 -32q-7 -9 -2 -43.5t4 -42.5q-2 -24 0 -72t0 -70q0 -21 -4 -61q0 -168 6 -209q-1 -26 1 -83.5t1 -84.5q0 -12 -2.5 -84t0.5 -84q2 -22 -3 -71.5t-1 -75.5v-37q1 -6 3 -17.5t3 -21t0 -17.5q-1 -4 -2 -14 t-2.5 -17t-4.5 -15t-8 -12t-13 -3q-4 0 -42.5 -1.5t-75.5 -3t-38 -1.5q-16 -2 -42.5 2.5t-29.5 15.5l-14 19q-1 9 0.5 29.5t-0.5 29.5q-7 47 -4 57q-2 5 -0.5 53t0.5 52q-1 9 1 26.5t1 26.5q-1 10 -0.5 25.5t1.5 36.5t1 24q-1 12 -1 38t-1 44t-4 25q-1 4 2.5 13.5t3.5 14.5 q-1 8 -2.5 23t-2.5 27.5t-1 23.5q0 1 -4 15t-5 23t3 11q-1 0 0.5 17t1 36.5t-3.5 22.5q0 1 1 12t1 13q2 6 2.5 21t1.5 17q-4 23 -4 27q-3 6 -16.5 16.5t-12.5 16.5q-5 -8 -26.5 -3.5t-26.5 1.5q-3 -1 -9 -1t-14 0.5t-10 0.5q-23 4 -57 4q-5 0 -15 0.5t-14 1t-8.5 4 t-5.5 10.5q-3 11 -3 54q0 1 -4.5 41t-3.5 47q-2 6 -4 8l-3 18q-3 19 -3 25t5.5 14.5t6.5 11.5q7 16 31 23q5 1 10 0t13 -3.5t16 -4.5q14 -8 23 -3.5t12 -0.5q6 6 26 6q8 -1 34.5 10t33.5 16q10 6 20 19.5t16 24.5l5 10q8 22 22 45q11 18 11 67q0 5 -1 15.5t-1 16.5t3 13 t9 11q6 2 6 12q8 2 21 0q8 -4 18 -2.5t19 1t10 -6.5q4 0 15.5 5.5t16.5 6.5q13 2 48 -4q2 1 15.5 2t26 2t13.5 2z" />
<glyph unicode="2" horiz-adv-x="1097" d="M989 227q3 -6 1.5 -23.5t-7.5 -23.5q5 -6 -6 -69q0 -4 -1 -15t-1 -20.5t2 -16.5q-3 -10 -2 -30t-2 -29q-17 -11 -53 -6q-2 0 -13 -2t-18 -2.5t-12 2.5l4 4q-3 2 -8 2t-11 -1t-8 -1q-10 1 -32 -1.5t-34 -0.5q-1 4 3.5 7t3.5 7q-3 3 -9.5 3t-14.5 -1.5t-9 -1.5 q-12 0 -66 -4l-137 -16q-12 1 -44.5 0.5t-77.5 -1.5t-46 -1q-31 0 -37 -2q0 -3 -49.5 1t-58.5 7q-56 12 -78 -2q-2 0 -9.5 -0.5t-13.5 -0.5t-13 0.5t-11.5 3t-5.5 7.5q-14 -7 -19 0.5t-4 25.5v17q5 16 7.5 34t4 42t2.5 35q2 14 0 30.5t2 32t17 19.5q12 4 32.5 28t22.5 25 q24 20 83.5 61t86.5 66q17 17 78 65t88 84q6 9 18.5 25t21.5 29.5t17 29.5q22 6 60 82q11 23 16 23q-1 10 10.5 29t12.5 24q4 16 18 38.5t24.5 40.5t17 54.5t-6.5 81.5q-17 39 -33 63q-6 8 -22 20t-23 21q-19 19 -96 0q-4 -2 -26.5 -18t-28.5 -18q-3 -1 -6.5 -4t-5.5 -6 t-3 -3q-9 5 -25 -10.5t-26 -30.5q-31 -51 -33 -86l-2 2q-1 -2 -3.5 -22.5t-5 -39.5t-3.5 -18q-70 -8 -80 -8q-9 0 -55 2.5t-55 -0.5t-19 0q-4 1 -8.5 -0.5t-7.5 -1.5q-14 2 -8 37q3 10 3 22t-1.5 27.5t-1.5 24.5q-5 27 8 37q4 7 10 24q4 10 9 31t9 31q2 6 11 27t14 34 q30 67 96 133q15 14 63.5 31.5t61.5 24.5q42 22 100 22q54 20 95 8q16 5 54 -1.5t40 -6.5q39 -2 102 -20q5 -1 19 -6.5t22 -4.5q10 -16 31 -16l27 -27q30 -27 39 -55q5 -15 9.5 -45.5t8.5 -42.5q5 -10 2 -41t-2 -37q14 -142 -12 -223q-1 -4 -5.5 -17.5l-6.5 -19.5t-6 -16.5 t-8.5 -18.5t-10.5 -16q-11 -14 -21 -35q-5 -7 -13 -21.5t-13 -21.5q-16 -27 -27 -41q-2 -3 -9 -12.5t-12 -18.5t-6 -14q-4 -18 -20 -27q-5 -3 -11.5 -12.5t-11.5 -11.5q-13 -4 -25.5 -17t-15.5 -24q-1 -2 -9 -7l-7 -5q-3 -3 -14 -14.5t-15 -18.5q-5 -3 -21 -17t-24 -18 q-48 -32 -57 -47q-10 -15 -82 -84.5t-90 -73.5q3 -3 27.5 -0.5t27.5 2.5q46 0 66 2q10 0 22.5 0.5t18 0.5t16 -1t23.5 -4q10 7 51 1t53 -5q31 0 77 3.5t66 4.5q10 0 30.5 2t29.5 2q4 -1 25 -1t30 -3z" />
<glyph unicode="3" horiz-adv-x="1128" d="M1012 588q54 -143 4 -262q-6 -16 -14 -31t-19 -33t-18 -31q-23 -47 -72 -96q-12 -13 -37.5 -32t-34.5 -29q-25 -25 -71 -47q-2 -1 -10 -4.5t-16.5 -7.5t-17.5 -8.5t-14.5 -8.5t-5.5 -6q-1 1 -31 -6t-58.5 -12t-27.5 -1l-12 -6q-7 -1 -20 -1t-19 -1q-2 -1 -11 -0.5t-9 2.5 q-6 -5 -32.5 -3t-35 3t-36 6.5t-34.5 6.5q-5 1 -23 11.5t-26 8.5q-9 11 -25 24.5t-26 16.5q-5 2 -11.5 8.5t-6.5 11.5q-23 7 -49 43q-1 2 -17.5 20t-21.5 30q-24 66 -29 88q-3 18 -17.5 65.5t-15.5 73.5q-1 25 8.5 34.5t34.5 14.5q47 12 49 12q17 0 52 6t47 7q3 0 13.5 0.5 t18.5 0.5t18 -1t16.5 -3.5t8.5 -7.5q10 -17 30 -65t36 -68q21 -30 54 -48t67 -15q32 3 52 14.5t42 36.5q1 2 10.5 14t12.5 17.5t7 16.5t5 22q0 6 1.5 20.5t1.5 22t-1 21.5t-4.5 23.5t-10.5 22t-18 23.5q-11 12 -47 16t-41 6q-6 2 -25 -2q-6 -2 -9 -1.5t-7 -0.5q-8 7 -8 18.5 t4 25.5t4 20q0 14 -1.5 42.5t1.5 41.5q1 4 1 9.5t-0.5 12t-0.5 10.5q-1 3 0 11.5t0 11.5q-1 4 -1.5 12.5t-3 16t-9.5 12.5q2 3 3 7.5t1 7.5t2.5 6.5t7.5 5.5q3 2 11.5 5t11.5 5q46 18 59 30q3 3 20 15t23 20q12 20 27 35q20 26 16.5 62t-23.5 59q-7 10 -33 32t-30 17 q-3 -2 -59 -2q-48 -5 -64 -27q-6 -1 -12.5 -5.5t-13 -10t-7.5 -6.5q-25 -20 -34 -37q-7 -9 -18.5 -30.5t-14.5 -26.5q-5 -10 -22 -35t-23 -41q-4 4 -9.5 5.5t-12.5 2.5t-11 2q0 3 -15 10.5t-32 15.5t-19 9q-14 5 -62 21.5t-48 13.5q-4 5 -8.5 5t-7.5 1t-5 8q-2 9 13.5 31 t17.5 26q28 64 61 109q11 15 35 45t33 43q3 7 14 20.5t17 16.5q2 11 12.5 20.5t22.5 16t14 8.5q8 10 34.5 22t33.5 17q4 2 17 6.5t23.5 9.5t12.5 8q2 4 18.5 6.5t37 4.5t26.5 4q62 16 104 16q109 -4 158 -24q17 -6 57 -34.5t55 -45.5q50 -60 58 -76q9 -12 16.5 -27.5 t10.5 -24t10.5 -31l9.5 -28.5q21 -57 -0.5 -130t-65.5 -115q-8 -8 -24 -26.5t-25 -27.5q-13 -12 -42 -29t-42 -28q-12 -8 -18 -10q0 1 17 0.5t22 -2.5q38 -3 82 -19q30 -14 53.5 -44t34.5 -64z" />
<glyph unicode="4" horiz-adv-x="968" d="M887 766q4 -1 12 -1.5t11.5 -3t2.5 -9.5q-5 -48 -7 -59t-9 -21q-2 -2 2 -19t2 -22q-5 -11 -7 -30t-1 -34.5t0 -31.5q0 -17 -10 -23t-30.5 -6.5t-29.5 -3.5q-6 -2 -24 -1.5t-27 -0.5q-33 0 -35 -2q-19 -19 -12 -103q-6 -8 -4 -62.5t2 -62.5q-3 -36 -4.5 -119t-5.5 -126 q-1 -14 -16 -17.5t-32.5 -1t-31.5 -0.5q-8 -2 -35.5 0.5t-38.5 1.5q-14 -1 -45.5 -8.5t-46.5 -7.5q-18 1 -21 22.5t5 34.5q12 30 8 78q0 33 -2 47q-1 5 1.5 24t-1.5 21q-7 11 0 41q3 16 -2 76q-4 25 -1 46t1.5 46.5t-11.5 44.5q-14 -10 -55.5 -3t-56.5 1q-18 -6 -64.5 -2.5 t-68.5 -1.5q-9 -1 -35 -1t-37 -5h-5.5t-1.5 1q-1 1 -3.5 1h-7.5q-8 -4 -25 -4q-12 1 -33 -2q-6 -1 -9.5 5.5t-3.5 14t1 12.5q11 29 3 104.5t-3 111.5q-1 13 -1 20.5t5 17.5t8.5 15.5t11 16t11.5 16.5q2 4 9 13t12 16.5t5 10.5q-2 14 23 43q3 3 26 42t27 49q9 19 31.5 51 t30.5 49q8 18 27 45.5t26 38.5q28 32 41 65q5 11 22.5 34t22.5 36q2 4 5.5 14t7 17.5t7.5 11.5t7.5 9.5t7.5 9.5q2 5 14.5 4.5t15.5 -0.5q24 4 88.5 0.5t90.5 1.5q28 5 100 10q22 4 24.5 -39t-2.5 -61q-10 -156 -6 -254q1 -21 -1 -68.5t-1 -67.5q1 -9 1 -40.5t1 -40.5 q2 -20 45 -25q13 -1 37.5 3t38.5 3q14 0 29 -6zM522 752q2 12 -3 54t1 54q4 11 0.5 43t-0.5 45q15 74 12 150q-10 10 -16 7.5t-7 -9t-5 -17t-10 -14.5q1 -7 -10.5 -27.5t-12.5 -23.5q-1 -4 -8.5 -16.5t-15.5 -23t-11 -9.5q3 -14 -22 -45q-54 -80 -62 -91q-4 -5 -20 -23 t-23 -30t-20 -28l-21 -21q6 -5 40.5 -5t49.5 5q1 2 22 2t47.5 -1t27.5 -1q8 1 16.5 0.5t17.5 0.5t16 2.5t11.5 7t5.5 14.5z" />
<glyph unicode="5" horiz-adv-x="1085" d="M416 944q-7 -13 -14.5 -48t-10.5 -42q-19 -64 -20 -72q14 -4 46 15t44 16q17 -2 63 16q51 15 72 19q1 0 32.5 0.5t39.5 5.5q4 2 17.5 1.5t19.5 0.5q2 1 25 -2.5t24 0.5q7 3 14 2t21.5 -6.5t15.5 -5.5q60 -22 108.5 -65.5t59.5 -102.5q3 -16 9.5 -41.5t9 -43.5t1.5 -42 q-6 -85 -6 -86q0 -12 -4.5 -43t-9.5 -31q0 -10 -12.5 -50t-16.5 -40q-31 -64 -51 -96q-23 -37 -39 -60t-41.5 -53.5t-55.5 -50t-63 -29.5q-11 -4 -32 -12.5t-33.5 -13t-31.5 -8.5t-36 -3q-19 -6 -42.5 -8t-38 -1.5t-44 3.5t-37.5 4q-15 2 -45.5 1.5t-42.5 2.5 q-9 -2 -53.5 15t-50.5 24q-5 8 -17.5 9.5t-17.5 5.5q0 3 -5 7.5t-11.5 10t-8.5 8.5q-3 3 -6.5 13.5t-3.5 15.5q-1 6 -8.5 12.5t-9.5 9.5q-7 11 -11.5 27t-9 36.5t-6.5 29.5q-2 6 -8 24.5t-9.5 30.5t-3.5 25.5t7 19.5q16 14 40 16.5t55.5 0t47.5 -0.5q9 1 32 6t38.5 4.5 t23.5 -10.5q11 -9 23 -33.5t14 -27.5l2 -2q1 -1 4.5 -3.5t9 -5.5t17.5 -6.5t27 -5.5q47 -5 57 -4q16 4 59 4q40 -2 107 60q2 2 8.5 10t11 14t4.5 9q0 10 10.5 26.5t20.5 24.5q6 5 9 18t4 29t0.5 30t-1.5 27v13q-5 103 -61 133q-26 9 -53 0.5t-41 -19.5q-2 -3 -16.5 -6 t-20.5 -2q-21 3 -59.5 -26.5t-49.5 -32.5q0 -10 -17 -22.5t-26 -10.5q-6 2 -18 10.5t-12 13.5q-10 0 -28 12.5t-28 12.5q-3 0 -6 1q-2 -4 -2 -7t-5.5 -6t-6.5 0q0 1 -31 16q-14 7 -26 16q-3 2 -15 7.5t-20.5 11.5t-12.5 14q-14 -4 -65 47q-5 5 -5.5 10.5t2.5 15.5t3 13 q2 12 7 22.5t7 24.5l8 21q0 25 5 31q4 16 9 53t11 55q3 12 7 36t7 36q-4 39 21 117q9 26 22 98q35 134 39 143q4 8 15 11t12 6q4 11 10.5 13t18 -1t18.5 -2q17 0 47 -3t35 -3t21 2.5t25.5 2.5t21.5 -3q4 -2 16 -2q53 0 55 -4q16 2 33.5 2t38 -1t31.5 -1q17 -3 89 -0.5 t91 2.5q12 0 34.5 2t36.5 2q4 0 28 -1t42 -0.5t29 3.5q9 2 14.5 0t7.5 -10t2 -15t-1 -21t-1 -22q0 -23 -1.5 -36.5t-5 -30.5t-5.5 -35q-5 -36 -14 -72q-1 -3 -5 -6.5t-8.5 -5.5t-8.5 -4l-7 -3.5t-2 -2.5q-2 -2 -6 -2q-4 6 -27.5 3.5t-23.5 2.5q-6 -10 -32.5 -12t-33.5 3 q-5 4 -23 4t-40 -2t-27 -2q-123 14 -248 3q-15 -2 -27 -32t-20.5 -68t-13.5 -46z" />
<glyph unicode="6" horiz-adv-x="985" d="M899 446q4 -25 -0.5 -56t-10.5 -51.5t-18 -56.5t-16 -51q-6 -18 -21.5 -41.5t-19.5 -31.5q-25 -55 -41 -80q-7 -8 -43 -24.5t-45 -30.5q-2 0 -8.5 -4t-15 -9t-11.5 -6q-9 -5 -20 -6t-26 0t-23 0q-11 -1 -40.5 -6t-40 -4.5t-40.5 4.5q-6 0 -27.5 2.5t-40.5 5.5t-18 4 q0 1 -10.5 5.5t-20.5 7.5t-10 1q-10 8 -43.5 23t-44.5 29q-9 0 -27 18.5t-16 22.5q-1 -2 -8.5 7.5t-15 20t-9.5 11.5q-9 9 -18.5 31.5t-10.5 39.5q-14 77 -14 96q-11 128 -10 150q4 96 2 143q-8 134 16 299q18 181 74 287q21 34 61 74q10 12 22.5 21t30.5 19.5t27 16.5 q38 33 121 37q78 6 168 -4q106 -14 156 -160q7 -23 49 -119q-1 -8 -24.5 -19.5t-26.5 -19.5q-19 -3 -48.5 -24t-40.5 -25q-4 -1 -22.5 -8t-26.5 -8q-9 -1 -12 1t-2.5 5t-0.5 7t-5 7q4 8 -2 22t-19 34.5t-14 21.5q-29 46 -84 35q-6 -4 -18 -11t-18.5 -11t-14.5 -12t-14 -17 q-15 -26 -23 -42.5t-14.5 -39.5t-5.5 -45q2 0 2.5 2t-0.5 4q0 1 0.5 -13.5t1 -34t1 -40.5t0 -37t-2.5 -18q0 4 4 4l-1 -18l1 -1q10 10 10 15q9 4 12 18q-1 0 4 2q10 3 11 4q9 14 53 45q50 32 125.5 25t120.5 -41q5 -3 29.5 -16.5t31.5 -20.5q27 -29 53 -106q13 -37 19 -79 t10 -96.5t8 -83.5zM449 258q1 -1 8 -10.5t12 -11.5q31 -27 51 -35q22 -8 52.5 7.5t45.5 33.5q37 46 49.5 126.5t-5.5 137.5q-7 19 -12.5 51.5t-8.5 42.5q-12 43 -45.5 57t-52.5 9q-91 -25 -111 -39q-24 -22 -33 -82q-3 -32 6.5 -85.5t8.5 -58.5q0 -25 8 -71q1 -4 3 -16 t3.5 -16.5t4 -13t6.5 -14.5t10 -12z" />
<glyph unicode="7" horiz-adv-x="1015" d="M944 1360q20 9 25 -43q6 -64 -4 -137q-3 -20 1.5 -61t0.5 -62q-1 -6 -5.5 -36.5t-7.5 -39.5q2 -31 -47 -57q-11 -7 -34 -27.5t-23 -28.5q-4 0 -24 -16t-23 -21q-10 -18 -37 -50.5t-35 -45.5q-35 -41 -65 -106q-15 -23 -33 -72q-6 -18 -25 -49.5t-24 -46.5 q-21 -67 -54 -111q-2 -2 -26 -57q-7 -18 -33 -94q-23 -77 -25 -90q-4 -36 -4 -50q0 -41 -4 -45q-2 -2 -6 2q-4 0 1 -6q4 -5 3 -8q-7 -14 -71 -10q-3 -4 -16 -4.5t-17 2.5q-7 2 -21 1.5t-18 -3.5q-5 2 -37 2q-33 0 -51 2q-4 0 -26.5 -2.5t-40 -2.5t-21.5 5q-9 -1 -12.5 7 t-2.5 22t3 27.5t5 28t3 17.5q3 17 13 57t13 62q4 18 21.5 57.5t19.5 59.5q1 6 23 80q6 15 25.5 50.5t27.5 57.5q33 77 111 170q52 81 129 189q2 3 82 110q1 2 17.5 16.5t18.5 28.5q-30 12 -88 6q-6 0 -45 3t-61.5 3.5t-38.5 -4.5q-3 -1 -8.5 -0.5t-13.5 1.5t-9 1 q-22 3 -69 0h-45q-116 9 -127 0q-9 3 -14 7t-6.5 6.5t-2.5 9t-2 8.5q-5 7 -4.5 56.5t0.5 56.5q0 6 1.5 46.5t-1.5 47.5q-7 40 -6 45q-5 20 -4 25q1 6 8.5 8t7.5 6q7 5 27.5 3.5t52.5 -4t39 -1.5q52 5 135 -2q12 -2 29 -2t39.5 1t35.5 1q45 0 50 -4q3 -5 27 0t28 4 q13 -3 89.5 -3.5t109.5 3.5q24 2 66.5 1t66.5 1q9 2 33.5 2.5t29.5 -4.5z" />
<glyph unicode="8" horiz-adv-x="1044" d="M961 516q3 -27 -1.5 -81.5t-3.5 -74.5q0 -31 -20 -77q-10 -54 -37 -86q-39 -69 -137 -140q-59 -43 -110 -68t-105 -24q-15 1 -60.5 -1.5t-60.5 1.5q-62 15 -64 27q-27 3 -40 22q-31 7 -52 25q-20 6 -48 33.5t-36 33.5q-1 1 -15.5 15t-22 21.5t-15.5 20t-8 21.5 q-12 16 -19.5 51.5t-15.5 49.5q2 9 -1 27t-3 24q-5 19 0 67q2 17 3 49.5t3 49.5q2 18 19.5 84t27.5 92q5 12 52.5 64t60.5 59q-34 31 -68 88q-44 67 -47 139q-7 87 6 148q0 8 6.5 15.5t6.5 10.5q0 6 8.5 18t9.5 15q14 54 53 96q65 70 154 76q16 1 64.5 12t68.5 11 q21 0 44 -3t39 -7t45 -11t44 -10q11 -1 21 -3.5t22 -8.5l19 -9.5t20.5 -13.5t17.5 -13t19.5 -15.5t17.5 -14.5q16 -16 25.5 -37.5t17 -50.5t13.5 -43q16 -31 16 -76q5 -68 -4 -90q-5 -8 -9 -20t-7 -29t-5 -23q-10 -41 -36 -88q-1 -3 -12 -18.5t-17 -28t-2 -16.5 q5 -4 25.5 -12t21.5 -9q12 -7 22.5 -18.5t17 -22t12.5 -24.5t8.5 -22t6 -20.5t3.5 -13.5q4 -12 12 -34.5t12.5 -36t9.5 -33.5t7 -39zM676 281q40 56 31 75q5 4 8 15.5t5 26t3 18.5q5 16 5.5 30.5t-2.5 37t-3 26.5q0 3 -3.5 22.5t-8 38t-6.5 17.5q-1 -1 -10.5 9t-18.5 21.5 t-10 14.5q-5 0 -7 -2q2 17 -77 33q-54 4 -115 4q-20 5 -45 -2q-1 0 -14.5 -4t-21 -6.5t-19 -7.5t-18.5 -12t-9 -15q-2 -11 -13.5 -34t-13.5 -34q-12 -55 -12 -102q0 -46 7.5 -86t24.5 -78t51 -61t81 -25q38 -7 89.5 -1t78.5 33q21 13 43 48zM664 1006q8 49 0 75q2 8 2.5 16 t-2 17t-4.5 15t-8 16t-8.5 14t-10 14.5t-8.5 12.5q-25 4 -54 33q-10 0 -32.5 3.5t-36.5 2.5q-40 -2 -75.5 -16t-49.5 -42q-41 -71 -25 -157q4 -19 6.5 -28t8.5 -22.5t15.5 -20.5t23.5 -11q7 -3 29 -3t32 -3q1 0 8.5 -2.5t12.5 -3.5t8 2q4 3 5 2.5t5 -3.5t8 -4q50 0 64 9 q14 0 25.5 7t23.5 19.5t18 16.5q2 6 10 19t9 22z" />
<glyph unicode="9" horiz-adv-x="884" d="M768 1169q0 -27 10 -93t6 -103q-1 -20 1.5 -55t2.5 -48v-42q0 -41 -6 -58q-8 -30 -4 -98q1 -23 -2.5 -67t-3.5 -62q1 -53 -10.5 -152t-13.5 -139q0 -30 -19 -68q-8 -22 -39 -69q-5 -7 -9.5 -16t-7 -13t-7.5 -10.5t-11.5 -14t-17.5 -18.5q-2 -2 -12.5 -10t-12.5 -10 q-17 -17 -55 -31q-85 -34 -121 -31q-74 6 -137.5 39.5t-95.5 85.5q-16 23 -30 66.5t-19 54.5q-22 38 12 55q71 41 104 47q3 1 11 5.5t15 8t14.5 6.5t13.5 1t8 -8q3 -10 11 -20.5t21 -22.5t17 -17q49 -57 88 -41q41 24 61 92q0 7 11 109q2 18 2.5 63t3.5 70q-3 3 -12 -5.5 t-13 -14.5t-13.5 -8.5t-16.5 -8.5q-6 -6 -29 -20t-31 -17q-51 -21 -135 6q-66 19 -111 70q-39 43 -63 135q-2 13 -8 59t-13 70q-4 23 -4 72q0 9 -5.5 46t-0.5 54q3 52 10 84q1 9 2.5 27t4 31.5t6.5 25.5q30 88 94 152q1 1 12 11.5t22 19.5t26 19.5t30.5 15.5t28.5 3 q4 -1 19 2.5t32.5 8t19.5 4.5q14 4 49.5 0.5t47.5 -2.5q18 -9 75 -22t80 -38q16 -7 29 -19.5t19 -21.5t18 -32q21 -38 31 -48q2 -4 4.5 -7t4.5 -5t3.5 -5.5t1.5 -8.5q6 -16 6 -19zM557 874q18 100 12 181q-3 33 -13 52t-34 40q-18 17 -51.5 25t-46.5 4q-9 -3 -33 -15 q-3 -3 -7 -6t-9 -6.5t-8 -5.5q-6 -5 -12.5 -14t-8.5 -11q-7 -7 -16 -29l-8 -22q-18 -32 -23 -61l-2 -41q0 -129 27 -195q36 -97 125 -94q9 1 21 9t22.5 20t19 23.5t14.5 20.5l6 9q-1 0 3 8.5t8.5 19t5.5 13.5q3 13 4.5 39t3.5 36z" />
<glyph unicode=":" horiz-adv-x="391" d="M309 98q7 -7 4.5 -20t-8.5 -33.5t-6 -24.5l-11 -6q-10 -6 -18 -9t-12 3q-8 -4 -29 -4t-22 8q-1 -1 -2 -3t-2 -3q-22 0 -43 6q-8 -8 -37 6q-23 12 -25.5 40.5t2.5 52.5q0 15 3.5 51t7.5 41q6 8 2.5 28.5t1.5 30.5q-1 2 2 9.5t7 13t7 2.5q2 0 11.5 5.5t17 8t14.5 -3.5 q10 2 28.5 -1t22.5 -3q23 0 47 -6q4 -1 13.5 -4.5t15.5 -3.5q0 -2 9 -15.5t9 -21.5q0 -1 1.5 -11.5t1.5 -19t-3 -10.5q3 -6 3.5 -29t-3.5 -49t-10 -25zM322 889q1 -10 -2 -30.5t-3 -29.5q1 -19 -0.5 -39.5t-6.5 -42.5t-17.5 -36t-30.5 -13q-6 -4 -20 -6t-24 -2.5t-29 0 t-21 0.5q-3 0 -19 2.5t-30 4.5t-15 1q-1 3 -7.5 7.5t-8.5 7.5l-12 18q-1 9 -3 24t-3 27.5t0 24.5q2 18 -0.5 62t0.5 63q6 37 41 37q7 -2 17.5 0t20 1.5t9.5 -5.5q12 7 42 4.5t62 -9.5l31 -6q2 -3 10 -11t10 -17q7 -20 9 -37z" />
<glyph unicode=";" horiz-adv-x="362" d="M272 938q10 -3 14.5 -21t4 -45t-2 -51t-4.5 -50.5t-3 -33.5q-1 -25 -82.5 -30.5t-106.5 6.5q-13 5 -14.5 22t2 42t2.5 36q-1 7 -4 29.5t-4 36t0 36.5q-11 17 0.5 24t40 8t30.5 1q19 -5 64.5 -3.5t62.5 -6.5zM293 129q1 -15 -0.5 -46.5t-1.5 -37.5q0 -120 -49 -162 q-28 -22 -76 -46t-60 -5q-8 12 -7 37.5t12 32.5q6 4 31.5 14.5t35.5 22.5q9 11 12 34q4 20 0.5 26t-24.5 7q-6 0 -19 -0.5t-18.5 0.5t-10.5 7t-5 18q0 4 -4.5 6t-4.5 6q-1 3 0.5 11.5t-0.5 11.5q-2 4 -2 12.5t1 19t1 13.5q0 14 -2.5 50.5t-1.5 55.5q0 16 0.5 22.5t3.5 8.5 t6 1t11.5 -2.5t17.5 -0.5q3 0 14.5 1.5t19 2.5t20.5 2t22 0.5t20.5 -1t19.5 -3t15.5 -6t11.5 -9.5t5 -14q2 -13 3 -28.5t1.5 -33.5t1.5 -28z" />
<glyph unicode="&#x3c;" horiz-adv-x="919" d="M6 823q4 19 -4 41q0 2 4 11.5t0 11.5q-7 9 2.5 16.5t26 13.5t18.5 7q24 12 69 28.5t58 22.5q20 8 74 25t82 30q67 27 90 27q16 4 45 16.5t43 16.5q34 5 92.5 30t85.5 31q9 2 49.5 16.5t77 29t35.5 15.5q3 -1 15.5 1t13.5 1q5 -2 7 -10t2.5 -19.5t0 -22l-1 -21t-0.5 -13.5 q0 -42 -4 -124q0 -5 0.5 -16t0 -13.5t-2.5 -8t-6.5 -8t-12.5 -6.5q-37 -17 -80 -20q-16 -14 -81 -25q-26 -4 -75 -23t-75 -24q-89 -15 -156 -43q-16 -7 -48.5 -13.5t-45.5 -10.5q-21 -6 -31.5 -10.5t-13.5 -6t-7.5 -9t-6.5 -11.5q-5 -8 6 -12.5t30.5 -7t24.5 -5.5 q8 -3 31 -15.5t37 -17.5q14 -4 38.5 -16t28.5 -14q8 -4 21 -10t24 -10.5t21 -8.5q78 -33 137 -66q12 -5 41.5 -18t51 -23.5t38.5 -21.5q11 -7 42 -17.5t40 -15.5q10 -8 27 -12q7 -3 12.5 -0.5t11.5 0.5q7 -6 8 -32t-4 -30q1 2 2 -1q1 -15 -4 -23q1 -13 2 -27.5t1.5 -23.5 t0.5 -19q0 -43 -6 -80q0 -1 -3 -11t-7 -19q-2 -6 -5 -6l-4 -2t-5 -3q-4 -4 -10.5 1t-14.5 13.5t-12 10.5q-14 7 -23 16q-15 14 -28.5 21t-24.5 9t-12 3q-16 8 -47.5 24.5t-46.5 24.5q-28 14 -83.5 42.5t-84.5 41.5q-32 15 -93 50.5t-90 48.5q-4 2 -29.5 17t-29.5 17 q-6 2 -12.5 4t-13 4.5t-15.5 6.5q-27 15 -46 28.5t-26 16.5q-7 4 -21 12.5t-18 9.5q-11 2 -28 12.5t-23 12.5q-4 1 -13.5 3.5t-12.5 4t-8 5t-6.5 9.5t-0.5 15q0 18 -4 51.5t-5.5 52t3.5 47.5z" />
<glyph unicode="=" horiz-adv-x="901" d="M901 610q0 -12 -2 -38t-2 -40q0 -6 1 -19t0.5 -17.5t-5.5 -9.5t-16 -5q-37 -7 -46 -4q-13 2 -16.5 2t-17.5 -3t-15 -3q-47 0 -67 -6q-3 -2 -13.5 -1.5t-13.5 3.5q-3 2 -19.5 -1.5t-19.5 -2.5q-8 3 -54 0.5t-54 -2.5q-14 0 -39 1t-41 1q-26 -4 -127 -10t-195 -7.5 t-108 9.5q-4 4 2 10q0 3 -2.5 12t-1.5 13q2 17 -8 48.5t-11 45.5q0 4 -1 8t-2 6t-0.5 3.5t3.5 2.5l14 1q15 1 23 0t12 -5q6 -1 20 1t21 1q42 0 62 2q24 2 72.5 1t72.5 1q6 0 23.5 1.5t27 2t23.5 0t25 -3.5q12 -5 56 -0.5t56 2.5q29 -4 111 2q19 -2 28.5 -1.5t29 3.5t28.5 4 q7 0 17 1.5t13 1.5q29 7 39 4q4 0 9 1t6 1q10 -5 25 -4.5t18 0.5q3 -1 8 -1t14.5 0.5t16.5 0.5q2 0 7 0.5t7 0.5t4 -3.5t2 -10.5zM14 909q-1 6 -3.5 13.5t-2.5 9.5q0 3 -3.5 7t-2.5 7q8 12 38.5 16.5t47.5 0.5q2 0 13 1.5t20 -3.5q15 -4 24 -3.5t26 3t26 2.5q10 0 34 2.5 t39 1.5q11 -1 49.5 4t47.5 2q10 -5 57 2q9 3 21 3.5t30.5 -0.5t24.5 -1q25 0 75.5 -1t77.5 -1q17 0 50 2t60 2t50 -4q4 -1 20 -2t29.5 -3.5t16.5 -6.5q0 -17 -1 -50t-1 -49q0 -2 0.5 -8.5t0.5 -11.5t-0.5 -12t-2 -10.5t-4 -8t-7.5 -3.5t-12 3q-14 -2 -84 -2q-42 0 -94 -6 q-51 -3 -146 -3.5t-135 -2.5q-90 -4 -135 -4q-16 0 -46 -2t-54.5 -2t-44.5 4q-16 -7 -62 -7q-18 0 -23 5.5t-8 27.5q-6 43 -6 88z" />
<glyph unicode="&#x3e;" horiz-adv-x="919" d="M913 827q5 -29 3.5 -47.5t-5.5 -52t-4 -51.5q1 -13 -6.5 -17.5t-18.5 -7.5t-16 -12q-9 3 -27 -10.5t-24 -14.5l2 4q-5 -2 -18 -12t-23 -14q-8 -3 -26 -11.5t-33.5 -17t-14.5 -10.5q-2 1 -8 -3l-15 -10t-15 -8q-4 -2 -30 -17t-30 -17q-29 -13 -89.5 -48.5t-92.5 -50.5 q-29 -13 -84.5 -42t-83.5 -42q-16 -8 -47 -24.5t-47 -24.5q-1 -1 -18 -7.5t-31 -14t-17 -11.5q-5 -7 -7 -9t-7 -4t-8 -3q-5 -2 -13.5 -9.5t-14.5 -12t-9 -2.5q-1 1 0 4t0 6q-1 0 -5.5 -1t-7 -1t-2.5 2q1 9 -0.5 13.5t-5 8.5t-4.5 8q-6 37 -6 80q0 9 2.5 33t1.5 37 q-1 -2 -1 1q-4 15 -1 24q-5 4 -4 29.5t8 31.5q6 2 12 -0.5t13 0.5q21 5 26 12q45 7 82 33q18 11 38 21.5t52 24.5t41 18q48 27 138 65q13 5 36.5 16t28.5 13q8 3 21.5 10t25 12t21.5 8q14 5 36.5 17t30.5 16q3 1 20.5 8.5t28 14t13.5 12.5q0 1 -12 5.5t-27 11t-21 10.5 q-15 6 -47 12t-47 12q-67 29 -155 43q-26 5 -75 24t-75 23q-67 12 -82 25q-6 0 -21.5 0.5t-24.5 1t-19.5 5t-14.5 13.5q-4 7 -5.5 8.5t-5 0t-5.5 -1.5q-2 1 -3.5 5t-1.5 10v11.5t0.5 11t0.5 7.5q-4 82 -4 125q0 3 -0.5 13.5l-1 21t0 22t2.5 19.5t7 10l25 -3q3 -2 -1 -4 q13 -4 73.5 -27t92.5 -30q27 -6 86 -31t93 -30q14 -4 43 -16.5t45 -16.5q22 0 90 -27q28 -13 81.5 -30t73.5 -25q13 -6 58 -22.5t69 -28.5q2 -1 18.5 -7t26 -13.5t2.5 -16.5q-3 -5 1 -12.5t4 -10.5q0 -7 -3.5 -19t-1.5 -22z" />
<glyph unicode="?" horiz-adv-x="995" d="M575 190q2 -8 2 -14.5t1 -11.5q2 -1 1 -15.5t-1 -15.5q-1 -12 -1 -36.5t-1 -44.5t-5 -38q-4 -5 -9.5 -15.5t-11.5 -15.5t-18 -8q-1 0 -47 -6q-41 -9 -79 2q-4 1 -13.5 2t-17.5 4t-15 9v43q-12 94 -16 139q-1 14 9 21.5t21.5 9t31 1.5t26.5 1q4 1 20.5 5.5t21 4t22.5 -1.5 q12 -4 30.5 -4.5t31 -3t17.5 -11.5zM918 1081q8 -35 8 -112q1 -85 -24.5 -136t-80.5 -79q-9 -4 -26.5 -16t-22.5 -15q-17 -8 -53 -39q-67 -54 -78 -61q-28 -21 -44.5 -59.5t-20.5 -68t-7.5 -83t-5.5 -68.5q-1 -10 -46.5 -11.5t-55.5 1.5h-12.5h-14h-13.5t-14 1t-13 2 t-13.5 3t-11.5 4.5t-10.5 6t-8.5 7.5q-4 6 -5.5 18t-1.5 27.5t-1 20.5q-6 51 0 100q2 28 18 74q21 67 35 76q6 4 19 19t20 20q4 4 13.5 9t13.5 9q6 10 23 21t22 16q40 40 65 55q3 2 15 14.5t16 14.5q3 2 16 15t19 18q4 4 13 12t14 13t11 13.5t9 16.5q2 4 6.5 13.5t6.5 14 t5 14.5t2 14.5t-2 13.5q-18 46 -45 75.5t-58.5 40t-68.5 14t-75 -2.5q-35 -4 -69 -30t-52 -60q-3 -5 -10.5 -16.5t-11.5 -18t-8.5 -16.5t-6.5 -19q-2 -6 -7 -30.5t-9 -31.5q-4 -5 -6.5 -16.5t-5 -25.5t-3.5 -19q-3 -11 -8 -12t-20 2q-7 1 -18.5 -0.5t-16.5 -1.5t-23.5 -1.5 t-32.5 -1.5t-18 3q-11 2 -18 0.5t-29 -5.5t-41 -6q-18 -15 -17 21q0 12 4 35q1 13 1 14q-3 10 -0.5 23t8 27.5t6.5 19.5q4 13 14 76q10 62 42.5 124t82.5 99q4 3 14.5 10t19 13.5t15.5 11.5q4 3 22.5 19t33.5 22q33 13 63 18q21 -6 45 4q3 2 7.5 -1t7.5 -1q13 1 69 10 q7 1 24.5 4t25 3t22.5 -3q11 -4 34 -9t31 -7q52 -12 86 -4q40 -13 80 -47q3 -3 14 -13t15 -14t13 -12.5t13 -14t10.5 -13.5t11 -15t7.5 -14t13 -28.5t14.5 -32.5t11.5 -32t13 -43z" />
<glyph unicode="@" horiz-adv-x="1402" d="M1257 229q5 -14 4 -18t-10 -16q-44 -65 -94 -97q-10 -6 -27.5 -17t-31.5 -18.5t-25 -11.5q-38 -8 -41 -20l-26 -8q-1 -1 -16 -6.5t-19 -10.5q-5 -10 -37.5 -12.5t-40.5 -7.5q-9 2 -33.5 0t-34.5 0q-2 0 -34.5 3.5t-49.5 2.5q-8 3 -61 8q-34 6 -70 6q-125 29 -170 62 q-39 29 -102 92q-33 33 -39 45q-15 25 -23 35q-9 11 -17 37.5t-9 29.5q-5 9 -12.5 30.5t-12.5 29.5q-15 18 -23.5 45.5t-15.5 62.5t-12 51q-41 110 -29 297q6 78 29 166q3 13 15.5 39t15.5 39q2 9 10 28.5t10 28.5l7 9q6 9 13 17t11 9q12 9 24.5 33.5t22.5 32.5q4 4 51.5 39 t48.5 34q-3 5 42.5 27.5t60.5 26.5q82 28 106 32q22 2 56.5 1.5t56.5 0.5q10 1 30.5 1.5t30.5 1.5q8 0 33 -2.5t33 -2.5q104 -3 178 -57q54 -40 76 -80q8 -16 32 -52.5t33 -55.5q20 -39 25 -56q10 -36 25 -104q9 -36 14 -156q2 -16 2 -47q0 -1 1 -6q3 -21 -1 -21q-1 0 -2 1 q9 -18 2 -25q-2 0 -2 2q-1 -10 0 -36t0 -38q-1 -9 0 -28.5t0 -28.5q-1 -10 -6 -27.5t-6 -23.5t-1 -20t-1 -19q-2 -23 -23 -60q-5 -13 -23.5 -31t-23.5 -26q-15 -27 -37 -49q-4 -4 -20.5 -21.5t-23.5 -23.5t-21.5 -14t-30.5 -11q-4 1 -6.5 -2.5t-5.5 -3.5h-35q-1 0 -28 2.5 t-38 9.5q-4 2 -18.5 11.5t-21 14t-17 13t-16.5 17t-9 18.5q-1 2 -6.5 20.5t-9.5 24.5q-1 2 -2 6t-3 11.5t-3.5 11.5t-1.5 2q-17 -19 -62 -49q-58 -34 -121 -45q-11 -1 -40 -0.5t-35 2.5q-3 1 -13.5 4t-16 5t-12 6t-10.5 9q-23 26 -36 50q-12 17 -23 63q-13 43 -10 92 q4 111 10 164q1 12 5 37t5 39q1 10 4.5 21t6.5 18t9.5 20.5t8.5 18.5q8 30 41 63q2 2 12 18t20 26.5t19 10.5q33 43 160 43q37 0 70.5 -20t46.5 -55q2 6 3 24t5.5 29.5t15.5 13.5q44 5 58 2q6 -1 21 1t25 0.5t13 -9.5q4 -14 -1 -37t-5 -24q0 -7 2.5 -25.5t1.5 -28.5 q-4 -14 -6 -29t-3.5 -34.5t-2.5 -30.5q-3 -29 -8 -98.5t-11 -108.5q-2 -20 -1 -57t-1 -57q2 -13 0.5 -22.5t2 -21t13.5 -20.5q28 -21 64 -6.5t47 45.5q36 130 43 178q4 25 5.5 54t1.5 49t-0.5 56t-0.5 52q-3 13 -8 43t-10 47q-3 12 -11.5 37.5t-11.5 38.5q-8 32 -41 100 q-1 1 -0.5 9t-3.5 14q-3 3 -8.5 15t-7.5 16q-7 10 -21 22t-18 17q-5 5 -15.5 10t-23.5 10t-18 8q-8 5 -26 11.5t-24 9.5q-61 12 -67 14q-15 4 -41.5 4h-32.5q-2 0 -14 -1.5t-20.5 -1.5t-8.5 3q-1 -3 -11.5 -6t-23.5 -5.5t-14 -2.5q-19 -8 -31 -8q-3 -2 -7.5 -3.5t-12 -3.5 t-13.5 -4q-12 -2 -25.5 -7t-30 -12.5t-25.5 -10.5q0 10 -43 -20q-11 -8 -13 -11q-53 -23 -92 -113l-43 -112q2 -5 -2 -21t-8 -22q-3 -4 -5 -15t-3.5 -25.5t-1.5 -17.5q-1 -8 -4.5 -41.5t-4.5 -40.5q0 -13 1 -41t1 -43q-2 -71 25 -165q3 -10 8 -39.5t12 -46.5q26 -42 29 -68 q0 -4 8 -18t13 -19q4 -5 16 -27t21 -30q11 -11 34.5 -45.5t46.5 -48.5q7 -5 35 -16.5t35 -16.5q6 -3 41 -9.5t39 -7.5q9 -2 52 -5.5t46 -4.5q57 -5 127 4q11 2 36 3.5t40 4.5q38 15 82 25q48 7 59 14q30 25 58 33q18 4 47.5 33t48.5 31q11 -4 17 -28t7 -26zM793 580 q7 19 8 47t2 32q12 68 8 101q0 3 -0.5 25t-3.5 35.5t-10 21.5q-39 39 -54 43q-22 7 -57.5 5t-44.5 -7q-13 -4 -23.5 -16t-14.5 -20.5t-11.5 -29.5t-9.5 -26q-6 -19 -10.5 -42t-6.5 -38.5t-4.5 -44.5t-3.5 -41q-5 -37 3.5 -84t37.5 -52q33 -11 37 -14q5 1 16 -0.5t13 -1.5 q5 1 16 3t16 3q26 5 65.5 41t31.5 60z" />
<glyph unicode="A" horiz-adv-x="1204" d="M1130 162q13 -60 21 -66q9 -6 19 -29t11 -42t-12 -23q-8 -1 -28 -2t-39.5 0t-18.5 6q-4 -6 -21.5 -2t-23.5 2q-6 -3 -27.5 -4.5t-27.5 0.5q-30 2 -33 45q-1 13 -14.5 42t-15.5 38q-5 13 -10.5 38.5t-8.5 35.5q-5 5 -15 27.5t-20 49t-12 31.5q-16 30 -37 36.5t-45.5 1.5 t-34.5 -1q-8 3 -31.5 4t-31.5 4q-7 3 -44 3t-70.5 -1t-51.5 0q-12 0 -34.5 1.5t-40.5 1.5t-34 -3q-6 -1 -10.5 -2t-7.5 -2t-5.5 -3.5t-4 -3t-3.5 -4.5t-2 -5t-2 -6t-2 -6q-8 -12 -23 -73.5t-17 -64.5q-1 -2 -10 -33t-19 -62.5t-20 -60t-13 -30.5q-12 -6 -26 -7t-24.5 1 t-27.5 6t-26 6q-10 1 -52.5 -5t-46.5 3q-2 2 -15.5 1t-16.5 1q-2 4 2 14.5t10 21t6 11.5q2 6 7 32.5t7 31.5q10 35 33 86q-2 6 1 20.5t8.5 25.5t11.5 7q2 5 -2.5 6.5t0.5 11.5q7 14 10 23q8 24 8 33q1 2 18 39t19 41q8 15 14.5 42t11.5 40q2 2 4 11t4 16t5 7q0 9 6 28.5 t6 29.5q4 0 19.5 38t17.5 48q-3 9 11 48t20 50q6 13 8.5 34.5t7.5 33.5q3 7 7.5 27.5t8.5 31.5q7 38 21 74q3 8 12.5 40.5t18.5 49.5q2 8 6 26t8.5 31t11.5 23q-2 7 13 37q0 1 2 10t4 15.5t6 8.5q0 8 10 33q-3 30 16 68q1 4 6.5 14t6.5 14q2 14 7.5 17.5t15 4t16.5 5.5 q9 -1 28 0.5t25 1.5q10 -2 26 -2h33t66.5 -4t52.5 -14q8 -14 21.5 -44t19.5 -42q0 -1 3 -9t5 -15t0 -7q3 0 5 -2.5t2.5 -6.5t0 -7.5t-1.5 -6.5v-4q0 -2 4 -2q8 -12 17.5 -40t11.5 -40q0 -1 13.5 -40t26.5 -80t13 -46q0 -1 3 -4q18 -32 10 -30q0 -1 4.5 -5.5t8 -8.5t1.5 -5 q1 -4 5 -20.5t7 -24.5t6.5 -28t6.5 -29q14 -14 14 -39q0 -1 16 -43.5t28.5 -83.5t6.5 -43q0 -3 16 -44.5t17 -49.5q2 -15 20.5 -52t20.5 -55q0 -7 4.5 -34t7.5 -31q9 -6 17 -35.5t13 -55.5l5 -26q-2 -1 3.5 -11t12.5 -22t8 -14zM584 557l161 -4q9 -1 13.5 1.5t3.5 8t-3 12 t-6 16t-5 17.5q0 2 -5.5 26t-5.5 25q-6 12 -20 56t-6 41q-11 31 -11 37q-10 8 -22 32q-18 50 -21 66q-13 37 -14 39q1 3 -3.5 4t-4.5 4t-6 27q0 37 -15 67q-6 37 -18 43q-6 -7 -12 -20t-9 -23.5t-7.5 -28t-6.5 -22.5q0 -2 -7 -16t-7 -17q0 -2 -6 -27t-6 -32q-9 -17 -23 -75 t-31 -75q-10 -14 -18.5 -35.5t-5.5 -35.5q-1 -7 -11 -48.5t-8 -54.5q6 -12 28.5 -13t60 2.5t57.5 2.5z" />
<glyph unicode="B" horiz-adv-x="1308" d="M1130 631q9 -13 17.5 -28.5t12.5 -26t10.5 -29.5t9.5 -27q32 -125 10 -254q-14 -93 -31 -119l-24 -36q-2 -4 -12 -10.5t-11 -10.5q1 -1 -1.5 -3.5t-7 -5.5t-8.5 -6t-8.5 -5.5t-5.5 -3.5q-13 -9 -36 -14.5t-31 -8.5q-46 -16 -103 -25q-41 -6 -85 -10.5t-106.5 -9 t-86.5 -6.5q-39 -4 -79.5 -5t-92 -0.5t-82.5 -0.5q-18 -2 -57 -2q-2 0 -14.5 -1t-22 -0.5t-13.5 3.5h-10h-15t-16 0.5t-16.5 2t-12.5 4.5t-7 7q-9 51 -9 209v106q1 33 5.5 158t3.5 193q0 29 -3.5 108t-1.5 123q2 27 -1 74t-3 63q0 17 -1.5 70.5t-0.5 81.5q0 3 -2 27t-4 38 q-1 8 -1.5 32.5t-2.5 37.5q-6 40 0 45q4 5 14 0q10 -7 28 -7t39.5 3.5t29.5 3.5q21 2 75.5 -5t73.5 1q19 6 53 -2q14 -2 37 3.5t37 4.5q16 -1 51 -1t64 -1.5t55 -5.5q20 -4 57 -4q74 -5 78 -6q20 -4 38.5 -11.5t29.5 -9.5q5 0 10.5 -2.5t12 -6.5t8.5 -5q4 -2 7.5 -10.5 t8.5 -10.5q6 -1 13 -10t14 -22t10 -17q15 -27 33 -88q22 -80 20 -137q-15 -71 -31 -109q-6 -19 -17 -36.5t-17 -34.5q-3 -8 -30 -31t-30 -27q-7 -6 -27 -11.5t-28 -12.5q98 -12 129 -27q4 -3 17 -10.5t23.5 -14.5t14.5 -14q8 2 25 -20q5 -7 15 -20.5t15 -20.5zM760 221 q4 0 22.5 1.5t24.5 2.5t21 4.5t22.5 9t17 16t15.5 24.5q12 30 16.5 74.5t-6.5 92.5q-5 13 -12.5 35.5t-12.5 34.5q-7 17 -14 29q-5 6 -13.5 14t-11.5 12q-8 7 -29.5 12t-29.5 11q-58 -6 -76 6h-43q-12 1 -44.5 -4t-41.5 2q-11 7 -60 4t-65 -2q3 -15 0.5 -121t-2.5 -121 q-3 -52 -10 -90q-14 -37 0 -53q2 -8 22.5 -4t28.5 0q16 6 60.5 2t60.5 -2q137 10 160 10zM453 836q0 -22 5.5 -27.5t24.5 2.5q7 4 11 1.5t14 -1.5q14 1 40 4t38 4q29 2 82 15q5 2 29.5 7t31.5 13q3 3 10.5 12.5t10.5 13t8.5 11.5t8 14t5.5 14t3.5 16.5t0.5 18.5q0 5 1 34 t-5 34q-18 40 -53 61q-11 2 -37.5 9.5t-42.5 7.5q-11 0 -36 -1t-36 -1q-18 0 -28 2q-4 -1 -14 2.5t-15 3.5q-15 1 -57 -2q-1 -10 -0.5 -37.5t-1.5 -38.5q7 -80 2 -123q-1 -13 0 -36t0 -33z" />
<glyph unicode="C" horiz-adv-x="1173" d="M1061 256q17 -6 20.5 -20t-5 -30.5t-17 -29t-17.5 -22.5q-11 -11 -52 -57t-68 -64q-158 -90 -342 -62q-210 30 -299 129q-1 2 -11 7.5t-14 9.5q-5 13 -20 31t-21 30q-8 16 -23 41t-26.5 46.5t-18.5 43.5q-4 12 -14 40t-15.5 49t-8.5 44q-2 18 -6.5 71t-8.5 79 q-4 59 -2 87t9.5 86t9.5 87q3 23 10 49t20 63.5t17 49.5q5 16 17 46t13 34q11 26 39 65q11 13 51.5 80t73.5 84q27 23 68 42.5t74 23.5q10 0 31.5 4t33.5 4q15 -1 42 -7.5t42 -7.5q6 -1 21 -5.5t27.5 -7t21.5 -1.5q27 0 45 -14q9 1 23 -8.5t20 -10.5q14 -3 37 -19.5 t30 -25.5q7 -7 12.5 -17.5t15 -18t34.5 -17.5q11 -3 26 -25q3 -3 11.5 -22.5t11.5 -22.5q1 -4 16.5 -29.5t14.5 -39.5q0 -6 6.5 -21t7.5 -22q2 -8 1.5 -22.5t0.5 -20.5q1 -4 5.5 -22.5t5 -26.5t-4.5 -17q-4 -7 -14.5 -17t-13.5 -14q-12 -14 -39.5 -24.5t-38.5 -22.5 q-12 -14 -49 -28q-1 2 -5 6.5t-7.5 8.5t-2.5 5q-4 3 -9 14.5t-5 16.5q-21 48 -39 61l-33 64q-41 35 -43 39q-4 12 -16 17.5t-29.5 8t-23.5 4.5q-32 9 -74 4t-74 -20q-14 -9 -53 -43q-5 -4 -9 -8t-9.5 -11.5t-10.5 -13.5q0 -6 -10.5 -25.5t-11.5 -23.5q-1 -1 -29 -72 q-3 -16 -12 -54t-13.5 -67t-3.5 -53q0 -28 12 -80.5t13 -76.5q0 -20 8 -42.5t20 -49t17 -41.5q5 -18 29 -74q8 -18 24 -31q11 -26 29 -41q19 -12 31 -29q13 -3 30 -16q11 -4 23.5 -6t27.5 -3.5t23 -2.5q32 -3 68.5 6.5t62.5 28.5q7 5 29.5 18t37.5 24t23 21q5 6 18.5 17.5 t18.5 19.5q10 13 20 15.5t17.5 0t24.5 -11.5q22 -11 55 -45t45 -43z" />
<glyph unicode="D" horiz-adv-x="1208" d="M1133 893q6 -28 6 -119l-2 2v-39q0 -64 -7 -65q6 -7 1 -44t-12 -80l-7 -42q-6 -7 -10 -17t-6.5 -21.5t-3.5 -14.5q-11 -28 -23 -50q-15 -29 -16 -41q-1 -1 -12.5 -19.5t-22.5 -36t-14 -17.5q3 -3 -14.5 -23.5t-36 -40t-19.5 -18.5q-10 -11 -14 -21l-5 4l-14 -14 q-7 -6 -10 -2q-16 -10 -21 -10q0 -6 2 -6l-12 -8q-12 -8 -12 -11q-2 1 -33.5 -18.5t-62 -37t-31.5 -13.5l-38 -17q-19 -6 -19 0q0 -8 -37 -20q-2 -1 -27 -5.5t-48.5 -8.5t-23.5 -5q-14 3 -42 -5.5t-35 -8.5q-9 0 -37 -4.5t-33 -5.5q-21 0 -21 4q-12 -1 -98 -10 q-3 0 -14.5 -1.5t-19 -2t-13.5 1.5q-4 2 -10 -0.5t-10 0.5q-6 8 -3 38.5t7 36.5q5 7 6 19t0 21t-4 25.5t-4 22.5q-1 1 -0.5 36t0.5 36q0 34 2 57q0 103 2 107q3 7 3 23t-5 22q2 0 2 45q12 79 0 133q0 108 4 115q3 6 1 65.5t-5 71.5q1 4 1 80t1 80q5 30 5.5 52t-1.5 35l-2 13 l-7 63q-8 63 -13 123.5t-1 63.5q1 1 7 9t11 11t11 0q6 -2 44 -5.5t40 -4.5q8 1 25 0.5t33.5 -3t15.5 -7.5q2 1 24 -0.5t45 -3.5t25 -2t12 0.5l20 1t21 0.5t18 -1.5t7 -4.5q19 2 61.5 -6t54.5 -9q2 -8 45 -13.5t44 -14.5q4 4 17 1.5t19 -9.5l-2 -3q-2 -3 -4 -4q17 8 41 -8 q8 -6 25.5 -14.5t25.5 -13.5q10 -6 38.5 -32t33.5 -30q4 -3 31.5 -22t47 -35.5t23.5 -26.5q5 -15 19 -44t23 -48t6 -18q9 -8 12.5 -30t7.5 -26q6 -7 10.5 -18.5t7 -23.5t3.5 -15zM864 457q10 15 19.5 35t15 33t15 38.5t12.5 34.5q8 10 6 48t0 50q2 9 -5 33t-7 29 q0 36 -17 82q-5 17 -26 65q-1 6 -9.5 20.5t-9.5 16.5q-13 40 -29 47l7 2q-4 0 -10.5 11t-6.5 16q-3 0 -20 22.5t-21 24.5t-23.5 16.5t-23.5 16.5q-27 18 -39 22q0 -4 -2 -4q0 6 -43 17l-8 8q0 -4 -2 -4v4q-21 9 -101.5 20t-84.5 4q-2 -3 -3 -19q-2 -16 -4 -16q0 -3 -0.5 -10 t-0.5 -13.5t1 -12.5q6 -11 2 -25q-2 -5 2 -36.5t-2 -33.5l-1 1q-1 1 -1 -1v-2q2 -5 2.5 -18t0 -26t-1.5 -25t-1 -13q-2 -9 -2 -31t-2 -30v-76q1 -6 -0.5 -33t-2.5 -46.5t1 -24.5q1 -7 -3.5 -32.5t-4.5 -31.5q7 -28 0.5 -150t-4.5 -126q-2 0 -3 -9.5t-1 -24t0.5 -28.5 t1 -26.5t0.5 -14.5q0 -5 0.5 -12.5t0.5 -9t2 -6t6.5 -3t12.5 0.5q5 0 15 -1.5t17.5 -1.5t13.5 3q2 -3 9 -1.5t17.5 5.5t11.5 4q0 4 20.5 12t27.5 8q9 -2 32.5 12t30.5 15q14 3 70 59q10 6 24 13l22 11t18.5 12t19.5 18q-1 5 6 15t14 15q2 8 17 16.5t18 12.5q4 5 7.5 15 t6.5 14z" />
<glyph unicode="E" horiz-adv-x="1144" d="M1020 1380q12 -3 12 -45.5t-4 -74.5q0 -3 0.5 -19t0.5 -30.5t-0.5 -31t-2.5 -27t-6 -11.5q-1 0 -74 1.5t-88 -3.5q-12 -6 -101.5 -2.5t-101.5 0.5q-6 -2 -99 -0.5t-99 0.5q-5 -1 -14 -2t-14 -2t-9 -4t-4 -9v-26q-3 -8 1 -23t3 -22q-1 -15 -4 -46t-3 -44.5t3 -45.5 q2 -15 -1.5 -38.5t-0.5 -38.5q1 -8 1.5 -19t1 -13.5t4 -7t9.5 -6t19 -4.5q87 -11 145 -6q3 3 41 1.5t41 -1.5q42 0 88 6q92 11 151 9q64 0 62 -19q0 -15 -1 -46t-1 -44q0 -11 -2.5 -40.5t-1.5 -43.5q0 -16 -28 -23.5t-54 -7.5q-10 0 -27 2t-30.5 2t-26.5 -4q-21 -6 -43 -6 q-2 1 -29 -0.5t-48 -2.5t-26 3q0 -2 -2 -3t-5.5 -1h-8.5t-10.5 0.5t-10 0.5t-8.5 0.5t-6 0.5q-10 1 -22 0t-27 -3t-24 -3q-11 0 -35 3t-39 1q-4 -1 -10.5 0t-13 -1t-7.5 -7q-2 -2 -2 -4q0 -1 -1 -3t-1 -3v-6q6 -9 6 -27q2 -12 -0.5 -37t-1.5 -35t-0.5 -27t-1 -30.5 t5.5 -24.5q1 -8 -3.5 -40t-4 -55.5t11.5 -24.5q25 -4 65 -2t66 -1q68 -9 107 -4q17 4 51.5 -2.5t54.5 -1.5q19 7 86 4.5t86 -0.5q29 6 38 0t14 -32v-17q1 -17 2 -40t1.5 -50.5t1 -49t-0.5 -34.5q0 -7 -1.5 -13.5t-6.5 -13t-15 0.5l-30 5l-3 1q-4 -6 -66.5 -5t-68.5 1 q-31 -3 -141 16q-29 1 -43.5 0.5t-43 -3t-40.5 -3.5q-8 -1 -55.5 8t-57.5 8t-32.5 -2t-32.5 -2q-6 -2 -25.5 -0.5t-25.5 0.5q-9 -2 -39 -3t-56 -1.5t-28 -1.5q-1 0 -5.5 -1t-8 -1t-5.5 2l-8 10q-4 6 -4.5 21.5t1 34t1.5 20.5q-5 29 2 131q4 0 4 29.5t-4 34.5q-6 6 -8.5 13.5 t-1.5 13.5t2.5 12.5t1.5 7.5q2 13 5 31.5t5 31.5t2 12q5 3 -2 50q-6 5 -2.5 37.5t6.5 41.5q0 -2 -4 -2q-3 37 -1.5 59t8 63.5t7.5 60.5q3 0 3 -4q2 3 -2 22t-3 21q2 86 2 92q-2 -3 -2 10q-1 7 0 30q1 48 -2 50t-3.5 15t0.5 32.5t1 21.5q-3 14 -4 43.5t-1 53t1 24.5 q-3 41 -8 84q-5 66 -8 84q-2 6 -2 37q-1 5 3.5 18.5t4.5 14.5q0 -3 18 -4.5t46.5 -2t54 -0.5t50.5 0.5t26 0.5q5 0 63.5 3t101.5 4t66 -1q9 -1 29 1.5t26 2.5q9 0 26.5 -1.5t30 -1t23.5 4.5q30 6 148 6q7 0 37 -2t36 -2q10 1 32.5 7t35.5 5z" />
<glyph unicode="F" horiz-adv-x="1036" d="M973 1348q2 -6 4.5 -36t-0.5 -36q-3 -5 -2.5 -20.5t-1.5 -22.5q-2 -10 -2.5 -32t-3.5 -36q-1 -3 -2 -9t-2 -9t-3 -7t-5.5 -5t-8.5 0q-12 2 -30 -3t-27 -4q-20 2 -62.5 4.5t-62.5 4.5q-16 0 -59.5 -1.5t-67.5 -0.5q-9 -1 -40 -4.5t-48 -2.5q-87 6 -103 -10q-6 -6 -8.5 -17 t-2.5 -19.5t0.5 -22.5t0.5 -17v-16q1 -15 -8 -61q-5 -62 -4 -72q3 -8 -2 -25.5t-4 -33.5q0 -1 -0.5 -4.5t-0.5 -5.5t1.5 -4t5.5 -3q20 -4 33 -4q53 -4 94 2q11 2 33.5 -4t36.5 -2q8 7 45 3t45 -3q24 6 50.5 6t59 -3t51.5 -3q23 0 41 -6q4 -4 -2 -15q-5 -6 -1 -37.5t3 -35.5 v-38t-3.5 -61.5t-12.5 -29.5q-5 -1 -13 0t-16 0.5t-10 -4.5q-6 -6 -25.5 -8.5t-31.5 -0.5q-48 6 -94 9q-39 2 -163 2t-124 -6q0 -23 -4 -93q0 -30 -2 -36q-6 -3 -5 -84t1 -93q0 -9 2.5 -45.5t2 -45t-2.5 -44.5q0 -59 -4 -74q-1 -4 -3.5 -30.5t-7.5 -34.5q-3 -1 -23 2t-24 -2 q-2 -4 -43.5 -0.5t-46.5 2.5q-15 0 -39 -4q-27 -6 -45 -6q-4 0 -6 2t-2.5 3.5t0.5 4.5v4q-3 44 0.5 146.5t-2.5 144.5q-2 48 2 143q0 103 2 146q4 123 8 186q3 31 0 94.5t0 91.5v7v4q-2 3 0 12q10 23 10 70q1 11 -2 35t-4.5 38.5t2.5 24.5q1 1 1 6.5t1 7.5q-1 3 0 7.5t0 7.5 q0 6 4 22q5 16 1.5 54t-1.5 53q0 1 1.5 12.5t4.5 18.5t7 7q36 0 45 7q29 -2 127 1.5t123 -1.5q6 -3 41 -1.5t36 1.5q5 0 16 -2.5t19 -1.5q40 4 68 4q27 2 93.5 -1.5t92.5 1.5q9 0 27 2t28.5 2.5t25.5 -1t28 -5.5z" />
<glyph unicode="G" horiz-adv-x="1290" d="M1114 678q8 -1 14 -5t9 -7.5t4.5 -12t2 -12t0 -14t-0.5 -13.5q1 -31 6.5 -150.5t3.5 -180.5q1 -27 -3 -79t-3 -77q-1 -4 0.5 -38.5t1.5 -65.5t-4 -33q-2 -1 -2 -20.5t-1 -41.5t-5 -28q-11 -7 -45 2q-25 0 -35 -2q-11 0 -35 2t-37 2q-25 4 -65 4q-8 -1 -12 7t-4.5 20 t1.5 24q7 10 1.5 67t-5.5 68q-9 0 -37 -28q-52 -41 -57 -43q-15 -4 -38 -14.5t-36 -14.5q-13 -2 -50 -7t-60 -10q-12 -2 -35 3.5t-37 3.5q-45 31 -78 26q-8 0 -16.5 1.5t-15.5 3.5t-16 6t-14.5 6t-15 7.5t-13.5 8t-14 9.5t-12.5 8.5t-12.5 9t-11 8.5q-55 34 -94.5 93 t-57.5 126q-5 20 -22.5 83t-25.5 106.5t-5 82.5q-1 18 -9 60.5t-7 66.5q0 7 -3.5 51t-3 74.5t6.5 55.5q4 18 15 65t17 69.5t20 59t32 66.5q40 65 97 111t125.5 70t132.5 35.5t140 14.5q42 1 78.5 1t79 -8t78.5 -24q66 -24 88 -67q5 -9 19 -19.5t20 -17.5q3 -10 12 -22.5 t12 -18.5q6 -15 32.5 -40.5t31.5 -45.5q5 -14 -5.5 -28t-31.5 -29.5t-27 -22.5q-13 -27 -40 -51t-36 2q-10 17 -23.5 32.5t-29.5 32.5t-22 23q-24 22 -57.5 38.5t-63.5 16.5q-86 19 -119 10q-8 -1 -31.5 -2t-41 -4.5t-31.5 -11.5q-10 -6 -25 -17.5t-28 -18.5t-27 -9 q-15 -2 -42.5 -26.5t-27.5 -41.5q0 -5 -4 -16.5t-8 -11.5q-5 0 -13 -10.5t-10 -16.5q-20 -51 -32.5 -132.5t-12.5 -115.5q0 -36 6 -51q11 -44 11 -51q0 -9 4.5 -18.5t5.5 -12.5q0 -3 3 -36t3 -38q0 -6 12.5 -47.5t16.5 -48.5q11 -22 32 -58t23 -40q9 -12 35.5 -28t38.5 -29 q19 -22 45 -23.5t57 6.5q74 -4 115 15q19 4 46 29t32 28q5 11 23 38t24 31q18 41 20 60q4 1 25 43q-4 4 -13 6t-15 2.5t-18 0t-14 -0.5q-34 -13 -45 -10q-20 -7 -37 -4q-14 5 -76.5 0.5t-78.5 -4.5q-6 0 -14.5 -1.5t-13 -2t-10 1t-5.5 7v15.5q1 12 -0.5 43.5t-1.5 36.5 q1 13 4 47.5t4 50.5q2 14 9.5 17.5t15 1.5t14.5 4q3 3 13.5 4t19.5 1t21 -0.5t13 -0.5q31 10 93 -2q24 4 72 -0.5t71 -1.5q25 4 64 7t65 7q25 0 35 -2q5 0 8 -5t4 -5z" />
<glyph unicode="H" horiz-adv-x="1372" d="M1184 106q0 -90 6 -86q-1 -2 -2 -10t-4 -10t-10 -2q-3 0 -8.5 0.5t-8.5 0.5t-7 -1t-7 -4q-9 -7 -31.5 -5.5t-32.5 -0.5q-10 -4 -18.5 -5t-22 0t-18.5 1h-47q-17 -4 -23.5 -1t-5.5 21q0 37 -2 57q-4 16 -4 49v40q-5 33 -7 98t-3 80q0 15 -2 48t-3 53.5t0.5 48.5t6.5 50 q-3 3 -27 5t-29 -1q-5 -2 -19 0.5t-17 2.5q-7 0 -47 -5q-25 -2 -95.5 3.5t-101.5 1.5q-24 -6 -45 -9q-9 -1 -53.5 0t-53.5 0q-16 -2 -18.5 -22.5t1.5 -51.5t1 -44q-2 -9 -2 -19t1 -22.5t1 -20.5q0 -9 1.5 -36t0.5 -38q-3 -22 -4 -47.5t-1 -57t-1 -48.5q-8 -73 -4 -105 q1 -8 -4.5 -12.5t-15.5 -5.5t-18.5 -0.5t-17.5 1.5l-8 1q-60 -5 -69 -4l-60 6q-7 2 -13.5 1.5t-13 -0.5t-8.5 3q-16 11 -6 66q0 2 -2.5 9.5t-1.5 12.5q-2 13 -3 28.5t-1.5 33.5t-1.5 28q-5 102 -4 127q-1 5 0 32.5t1.5 57.5t-1.5 60v30q0 9 -1 25t-1 18l2 19q1 10 0.5 30 t0 54.5t3.5 54.5q10 113 10 211q0 13 6 74.5t10 117t1 64.5v164q-3 15 0 31q1 9 4 11t10 -0.5t10 -2.5q13 1 41.5 -2t44.5 -2q29 0 37 -4q23 7 43 4q5 -2 17.5 -5t17.5 -5t7.5 -6.5t3.5 -11.5t1.5 -11.5t0 -12.5t-0.5 -10q0 -11 -3 -101t1 -101q10 -94 4 -179 q-1 -10 0 -25.5t-0.5 -32.5t-5.5 -21q-4 -6 -4 -76q21 -6 49 -2q6 1 12 0.5t13 -1.5t8 -1q4 0 23 1.5t28 0.5q11 -4 24.5 -5t30 -0.5t25.5 -0.5q10 -1 34 0.5t32 -0.5q15 -3 41.5 -4.5t40.5 -4.5q42 -5 94 -2q5 0 14 1t14 1q8 1 11 4.5t4.5 12.5t3.5 14q4 12 2.5 51t-0.5 49 q0 16 2 44.5t2 44.5q0 38 10 61q0 3 -6 28t-4 37q1 9 -0.5 27.5t-1.5 34t6 22.5q-2 12 1 39t3 33q4 52 8 82q0 3 0.5 8.5t1 8.5t2 6.5t5 5t8.5 0.5t16.5 -1t25 0.5t15.5 0.5q14 3 29.5 3.5t36.5 -0.5t28 -1q6 0 17.5 0.5t21 0.5t17.5 -1h6q8 0 11 -0.5t5 -4t2 -12.5v-47 q-1 -21 -1.5 -90.5t-2.5 -107.5q0 -6 1 -42.5t1.5 -60t-0.5 -30.5q0 -2 6 -173q4 -96 -8.5 -281t-9.5 -276q2 -10 1 -67t-5 -58z" />
<glyph unicode="I" horiz-adv-x="651" d="M453 1335q15 -6 17.5 -17.5t-2.5 -29t-5 -24.5q-1 -39 -1.5 -111.5t-1.5 -132.5t-3 -113q0 -68 -4 -174q0 -10 -3.5 -37.5t-3.5 -36.5q-1 -9 1.5 -42t-1.5 -42q-4 -10 -1.5 -38.5t1.5 -38.5q-4 -50 -2 -80q2 -31 -2.5 -92.5t-3.5 -89.5q4 -94 4 -144q6 -94 -30 -96 q-43 -10 -62 -4q-7 5 -28.5 0.5t-30.5 -2.5q-11 3 -42 5t-46 9q-2 32 -9 108t-10.5 133t-1.5 109q4 114 4 176q0 31 4 93q1 14 -0.5 47t0.5 49q4 16 3 87t0 87q0 29 3 90t3 90q-1 25 3.5 76t4.5 72v88q0 31 -2 47l18 8q2 4 9.5 5.5t17.5 0.5t19 -2.5t19 -3.5t13 -2 q40 -13 86 -10q33 3 66 -17z" />
<glyph unicode="J" horiz-adv-x="772" d="M678 1337q0 -3 0.5 -17t1 -26.5t0 -26t-2.5 -22t-5 -8.5q4 -14 4.5 -29t-1 -33.5t-1.5 -27.5q0 -52 -6 -72q4 -2 1.5 -18t-1.5 -21q2 -28 2.5 -30t-2 -32.5t-2.5 -31.5q0 -4 1.5 -20.5t1 -29t-4.5 -18.5q0 -7 -3 -29.5t-2 -33.5q1 -22 -1.5 -76t-0.5 -84v-82 q1 -15 -5 -49t-3 -53q-2 1 -6.5 -23t-8 -49t-3.5 -28q0 -28 -13 -82q-10 -56 -28 -80q-3 -4 -22 -37t-35.5 -57t-20.5 -19q3 -4 -8.5 -10.5t-28.5 -14t-22 -12.5q-1 -4 -6 -7.5t-10 -5.5t-5 -1l-9 -5q-9 -5 -17.5 -9.5t-20.5 -9.5t-17 -5.5t-8 2.5l-55 -12q1 1 -11 -3.5 t-23.5 -7.5t-12.5 1q-29 -4 -37 0q-10 3 -37 1.5t-37 -3.5q-5 -2 -17.5 0.5t-27 7t-16.5 4.5q-4 1 -14.5 3.5t-17.5 4.5t-11 6t-7 22l-3 9q-4 5 -4.5 14t1 20t1.5 13q0 15 -2.5 36t-3.5 32q1 0 0.5 7t-1 14.5t0.5 13.5q1 11 9.5 14.5t26.5 2.5t23 -1q15 3 61 6t68 10 q1 0 20.5 4.5t35 9t32 12t21.5 15.5q3 5 21.5 30t23.5 38q40 106 28 141q11 47 13.5 132.5t7.5 121.5v13q1 12 1.5 26.5t0.5 30t-1.5 26.5t-4.5 13q-2 1 1.5 28t7.5 57.5t3 37.5v65t-4 80q1 0 3.5 45.5t2.5 52.5q1 26 -7.5 52.5t-10.5 50.5l4 18q-2 1 -2 7.5v13t-2 6.5 q-6 22 8 22q5 -1 9 0.5t6 2.5t5 0t6 -5q6 8 45.5 8.5t47.5 -2.5q14 -2 77 2q52 8 62 -2q5 -5 6 -12t-0.5 -18t-1.5 -15z" />
<glyph unicode="K" horiz-adv-x="1089" d="M1040 70q24 -34 25 -53q1 -10 -2 -23q-1 -8 -5 -11.5t-10.5 -3.5t-12.5 1.5t-14.5 4t-12.5 3.5t-13.5 -1.5t-14 -4t-5.5 1.5q-8 -4 -27 -3t-38.5 4t-18.5 5q-5 -4 -31 -0.5t-29 6.5q-1 1 -3.5 15.5t-4.5 17.5q-3 4 -8 16.5t-10 27t-6 17.5q-28 84 -27 92q-4 0 -16 47 q-2 5 -6 25t-5 22q-2 5 -6 18t-7 21.5t-7 12.5q-3 3 -6.5 16t-3.5 18q-1 4 -7.5 18.5t-11 29t-4.5 24.5q0 2 -4.5 14t-5.5 13q1 8 -2.5 20.5t-9.5 28.5t-8 22q-13 33 -21 64q-1 8 -10 25.5t-10 21.5q-3 10 -11 27q-4 10 -6.5 12.5t-3.5 0t-4.5 -6t-9.5 -4.5q-7 -1 -11 -5.5 t-8.5 -14t-9.5 -15.5l-20 -25q-2 -2 -9.5 -11.5t-15.5 -12.5q-7 -3 -11.5 -12.5t-6.5 -12.5q-23 -34 -27 -37q-3 -2 -7.5 -6.5t-13.5 -7.5q0 -1 -4 -7.5t-12 -8.5q-5 -1 -8 -9.5t-5.5 -19t-4.5 -14.5q-2 -10 -2 -33q-2 -14 0.5 -54.5t-2.5 -52.5q-3 -14 -5 -54t-6 -56 q-2 -6 5.5 -34.5t3.5 -33.5t-4.5 -11t0.5 -16t1 -14q0 -10 -2 -11q-1 -1 -2 -3q1 0 2.5 -17t2 -34t-0.5 -25q-5 -15 -18.5 -17.5t-30.5 1.5q-49 5 -80 2q-8 -1 -10.5 -0.5t-8.5 2t-13 2.5q-5 1 -10.5 1t-9.5 0.5t-9 2.5q-5 -2 -29 -2q-10 0 -13.5 2.5t-6.5 11.5q-4 12 -4 17 q0 13 5 43t3 45q-3 22 -2 40.5t3.5 41t2.5 26.5q-5 116 0 176q1 5 -0.5 41t-1.5 66.5t4 30.5q0 3 -2 23.5t-2.5 31t1 26.5t5.5 25q3 14 -1.5 51t-4.5 45q1 16 1 45t1 43q0 5 1.5 23.5t3 35t1.5 17.5q-3 10 -3.5 22.5t0.5 29t1 22.5q0 25 4 61q1 10 -0.5 39.5t-1.5 38.5v78 q0 6 -2 30.5t-1.5 43t5.5 26.5q-10 57 35 60q7 2 22 1t21 -1q20 -3 33 2q5 2 21 -2t24 -2t28.5 -1t28.5 -1q13 1 19 -4.5t7 -12t1 -22.5q0 -49 -4 -49q5 -7 5 -41t-2 -64.5t-3 -30.5l1 -12q1 -12 1.5 -25t-0.5 -34q1 -7 -1.5 -16t-2.5 -13q0 -3 -1 -12.5t-1 -18t2 -12.5 q2 -5 2 -41q0 -2 -2.5 -33t0.5 -37q5 -21 2 -47q-2 -8 0 -16q1 -5 -0.5 -17t0 -20t8.5 -12q6 -2 12 9l6 11q3 6 15 21t16 24q4 8 19 33q14 20 38 66q17 17 45 59q3 5 5.5 17t9.5 16q5 3 21.5 24.5t15.5 24.5q7 20 32 45q25 32 35 51q3 5 6.5 14.5t6.5 14.5q8 17 28 43 q1 2 13 21t16 26t14.5 22.5t14.5 22.5q2 3 4.5 6.5t3.5 7.5q7 17 18 13q14 -9 43.5 -6t40.5 0q8 -1 24.5 1.5t26.5 -1.5q1 0 6 2t11 2q5 0 18 -1.5t21 -0.5q14 4 24 2.5t6 -19.5q-7 -24 -34 -65q-17 -23 -17 -33q-5 0 -14 -19q-18 -22 -43 -59q-6 -10 -21.5 -29.5 t-21.5 -31.5q-33 -44 -49 -60q0 -9 -19 -28q-6 -4 -12 -19t-12 -20l-11 -17q-10 -16 -17.5 -32.5t-2.5 -18.5q7 -2 35 -86q2 -9 16.5 -53t18.5 -49q6 -12 6 -31t18 -82q1 -3 5.5 -5.5t6.5 -10.5q0 -2 3.5 -11.5t3.5 -11.5q1 -3 2.5 -12t3 -16t2.5 -9q4 -4 10 -22.5t2 -22.5 q3 -2 5.5 -8t3 -10.5t-0.5 -5.5q35 -140 39 -140q5 -5 14.5 -29.5t16.5 -47.5t4 -23l2 -5q18 -46 18 -56q2 -6 18.5 -41t20.5 -41z" />
<glyph unicode="L" horiz-adv-x="995" d="M950 227q19 -3 21.5 -7t-0.5 -23q0 -17 -3 -46t-3 -42q0 -32 -8.5 -72t-26.5 -41q-108 -5 -139 -2q-21 3 -67.5 2.5t-70.5 3.5q-7 2 -62 2h-105.5t-49.5 2q-4 -7 -48.5 -10.5t-53.5 0.5q-7 4 -35 0q-34 -2 -88 8q-5 -1 -9.5 0.5t-7.5 5t-5 7.5t-3.5 10.5t-2.5 11.5t-1 12 v11v10.5v7.5q-1 33 -0.5 61t-1.5 63t-8 62q-3 5 -4 8.5t-1 5t0.5 6t0.5 9.5q-1 11 1 30.5t1 32.5q-7 97 0 191q11 118 11.5 181t-4.5 151.5t-5 193.5q1 24 -1 76t-1 78q1 18 0.5 64.5t1.5 64.5q2 24 9 32t30 5q40 -4 63 -11q3 -5 41.5 -4.5t44.5 0.5q2 0 9 0.5t9 0t6 -2 t5.5 -5.5t1.5 -11v-53q0 -11 6 -34t6 -34q0 -100 5 -166q2 -34 1.5 -92t0.5 -92q0 -16 1 -44.5t1 -51t-2 -41.5q0 -1 -13 -82q-1 -12 0.5 -43t-0.5 -45q-1 -39 -0.5 -59t3 -61.5t3.5 -60.5q0 -17 7 -139q1 -9 3.5 -11.5t11.5 -0.5t13 2q7 -1 19.5 -4t19.5 -4 q15 -2 39.5 -1.5t36.5 -0.5q12 -2 33.5 3.5t31.5 2.5q36 -9 46 -4q12 -5 37.5 2.5t35.5 1.5q46 6 103 -2q1 -1 18.5 -3t33 -5t15.5 -7q2 6 22 1t21 -5z" />
<glyph unicode="M" horiz-adv-x="1697" d="M1536 1335q3 -3 3 -13.5t-3 -10.5q4 -10 3 -22t-5 -31.5t-4 -24.5q-1 -13 2 -37t2 -35q0 -3 -3 -17t-6.5 -26.5t-4.5 -11.5q2 -5 -0.5 -28.5t0.5 -30.5q5 -13 -13 -62q-2 -11 -1 -30t3 -44t2 -26q-2 -14 -2 -68q0 -11 1.5 -38t0.5 -40q-2 -20 0.5 -64.5t-0.5 -62.5 q-2 -19 -3.5 -67.5t-4.5 -73.5q-6 -25 0 -84t4 -82q-8 -82 -8 -141q0 -6 2.5 -53.5t-0.5 -53.5q0 -6 -2.5 -18t-1.5 -19q4 -16 0 -20t-20 -6q-12 -1 -39 5.5t-37 6.5q-17 -5 -94 -10q-13 -2 -28.5 0.5t-16.5 13.5q-12 58 -5 84q-4 6 -6 18.5t-2.5 21t0 25t0.5 19.5 q2 15 -1 45t-1 43q4 12 5.5 27.5t1.5 25.5t-0.5 29t-0.5 27q1 11 -3 34.5t-1 36.5q0 6 3.5 33t2.5 43q0 13 5 53q1 5 3 29.5t7 36.5q-14 147 -13 190l-8 134q-2 -1 -6 -8t-7.5 -14.5t-7 -15.5t-3.5 -9q-9 -19 -20.5 -53.5l-14.5 -43.5q-15 -41 -35 -116t-29 -103 q-6 -19 -17.5 -56t-18.5 -60t-15.5 -55.5t-13.5 -59.5q-3 -14 -14 -43.5t-13 -46.5q-12 -67 -22 -82q-8 -11 -13 -36.5t-6 -27.5q-2 -8 -4 -23t-4 -22q-1 -4 -9 -19.5t-9 -23.5q0 -6 -5.5 -18.5t-5.5 -20.5q-3 -6 -10.5 -7t-19 1t-15.5 2q-11 -1 -37.5 -3.5t-37.5 -2.5 t-37 2q-5 1 -16.5 0t-19 0.5t-11.5 7.5q-2 -16 -18 -2q-7 6 -9 12q-7 21 -33 80q-13 53 -20 68q-5 10 -10 36t-11 38q-24 86 -18 92q-2 -2 -4 8l-6 41q-2 8 -11.5 38.5t-11.5 49.5q-6 31 -26.5 91t-26.5 91q-7 29 -27.5 89.5t-27.5 88.5q-7 26 -34 76.5t-34 79.5 q-3 -12 -8 -73.5t-9 -119t-6 -59.5q-19 -25 -10 -92q4 -32 -1.5 -87.5t-4.5 -78.5q1 -18 3 -65.5t2 -65t-1 -63.5q-6 -91 -4 -162q1 -12 1 -26.5t-0.5 -32t-0.5 -27.5q0 -8 1.5 -19.5t1 -19t-4.5 -14.5q-3 -5 -8.5 -6t-15.5 0t-11 1q-6 0 -20 1t-21 1q-90 0 -121 7 q-5 1 -8 3t-5 3.5t-2.5 5.5t-0.5 6.5v8.5v9l-8 76q-5 10 0 29q1 31 3.5 109t4.5 140.5t2 71.5q4 299 -4 412q-9 37 -6 82q3 4 2.5 22.5t-2.5 22.5q-3 10 -3 24.5t1.5 32t1.5 25.5q0 1 0.5 35t5.5 45q-3 6 -5 18t-2 21.5t0.5 25t0.5 19.5q0 73 8 82q3 5 1.5 5t-5.5 1.5 t-4 7.5q-3 21 4 35q2 1 4.5 -0.5t4.5 -2.5t3 1q6 3 11.5 3t14.5 -2.5t11 -2.5q47 5 107 -2q2 0 16 -1.5t26.5 -2.5t14.5 0l27 8q23 4 112 -2q15 -2 24 -24.5t15 -54.5t10 -40q14 -24 29 -74t22 -67q38 -84 60 -160q9 -29 37 -124t45 -146q6 -19 27.5 -71t27.5 -79 q4 -21 19 -64t20 -65q22 15 35 92q0 3 3.5 11t8.5 18.5t6 13.5q31 60 37 88q3 14 10 36t11 38q2 8 4 22.5t5 25.5t9 18q23 39 33 116q3 17 9.5 35.5t16.5 39.5t13 30q27 78 41 104q5 35 12 49q6 15 14 43l5 22q6 22 6 23q3 3 10.5 18t7.5 19q0 32 18 84h-2q5 23 11 29 q5 3 14 3t20.5 -1.5t16.5 -1.5q27 0 65 -6q2 3 23 0.5t24 -2.5q53 7 68 -2q5 -3 12.5 -3t15.5 1.5t11 1.5q36 -4 47 -8q16 -11 41 -11z" />
<glyph unicode="N" horiz-adv-x="1449" d="M1262 1313q0 -13 1.5 -41t1.5 -43.5t-3 -14.5q4 -6 4 -16.5t-2 -23.5t-2 -17q0 -14 4 -39t4 -31q-1 -4 2 -35t4.5 -53.5t-2.5 -27.5q1 -6 -0.5 -32t-3 -49t-0.5 -24q2 -1 0 -10q-5 -9 -3.5 -24.5t4.5 -45.5t1 -45v-71q1 -3 -4.5 -29t0.5 -29q7 -4 -4 -49q-2 -7 1 -36 t1 -33q-3 -5 -3 -22t1.5 -36t1.5 -20q4 -11 -2 -39q0 -41 -7 -41q5 -7 5 -68q4 -5 4 -18.5t-3 -24.5t-8 -10q5 -3 5.5 -16.5t1 -26t4.5 -12.5q-7 -8 -6.5 -23.5t4.5 -25.5q0 -1 -3 0.5t-4 -2.5q-1 -2 0.5 -23t-0.5 -25q-10 -31 -4 -47q-16 -20 -125 -12q-9 0 -32 -2t-31 -2 q-10 -1 -13.5 -1t-10.5 2t-11 3q-11 3 -35.5 2t-33.5 -4q-9 5 -33.5 3.5t-32.5 -5.5q-10 -8 -26 12t-21 35q-2 4 -4 16.5t-8 18.5q-4 4 -9 15t-2 16q-10 10 -12 14q-4 3 -10 19t-10 18q-13 8 -23 39t-14 35q-6 8 -25 45q0 2 -5.5 11.5t-6.5 14.5q-3 4 -15.5 39t-17.5 45 q-13 19 -20 41q-1 2 -10.5 19t-10.5 26q-9 26 -37 92q-6 7 -8 11t-4 6q-1 6 -25 47q-6 11 -27.5 59.5t-25.5 61.5q0 1 -5 5.5t-5 6.5q-11 33 -14 41q-11 42 -23 59q-17 40 -18 49q-1 4 -9.5 19.5t-7.5 19.5q1 7 -6.5 23.5t-13.5 21.5q-1 2 -5.5 5.5t-8.5 6.5t-3 5 q-15 -30 -4 -62q0 -17 -3 -47t-3 -35q1 -29 0.5 -43t-3 -43t-3.5 -43q10 -72 0 -141v-67v-33l-4 -15q2 -24 3.5 -89t4.5 -101q0 -16 2 -51t2 -65t-4 -54q3 -21 4 -72.5t8 -79.5q-70 11 -112 0q-6 -1 -19.5 0t-19.5 0q-14 -5 -17 -4q-5 5 -9.5 5.5t-14.5 -3t-19 -4.5 q-20 -6 -20 60q0 8 -1 22.5t-1 26.5t2 22q0 33 -4 47q-2 7 -2 15.5t1 19t1 15.5q-6 49 -6 98q1 17 0.5 66t1.5 69q-1 29 3.5 83t4.5 60q-10 24 -9 61.5t9 61.5q3 2 0.5 37.5t-2.5 38.5q1 8 3 22t3 24.5t0 17.5q-3 14 -3.5 28.5t0.5 35.5t1 30q0 5 -1 23l-1 18q0 59 2 90 q0 4 -3.5 26.5t-2.5 36.5q0 3 2.5 14.5t4 19t-0.5 11.5q-1 4 0.5 12.5t3.5 10.5q-7 18 -2 70q1 8 -1 27t-0.5 33.5t9.5 25.5q3 2 33 -1t31 -1q5 -6 34.5 -0.5t34.5 2.5q7 -5 44.5 0t48.5 4q5 0 15.5 1.5t19 1.5t14.5 -3l13 -2q12 -3 23 -7.5t9 -11.5q-2 -8 10.5 -25 t11.5 -24q6 -18 10 -22q-1 -3 7 -22t15.5 -35.5t4.5 -16.5q7 -6 11.5 -15.5t9 -22.5t6.5 -18q3 -8 14.5 -33t15.5 -26q1 -25 25 -62t27 -48q6 -8 10.5 -19t9.5 -25t8 -22q2 -3 10 -15.5t13 -23t4 -16.5q0 -3 6.5 -19t14 -34.5t8.5 -22.5q4 -14 18.5 -40.5t15.5 -29.5 q10 -18 27 -67q8 -15 30 -52.5t31 -58.5q6 -8 28.5 -49.5t19.5 -42.5q4 1 10.5 -8.5t14 -23t9.5 -15.5q25 -37 41 -86q3 4 2 22t-3.5 44.5t-2.5 27.5q0 9 1 26t1 25q1 4 0 16t0 15q2 9 2 25t-1 33.5t-1 19.5q0 106 9 106q0 1 -1.5 21t-1.5 22q2 8 2.5 39t2.5 45q2 12 2 68 q0 5 -1 11.5t-1 11t2 8.5q6 43 4 55q0 12 2 14q3 4 3.5 8t0 8t0.5 9l-4 80q-2 6 0 20.5t6 29.5l4 15q0 1 -5 7.5t-7 11t4 6.5q-4 9 -4.5 22t1 29.5t1.5 21.5q-1 14 4 66q1 8 2 22.5t2 23t4.5 19t9.5 17.5q6 6 28 4.5t34 -6.5q2 -1 7.5 0t12.5 0q14 3 27 -2q14 -2 35.5 -2.5 t36.5 -3.5q2 -4 20 -2.5t23 -8.5v-24h2v-4z" />
<glyph unicode="O" horiz-adv-x="1273" d="M1178 764q0 -1 1 -31t1 -55t-2 -29q-4 -5 -3 -57t-4 -64q-1 -2 0 -16.5t-0.5 -28.5t-7.5 -18q0 -66 -12 -70q5 -9 -9 -45.5t-14 -46.5q-24 -66 -30 -78l-13 -26q-4 -6 -12 -27t-14 -27q-12 -12 -33 -36q-3 -5 -7.5 -8t-6.5 -5q-2 -3 -18.5 -18t-32 -28.5t-15.5 -14.5 q1 -3 -23 -12.5t-49 -19t-26 -11.5q-9 -3 -26.5 -5.5t-22.5 1.5q-9 -9 -96 -17.5t-101 -3.5q-30 7 -49 4q-8 -3 -26.5 1.5t-22.5 2.5q-4 -1 -7.5 -0.5t-11.5 3.5t-10 4t-5 4.5t-7 3.5q-5 -1 -29.5 3.5t-27.5 4.5q-2 0 -9.5 5t-11.5 5q-7 0 -16 4.5l-11 5.5l-20 8 q-20 8 -32.5 16t-12.5 15q-3 0 -12 6t-9 9q-30 26 -52 55t-39 68.5t-25 63.5t-23 75q-2 12 -4 28q-2 11 -7 27.5t-7 27t0 17.5q2 8 -3 23t-6 20q1 9 -3 44.5t-3 41.5q2 8 1 47.5t1 44.5q1 11 -2.5 49.5t0.5 51.5q0 54 13 69q-1 14 4.5 42t11.5 44q3 5 9 30.5t5 31.5 q-1 9 9 27.5t12 27.5q4 19 33 100q2 -2 2 -6l26 47q5 6 9 15.5t6 13.5q1 2 9 10t13.5 16t7.5 15q6 0 16 13t17 14q8 10 13 20t9.5 14t18.5 11q2 1 5.5 3.5t5.5 3.5t5 0.5t5 -3.5q3 1 8.5 9.5t5.5 10.5q18 0 31 8q55 24 67 27q19 -6 51 10q11 2 62 4t59 -2q2 -4 22 -2t35.5 4 t18.5 -6q52 0 66 -12q3 -3 15 -7.5t24.5 -8t13.5 -4.5q9 -2 22 -9t13 -12q7 7 35.5 -12.5t35.5 -28.5q4 -6 30 -24t32 -29q9 -9 18 -12q1 -4 4.5 -11.5t9 -16.5t7.5 -13q12 -8 26 -25.5t17 -28.5q2 -6 21 -32.5t13 -42.5q2 -6 7.5 -23t10 -32.5t7.5 -26.5q13 -65 12 -76 q1 -4 3 -24.5t3 -22.5q2 -6 7 -80zM979 764q-9 37 -6 57q2 15 -8 25q-2 4 -3.5 15t-1.5 19t1 9q-21 29 -27 51q-3 16 -13 40t-10 36q-7 28 -22 47q-17 20 -47 33q-13 11 -26 17t-20 8t-30.5 5.5t-36.5 6.5q-5 1 -18 -1t-15 -2q-1 0 -7.5 -1t-13 -0.5t-11.5 4.5q-6 1 -15 1 t-10 -1q-11 6 -41 6q-4 -11 -41 -11q-6 -1 -11.5 -1t-10 0.5t-5.5 0.5q-6 -3 -22 -5t-33 -11q-7 -5 -16 -9t-14 -8t-9 -12q0 4 -8.5 -3t-17.5 -17q-7 -11 -27 -57q-2 -5 -9 -36.5t-22 -39.5q-5 -7 -20 -73.5t-15 -76.5q0 -4 -0.5 -9.5t-2 -21t-1.5 -21v-9.5q6 -1 7 -22.5 t-0.5 -44.5t-0.5 -25v-31q-3 -11 11 -72q18 -72 18 -80q2 -9 5.5 -18.5t5.5 -17.5t3 -21q9 -19 13 -25q1 -2 5 -7t7 -9t4 -8q0 -4 8.5 -16.5t17.5 -23.5l9 -11q15 -20 31 -31q7 -3 13.5 -14t8.5 -13q4 -2 20.5 -10.5t20.5 -11.5q43 -14 64 -10q4 0 26 1.5t32 2t26 0t26 -3.5 q1 0 28.5 4t52.5 10t26 12q0 1 4 4t9 8t7 9q6 0 18.5 16.5t14.5 18.5q4 3 17.5 18t17.5 18q2 2 8 19t8 18q1 1 1.5 5t2.5 5q1 1 7.5 11t9.5 12q5 3 8 9.5t4.5 12t2.5 15t1 10.5q2 12 4 35t4 35q2 6 8 25.5t9 33.5q0 36 6 66q4 24 4 59q1 2 1 12.5t3 18.5q6 12 -2 47z" />
<glyph unicode="P" horiz-adv-x="1171" d="M1135 893q4 -20 -2 -45.5t-14 -48t-9 -27.5q-4 -12 -18 -34l-15 -21q-15 -31 -52 -62.5t-77 -46.5q-4 2 -26.5 -5t-24.5 -5q-4 2 -11 0.5t-17.5 -5t-12.5 -3.5q-5 -5 -15.5 -8t-15.5 -9q-2 -1 -9.5 -2t-10.5 -2t-11 -5t-16 -5q-5 -1 -12 1.5t-12 -1.5q-7 -1 -13 1.5 t-12 -1.5q-15 -4 -31 0q-3 0 -11 0.5t-14.5 0.5t-10.5 -1q-15 -7 -33 -6q-9 1 -22 -1t-23 -4l-9 -3q-10 -6 -26.5 -6.5t-37.5 2t-28 2.5q-21 0 -37 -4q-36 -5 -40 -4q3 -8 4.5 -14.5t-0.5 -10.5q1 -5 -4.5 -15t-6.5 -26q-5 -37 -2 -68q0 -3 1 -12.5t1 -11.5q0 -1 1 -6.5 t1 -10.5q-2 -36 0 -38q-3 -9 -3.5 -35.5t-2.5 -34.5q-2 -17 -1 -23.5t6 -19.5t6 -21q-3 0 -3.5 -28.5t-0.5 -61t-1 -37.5q0 -17 -4 -28q-3 -6 -10.5 -20.5t-9.5 -22.5q-4 1 -12.5 -4.5t-10.5 -3.5h-4q-4 1 -9 1.5l-10 1t-8.5 0t-3.5 -2.5q-10 7 -10 16q-2 -4 -6 -8 q-6 1 -30 -1t-46.5 -0.5t-31.5 11.5q-1 1 -9 4.5t-14.5 8t-6 18.5t12.5 35q-6 8 12 36q-2 11 3 74q-5 7 -5 21q-3 8 5 16q-5 24 -3 33q-8 40 -8 71q0 6 1 14t1 15q-6 39 2 53q-1 12 0.5 35.5t1.5 28.5q0 3 -2 22.5t-3 32.5t1 19q3 2 4 10t1 21t1 18q0 16 -3.5 58.5 t-4.5 43.5q-4 5 -2.5 23.5t0.5 23.5q-4 27 6 56q-3 13 -2 20.5t4.5 21t4.5 19.5q1 8 -0.5 18.5t-3.5 23.5t-3 19q2 2 3 9.5t2.5 13.5t5.5 6q-2 10 -2.5 30.5t-1.5 26.5q0 2 -0.5 11.5t-1 19.5t0 21t2.5 18.5t5 9.5q-3 8 -1.5 34t3.5 36l-6 18q1 4 4 8.5t4 8.5v37q5 1 6.5 16 t-0.5 16q-1 7 0 18.5t0 18.5q0 11 6 26t14 19q15 10 31 13q2 0 16.5 -4t14.5 -5q6 3 6 7q2 0 12 3t17.5 4t13.5 -1q6 -4 25.5 -1.5t25.5 7.5q3 2 6 2t9 -1t10 -1q47 0 63 -4q78 -9 152 -13q10 10 24 5q2 -1 20 2q60 8 60 -2q5 5 12.5 -3.5t8.5 -7.5l27 -2h1q74 0 74 -14 q1 2 12.5 -0.5t21 -4.5t11.5 1q2 0 8.5 -3.5t10.5 -4.5q25 -10 28 -17q2 3 9.5 -0.5t14 -8t5.5 -5.5q3 4 14.5 -5.5t24 -22t16.5 -13.5q2 0 10 -12t7 -13q8 -12 16 -16q0 -2 4 -11.5t7.5 -18.5t2.5 -9q5 -1 7 -11t3 -22t3 -16q26 -39 26 -59q-1 -13 4 -80q0 -7 4.5 -38 t6.5 -36zM864 938q0 14 4 20q8 34 -16 58q-5 8 -12.5 20.5t-13.5 21t-15 15.5q-18 11 -90 37q2 0 2 2q-5 0 -15 3t-12 3q-4 0 -18 -1t-24.5 -1t-14.5 2q-1 1 -5 -2t-11 -2q-41 9 -48 8q0 2 -8.5 2.5t-19.5 0t-17 -2.5t-17 -0.5t-15 -1.5q-6 -3 -18 -5t-19.5 -5.5 t-11.5 -11.5q-1 -2 -5 -5t-6 -5t0 -5q-4 -24 -6 -28q-8 -18 -8 -58q1 -15 1 -30t-0.5 -32.5t-0.5 -27.5q2 -2 -1.5 -26.5t-2.5 -28.5q0 -9 -1 -16.5t-2.5 -10.5t-3.5 -8t-3 -8q0 -2 4 -14t4 -19q-5 -14 -1 -24q3 -1 5 0q4 5 22 4.5t19 -0.5q2 4 26.5 2.5t26.5 -0.5 q18 4 35 4t38.5 -2t37.5 -2q51 0 69 6q16 3 26.5 0t22 -1t21.5 13q6 7 12.5 10.5t7.5 4.5q28 23 33 32q3 3 16.5 12.5t20.5 18.5t4 18q6 9 2 43q2 0 2 23z" />
<glyph unicode="Q" horiz-adv-x="1392" d="M1391 193q10 -6 14.5 -20t4.5 -24t-2.5 -31t-2.5 -26q0 -43 -14 -65q-8 -15 -19 -17t-24 4q-8 -4 -11 -4h-28q-25 10 -56 10q-8 0 -17.5 3.5t-16 7.5t-16.5 11t-13 9q-23 14 -37 25q-6 5 -17 23.5t-24 25.5q-6 3 -47 35q-6 3 -8 7.5t-4 6.5q-7 7 -16.5 -4t-21 -31.5 t-16.5 -25.5q-23 -24 -56.5 -43.5t-47.5 -34.5q-9 -9 -23 -15t-32 -11.5t-25 -8.5q-52 -21 -131 -18q-2 0 -7 2t-7.5 2.5t-5.5 -2.5q-2 -2 -27 -2q-4 0 -18 0.5t-23.5 2.5t-13.5 7q-2 0 -15 3t-24 5.5t-11 1.5q-4 4 -9.5 6t-12.5 3.5t-10 2.5t-9.5 6t-7.5 5q-5 0 -3 -3l3 -2 q-2 -2 -8.5 1t-14.5 6.5t-11 3.5q-2 3 -16.5 10.5t-18.5 7.5q-6 12 -37.5 22.5t-34.5 12.5q-14 11 -41 28.5t-39 26.5q-10 9 -22.5 29t-16.5 25q-10 18 -16 26q-25 37 -45 84q-5 10 -11.5 38.5t-15.5 41.5q1 19 -8.5 54t-11.5 48q-1 15 -6.5 40t-6.5 38q-2 19 -2.5 53.5 t-1.5 45.5q-12 146 -4 157q3 4 17 83t24 97v7q0 9 6 18q4 4 6 8q0 11 19 49q3 7 8.5 26t11.5 28l10 17q9 16 19 31t16 19l9 8q1 9 16 27t20 18q0 13 26.5 27.5t29.5 26.5q5 -1 28 14h5l4 2q1 1 22.5 14t32.5 17q27 8 84 12q44 5 96 2q9 -1 86 -12q5 0 25.5 -2.5t29.5 -3.5h3 q6 2 10.5 1.5t12 -2t9.5 -1.5q56 0 56 -11q8 2 33.5 -7.5t25.5 -16.5q9 3 22 -2.5t13 -16.5q2 0 1.5 1.5t-1.5 4t0 3.5q4 -2 15 -4t19.5 -6t12.5 -13q42 -9 92 -59h2q3 -2 8.5 -7t8.5 -7.5t8 -7.5l7 -7t5 -6t2.5 -5.5t-0.5 -4.5q5 2 18 -16.5t23 -38.5t8 -21q4 -4 6.5 -10 t5 -14t3.5 -11q1 -2 4 -18t8 -21q-1 -9 7 -36t9 -31q36 -112 12 -259q-14 -50 -8 -63q-1 -3 -4.5 -14.5t-5.5 -20.5t0 -12t-1.5 -20.5t-8 -35t-4.5 -18.5q-2 -4 -3 -19t-8 -20q3 -6 2 -14.5t-3.5 -22t-2.5 -16.5q-3 -31 29 -49q3 -6 16.5 -24t16.5 -15q10 -16 27 -40.5 t24 -35.5q4 -5 25 -26q4 -5 17.5 -15.5t20.5 -19.5q5 -8 23 -6.5t25 -1.5zM952 469q7 7 14.5 22.5t4.5 22.5q9 11 14 28t8 41.5t4 30.5q7 46 4 88q-3 0 -1 50l1 49q0 7 -10 80q-21 104 -90 188q-2 3 -11 16t-16 21.5t-16 13.5q-31 23 -53 25q-5 1 -12 -1t-9 -1q-4 0 -16 4 q0 2 -4 2q-1 0 -9.5 4t-15 6t-8.5 0q-10 7 -15 6.5t-18 5.5q-3 1 -7.5 0.5t-12.5 -1.5t-10 -1q-14 2 -41 2q-5 1 -20 -0.5t-17 -1.5q-3 0 -12 -3t-19 -3q-4 0 -9 -2t-10.5 -4.5t-7.5 -3.5q-56 -37 -79 -45q-2 -1 -23 -22.5t-24 -20.5q-3 -4 -11.5 -11.5t-13.5 -14t-6 -11.5 q-7 -3 -12.5 -12t-11 -22t-7.5 -17q-19 -29 -27 -100q-11 -58 -8 -82v-62q5 -94 10 -117q15 -50 13 -71q-1 -8 4 -25t4 -26q2 -4 10.5 -18.5t14 -26t6.5 -19.5q4 -2 9.5 -13t10.5 -14q1 -8 15 -24.5t22 -22.5q11 -10 29 -35.5t26 -33.5q24 -24 45 -33q4 -1 11 -4.5t13 -7.5 t5 -6q8 4 31.5 -4.5t25.5 -8.5q28 -4 43 -16q0 -5 31.5 -4.5t34.5 0.5q2 0 21 5t24 1q0 1 13 7.5t18 8.5q7 5 22 19t23 20q18 13 61 66q4 8 4 18q2 7 6.5 14.5t12.5 17.5t10 13q14 20 14 76z" />
<glyph unicode="R" horiz-adv-x="1265" d="M1194 1018l2 -8q1 -3 1 -10.5t1 -10.5q0 -27 -2 -45q0 -2 -1 -9.5t-2 -16t-2 -19t-2.5 -20t-3.5 -17t-4.5 -11.5t-4.5 -3q6 -6 -5 -23t-20 -26q-17 -27 -32 -41.5t-42.5 -29.5t-36.5 -21q-14 -11 -28 -15q2 -11 4 -31t0 -24q0 -1 4 -14t6 -22t0 -11q6 -15 6 -60 q1 -9 15.5 -35.5t15.5 -31.5q0 -2 3.5 -13.5t4 -16.5t-1.5 -15q2 -2 6.5 -14t3.5 -15q-2 -5 1 -22t3 -21q-1 -17 0.5 -27t5.5 -27.5t7 -37.5q1 -4 0.5 -9t1.5 -18q3 -3 5 -13.5t3 -14.5q2 -6 3.5 -26.5t2.5 -22.5q2 -12 4 -27.5t6 -30.5q-2 -2 8.5 -30.5t14.5 -34.5 q1 -3 0.5 -6t-4 -7t-6.5 -6.5t-6 -5.5l-3 -2q-18 -12 -22 -12q-8 -1 -10.5 -0.5t-8.5 2l-10 2.5q-3 0 -22 4t-25 2t-41 -1q-4 0 -2 -1q-7 -3 -13 -2.5t-13.5 2.5t-8.5 2h-4q-3 -1 -7 -1.5t-9.5 -0.5t-8.5 2t-4.5 5.5t1.5 10.5q5 11 2 21q-2 8 -11 41.5t-14 46.5 q-18 45 -18 63q-11 35 -11 43q0 12 -14 54q-28 77 -25 96q3 22 -7 57.5t-11 55.5q-8 62 -8 90q-14 55 -19 61q-11 11 -24 4q-11 -6 -39.5 -5.5t-38.5 -0.5q-5 1 -7 -2q-1 -2 -3 -2q-11 0 -31 -4t-23 -4q-18 -2 -53 2q-12 4 -18 4q-3 0 -18 1.5t-23 -1.5q-5 -1 -26.5 -1.5 t-32.5 -5t-11 -16.5q0 -2 -3.5 -19t-2.5 -24l-2 -37q0 -41 -2 -51v-75v-56q2 -12 2 -18q2 -43 -2 -45q5 -16 2.5 -42.5t1.5 -39.5h-2l-4 -12q-1 -4 2.5 -15t-0.5 -18q-3 -9 1.5 -36.5t-1.5 -33.5q0 -7 1 -25t1 -30q0 -10 -4 -22t-4 -17q-25 -25 -29 -14l-14 -13 q-1 0 -14 1.5t-13 -3.5q-19 0 -24 8q-2 0 -8.5 -4.5t-12.5 -5.5q-4 -1 -8 -2.5t-5.5 -2t-4.5 -0.5t-5 1.5t-6 3.5q-12 4 -22 4q-33 0 -53 8q-19 8 -26 14.5t-7 18.5q0 5 2.5 21t4.5 29.5t1 15.5q0 25 2 33v20q0 9 1 23t1 20q4 16 4 49q-4 7 -5 28.5t0.5 40.5t4.5 19 q-6 27 -6 80q0 18 3 41.5t3 30.5q-2 4 -2 17.5t1 29t1 16.5q-4 74 -4 115q0 8 4.5 48.5t3.5 45.5q-2 18 -0.5 31.5t5 41t4.5 42.5q-5 38 8 63q3 5 2.5 41t-2.5 41q6 60 10 66q-1 0 0 34t2.5 71.5t1.5 39.5l-1 4q-1 3 -1.5 7t-0.5 10.5t1 11.5q-9 17 0 29q3 5 -0.5 27 t-3.5 41.5t10 21.5l15 6q7 3 32 -2q3 0 26 2t39.5 2.5t35.5 -2.5q6 2 14 2.5t15 0t13 -1.5t7 -1q12 3 65 8q9 4 60 1t57 -3q5 0 43.5 3t40.5 -1q4 -1 27.5 1t60 1t72.5 -10q5 2 8.5 3.5t4.5 2t1.5 1.5t2 1h3h6.5q1 0 6 0.5t8.5 0.5t6.5 -1t4 -4q11 0 49.5 -10.5t38.5 -20.5 q3 1 10 0t17 -3.5t18.5 -5t14 -6t4.5 -5.5q2 2 4 1.5t3.5 -2t0.5 -3.5q10 3 45 -30.5t37 -45.5q2 -10 11 -31.5t15 -42.5q0 -1 7 -37.5t14 -69.5t10 -36zM938 969q10 80 8 94q-1 7 -2.5 13t-4 13t-3.5 13q-3 12 -8.5 19.5t-13 13t-9.5 8.5q-10 13 -21.5 12.5t-21.5 1.5 q-5 3 -59 19q-30 7 -41 4q-34 0 -45 4q-3 -2 -7 -2.5t-8.5 -0.5t-14.5 1t-19 2h-50q-1 1 -21 -4t-43.5 -10.5t-27.5 -6.5q-22 0 -49 -6q-7 -2 -9.5 -9t-3 -17.5t-1.5 -14.5q-2 -3 0.5 -10.5t-0.5 -18.5q-4 -12 -4 -94q-5 -2 -3 -14t4.5 -25.5t0.5 -13.5q-4 -5 -5 -17.5 t0 -31t1 -21.5q4 -20 8 -28h2q10 1 8 -6q6 11 45 -2q15 0 19 2q21 10 24 0h12q8 4 19 4h29l10 -4l6 2q28 4 39 4q0 -1 11 0t23 2l13 2q2 1 7 1t7 1q13 4 17 0q11 8 43 8h8q6 -4 14 0q6 3 17.5 10.5t17.5 10.5q2 1 29.5 23t32.5 22q8 0 20 47z" />
<glyph unicode="S" horiz-adv-x="1024" d="M825 911q-2 -1 -9.5 -6.5t-13.5 -9.5t-7 -2q-23 -35 -56 28q-21 39 -18 48q-8 2 -16.5 16.5t-16 28t-12.5 12.5q-6 -1 -12 3t-14 13.5t-9 10.5q-26 26 -45 34l-14 8q-14 8 -26 13.5t-19 5.5q-23 0 -35 4q-12 5 -31 -2t-29 -20q-2 1 -8 -3t-14.5 -10.5t-9.5 -7.5 q-4 -2 -15 -14t-18 -12q-6 0 -14.5 -40t-4.5 -53q-3 -19 -1 -42.5t8 -30.5q13 -17 18 -39q37 -41 74 -60q4 -2 3 -7q0 -1 7 -1q4 -9 25 -16q39 -20 55 -29q3 -2 11 -4.5t11 -7.5l9 -2q9 0 18 -6q4 -3 10 -3.5t10 -2.5q1 -1 15.5 -6t23.5 -11q4 -3 14 -5t17 -9q8 -8 14 -8 l13 -4q13 -11 28 -13q34 -11 35 -12q5 -3 13.5 -8.5t16 -11.5t9.5 -7q5 -2 10 -10.5t6 -9.5q10 -20 21 -27q6 -4 10.5 -11t9 -18t5.5 -14q3 -8 10 -24.5t10 -24.5q4 -7 12.5 -35t15 -54t3.5 -26q6 -30 6 -53q-3 -9 0 -18q1 -3 -7.5 -27t-6.5 -31q1 -6 -1.5 -16t-5.5 -10 q-3 -5 -9 -20l-7 -15l-4 -5q-19 -19 -21 -24q0 -2 -5 -5.5t-11 -8t-8 -6.5q-12 -16 -17 -21q-3 -5 -11 -10t-9 -2q-1 -2 -9.5 -7t-10.5 -11q-2 -5 -7 -6.5t-10 -6.5q-9 -9 -65 -26q-3 -1 -37 -15q-38 -16 -92 -16h-13q-1 0 -10.5 -1.5t-17 -2t-17.5 1.5q-1 0 -3 -2t-3 -2 q-18 -12 -20 -13q-18 -9 -50 3q-40 5 -43 6q-4 2 -14 5t-14 5q-6 3 -15 6q-20 4 -30 4q-22 7 -37 18t-33 17q-14 5 -37.5 24t-29.5 31q-2 4 -12.5 17.5t-14.5 21.5q-20 32 -41 53q-79 79 -49 95q33 20 39 20q4 0 16 9t14 12q1 1 3.5 3t6 4t7.5 3q1 9 15.5 20.5t25.5 14.5 q5 2 11.5 7t10.5 8t10.5 2t14.5 -9q22 -22 22 -23q8 -6 27 -35t23 -32q15 -15 24 -21q3 -3 21.5 -18t21.5 -17q6 -4 21 -14.5t27 -17t26 -9.5q3 1 23 1t44 -1t25 -2q16 5 37 15q14 5 35 26q8 8 22 29q12 20 23 53q6 28 2 58q-1 5 -4.5 17t-5.5 21.5t-2 18.5q0 5 -11.5 21 t-19.5 24q-1 1 -7 7.5t-11.5 11.5t-12.5 11t-14 9t-13 2q2 2 -5 6q-3 1 -8 3l-9 5q-8 -3 -22.5 7t-20.5 18q-8 -7 -33 18q-4 -6 -40 7.5t-34 19.5q-3 -3 -10.5 -2t-7.5 -2q-4 0 -4 8q-3 -1 -5 -3h-1t-6 3l-13 10q-4 -6 -11 -3.5t-18 8.5t-14 6q-1 1 -15.5 6.5t-19.5 11.5 t-23 17t-24 18q-2 3 -10.5 8.5t-9.5 11.5q0 1 -12 12t-15 13q-65 79 -78 176q-6 8 -6 39q0 21 6 51q-2 4 0.5 15.5t5.5 22t3 11.5q-2 9 6 29.5t6 28.5q19 69 22 77q5 12 22 37t24 29q11 6 32 31.5t25 29.5q4 3 19 17.5t22 19.5q16 5 33 12.5t26 10.5q37 14 47 10q9 1 31 5.5 t35 6.5q18 5 37 2q12 -2 33 -5t32 -5q24 -2 62 -10q34 -6 41 -8q6 -2 28 -19q4 -3 17.5 -9.5t19.5 -12.5q1 -2 3 -5.5t3 -5.5q2 -2 6.5 -5t6.5 -5q55 -44 73 -71q4 -6 9 -10.5t7.5 -8.5t6.5 -12q1 -2 3 -5.5t6 -10t6.5 -10t2.5 -1.5q4 -9 16.5 -25.5t16.5 -27.5q1 -2 9 -17 t13.5 -27.5t2.5 -16.5q8 -10 13.5 -22t5.5 -27t-11 -23q-2 -1 -17 -10t-28 -16.5t-13 -4.5q-31 -24 -49 -33z" />
<glyph unicode="T" horiz-adv-x="1196" d="M1151 1343q20 0 20.5 -78.5t-8.5 -80.5q-6 0 -6 -37q7 -35 -4 -39q-8 -4 -18.5 -5.5t-12.5 3.5q-12 -11 -42 -6t-33 0q-2 2 -14.5 4t-23 3.5t-10.5 4.5q-1 0 -6 -1q-32 -6 -32 3q-4 -4 -35.5 -4.5t-38.5 2.5q-14 4 -23.5 3.5t-22 -4t-16.5 -3.5q-6 0 -22 -1t-21 -1 q-3 0 -18.5 2.5t-18.5 -0.5q-9 0 -12 -3.5t-2 -9.5t0 -14q-2 -31 1.5 -109.5t-1.5 -105.5q-12 -107 -6 -233q0 -41 -6 -41q0 -1 0.5 -10t0.5 -16.5t-1 -16t-4 -12.5q0 -1 -2.5 -29.5t-6.5 -49.5t-8 -20q8 -58 -6 -86q1 -3 12 -33.5t9 -44.5q-1 -4 0.5 -40.5t2 -64 t-2.5 -32.5q1 -5 2.5 -14l2.5 -15t0 -13.5t-5 -12.5q-5 -5 -4.5 -25.5t-3.5 -21.5l-3 -12q-1 0 -2.5 -3.5l-3 -7t-2.5 -4.5q-4 -3 -10 -5t-10 -5q-20 5 -76 -3.5t-76 -2.5q-6 2 -19.5 5t-23 6t-14.5 7q-8 4 -10.5 14t-2.5 21.5t-1 15.5q-3 7 -3 17t1.5 22.5t1.5 18.5 q0 8 1 29.5t1 29.5q0 10 5.5 44.5t4.5 51.5q-1 13 -3 35.5t-3 42t0 39.5q3 11 1.5 55t8.5 48q0 1 -2 8t-2 13t4 7q-4 12 -2 19q0 3 3 15.5t3 14.5q-2 0 -4 -2q-2 2 -2.5 17.5t2.5 17.5q3 3 3.5 14t-0.5 27t-1 17q0 39 4 57q1 4 -1.5 28t-4.5 45.5t0 22.5q3 0 3 26.5t-1 52 t0 36.5v51q0 5 1 29t0 40.5t-5 26.5q-6 12 -19 18t-23.5 6t-30.5 -1.5t-27 -1.5q-9 0 -28 2t-28 2q-4 0 -21.5 1t-29.5 3t-20 6q-11 -7 -37.5 -11.5t-28.5 3.5q-11 -7 -29 0l-2 2q-5 -5 -20 -7t-21 1q-4 4 -11 1t-9 -3q-3 0 -13 0.5t-17 2.5t-11 7q-3 5 -3 23t-3 20 q-4 3 -4.5 10t1 15.5t1.5 9.5q0 33 -4 41q-3 4 -3.5 17.5t0.5 32t1 19.5q1 7 8 31.5t8 28.5t7.5 5t16.5 0t19 -2.5t19 -4t12 -2.5q7 1 52 -1.5t48 -2.5q8 0 67.5 4t63.5 -4h29q30 -3 110 6l25 1q24 1 42 0.5t23 -3.5q4 -2 21 -3.5t37.5 -3t25.5 -2.5q27 -6 49 -3t25 3 q8 3 60 1.5t63 -3.5q28 -5 71.5 2t55.5 7q7 0 36 -2.5t36 0.5q17 0 57 -9q5 -1 39 4z" />
<glyph unicode="U" horiz-adv-x="1359" d="M1194 897q1 -28 0 -86t0 -88q4 -123 -12 -191q-1 -82 -2.5 -115t-9.5 -96t-23 -112q-21 -63 -59.5 -117t-88.5 -74q-10 -9 -77 -16q-65 -18 -91 -10q-30 5 -49 4.5t-56.5 -5t-47.5 -5.5q-33 -1 -98.5 9t-71.5 11q-51 7 -94 17q-12 5 -41 26t-35 25q-22 13 -37 32 q-8 11 -26 31t-19 21q-12 14 -21 35.5t-13 37.5t-10.5 45.5t-8.5 38.5q-14 71 -21 158q0 7 -4 31t-2 35v71q0 8 -2 15.5t-2 19.5v68q1 7 -2 22q-3 12 -3.5 25t0.5 31t1 26v74q0 11 1.5 39t2 43t0 37.5t-3.5 40.5q-6 12 -1 83.5t5 84.5q-1 15 -1 40.5t-1 38.5q-4 28 -2 45 q2 10 8 14t14 3t17 0q93 7 160 0q3 0 14.5 -0.5t22.5 -1t22.5 -2.5t18.5 -6.5t6 -10.5q0 -9 -1 -30.5t-1 -39t2 -30.5q4 -22 -3 -68t-2 -69q4 -26 5 -56.5t-0.5 -71.5t-1.5 -56t-6 -71.5t-1 -84.5q2 -13 0.5 -45.5t1.5 -48.5q2 -11 2 -44t7 -49q8 -23 8 -73q4 -12 2 -40.5 t2 -43.5q2 -10 1.5 -40t6.5 -40q0 -42 59 -92q52 -41 121 -35q16 1 53.5 -3.5t49.5 -4.5q9 0 22 -0.5t18.5 -0.5t14.5 1.5t20 5.5q10 9 36.5 25t31.5 20q7 5 13.5 14.5t10 17.5t8.5 21.5t7 18.5q11 27 8.5 76t1.5 81q1 6 0 30.5t0 29.5q3 6 0.5 33.5t-2.5 31.5q3 17 2.5 69 t3.5 91q2 14 2 37q0 5 -1 13l-1 7q5 10 9 39q1 18 -6.5 55t-4.5 58q3 16 3 35t-1.5 42.5t-1.5 35.5q0 16 -1 45.5t-1 53.5t2 44q0 3 -1 18t-1.5 30.5t1 31t10 24t22.5 6.5q17 -3 55.5 -5t57.5 1q38 11 51 11q2 0 17 3.5t22.5 0.5t7.5 -17q1 -11 0.5 -56t-2.5 -56v-82 q-4 -52 0 -78q2 -14 -0.5 -43.5t-1.5 -42.5q6 -81 6 -82z" />
<glyph unicode="V" horiz-adv-x="1337" d="M1298 1366q8 14 15 -1q5 -11 2 -17q-3 -7 -9.5 -20.5t-9.5 -20.5q-2 -4 -6.5 -24t-13.5 -32q-5 -7 -11.5 -39.5t-17.5 -46.5q-2 -4 -2 -14t-2 -16q-1 -3 -5 -15.5t-7 -17.5q-3 -6 -7 -19t-10 -20q-5 -10 -5 -28.5t-5 -28.5q-30 -60 -35 -88q-27 -63 -43 -105 q-14 -47 -39 -98q-9 -33 -30.5 -89.5t-28.5 -76.5q-33 -81 -35 -84q-4 -26 -22 -78q-12 -45 -66 -205q-5 -8 -17 -44.5t-14 -47.5q-4 -6 -11 -32t-15 -44t-17 -12q-13 8 -61.5 -1.5t-54.5 -8.5q-19 0 -35.5 1.5t-37.5 4.5t-36 4q-9 1 -43.5 -2t-40.5 2q-18 0 -41.5 48 t-27.5 73q-1 9 -9.5 30t-9.5 25q-2 6 -13 27.5t-11 30.5q-2 12 -14 40.5t-13 32.5q-20 30 -35 88q-6 17 -27 72t-30 84q-10 22 -23.5 67.5t-23.5 67.5q-6 19 -22.5 76.5t-26.5 87.5q-13 61 -68 192q-1 3 -23.5 63.5t-21.5 68.5q-11 40 -53 141q-3 4 -6 24q-3 12 0 13 q1 0 3 -1q4 -2 3 3q7 1 23 -4t28 0q18 6 66.5 7.5t56.5 2.5q25 0 54.5 1t52.5 -14.5t20 -45.5q19 -25 41.5 -83.5t34.5 -78.5q14 -29 32 -91t25 -81q2 -5 18.5 -38.5t18.5 -51.5q4 -35 18 -62q11 -11 21 -47q3 -10 17.5 -37t14.5 -45q6 -12 17 -41.5t20 -44.5 q13 -19 23 -59.5t16 -53.5q8 -15 15.5 -61t23.5 -63q5 -5 14 19q9 23 9 32q0 10 8.5 42.5t9.5 39.5q4 21 11 43t18 51t16 43q6 18 21.5 72t25.5 84q3 14 10 48t11.5 54t13 48.5t18.5 49.5q6 12 14 39t17 41q8 11 10 42.5t11 43.5q1 14 5.5 28t14.5 35.5t12 26.5q4 57 23 84 q5 4 7.5 14t6.5 13q5 4 13 6t13 2.5t17 0t15 -0.5q13 1 36 3t35 3q23 0 37 -2q4 -2 19 -0.5t22 0.5q14 0 45 8q7 1 14.5 1t12 -5t2.5 -16l8 9q7 9 16 -1z" />
<glyph unicode="W" horiz-adv-x="1673" d="M1626 1333q2 -8 2 -17.5t-1 -21t-1 -16.5q-20 -188 -53 -289q-12 -47 -29 -151q-2 -23 -13.5 -69.5t-12.5 -70.5q-1 -8 -11 -73q-2 -4 -6 -26.5t-6 -27.5q-16 -32 -32 -92t-27 -86q-3 -6 -12.5 -69t-18.5 -76q-4 -5 -8 -54.5t-4 -50.5q-7 -5 -7 -75q0 -34 -4 -50 q-2 -10 -28 -14q-21 -5 -54 2q-60 -10 -90 2q-11 -2 -34 3.5t-31 4.5q-48 -12 -49 -10q-7 -1 -12 0.5t-8.5 5.5t-5.5 8.5t-3.5 11.5t-2 12t-1 12t-0.5 10q-5 18 -19 59t-18 61q-6 30 -24 109.5t-27 124.5q-7 43 -26 118t-25 105q-10 55 -23 100q-9 32 -15 81t-24 91 q-3 -8 -11 -42t-9 -35q-4 -6 -8.5 -20t-4.5 -19q1 -6 -7 -28.5t-13 -31.5q-10 -17 -25 -92q-3 -14 -13 -41.5t-13 -38.5q-2 -7 -15 -28q-2 -7 -7 -27t-9 -31q-10 -17 -29 -90q-3 -8 -16 -41t-16 -51q-5 -31 -27.5 -79t-32.5 -83q0 -1 -3.5 -16t-7 -29t-9.5 -33.5t-11.5 -34 t-13.5 -25t-16 -11.5q-11 -2 -40 1t-38 7q-14 4 -26 4.5t-28 -1t-26 -1.5q-25 -2 -74 2q-37 0 -57 8q-4 2 -14.5 0.5t-12.5 1.5q-9 6 -7 18.5t1 18.5q-3 15 -10 35q-4 14 -3.5 36.5t-2.5 35.5q-19 87 -19 131q0 25 -6 49q0 16 -2 28t-2 35q0 14 -6 35t-6 33q2 38 -10 108 q-5 115 -13 140q-2 7 -4 26t-3.5 35t-2.5 17q-14 47 -8 65q-1 3 -6 47t-8 62q0 16 -9 64.5t-4 72.5q-1 9 -10.5 57t-9.5 72q-1 17 -8.5 44.5t-6.5 43.5q0 1 -3 11t3 16q17 7 45 6t84 -3.5t82 -0.5q8 1 64 -9q8 -2 10.5 -17.5t2 -38t-0.5 -26.5v-36q4 -1 3.5 -10.5t0.5 -12.5 q3 -3 3 -16.5t-1 -26.5t0 -22q2 2 2 6q3 -5 13.5 -55.5t9.5 -53.5q4 -45 0 -45q3 -19 10 -68.5t14 -84.5t17 -56q3 1 8.5 -36t9.5 -78t4 -54q13 -26 13 -47q-2 -24 1.5 -43.5t4.5 -34.5q2 -31 10 -71q8 -50 8 -72q22 34 25 63q2 18 20 99q3 15 20 56.5t17 66.5 q0 18 11.5 53.5t13.5 50.5q1 2 3 10t3.5 17t3.5 18t4 14.5t4 4.5q-2 3 4.5 23t10.5 24t9.5 40.5t8.5 41.5q8 20 21 56t18 50q5 19 13 66.5t16 70.5q15 44 18 64q22 77 31 98q9 24 40 29t54 0q12 -1 66.5 1t66.5 -3q21 -5 26 -9t9 -22q4 -55 8 -70q1 -13 3 -35.5t3 -35.5 q11 -57 8 -60q13 -78 13 -90q8 -32 14 -95t8 -75q6 -46 29.5 -133t30.5 -127q4 -20 9 -61t9 -62q11 -49 12 -59q0 -2 3.5 -30t9.5 -38q5 15 15.5 72.5t23.5 85.5q3 6 14 57q12 36 22 76q6 22 11.5 47t11 56t8.5 47q2 19 6.5 40.5t8.5 36t11.5 40t10.5 36.5q5 18 16.5 62 t18.5 65q5 16 12 56.5t12 54.5q9 27 9 51q0 5 4.5 31t3.5 41q-2 22 2 29t20 10q10 2 23 2t27.5 -1t19.5 -1q59 0 84 2q14 0 33 -4t20 -11z" />
<glyph unicode="X" horiz-adv-x="1290" d="M1282 1370q6 -13 -8 -37q-2 -4 -7 -8t-7 -8l-7 -6q0 -3 -2 -8t-2 -7q-6 -22 -27.5 -47t-25.5 -35q-2 -3 -8 -23t-8 -22q-2 -5 -10.5 -18t-12.5 -21q-1 -1 -2 -3t-2 -3q-10 -19 -23 -33t-36 -55q-15 -25 -64.5 -90.5t-64.5 -93.5q-2 -2 -6 -10t-7 -11q-6 -12 -37 -53 q-2 -2 -11.5 -24.5t-12.5 -24.5q-9 -7 -19 -31q3 3 8 -7t5 -13q19 -44 92 -182q4 -11 18 -33.5t17 -34.5q4 -14 37 -61q15 -23 45 -78t49 -82q16 -21 42.5 -70.5t43.5 -70.5q28 -35 26 -52q0 -8 -4 -14q-11 -13 -90 -2q-16 0 -45 4.5t-39 5.5q-29 6 -94 -8q-2 0 -15 -1 t-25 -1.5t-25.5 1t-22 7t-8.5 14.5q-1 21 -18 59.5t-17 39.5q-38 63 -47 71q-2 4 -8 18.5t-11.5 27t-9.5 14.5q-5 1 -10.5 8.5t-9 14.5t-8 17.5t-5.5 12.5q-13 34 -34 55q-4 8 -15.5 36.5t-21.5 41.5q-4 7 -9 19t-8 16q-3 7 -10.5 18t-9.5 17q-4 -3 -7 -8t-6 -11l-4 -8 q-28 -50 -30 -55q-7 -12 -19 -34.5t-22 -41t-19 -35.5q-2 -4 -14.5 -25t-19 -33.5t-13.5 -30.5t-8 -29q0 -8 -12.5 -30.5t-14.5 -29.5q-1 -3 -9.5 -26t-14.5 -35q-11 -16 -17.5 -38.5t-1.5 -33.5q2 -4 -3 -7t-13.5 -4.5t-17.5 -2t-16.5 -1.5t-8.5 -1q-16 0 -32.5 -1 t-37 -2.5t-32.5 -2.5q-98 -5 -133 -3q-5 0 -15.5 2.5t-15.5 2.5q-6 1 -15 0t-14 0q-10 1 -14 4.5t-2.5 10.5t4.5 14t7 15.5t5 14.5q16 31 45 68q6 9 15 27.5t12 23.5q1 2 4 10t6 16.5t6.5 17.5t7 14.5t5.5 6.5q43 77 45 80q42 50 75 129q17 30 68.5 103.5t71.5 117.5 q3 8 8.5 17t8.5 14.5t3 14.5t-6 20q-5 11 -22 38t-23 44q-25 53 -80 153q-8 14 -56.5 88.5t-66.5 118.5q-8 17 -44 73t-42 85q-1 4 -3.5 8t-5 6t-2 5t4.5 6h18q4 0 17 4t18 4q31 -4 131 0q121 0 127 -15q9 -34 37 -84q11 -25 58.5 -122t68.5 -150q3 -6 10 -28t13 -29 q3 -3 8.5 -18t5.5 -17q39 -34 43 -53q3 -9 6 -15q1 -3 8 -6h2l2 2h2q6 6 9 6q11 21 39 70t41 76q7 17 31 51.5t32 54.5q8 22 30 63t29 58q4 7 22 34.5t23 45.5q3 10 16.5 32.5t16.5 30.5q1 4 2 11.5t2 11.5q2 4 2 12q0 17 7 17q19 3 82 2.5t92 3.5q5 0 26 -1.5t33 -0.5 q4 3 25 0.5t26 -2.5q4 1 10.5 0t12.5 -3l6 -1q5 -1 6 -10t2 -11z" />
<glyph unicode="Y" horiz-adv-x="999" d="M975 1382q-1 -5 2 -4q5 0 5 -2q0 -3 -3 -10q-3 -5 -6 -12.5t-6 -12.5q0 -3 -5.5 -17t-12 -26.5t-9.5 -11.5q3 -11 -6.5 -28t-29.5 -43t-21 -27q-4 -6 -25.5 -39.5t-41 -64t-23.5 -35.5q-14 -17 -42.5 -77t-43.5 -81q-58 -82 -107 -178q-2 -3 -8.5 -13t-12.5 -17t-10 -9 q-9 -37 -12 -82q-2 -17 1.5 -47.5t2.5 -44.5q-8 -66 -6 -92q1 -18 -2 -102t4 -101q-1 -15 3.5 -91.5t-3.5 -93.5q-2 -14 -4 -20.5t-8.5 -10t-11 -4t-21.5 -1.5q-16 -1 -48 -1t-46 -1q-20 0 -70 4q-5 0 -15 -0.5t-14.5 -0.5t-10.5 1.5t-11 5.5q0 27 4 35q-8 10 0 43v41 q-1 31 3 83.5t5 67.5t1.5 51.5t1.5 65.5t5 55q3 30 -2 127q-9 83 -20 113q-12 26 -29 77.5t-30 77.5q-42 96 -66 187q-14 51 -56.5 145.5t-56.5 136.5q-5 14 -10 19q-6 9 -8 20q-5 9 0 12.5t7.5 4t10.5 0.5q30 -2 61 1t32 3q15 1 38.5 -1t38.5 -1q28 5 66 -2q27 -3 35 -10.5 t12 -36.5q1 -8 10 -23t10 -24q2 -11 31 -84q65 -146 80 -230q1 0 42 68t46 78q7 12 23.5 40.5t23.5 41.5q12 17 40 65t50 72q5 7 21.5 34t27.5 37q27 2 82 2q11 -1 45 -1.5t54 -2.5q4 0 26 2.5t23 -0.5z" />
<glyph unicode="Z" horiz-adv-x="1288" d="M1208 82q1 -9 -0.5 -27t-1.5 -24q0 -1 0.5 -7.5t1 -12t-0.5 -12t-4 -10t-9 -3.5l-20 -11h-48q-4 0 -4 5q-53 0 -53 4q-11 -1 -27 1.5t-24 2.5q-12 0 -28.5 1.5t-31.5 0.5q-3 0 -8 -2t-9 -2.5t-11.5 0.5t-16.5 4q-3 1 -12.5 -0.5t-17.5 0.5q-1 0 -15 -1t-25.5 -1t-15.5 2 q-6 2 -29 2t-41 1.5t-18 4.5q-24 -9 -51.5 -10t-60.5 2q-7 2 -31 2t-29 2q-29 6 -35 4q-11 -4 -18.5 -5t-11.5 -3q-5 -2 -14.5 1.5t-14.5 2.5h-14q-2 -3 -21 -2t-24 4q-3 2 -9 0t-16 0q-6 1 -16 -5t-17 -5h-26q-25 0 -41 4q-4 1 -7.5 2.5t-9.5 1.5q-5 0 -20.5 -3t-25.5 -3.5 t-25 4.5q-1 1 -9 -2t-17 -5.5t-19 1.5q-11 3 -41 0q-18 -4 -39 6q-10 6 -6 24q2 10 2 50q0 9 -1 26t-1 31t2 27q2 9 2.5 32.5t3.5 34.5q3 7 2.5 16.5t3.5 14.5q4 6 18.5 25t27.5 35.5t13 15.5q7 6 17.5 19.5t21 27.5l13.5 18q4 3 10.5 15.5t13.5 15.5q3 1 6 6t4 6l7 10 q8 11 12 11q6 13 24.5 30t22.5 23q4 0 8 8q25 13 53 53q28 28 33 31q5 0 37.5 30t38.5 42q11 9 37 40t39 40q6 3 27.5 22.5t23.5 22.5q5 6 22.5 24.5t22.5 24.5q4 5 34.5 37.5t33.5 36.5q11 10 28.5 30t24.5 27q18 12 37 31l3 5q3 5 7 7q6 3 19.5 21t15.5 20q6 4 22 14 q13 8 27 29t18 41q-12 0 -26 2q-4 0 -26 2.5t-25 2t-19 -2.5q-7 -1 -34.5 -0.5t-58 2t-30.5 2.5l-23 -4h-3t-25 -6q-4 0 -22 -3t-27 -3q-15 1 -45 0t-45 0q-2 0 -15 -1.5t-25 -2t-23 1t-13 6.5q-1 0 -18 -4t-27.5 -5.5t-14.5 3.5q-5 -7 -30 -7q-28 -9 -42 -5q-3 2 -3 5h-1 q-1 -1 -3 -2t-4.5 -2t-5 -2.5t-4.5 -2t-4 -0.5t-3 1q-1 -2 -16 -2.5t-31 -0.5t-18 -1q-7 0 -25 3t-22 3t-7 2t-5 5.5t-3 6t-1.5 8t-0.5 8.5v9v8q0 46 4 66v27q3 9 -2 40t-1.5 51.5t26.5 18.5q38 -4 125 -8h80q8 -1 52 -1t84.5 -0.5t43.5 -2.5q45 0 51 -2q10 -1 10.5 -0.5 t10.5 3t26 3.5q37 4 55 2q14 -2 43 -2t33 4q10 10 78 0q7 -1 21 2t20 2q1 -4 24.5 -1t43 6.5t22.5 -3.5q3 4 17 5.5t27 0.5h13v-8q3 10 16.5 11.5t25.5 -1.5t20 0q3 1 23.5 -1t38.5 -1t20 8q5 -6 5.5 -23t-3.5 -32q4 -4 6 -8q0 -1 -3 0q-2 1 -1 -1v-3h2q-3 -7 -1 -49 t4.5 -74.5t-3.5 -40.5q-5 -2 -7 -20.5t-3 -42t-2 -29.5q-5 -21 -52 -68q-3 -3 -16 -15t-23.5 -21t-13.5 -9q0 -9 -14.5 -19t-14.5 -13v4q-26 -15 -56.5 -50.5t-55.5 -48.5q-3 -1 -21 -18t-22 -19q-5 -3 -10 -10.5t-11.5 -18.5t-11.5 -18q-3 -8 -30 -33t-31 -24q1 -2 -52 -55 q-2 -3 -13 -15t-21 -23t-11 -14q-5 -10 -11.5 -18t-19 -19.5t-14.5 -13.5q-5 -4 -17.5 -24.5t-21.5 -26.5q-7 -5 -31 -32t-40 -40t-26.5 -22.5t-23 -21.5t-26.5 -25q-14 -11 -19.5 -16.5t-19.5 -26.5q0 -2 -23 -27q-24 -25 -8 -29q5 -1 26.5 0.5t25.5 -0.5q5 -2 15.5 1.5 t12.5 -1.5q0 2 31.5 2.5t63.5 -0.5t32 -4q5 0 47 7q14 1 34 -0.5t32 -1.5q5 -9 57 -9q5 2 20.5 1t20.5 -5q2 0 18.5 1.5t24.5 0.5q16 0 85.5 0.5t76.5 -0.5q67 0 67 -8h41q7 0 13.5 -2.5t13.5 0.5q6 1 15 7t14 6.5t20 -5.5q4 -3 7 -6.5t4.5 -8t3 -8t1 -9.5t-0.5 -9 t-1.5 -10.5t-2 -10.5t-3 -11.5t-2.5 -10.5q-2 -10 -2 -57z" />
<glyph unicode="[" horiz-adv-x="663" d="M586 -12q7 -2 10.5 -9t3.5 -20v-21.5t-2 -24.5t-2 -17q-1 -10 -2.5 -39t-4.5 -48.5t-9 -37.5q-4 -10 -29 -10.5t-60 4t-42 4.5q-47 -2 -138 6q-8 2 -42 0.5t-42 -0.5q-3 1 -11.5 2t-11 1.5t-9 2t-9 2.5t-7 3t-6.5 4.5t-4.5 6t-4 8t-2.5 9.5q-11 64 -10 103t5 106t3 104 q-8 160 -8 162q-1 8 -1 49.5t-1 50.5q-1 6 0 60t0 59q-5 30 -5 49q-1 15 2 62t3 57q0 74 -3 88q-1 18 -3 108.5t-7 124.5q-5 31 -6 117.5t-2 106.5q-1 15 -1 44.5t-1 45.5q0 4 -1 11t-1 10.5t2 8t8 7.5q9 5 53 10q18 1 50.5 -0.5t42.5 -1.5q19 2 53 -2q19 -2 70 1t69 1 q14 -2 28 0t28.5 -1t19.5 -14q10 -21 6 -51q-2 -16 1.5 -45t2.5 -41q0 -5 2 -19.5t1.5 -24.5t-5.5 -15q-17 -13 -70 -8q-5 0 -36 -0.5t-35 0.5q-3 0 -17 1.5t-19 1.5t-13.5 -2t-14.5 -8q-5 -14 -4 -34t4.5 -56.5t3.5 -46.5q0 -13 1.5 -101.5t0.5 -121.5q-12 -188 -10 -248 q0 -12 5 -71.5t5 -73.5q1 -10 0.5 -78.5t1.5 -77.5q5 -34 5 -88q0 -12 3.5 -45.5t4.5 -40.5q3 -26 14 -35.5t31 -11.5q16 -1 46 0t46 0q2 0 31 -4t45 -8z" />
<glyph unicode="\" d="M1122 18q28 -20 -24 -20h-64q-20 0 -47.5 2t-28.5 2q-15 0 -52.5 6t-41.5 6q-12 3 -26.5 20t-29 40.5t-20.5 29.5q-76 94 -96 127q-7 10 -26 48t-33 51q-5 3 -26 50t-23 50q-8 11 -30.5 39t-36 49t-17.5 41q-2 9 -19 33t-18 26t-27 60q-27 45 -41 59q-8 9 -25.5 45.5 t-25.5 46.5q-16 18 -30 39t-34 53t-26 42q-8 14 -33 62t-43 69q-2 3 -18.5 25t-25.5 37t-11 26q-22 24 -49 74.5t-37 64.5q-18 22 10 23q5 0 15 -1h12q24 0 86 -8q94 -12 141 -10q8 0 13 -1t8 -1.5t5 -4t3 -5t3 -8.5t3 -11q2 -7 5 -19t5 -19t6 -16.5t10 -18.5 q9 -14 24.5 -42t21.5 -38q4 -6 13.5 -24t18 -31t17.5 -21q4 -19 17 -42.5t31.5 -49.5t24.5 -37q15 -25 53 -88.5t60 -97.5q21 -33 83 -119.5t91 -136.5q7 -11 26.5 -37.5t28.5 -44.5q3 -5 17.5 -33.5t23.5 -34.5q26 -21 45 -76q20 -39 54 -88q14 -23 46.5 -65.5t41.5 -55.5 q2 -3 6 -13.5t8 -18t8 -9.5z" />
<glyph unicode="]" horiz-adv-x="624" d="M492 1223q7 -22 0 -41q-4 -7 -4.5 -13t0 -10t-0.5 -12q13 -204 11 -289q0 -10 -6 -49.5t-3 -58.5q1 -7 -0.5 -23.5t-1.5 -19.5q0 -65 5 -82q5 -22 2 -39q-9 -40 -9 -62q4 -89 -6 -129q-6 -27 0 -55q1 -11 -0.5 -34.5t-1.5 -29.5q-3 -66 4 -145q11 -105 2 -272 q-1 -5 -1.5 -14.5t-0.5 -15t-2.5 -12.5t-7.5 -7.5t-14 0.5q-31 8 -142 -5q-14 -1 -45 0t-47 0q-96 -5 -133 9q3 24 -4 53q-6 1 -2 36t4 38q0 1 -2 12t-3 21t2.5 18.5t12.5 9.5q5 0 37.5 1t36.5 1q108 -19 115 2q4 30 4 174q0 61 -5.5 183t-6.5 167q0 24 1 70t1 68 q0 14 -0.5 43.5t-1 48.5t1.5 44t6 44q4 20 4 45.5t-2.5 44.5t-7 47.5t-5.5 42.5v42.5t-4 51.5q-26 15 -75 6q-11 -3 -38 -0.5t-40 0.5q-19 -4 -60 5q-2 14 0 44t0 46q-4 29 0 92q5 4 2.5 22t-2.5 21q0 17 66 8q46 -7 86 2q4 0 15 -3t16 -3q10 0 28 -1t32.5 -1t25.5 2 q13 2 73 2q49 0 74 2q11 1 13 -3.5t0 -13t-1 -12.5q2 0 4 -27t2.5 -52t-1.5 -35z" />
<glyph unicode="^" horiz-adv-x="1218" d="M946 762q1 -4 5.5 -19t4.5 -22q-10 -10 -61 -10q-15 0 -41.5 3.5t-36.5 4.5q-7 0 -27 1.5t-30 0.5q-8 0 -11.5 3t-7 11.5t-6.5 12.5q-6 9 -10 30.5t-6 26.5q-3 10 -12 29.5t-11 31.5q-4 29 -22 82.5t-23 75.5q-6 -17 -26 -45.5t-27 -44.5q-9 -19 -26.5 -56t-26.5 -55 q-13 -29 -15 -39q-1 -2 -8.5 -25.5t-15.5 -31.5q-20 -2 -42.5 -3t-49 -1.5t-41.5 -1.5q-5 0 -28.5 -1.5t-39.5 -0.5t-24 6q-1 -1 -4 -3t-5 -3t-4 0q-12 4 0 41q1 1 25 61.5t29 63.5q26 20 36 71q9 38 29 78q10 21 49.5 93t57.5 114q17 44 49 92q2 3 7 15.5t9 15.5 q5 13 16 16.5t22.5 1.5t25.5 2q14 -1 70.5 7t70.5 -2q18 -7 35 -58q3 -10 14 -45t14 -51q4 -18 27.5 -86t26.5 -109q3 -26 15 -73.5t15 -65.5q1 -5 5.5 -29.5t8.5 -40.5t9 -28q9 -17 12 -41z" />
<glyph unicode="_" horiz-adv-x="1177" d="M1196 -289q0 -5 0.5 -21t0.5 -26t-2 -24t-5 -23q22 -26 -63 -19l-29 3q-3 -3 -20 -3t-33 1t-25 0q-8 3 -24.5 2t-33 -4t-16.5 -5q-13 0 -39.5 4t-36.5 5q-11 1 -37.5 -3t-33.5 -4q-2 0 -12 5t-13 2q-2 -2 -24.5 -5t-24.5 -4q-87 -13 -186 -16q-73 -2 -222 10 q-28 4 -79 2.5t-76 1.5q-22 0 -71.5 6.5t-59.5 16.5q-2 1 -6 2t-6 2t-5 3.5t-4 6.5q-4 12 -4 39q0 9 -2 13.5t-2 11.5t-2.5 13t-2.5 7t3 4q6 4 15.5 4t21 -2t16.5 -2q44 -8 103 2q94 0 112 -2q34 -3 48.5 -3t51 5.5t48.5 6.5q96 2 277 -4t265 -5q12 1 27 1t32.5 -0.5 t24.5 -0.5q4 0 14 4t17 5h33q8 -1 26 -5t33.5 -6.5t30.5 -1.5z" />
<glyph unicode="`" horiz-adv-x="385" d="M295 1120q3 -15 -8.5 -16t-20.5 6q-5 2 -12 0.5t-10 -0.5q-9 6 -14.5 4t-11.5 0t-11 14q-6 10 -20.5 26.5t-18.5 21.5q-54 75 -70 110q-4 -2 -6 1t-4 8.5t-4 7.5q-2 5 -14 20t-13 25q10 9 43.5 8.5t53.5 1.5q26 9 65 7q28 -3 25 -15q-8 -22 4.5 -61.5t13.5 -45.5 q19 -92 33 -123z" />
<glyph unicode="a" horiz-adv-x="968" d="M852 793q0 -33 11 -108.5t9 -113.5q-7 -59 -4 -106q0 -29 -2 -39q0 -2 -1 -24t-1 -23q-4 -3 -5 -15.5t-0.5 -27.5t-0.5 -19q-1 -17 -0.5 -66.5t-1.5 -68.5q-12 -103 4 -157q7 -23 -12 -25q-14 -1 -14 6q-4 -7 -3 -8q-7 -1 -24.5 -7t-22.5 -5.5t-26 4.5q-3 0 -13.5 1.5 t-18 1t-11.5 -4.5q-2 -5 -36.5 -1t-39.5 3q-11 -1 -15.5 3t-3.5 11.5t4 15.5t6 17.5t3 13.5q-10 -1 -21 -6t-23 -12t-18 -10q-9 -6 -20 -17q-19 -15 -31 -20q-8 -3 -22.5 -6.5t-18.5 -4.5t-19.5 -2t-17.5 -2q2 -2 -1.5 -3t-9 -2t-7.5 -3q-23 -2 -72 -2q-17 -1 -50.5 10 t-45.5 13q-99 13 -131 59q-10 18 -37 49q-14 14 -21 33.5t-7.5 30.5t-0.5 41q0 49 31 186q4 24 34 49.5t60 40.5q14 7 45 25t55.5 29t47.5 14q25 5 76.5 20t78.5 19q22 3 95 26h10t9 0.5t6.5 1.5t4.5 4t1.5 8t0.5 13q0 16 -3.5 36.5t-4.5 32.5q-1 14 -8.5 26.5t-24.5 25 t-23.5 17t-25.5 15.5q-14 10 -31.5 14t-28.5 4.5t-33.5 -0.5t-31.5 -1q-33 0 -49 -8q-38 -16 -51 -68q-3 -7 0 -21t-4 -16q-14 -6 -27 -4.5t-37 7.5t-30 7q-14 1 -30.5 -1.5t-27.5 -2.5q-4 1 -10 0.5t-15.5 -1.5t-11.5 -1q-5 2 -2.5 18t0.5 27q-2 6 -2 29q4 19 19 57 q34 69 51 84q3 3 30 21t29 18q12 7 26.5 11.5t24.5 6t29.5 4t28.5 3.5q8 1 39.5 7t43.5 8t39 5.5t43.5 4t39 -0.5t41.5 -4q58 -9 129 -45q3 -2 23 -13t28 -20q9 -9 23 -26.5l18 -22.5q45 -45 45 -73zM618 354q1 7 1 26.5t2 35t6 26.5q-4 0 -6.5 -2t-5.5 -6t-5 -6 q-20 -10 -37 -10q-8 0 -38 -15q-7 -3 -12 -8t-9 -6q-11 -2 -36 -7.5t-29 -6.5q-6 -2 -12.5 -5.5t-11.5 -5.5t-11 -2q-8 -5 -27 -9t-27 -9q-50 -22 -69 -41q-4 -5 -17 -24q-1 -2 -4 -6t-4.5 -9.5t-1.5 -15.5q0 -15 2 -17q1 -2 4.5 -13t8 -18t8.5 -7q3 -8 16 -21q1 -1 6 -3.5 t11 -6.5t10 -8q2 1 12 1t12 1l11 -3q11 -3 16 -3q31 -3 76 4q10 0 32 5t31 5q10 2 30.5 10t24.5 14q12 6 15 9q5 5 14 8q0 10 4 18q0 2 -1 7t-0.5 9.5t3.5 8.5q1 3 2 15t2 16q1 13 2 37.5t2 37.5z" />
<glyph unicode="b" horiz-adv-x="1075" d="M997 578l7 -52q2 -7 2.5 -29t-2.5 -28q-6 -6 -3 -23v-8q0 -20 -6 -47t-6 -33q0 -35 -12 -65q-3 -4 -14.5 -42.5t-14.5 -41.5q-5 -5 -9 -10.5t-7 -12.5t-4.5 -12t-3 -12.5t-2.5 -9.5t-8 -13t-12 -20t-5 -13q-2 -1 -14 -12.5t-23.5 -22t-11.5 -8.5q2 -8 -16 -25t-31 -20 q-9 -3 -13 -2q-3 -3 -12 -6t-10 0q-19 -3 -21 -4l-6 -1q-6 -1 -10.5 -0.5t-7.5 3.5q-7 -5 -15.5 -6t-11.5 -2q-4 -2 -8.5 -1t-9.5 -1q-5 2 -12.5 2t-11.5 -1l-5 -1q-4 -4 -6.5 -5t-7 0t-6.5 1q-9 6 -52 6q-13 1 -21.5 0t-17.5 1t-18 7q-13 8 -37 8q-11 0 -43 27 q-3 2 -12 9.5t-15.5 12.5t-17 11.5t-15.5 6t-11 -4.5q-9 -14 -5 -44.5t-8 -37.5q-2 -2 -15.5 -8t-19.5 -11q-9 -2 -28 0q-9 1 -30 5t-34 6q-3 0 -31 -6l-28 -5q-9 -1 -15 4t-9 15.5t-4 19.5t-1.5 23t-1.5 20q0 1 2 29t2 39l-4 28q-4 28 -2 42q-3 17 2 56t2 58 q-2 6 -0.5 35.5t0.5 42.5q-4 12 -2.5 45.5t0.5 36.5q-1 9 2.5 28.5t3.5 22.5q0 30 -5 66.5t-3 54.5q6 73 0 141q0 10 1 22t1 13q0 3 1 20l1 17q-3 13 -2.5 28.5t2.5 28.5l2 13q2 6 2 11t-1 8.5t-1 4.5q-2 2 -3 35t-1 65v33q3 6 4.5 16t1 18t-1 17.5t-0.5 10.5q0 5 -2 12 q-1 6 0.5 25.5t1.5 25.5q4 76 -6 123q-4 13 -3.5 40t-0.5 38q-1 4 0 8.5t3 9t3 7.5q3 7 0.5 10.5t-1.5 5t4.5 2t17.5 0.5q1 0 14.5 -1t27.5 -2t28 0.5t18 4.5q3 3 26.5 2.5t42.5 -1.5t23 1q7 -2 26 1t25 1q11 -3 12 -14.5t-3 -25.5t-3 -17q4 -9 1.5 -36t-1.5 -34 q-1 -1 1.5 -37.5t-1.5 -42.5t-0.5 -28t2.5 -25q-2 -19 -2.5 -23.5t2 -22.5t2.5 -22v-49q0 -2 1 -15t0.5 -25t-3.5 -23v-21q0 -5 -3.5 -33t-4.5 -28q1 0 0 -24t-2 -51t0 -32q7 5 19 23t18 20q6 1 21.5 14.5t15.5 16.5q2 2 8.5 5t14 6.5t8.5 3.5q3 2 23.5 12.5t31.5 17.5 q8 0 24 4q8 2 25.5 1.5t21.5 2.5q3 0 8 -2q4 -3 5 2q9 -2 29.5 1.5t29.5 0.5q14 0 53.5 -6t49.5 -14q4 -3 21 -8t22 -8q40 -17 51 -37q1 -2 14.5 -13t25 -25.5t11.5 -29.5q7 -12 27 -51l10 -29q23 -91 20 -96q-3 -9 -2.5 -19.5t2.5 -26t2 -17.5zM715 268q4 4 20.5 28 t16.5 26q8 19 8 63q2 17 3 73t7 81q4 24 4 34q-3 8 -3.5 21t-2.5 18q-5 7 -10 25t-10 25q-4 8 -4.5 17.5t-0.5 10.5q-3 2 -7 3t-6.5 4t-4.5 10q-2 -1 -4.5 -0.5t-6.5 1.5t-5 1q-7 7 -49.5 9.5t-55.5 0.5q-49 0 -57 -8q-1 -1 -21.5 -10.5t-21.5 -12.5q0 -1 -13 -13.5 t-28.5 -27.5t-16.5 -16q-4 -5 -7 -7.5t-7 -7.5q-4 -3 -6 -8.5t-3.5 -13.5t-2.5 -12t-33 -86q-3 -10 -2 -48.5t0 -39.5l-1.5 -15t2.5 -16t4.5 -15.5t5.5 -15t5 -14.5q2 -4 9.5 -20t15.5 -23q12 -8 34 -31t36 -31q2 0 26 -9t25 -9t11.5 -1t16 0t7.5 5h20q4 0 6 2q4 2 17 2 q2 3 5.5 6t7.5 6t7.5 5t6 3.5t1.5 2.5q4 -4 27 7t35 21z" />
<glyph unicode="c" horiz-adv-x="888" d="M848 180q2 -7 -8 -26q-19 -51 -47 -82l-17 -19q-17 -19 -28 -27.5t-17 -5.5q-3 0 -15.5 -8.5t-23.5 -17.5l-12 -8q-7 2 -28.5 -1t-26.5 -8q-21 0 -31 -2q-8 6 -19 2h-32q-6 1 -24.5 1t-32 2t-23.5 6q-43 14 -92 20q-9 2 -31 10.5t-35 10.5q-42 7 -53 16q-16 14 -39 31 q-4 4 -21 15.5t-18 12.5q-31 27 -57 93q-21 41 -21 43q-1 7 -3 16t-5 20t-4 17q-9 22 -25 119q-3 63 7 116q3 10 5 19t4 19t3 16q1 7 2.5 18.5t2.5 18t3 14.5t6 14q2 4 10 23t11 22q5 6 15.5 30t10.5 25q35 72 56 99q29 47 69 71q72 43 76 43q10 1 57.5 10t73.5 7 q59 0 72 -4q12 -4 33 -9.5t37.5 -11.5t31.5 -14q13 -3 32 -15t30 -16q3 -2 14 -11.5t18.5 -15t19.5 -11t21 -5.5q5 0 13 -12t10 -19q1 -1 6 -5.5t7.5 -7t6 -7t5.5 -9.5t3 -11q1 -9 -23 -36.5t-38 -35.5q-6 -5 -22 -13.5t-27 -19.5q-2 -2 -18.5 -17.5t-20.5 -23.5 q-2 -3 -6.5 -5t-5.5 -9q-1 0 -8 7t-9 7q-8 3 -23 14.5t-18 12.5q-7 3 -21 10t-25.5 12t-20.5 6q-4 0 -24.5 1.5t-28.5 3.5q-10 -2 -28 -13.5t-28 -13.5q-32 -26 -39 -37q-2 -2 -15 -28t-15 -27q0 -16 -13 -54.5t-10 -60.5q2 -13 8 -39t8 -41q0 -6 8 -33.5t11 -33.5 q16 -38 82 -68q40 -16 71 -16q9 -1 43 10q4 1 12.5 6t14.5 7.5t10 0.5q19 0 42.5 32t35.5 34q9 3 17.5 -3.5t19 -18.5t16.5 -17q2 -2 8 -10t11.5 -14.5t11.5 -13.5t11 -11t8 -4q28 -28 28 -31q8 2 27 -27z" />
<glyph unicode="d" horiz-adv-x="1032" d="M889 1282q-2 -5 -1.5 -12.5t2.5 -15t3 -7.5q-5 0 -4.5 -24t0.5 -27q0 -8 -1 -27t-1 -35t2 -28q2 -33 -0.5 -95t-1.5 -89q1 -22 4.5 -93.5t3.5 -111.5q-1 -17 -5.5 -64t-4.5 -73q2 -53 -0.5 -110.5t-7.5 -135t-7 -107.5v-125q-1 -9 1 -27.5t1.5 -33t-4.5 -21.5 q-9 -9 -12 -7q-4 4 -10 5q-6 -1 -16 -2t-15 -2q2 -3 -45.5 -13.5t-91.5 -16t-60 3.5q-4 3 -0.5 26.5t3.5 26.5q0 7 -3.5 18t-3.5 13q-6 -1 -21.5 -12t-21.5 -17q-17 -13 -22 -23q-18 0 -23 -10q1 -1 -16 -4t-34 -6.5t-17 -5.5q-6 8 -68 8q-15 0 -28 3.5t-32 11.5t-24 10 q-7 2 -21 10t-18 10q-29 14 -43 31q-1 1 -4.5 4t-9 7.5t-11.5 10t-12 10.5t-10.5 10t-6.5 8.5t-1 4.5q1 3 -5 12t-9 9q0 9 -12.5 28.5t-12.5 28.5q1 5 -8 31.5t-19.5 55t-11.5 32.5q-15 60 -22 153q-2 47 22 156q3 22 18.5 52.5t18.5 39.5q28 78 55 111q39 46 45 47 q18 2 47 26.5t37 28.5q12 6 56 12.5t59 6.5q8 1 36 3.5t41 3t38 -0.5q4 1 12 -3t15 -8.5t16.5 -11.5t11.5 -8q20 -14 49 -43q4 7 5 15.5t0 22.5t-1 17q0 86 -2 103q-1 15 1 41t1 39q-1 15 0 53t0 55v74q1 7 -1.5 46.5t3.5 43.5q-14 20 0.5 27t49 10t47.5 8q2 1 19 -2.5 t19 0.5q25 6 37 0q35 -7 60 -4q7 1 10 -3t2 -12t-3 -16.5t-4 -18.5t-1 -16q0 -38 -2 -43q-3 -6 -2.5 -27.5t4.5 -25.5zM573 262q19 15 30 40t13 41.5t5 51.5q17 129 2 195q-10 66 -27 78q-4 4 -11.5 14t-14.5 17t-13 6q-8 0 -29 14q-4 0 -20 5t-19 9q-5 -2 -18.5 -1.5 t-21.5 -2.5q-3 -2 -31 -16q-19 -8 -60 -45q0 -3 -5.5 -16t-6.5 -13q-5 -4 -8 -19t-4.5 -34t-1.5 -21q-11 -67 10 -153q5 -3 7.5 -30t6.5 -30q4 -38 56 -78q10 -8 19.5 -13.5t22 -8t20 -3.5t24 1t22 2.5t27 4.5t26.5 5z" />
<glyph unicode="e" horiz-adv-x="999" d="M934 573q1 -10 0 -31t0 -30q0 -19 -10 -25q-5 -8 -33 -2q-16 4 -92 4q-16 -3 -41 0h-53q-14 2 -31 -4q-6 3 -24.5 6t-22.5 5h-6q-3 -5 -24 -3.5t-24 1.5q-1 -2 -28 -2t-29 2q-2 0 -4 2h-12q-18 -4 -25 -7q-5 5 -26 5h-7q-47 -7 -53 -5q-6 1 -12 0.5t-11.5 0t-7.5 4.5h-2 q-6 -2 -30 -2q-8 -1 -7.5 -20t-1.5 -23q-6 -7 0 -16.5t5 -10.5q-4 -9 11 -36.5t23 -33.5q1 -4 12 -20t11 -21q4 -14 27 -32q5 -4 30.5 -31t32.5 -31q8 -5 12 -6.5t7.5 -0.5t13.5 -1q16 0 28 -4q9 0 17 4q9 0 27 3t28 3q29 0 43 16q7 8 49 47t47 44q14 14 39 -3q12 -8 38 -14 t32 -8q5 -2 14.5 -5.5t15 -6t14 -7.5t10 -10t5 -13.5t-1.5 -18.5q-5 -5 -4.5 -15.5t-9.5 -17.5q-13 -13 -25 -37q-13 -32 -24 -41q-7 -7 -19 -25q-2 -2 -14.5 -16t-19.5 -21q-3 -3 -19 -14.5t-20 -17.5q-11 -9 -93 -45q-34 -11 -106 -11q-3 0 -15.5 0.5t-16.5 1t-16 1 t-17.5 1.5t-16 2.5t-17 3.5t-14.5 4.5t-15 6.5t-13 8q-7 -7 -48.5 6.5t-46.5 20.5q-6 10 -43.5 21.5t-50.5 31.5q-3 5 -39 41q-4 3 -11.5 15t-10.5 14q-6 5 -16.5 22t-14.5 21q-9 9 -20 46t-15 62q-2 10 -7 46t-7 46q0 7 -1 17.5t-1 17.5q0 24 4 60q14 98 20 106 q3 4 13 35.5t19 60t11 27.5q0 10 5 21.5t13 23.5t11 18q3 5 9.5 15t7.5 14q2 6 5 17t5 16q16 34 65 61q11 6 35 21.5t35 21.5q5 3 17 11t22 13t20 7q23 4 68 4q80 0 119 -6q6 0 12 -2q3 0 9.5 -2t8.5 -2q72 -23 86 -29q3 -2 10 -6l14 -8t13 -8q3 -2 16 -10t21 -13 q28 -19 35 -29q2 -4 18 -12q6 -9 17 -20q4 -3 20.5 -27.5t18.5 -26.5t14 -32q4 -6 8.5 -19.5t7 -23.5t2.5 -11q12 -50 19 -125zM651 678q3 2 14.5 2.5t12.5 1.5q0 11 -12 33t-21 26q-2 1 -18 17q-2 1 -15 7t-18 11q-8 10 -30.5 10t-33.5 -6q-7 -3 -26.5 -8t-22.5 -6 q-9 -2 -24 -15t-17 -14q-13 -8 -31.5 -27t-9.5 -24q5 -2 25 -2t29 -2h16q42 4 119 0q8 0 24 -2t21 -2h18z" />
<glyph unicode="f" horiz-adv-x="704" d="M586 1448q12 -3 46 -2.5t49 -7.5t11 -35q-6 -43 -1 -72.5t0.5 -61.5t-27.5 -57q-4 -5 -56.5 -7t-64.5 -7q-20 -9 -27 -51.5t-4 -65.5q0 -2 -2.5 -30.5t-3 -46t3.5 -27.5q3 -3 2 -4q0 -2 7 -3.5t14 -2.5t8 -2q27 -12 94 -2q20 3 29 -6t0 -29q-5 -12 0.5 -47t-2.5 -52 q-1 -5 -0.5 -26.5t2.5 -24.5q-10 -18 -78 -18q-27 3 -56 0q-16 -4 -20 -4h-25q-10 -20 -10 -80q5 -44 2 -68q-7 -54 -8 -148t-2 -108q-1 -16 1.5 -45.5t2.5 -42.5q0 -3 1 -14.5t1 -20.5t-2 -12q-10 -21 -8.5 -62t-3.5 -63v-41q-5 -47 -17 -63q-3 -4 -11.5 -4.5t-20.5 1 t-15 1.5q-11 7 -43.5 8.5t-46.5 -0.5q-15 -1 -44.5 4t-39.5 6q-12 1 -19 10.5t-9 24t-3 31.5t0 32t0 25q-1 69 -1 100.5t2.5 102t3.5 102.5q0 190 -13 281q-1 12 -5 20.5t-7.5 13t-13 7t-13.5 3.5t-18 1.5t-19 1.5h-43l-28 4q-4 7 -13 10t-12 6q-3 4 -4 9t-1 12t-1 10 q-2 12 4 41t2 37q2 3 -0.5 17.5t-5.5 15.5q0 7 4 13t4 7q2 4 7 5.5t12.5 1.5t9.5 1q3 2 10.5 -0.5t11.5 0.5q6 3 15.5 2.5t24.5 -2.5t18 -2q9 0 31.5 6t27.5 7q2 0 8.5 1t12 1.5t11 2t9 4t4.5 5.5q2 12 3.5 72.5t3 115.5t4.5 58q4 5 4 56.5t14 59.5q0 9 3.5 15.5t9.5 13 t9 12.5q2 4 18 16.5t19 16.5q-1 1 17.5 8.5t38 15.5t20.5 9q19 -3 25 -3.5t25.5 2t27.5 3.5q49 0 47 2q4 -4 36 -3t36 3z" />
<glyph unicode="g" horiz-adv-x="1110" d="M995 422q5 -32 -0.5 -93.5t-5.5 -78.5q1 -10 3.5 -38t2.5 -39t-2 -38q-8 -46 -8 -78q-1 -22 -9.5 -61t-10.5 -51q-19 -136 -29 -170q0 -1 -6 -22.5t-9 -30l-9 -25.5t-12.5 -28t-14.5 -19q-10 -7 -28 -30t-28 -30q-7 -5 -27.5 -21.5t-35 -26.5t-31.5 -17 q-100 -53 -241 -53q-3 1 -25 -1.5t-42 -1.5t-24 9q-29 -3 -81 30q-13 10 -38 27t-41.5 30.5t-31.5 31.5q-37 52 -41 67q0 1 -11.5 26.5t-11.5 37.5q-13 13 -14.5 41.5t2.5 48.5q1 5 0 13.5t0 14.5q1 9 -3 21t1 16q3 7 17 7.5t33.5 -2.5t23.5 -3q10 0 26.5 -3t28.5 -3 q68 0 70 -6q-2 4 28 -3q10 -2 9 -3q6 4 11 -2t9 -21l4 -16q14 -32 45 -57.5t62 -26.5q44 0 69 10q2 1 14.5 6t21.5 9t20 10.5t17 14.5t5 16q9 3 12 15.5t11 12.5q-1 3 8 21q30 65 33 127l11 87q1 4 1 3q-3 7 1 36.5t3 32.5q-7 -9 -26 -24.5t-29 -28.5q-12 -7 -42 -28.5 t-52 -28.5q-47 -27 -121 -6q-11 2 -29.5 3t-28.5 3q-4 0 -29 4t-32 2q-3 3 -28.5 11t-48 15.5t-21.5 8.5q0 -1 -13 7t-28 18.5t-21 15.5q-10 9 -32 38t-27 40q-3 5 -7.5 16.5t-7.5 15.5q-13 21 -26 72q-23 58 -23 68q0 13 -1.5 50t-0.5 58q2 95 27 193t76 149q8 8 22.5 25.5 t27 30.5t25.5 24q108 74 179 74q52 0 78.5 -1.5t71.5 -8t76 -25.5t52 -49q-1 9 3.5 24.5t2.5 22.5q4 13 11 16.5t22 3.5q2 0 14 2t20.5 2.5t20 1t19.5 -1t12 -4.5q5 -4 24 -4t42 2t26 2q4 0 18 1t22.5 1.5t18.5 -3.5t13 -13q5 -9 7.5 -23t3 -22t0 -28t-0.5 -23 q1 -48 2 -146.5t2 -146.5q1 -9 1 -58t3 -71zM649 311q6 9 16 20.5t16 21t7 20.5q1 8 11 37t10 30q8 73 -9 140q-2 5 -9 14t-7 16q0 11 -27 29q-11 20 -41 35q-39 22 -71 24q-4 0 -37 1t-37 1q-51 -3 -92 -30q-16 -11 -26.5 -28.5t-14.5 -30.5t-8.5 -38t-7.5 -34 q-11 -35 2 -96.5t38 -90.5q31 -47 56 -57q4 -7 12.5 -10t23 -4t19.5 -2q48 -8 98 -5q30 2 48 9t30 28z" />
<glyph unicode="h" horiz-adv-x="1048" d="M918 530l2 -114l-7 -49q0 -22 -8 -68v-74q0 -8 1.5 -23.5t1.5 -27t-3 -18.5q-8 -25 -4 -43q3 -14 5 -36t0.5 -49t-9.5 -36q-14 -15 -25 -14.5t-22 -0.5q-9 -4 -30.5 -3t-37.5 -3q-13 1 -17 1t-12.5 -2.5t-11.5 -2.5q-15 -2 -26 0q-15 1 -23 3.5t-14.5 10.5t-7.5 23 q-1 4 -4 9.5t-2.5 7t4.5 8.5q-2 7 1 14t3 8q0 75 2 92q-5 4 -3 29t1 29q-2 13 1 35t1 30q-1 7 4.5 20.5t1.5 22.5q-1 6 -0.5 15t1.5 23.5t1 17.5q-1 21 -8.5 84t-7.5 94q-1 1 -2.5 15.5t-2.5 28.5t-2 13q1 1 0 5t-2.5 8t-1.5 5q0 11 -8 35q-8 23 -11.5 33t-10 18.5 t-8.5 10.5t-14.5 9t-20.5 13q-4 5 -12 2.5t-13 -0.5h-25q-20 0 -28 -8q-18 -15 -29 -26q-8 -5 -24 -29l-5 -6q-4 -5 -9 -10t-9 -7q-8 -3 -15 -15t-11 -25.5t-7 -33t-4 -32t-2.5 -28.5t-1.5 -17q-2 -17 2 -51t4 -48q0 -2 -7 -47t-5 -51q2 -12 2 -39q1 -9 3 -26t3 -31t0 -25 q-1 -8 4.5 -46.5t7.5 -47.5q2 -11 3 -43t-3 -35q-2 -2 -7 -4.5t-11 -4t-8 4.5q-6 -6 -17 -7.5t-18.5 -3t-7.5 -7.5q-12 0 -17 -13h-39q-67 -6 -81 5q-1 4 -24.5 2.5t-25.5 3.5t-2 10.5t1 11.5t1 8q0 29 2 43q1 3 2 33.5t3 36.5q-1 32 -6.5 85.5t-4.5 84.5q0 4 1 17.5 t0.5 23.5t-3.5 18q0 3 -5 20t-5 26q0 1 4 9t5.5 13t-3.5 8q3 17 -0.5 41.5t0.5 34.5q0 2 3 9.5t3 8.5q-4 17 -4.5 28t1 20.5t1.5 15.5q0 3 3 45t4 72t-1 45q-4 5 -1.5 37t1.5 36q-5 30 1 70t6 51q1 8 1 18t-0.5 22t-0.5 18q-1 10 -5 26.5t-2 30.5v51q0 3 -1 14t-0.5 18.5 t3.5 12.5q6 1 5.5 34t-0.5 34q1 14 -1 32.5t-1 30.5q0 4 -1 17.5t-1 26t2 20.5t1 21t1 18q2 6 2.5 19t2 23t5.5 13q6 4 22.5 4.5t26.5 -6.5q2 -2 12.5 4.5t18.5 3.5q2 1 12.5 2t19 2.5t9.5 3.5q5 0 18 1.5t18.5 1.5t15 -1t16 -5.5t11.5 -12.5q1 -1 7 -12t8 -17q3 -6 6.5 -22 t-0.5 -19q-2 -2 -3.5 -25.5t1.5 -31.5q1 -2 -0.5 -5.5t-1.5 -6.5q3 -9 0 -19q2 -1 2 -78q0 -51 -4 -59q-5 -3 -3 -34.5t1 -39.5q-4 -41 2 -73q3 -1 0.5 -35.5t-2.5 -42.5q-5 -5 -1.5 -20.5t1.5 -20.5q1 0 5 5.5t9 12t8 8.5q45 45 72 45q15 17 102 29q51 7 78 2 q24 -5 33.5 -7.5t24 -8.5t34.5 -17q9 -2 23 -15.5t28.5 -30.5t18.5 -21q11 -9 29.5 -51t15.5 -52q-2 -7 1 -15t8.5 -16t6.5 -12q2 -5 13 -38q5 -13 9.5 -47.5t6.5 -43.5q17 -35 17 -84z" />
<glyph unicode="i" horiz-adv-x="561" d="M408 965q12 -7 15.5 -15.5t1 -27t-2.5 -25.5q0 -57 -8 -70q-3 -10 -2.5 -38t3.5 -59l3 -30q-14 -29 -5.5 -129.5t5.5 -134.5q-2 -5 -0.5 -21.5t0.5 -21.5q-3 -8 -2 -20.5t-2 -20.5q2 -27 -1 -77.5t-3 -65.5q0 -3 1 -55t-1 -56q-6 -67 -7 -73q-3 -10 -8 -16t-13 -8.5 t-12.5 -3t-17 0t-16.5 0.5q-18 0 -53.5 -3.5t-44.5 -4.5q-76 -6 -93 4q-8 7 -10 43.5t2 46.5q8 33 2 106q-4 65 0 99q13 63 4 98l-2.5 22.5t1.5 17t3 19.5q1 6 1 23t2 29.5t6 23.5q-1 12 -0.5 51.5t1.5 98t1 65.5q0 69 -9 197q0 45 48 39q6 2 19.5 2.5t25.5 0t23.5 -1.5 t12.5 -1q8 0 29.5 0.5t35 0.5t33 -2t34.5 -7zM424 1241q-1 -8 0.5 -34.5t-1 -46t-11.5 -30.5q-9 -16 -32.5 -19t-58.5 1t-38 4q-7 1 -40.5 3t-52.5 8t-24 20q-6 13 -1.5 32.5t1.5 26.5q8 31 4 82q-5 32 16 62q23 34 115 14q7 -1 32 -1t45.5 -3t27.5 -12q7 -7 14 -7 q8 -21 4 -49v-51z" />
<glyph unicode="j" horiz-adv-x="542" d="M401 367q1 -15 -1 -48t-1 -49t-1.5 -65.5t-2.5 -61.5q0 -5 -2.5 -27.5t-2.5 -36t3 -28.5q2 -4 2 -18.5t-1 -32t-1 -20.5q0 -24 -4 -74q-6 -103 -31 -211q-4 -17 -12.5 -32t-22.5 -33t-20 -29q-19 -32 -67 -52q-7 -4 -20.5 -7.5t-18.5 -6.5q-7 -4 -21 -5.5t-31 -1.5 t-22 -1q-70 -4 -111 -4q-110 -11 -108 8q0 46 2 55q5 31 2 70q-1 11 3.5 33.5t2.5 36.5q0 3 -4.5 20.5t-3.5 29t10 17.5q14 6 21 4.5t22.5 -6.5t26.5 -6q12 -1 23 1.5t27 8.5t23 8q19 6 45 46t17 53q12 24 8 57q-4 8 -2.5 54.5t0.5 54.5q-3 30 4 116t4 117q-1 11 1.5 34.5 t2.5 31.5q0 7 -2.5 38t-1.5 44t5.5 53t4 65.5t-7.5 53.5q-8 32 -8 112q0 10 1.5 52.5t0.5 60.5q0 5 -2 24t-3 34.5t-1.5 33.5t2 29.5t8.5 13.5q11 3 32.5 -1t29.5 -3q2 0 57.5 -1.5t56.5 1.5q20 4 35 4q4 0 12 1.5t15.5 1.5t13.5 -3q6 -12 6 -39q1 -36 -0.5 -109.5 t-1.5 -95.5q0 -27 3.5 -76t4.5 -65q0 -1 1.5 -71.5t-1.5 -71.5q-3 -33 2 -86zM117 1284q1 10 -1.5 30.5t1 30t20.5 11.5q111 16 168 10q36 -4 60 6q9 -10 9 -23t1 -14q3 -14 3 -25t-2.5 -30t-2.5 -27q4 -58 2 -94q-2 -11 -9.5 -18t-22.5 -9t-25.5 -3t-30.5 0t-25 1 q-6 0 -40.5 -5.5t-59 -5t-37.5 10.5q0 151 -8 154z" />
<glyph unicode="k" horiz-adv-x="1064" d="M1044 76q1 -4 8 -18.5t9 -22.5t0 -19q-12 -6 -57 -6q-10 2 -33 -2q-11 -2 -33 -2.5t-29 -1.5q-11 -2 -31 -1.5t-30 -0.5q-1 0 -10.5 -2t-15.5 -3t-9 1q-13 11 -24 35t-11 43q0 16 -14 39q-5 8 -12 29.5t-9 25.5q-15 26 -22 45q-14 35 -14 39q0 13 -11.5 31.5t-13.5 25.5 q-15 44 -29 68q-5 9 -16 46t-14 44q-3 6 -5.5 21t-5.5 20q-2 3 -6.5 14.5t-9.5 20.5t-10 8q-6 -1 -16.5 -10.5t-24 -24.5t-19.5 -20q-8 -8 -31 -28.5t-34 -33.5q-5 -4 -15.5 -8.5t-15.5 -11.5q-12 -16 -24 -21q-11 -5 -15 -21.5t-4.5 -40.5t-1.5 -30q-8 -41 -8 -119.5 t-2 -103.5q-1 -12 0.5 -31t0 -33t-10.5 -24q-3 -3 -18.5 -5t-29.5 -2t-14 3q-8 -4 -8 -8q-11 8 -29 12q-26 0 -26 4q-4 4 -19 0t-20 0q-7 -4 -21 -0.5t-20 0.5q-2 1 -6 1.5t-6.5 0.5t-5 2t-3.5 6q-4 9 -4 51q0 103 2 150q0 23 4 63q0 6 -0.5 51.5t4.5 51.5q-5 4 -1.5 35.5 t3.5 35.5v66v154v67q0 2 2 18.5t3.5 28.5t-0.5 17q-5 3 -5.5 65t3.5 70q-6 42 4 145q1 26 -0.5 102.5t-1.5 86.5q0 4 1.5 23.5t1.5 36t-3 22.5q1 2 2 20q9 74 16 74q49 2 55 2q15 2 40.5 1.5t41.5 0.5q21 0 27 6l24 -6q13 -3 19 -36.5t6 -59.5q0 -13 1 -57.5t1 -59.5 q0 -5 -1 -33t-0.5 -48.5t3.5 -31.5q5 -18 0 -84t-4 -84q0 -4 1 -55.5t5 -73.5q3 -15 0.5 -47t-0.5 -47l12 12q7 -2 15 4t18 18.5t12 14.5q37 32 50 51q6 8 38.5 42.5t40.5 39.5q10 6 31.5 33t28.5 33q39 33 57 55q11 18 61 24t74 -3q6 -2 31 -1t54.5 2.5t62.5 -1.5l3 -5 q4 -12 -1 -20q0 -1 -35 -41q-9 -10 -31 -34.5t-39 -45.5t-26 -37q-8 -12 -42 -55t-44 -70q1 -4 11.5 -20t12.5 -27q8 -5 29 -53q73 -155 100 -225q7 -17 29.5 -70.5t37 -90t24.5 -71.5q6 -18 20.5 -54t19.5 -56z" />
<glyph unicode="l" horiz-adv-x="524" d="M381 1415q11 -17 2 -119q0 -1 2 -8q4 -20 0 -20q3 -11 3 -25.5t-1.5 -32.5t-1.5 -26q5 -21 1.5 -139t-3.5 -136q0 -64 -4 -114q-1 -12 -1 -40.5t-1 -41.5q-1 -5 -1 -36.5t-1 -35.5q-3 -9 -0.5 -55.5t0.5 -55.5q6 -10 6 -14q0 -10 -1 -43t-1 -43q4 -58 4 -74q0 -2 1 -29.5 t1 -49t-2 -21.5q4 -41 4 -131t-12 -123q-2 0 -20 -3.5t-19 -4.5q-2 2 -2 6l-7 -3q-7 -3 -13 -3.5t-11 2.5q-4 4 -43 4q-13 -2 -33 -1.5t-34 -0.5q-23 0 -41 12q-5 4 -8.5 28t-3.5 46l-1 22q0 8 -2 27t-2 27q1 10 2 35.5t2 37.5q-1 5 0.5 44t2.5 67.5t-3 36.5l2 84 q-3 3 -3.5 17t1.5 18l2 -4q2 3 1.5 16.5t-0.5 32.5t3 24q0 4 -4 0q-1 16 0 45.5t0 42.5q-1 -3 -2 1q-6 23 -2 34q5 9 1.5 56t0.5 53q3 7 3.5 31t2.5 28q5 6 0 40t-4 38v84q-1 2 1.5 23.5t3.5 38t-3 20.5q3 7 3 16t-1.5 19.5t-1.5 15.5q0 8 6.5 96t2.5 117v25q-5 6 -4 13.5 t4.5 20t3.5 13.5q7 2 17 3t18 0.5l16 -1t10 -0.5q7 -1 37.5 -2t40.5 -2q37 4 55 0h23q3 -2 4.5 -11.5t3.5 -11.5z" />
<glyph unicode="m" horiz-adv-x="1699" d="M1552 735q28 -193 15 -293q-3 -34 -0.5 -114.5t-5.5 -112.5q-5 -27 -4 -75.5t-3 -73.5q-1 -1 -2 -18q-6 -56 -12 -56q0 2 -70 2q-6 -2 -17 -2t-24 1t-16 1q-2 0 -18.5 -0.5t-30.5 -0.5t-30.5 1t-25.5 3t-8 5q0 43 7 111q0 13 1 40t1 40q0 2 2 15.5t3 22.5t-1 13 q-3 8 -2 24.5t3.5 42t2.5 29.5q1 13 1 46.5t5 53.5q13 85 -23 207q-14 43 -61 64q-6 2 -21 4t-25.5 2.5t-12.5 -0.5q-2 0 -6 -2.5t-9 -5.5t-6 -4q-7 -3 -21.5 -9.5t-19.5 -9.5q-15 -5 -24.5 -27t-12.5 -26q-23 -26 -31.5 -70t-9.5 -108.5t-4 -85.5q-6 -64 -6 -131 q0 -26 -3 -81t-3 -81l-2 -20q-1 -20 0 -27q5 -27 -10 -31q-1 0 -11 0.5t-21 0.5h-24t-23.5 -1.5t-14.5 -3.5q-9 -4 -22 -4t-28 2t-20 2q-39 0 -57 -4q-12 -3 -17.5 6t-1.5 18l-2 58q6 4 6 106q3 22 1.5 67t0.5 68q3 63 -2 111q-3 24 -2.5 81t-3.5 81q-12 68 -39 92 q-23 21 -57 33t-64 4q-14 -4 -40.5 -6.5t-44.5 -5t-37.5 -15t-28.5 -35.5q-2 -4 -9.5 -21.5t-11.5 -23.5q-5 -7 -9 -21.5t-7 -34t-4 -22.5q-5 -22 -6 -66.5t-2 -57.5q-3 -26 -7.5 -86.5t-7.5 -86.5q-3 -20 5 -74.5t-1 -72.5q-1 -9 0.5 -34.5t-1 -42t-11.5 -25.5 q-8 -7 -31 -6.5t-32 6.5q-11 -2 -25 0q-2 1 -31 2t-54.5 3.5t-25.5 6.5q-20 -8 -36.5 -5t-16.5 27q1 19 -2.5 54t-3.5 43t3.5 33t4.5 39t-4 28q-3 3 -3 14t1.5 24t1.5 15q0 51 2 80q3 45 1 171t7 171q2 11 3 69t10 85q0 4 -2 17.5t-2 25t4 16.5q-6 15 -8 42.5t4 39.5 q10 13 32 12.5t33 -10.5q1 1 15.5 2.5t15.5 3.5q2 6 15.5 0.5t17.5 -2.5q5 1 17 -0.5t13 -1.5q6 0 17 1t16 1q5 -8 33.5 -4t30.5 2q0 -18 4 -26q1 -8 1 -25t1 -23q3 3 10.5 12.5t15 16.5t13.5 10q17 6 22 15q3 0 17 7t23 10.5t13 -3.5q9 6 23.5 9t25 3.5t30 0t22.5 -0.5 q8 0 28 -6.5t31 -3.5q3 -1 13 -4t19.5 -6.5t14.5 -7.5q4 -2 23 -9.5t24 -13.5q39 -26 43 -29q17 -13 33 -34q18 -20 47 -76q9 13 15 25t12 27.5t12 27.5q4 7 23.5 23t21.5 18t8.5 8t8.5 8q2 5 2.5 5.5t2.5 1.5t5 3q4 4 11 11.5t11.5 12t12 7t16.5 0.5q4 6 14 8.5t22.5 3.5 t16.5 2q27 5 35 4q9 9 14 9q1 0 74 -6q20 -3 78 -23q75 -27 109 -57q110 -95 122 -189z" />
<glyph unicode="n" horiz-adv-x="1120" d="M1036 336q3 -3 4 -15t0.5 -23t-2.5 -11q4 -40 0 -49q-2 -4 -1.5 -22.5t-2.5 -25.5q-4 -1 -1.5 -10t1.5 -10q2 -8 3 -26t-1 -25q-1 -1 -0.5 -4.5t1 -8t-0.5 -8.5q-1 -17 0 -33t-0.5 -33.5t-5.5 -27.5q-3 -7 -24.5 -9t-40.5 3l-39 -4q-11 1 -45.5 -1.5t-64 -2t-38.5 9.5 q-6 9 -7 23t1 34.5t2 26.5q-1 11 0.5 38t-0.5 36q-2 8 -1.5 29.5t-2.5 29.5q3 1 2.5 36t-4.5 42q1 0 1 19.5v42t1 26.5q6 89 -2 131q-1 8 -1 28t-1 25q-1 6 -1.5 29t-6.5 33q-4 7 -7 27.5t-6 25.5q-1 2 -3 8t-5.5 13t-9.5 16q-10 15 -34.5 25t-45.5 10q-5 0 -27 1t-26 1 q-38 -1 -57 -10t-52 -39q-12 -21 -24 -35q-4 -5 -13 -25l-8 -20q-3 -7 -26 -99q-2 -12 -4 -35.5t-4 -35.5q0 -1 -5.5 -34.5t-5.5 -43.5q0 -2 1 -18t0.5 -27.5t-3.5 -16.5q-5 -9 -3.5 -21.5t-0.5 -14.5q-2 -5 -2 -15.5t0.5 -27t-2.5 -45.5q2 0 0.5 -46.5t-4.5 -64.5 q0 -5 0.5 -27t-2 -37.5t-10.5 -23.5q-4 -3 -26.5 0t-27.5 6q-7 -4 -23.5 -4.5t-17.5 4.5q-2 0 -18 -3t-25 -1q-25 4 -41 2q-45 0 -53 16q-3 5 -4 15.5t0 19t3.5 22t2.5 15.5q0 9 1.5 40.5t0.5 45.5q3 1 3.5 47t-1.5 53q-1 5 3 34.5t1 35.5q-2 10 2.5 34t4.5 32q2 33 -4 96.5 t-5 93.5v42v75q2 26 3 77.5t2 63.5q1 3 1 36q2 89 7 89q9 -2 21.5 -1t32 4t24.5 3q4 0 19.5 2t26.5 1t17 -7q56 9 78 -4q3 -1 7 1t6.5 3t5 -1.5t3.5 -10.5q10 -29 4 -39q-5 -9 -2.5 -24.5t9.5 -18.5q4 -2 11 8.5t14.5 23t8.5 13.5q12 12 37 27q13 6 39.5 11.5t47.5 7.5l20 3 l14 1q14 1 40 2t63 -3q5 0 17.5 -6.5t16.5 -7.5q25 -8 31 -13q2 -2 22 -11t27 -17q3 -4 5.5 -7t3 -4t1.5 -2q31 -15 41 -28q3 -3 31.5 -22t34.5 -34q1 -3 13.5 -21.5t26 -42.5t21.5 -46q4 -11 7 -28.5t4 -31t0 -14.5q8 -7 13 -26.5t5 -30.5q2 -6 3 -28.5t2.5 -41.5t4.5 -20 q-3 -8 -2 -50.5t2.5 -75t-0.5 -38.5z" />
<glyph unicode="o" horiz-adv-x="1054" d="M983 555q5 -84 -22 -172q-13 -39 -19 -45q-16 -16 -22 -53q-3 -18 -35 -80q-20 -32 -41 -60q-3 -4 -12.5 -20.5t-12.5 -20.5q-10 -16 -16.5 -18t-9.5 -6q-50 -50 -52 -45q0 1 -15 -9.5t-30.5 -20.5t-17.5 -7q-2 0 -14 -6.5t-17 -7.5q-4 -1 -24.5 -8.5t-24.5 -8.5 q-75 -12 -123 -2q-18 3 -69.5 19t-47.5 22q-6 -2 -13.5 0t-4.5 10q-4 -3 -31.5 13t-52 34.5t-20.5 22.5q-4 -3 -11 3.5t-14 14.5t-8 9q-1 0 -21 20q-4 4 -4 8q-4 0 -8 4q0 22 -47 88q0 7 -8 31q0 2 -3 11t-3.5 12t0.5 6q-34 86 -37 184q0 11 -0.5 35.5t0 34.5t3.5 28t9 35 q5 20 14 47q1 6 11 27.5t10 22.5q-4 7 10 27.5t14 21.5q6 1 11.5 21.5t13.5 23.5q5 2 6.5 3t3 4.5t2.5 4.5q1 8 20 30.5t25 26.5q4 11 24 29t38.5 29.5t19.5 9.5q5 2 19.5 9.5t23.5 10.5q5 2 21 10.5t29.5 14.5t19.5 4q5 -1 34.5 4.5t32.5 5.5q17 1 55 -5t46 -7q27 -2 43 -2 q30 0 51 -6q15 -15 30.5 -17t26.5 -8q4 -2 10.5 -1.5t12.5 -2.5q3 -1 21.5 -9.5t33.5 -16t19 -11.5q14 -14 29 -32t22 -25q23 -23 31 -39q3 -8 6.5 -20t7.5 -21t12 -18q4 -4 6.5 -14.5t3.5 -19.5v-9q0 -4 2 -9t5 -17t6 -30q0 -15 12 -51q4 -28 4 -51zM702 367l17 41 q2 4 6 22t6 21q16 41 12 65q0 6 0.5 21t0 21.5t-1.5 17.5t-3.5 19.5t-7.5 18.5q-6 9 -16 29q-4 5 -10 11t-14.5 14t-14.5 14q-7 7 -47 27q-2 2 -17.5 9t-30 13.5t-14.5 7.5q-5 3 -33 0.5t-62.5 -7t-35.5 -3.5q-4 -4 -18.5 -9t-18.5 -7q-7 -6 -15 -17.5t-13 -13.5 q-38 -38 -52 -61q-9 -17 -14.5 -92.5t0.5 -79.5q1 -1 13 -37t24 -45q5 -5 19 -24t18 -28q4 -8 24 -21t27 -15q5 -3 12.5 -11t15 -12.5t17.5 -3.5q9 -6 25 -6q3 0 5.5 -2t4.5 -2q38 -5 82 16q8 4 29.5 16.5t31.5 16.5q4 1 14 16.5t11 16.5q17 26 24 43z" />
<glyph unicode="p" horiz-adv-x="1107" d="M1001 735q61 -153 48 -235q-2 -14 -6.5 -50t-7.5 -54.5t-8.5 -47.5t-13 -53t-18.5 -47q-46 -98 -112 -156q-83 -74 -221 -104q-72 -11 -183 0q-11 0 -33 15t-38 17q-5 -18 1.5 -61.5t6.5 -54.5q1 -16 1 -47.5t1 -49.5q0 -7 -4 -36.5t-2 -44.5q4 -15 4 -86q0 -12 3.5 -36 t3.5 -42t-7 -31q-13 -29 -62 -39h-96q-14 2 -42 -4.5t-43 -10t-23 2.5q-21 51 -11 119q1 23 2 76t2 77q0 82 -10 133q3 13 0 44.5t0 47.5q-5 8 -6.5 18.5t-0.5 27.5t1 20q-1 16 2.5 50t3.5 42q0 2 -1 17t0 23t5 13q1 3 0 21t0 22q2 19 1.5 38.5t-2 47t-1.5 31.5q5 104 4 121 q0 40 4 72q7 53 7 135q0 7 -5 80.5t-8 128.5t0 82q5 13 15.5 17t30 2.5t24.5 -1.5q12 0 49 -2t51 -2q-5 -5 63 3q7 1 9 1q17 -6 17 -43.5t10 -46.5q19 19 34 31q14 14 19 18q3 2 17 8.5t22.5 12.5t11.5 10q5 5 11 6.5t15 2.5t11 1q12 1 26 4.5t32.5 10t25.5 8.5q7 3 17 4 t18.5 1t22 -1.5t20.5 -2t22.5 -3.5t20.5 -4t21.5 -5t17.5 -4q8 -2 17.5 -10t20.5 -19.5t15 -15.5q2 0 16 -7t17 -7q1 -10 20 -25t21 -18q12 -23 36 -47q32 -79 47 -109zM791 401q12 54 10.5 115.5t-13.5 112.5q-9 22 -20 33q-23 23 -23 38q-8 4 -20.5 15.5t-22.5 13.5 q-46 15 -47 16q-7 3 -29 1t-32 -5q-7 6 -19 1t-29.5 -15.5t-21.5 -11.5q-25 -25 -41 -33q-38 -48 -45 -59q0 -8 -4 -19t-10 -25t-8 -18q-1 -7 -8.5 -37.5t-8.5 -46.5q-10 -6 -10.5 -29t4 -50.5t4.5 -30.5q1 -7 8 -23t9 -18q10 -15 10 -17q2 -9 8 -17t10 -12t15.5 -12.5 t13.5 -9.5q54 -50 111 -45q42 4 85 26.5t64 49.5q15 17 24.5 33t21 44.5t14.5 34.5z" />
<glyph unicode="q" horiz-adv-x="1208" d="M1049 952q8 -25 5 -107.5t-1 -111.5q0 -15 5.5 -69t0.5 -86q-3 -24 1 -80.5t3 -73.5q-12 -237 -14 -328q0 -27 4 -95t2 -101q-6 -36 -6 -79t3 -94.5t3 -76.5q0 -78 -2 -94q3 -11 -6 -88q-2 -16 -15.5 -19.5t-36 -1t-30.5 1.5q-9 -2 -37 0.5t-39 -0.5t-41.5 -2.5 t-46.5 -7.5q-27 -10 -27 41q0 21 -8 71q3 71 0 148q1 14 4.5 65t3.5 76q0 66 -6 103v10q2 88 -4 88q-71 -35 -94 -41q-42 -8 -56 -10q-69 -9 -106 -4q-12 1 -41.5 1.5t-51.5 3.5t-38 11q-12 7 -35 18t-23 7q-28 12 -38 14q-7 6 -25.5 17t-24.5 16q-6 9 -24 26t-23 27 q-3 3 -17 18.5t-22 28t-12 27.5q-1 5 -12.5 16.5t-14.5 18.5l-18 45q-9 18 -13 40.5t-5.5 53t-3.5 43.5q0 11 -4.5 38t-6 43.5t3.5 37.5q1 4 7.5 45.5t9.5 44.5q2 2 15.5 50t19.5 52q4 4 15 22.5t11 20.5q0 31 56 80q32 43 75 68q48 48 113 69q78 25 180 2q16 -5 59 -8.5 t62 -9.5q2 -1 16 -6t21 -6q7 -5 17 -16t19.5 -18t20.5 -7q5 9 5.5 47.5t6.5 48.5q14 6 35.5 6t34.5 4q20 -5 37 2q13 2 31.5 -2t28 -4.5t24.5 8.5q12 3 24.5 2t24.5 -12q9 -6 13.5 -14.5t5.5 -14t1.5 -20t0.5 -19.5zM623 256q16 0 39 9t28 14q6 6 19.5 12t19.5 12 q8 8 18.5 29t16.5 28q8 11 27 66q3 16 -1.5 30.5t-3.5 24.5q4 5 5.5 30t1 47t0.5 34q1 10 -10 30t-11 21q-10 17 -43 37q-30 24 -35 29q-34 17 -51 20q-52 6 -72 12q-54 1 -113 -38t-96 -91q-24 -40 -20 -96q-1 -14 2.5 -40t3.5 -44q1 -2 8 -22t13.5 -32.5t19 -32.5 t32.5 -36.5t46 -29.5q24 -12 45.5 -17.5t34 -6t37 0t39.5 0.5z" />
<glyph unicode="r" horiz-adv-x="741" d="M717 954q9 -42 6 -80q0 -22 -1 -61.5t-1 -58.5q0 -16 -4 -23.5t-9 -9t-17.5 -2.5t-22.5 -4q-12 -4 -28.5 -10.5t-29 -12t-14.5 -6.5q-10 -3 -31 -5t-37 -5t-22 -10q-14 -18 -55 -37q-8 -3 -16.5 -18t-12.5 -19q-7 -3 -6 -12.5t0 -12.5q-3 -1 -8 -12t-5 -16q-6 -64 -8 -70 q0 -29 -4 -41q-1 -5 -0.5 -12t1.5 -18t1 -15q1 -3 0 -7t-2.5 -15t-1.5 -29q0 -25 -2 -35q-2 -20 0 -58t0 -51t1 -45.5t1 -56.5q3 -11 0 -31v-7q0 -8 -2.5 -18t-9.5 -16q-15 -15 -32.5 -18t-38 -0.5t-30.5 0.5q-5 -1 -27 -3t-28 -3q-12 -1 -36 0t-31 0q-11 2 -15 15.5t-3 28 t3 31.5t2 19q1 -1 2.5 19t2 39.5t-0.5 29.5q0 9 1.5 29t1 35.5t-4.5 27.5q-1 6 -1 27.5t1 27.5q2 15 3.5 132t3.5 124q0 3 2.5 16t3 21t-1 19t-7.5 18q-4 5 -0.5 16.5t-1.5 14.5q-2 4 -2.5 21t-3.5 24q0 28 6 55q-1 -1 -4 3q-9 18 -1 25q1 1 3 1q0 1 -1 8t-1.5 16t-0.5 18 t2 15t5 6q-5 5 -6 5q3 0 3.5 18.5t0.5 41.5t2 30q1 1 5 14q28 9 30 8q16 -12 113 -6q90 6 99 -9q3 -4 1 -11l6 -21v-35q1 -5 0 -21t0 -22q0 -1 -0.5 -6.5t-0.5 -9.5t1.5 -10t4.5 -9q5 2 14.5 14t22.5 31.5t14 20.5q5 9 26.5 23t28.5 24q1 6 10.5 10.5t12.5 1.5q2 -2 14 5.5 t23 15.5l12 8q6 0 17 1t16 1.5t10 -0.5q5 0 15.5 2t16.5 2h11h10.5t9 -0.5t8 -1.5t6.5 -3.5t6 -6.5t4 -9.5t3 -13.5z" />
<glyph unicode="s" horiz-adv-x="907" d="M829 317q-2 -4 -4.5 -38.5t-11.5 -47.5q-3 -4 -6 -24q-1 -6 -2.5 -11.5t-1.5 -7.5q1 -7 -11 -26.5t-12 -20.5q-8 -7 -19 -20.5t-16 -18.5q-4 -5 -22 -17t-23 -22q-7 0 -25.5 -9.5t-21.5 -10.5q-4 -2 -10.5 -7t-10 -7t-9 -4t-11.5 -2l-14 -12v1q0 -2 -22.5 -14t-26.5 -12 q-8 1 -18 -6t-19 -7q-33 0 -39 -2q-4 1 -23.5 0t-23.5 0q-62 15 -107 15q-16 -1 -35 6t-44.5 19t-42.5 18q-4 2 -11.5 11.5t-13.5 19.5l-6 10q-4 7 -35 39.5t-31 48.5q-8 10 -15.5 25.5t-13.5 31.5t-5 28.5t12 14.5q48 12 55 16q8 6 14.5 14t14.5 11q1 0 5.5 2l9 4t8.5 3.5 t7 1t3 -2.5q2 4 3.5 5t2.5 0.5t2.5 -1t3.5 -0.5q2 10 15 12.5t25 -1t11 -7.5q0 2 21.5 -19t44.5 -45.5t28 -31.5q21 -30 74 -33q11 0 38.5 4t27.5 5q2 0 2 4q8 0 8 2q-2 4 2 4l6 4q0 2 2 4q4 0 7 3.5t6 9t5 7.5q33 55 11 70q0 8 -16 25.5t-15 23.5q-1 -3 -22 2.5t-21 7.5 q-12 5 -51 27q-9 6 -33.5 11t-32.5 8q-2 1 -25 10t-40 19t-21 20q-5 9 -37.5 32t-38.5 29q-7 7 -25 21.5t-26 23.5q-6 5 -10.5 23t-7.5 34t-4 17l-2 -2q-11 33 -11 43q0 35 2 55q2 22 13.5 53.5t25.5 49.5q1 2 15.5 19.5t17.5 23.5q5 8 51 39q42 32 86 43q1 0 4.5 1t4.5 1 q4 4 16 4q16 0 24 4q13 4 57 8t48 6q5 3 19.5 2.5t19.5 -2.5q5 -1 29 -1.5t30 -2.5q7 -2 23.5 -7.5t28 -8.5t22.5 -4q15 -3 41 -21.5t37 -32.5q8 -11 22.5 -27t16.5 -18q4 -6 13.5 -24.5t18 -31t17.5 -15.5q-1 -3 5.5 -13t11 -18t1.5 -8q5 -11 -7 -29.5t-13 -22.5 q-15 -26 -17 -26q-3 0 -32 -29l-16 -15q-15 -16 -27 -22q-5 -4 -8.5 -5.5t-7.5 0t-6.5 3t-8 6t-8.5 6.5q-41 47 -58 62q-2 1 -47 35q-40 40 -86 24q-5 -2 -7.5 -5t-8.5 -5q-2 -1 -14.5 -7t-16.5 -7q-16 -4 -20.5 -15t-3.5 -24l2 -12q-1 -4 10.5 -21t23.5 -32l11 -15 q32 -23 49 -23q20 -4 26 -8q11 -9 57.5 -27t49.5 -22q4 -2 16 -3.5t13 -2.5q5 -2 21.5 -2.5t25.5 -7.5q43 -16 67 -47q19 -30 37 -84q10 -40 10 -52z" />
<glyph unicode="t" horiz-adv-x="690" d="M631 971q11 -2 16 -10.5t5 -16.5t-1.5 -21.5t-1.5 -17.5q-2 -20 -2 -65q0 -6 -1 -17.5t-1 -17.5q-2 -20 -6 -29h-68q-31 -2 -69 -12q-9 -15 -4 -68q0 -1 1 -42t-1 -42q-1 -16 -3.5 -60t-4.5 -82t-1 -60q0 -10 -0.5 -44t1.5 -48.5t11 -36t27 -33.5q27 -12 58 -12 q20 -2 29 -10.5t10 -30.5q6 -54 6 -58.5t-6 -58.5q-3 -11 0.5 -36t-0.5 -34q-3 -8 -9 -9.5t-12 0t-14 -0.5q-8 -7 -39 -4.5t-41 -1.5q-6 -2 -12 -1.5t-15 2t-12 1.5q-7 0 -22.5 1.5t-27 1t-20.5 -4.5q-46 -15 -106 16q-37 15 -66 49q-9 9 -15 18t-10 21t-6.5 17.5t-3.5 21.5 t-1 19.5v24v22.5q0 12 -0.5 93t4.5 93q2 23 2 70t2 69q3 4 0.5 32t-2.5 32q0 6 -3 27.5t-3 29.5t2 27q3 7 0.5 31.5t-2.5 29.5q0 22 -3 26.5t-24 4.5q-53 0 -135 4q-13 10 -10 43.5t-1 50.5q0 60 -6 72q-1 2 2 8q1 8 1.5 11.5t4.5 5.5t6.5 2.5t12.5 1.5q5 0 22 2.5t25 1.5 q26 -5 39 -2q10 1 29.5 2t29.5 2q9 4 13 4l6 6q4 4 4 8q5 15 6 17q0 6 1 18t1 18q0 9 -1.5 24t-1.5 27t3 23q3 3 1 30l-1 28q0 6 2 20t2 25.5t-4 17.5q-3 7 -2.5 24.5t2.5 24.5q3 6 11 7t19 -0.5t15 -0.5q41 9 78 -2q10 -3 51 -5t53 3q7 7 19.5 0t17.5 -20q5 -15 5 -31 t-2 -36t-1 -34q0 -5 3 -39.5t3 -54.5q-4 -57 9 -94q5 0 20.5 4t24.5 2q39 0 39 -4q4 2 13 0t20.5 -5.5t15.5 -4.5z" />
<glyph unicode="u" horiz-adv-x="1167" d="M1026 954q0 -13 3 -60t2.5 -61.5t-3.5 -60.5q-2 -20 -4 -56.5t-5 -67t-9 -56.5q-6 -31 -11 -166q-1 -19 0 -53t0 -51q0 -80 5 -111q3 -19 1 -103.5t-12 -84.5q-7 -1 -24 -6.5t-25 -6.5h-2q-2 -1 -7 -3t-7 -3q-10 -2 -23 -2q-14 -6 -42.5 -7.5t-35.5 1.5q-7 -7 -53 0 q-12 2 -15.5 13.5t-3.5 28.5t-3 23q-12 -5 -30 -29t-32 -30q-51 -20 -72 -22q-117 -21 -182 -9q-70 18 -121 49q-4 2 -26 12t-42 19t-24 12q-21 15 -37 35t-26 36.5t-17.5 45.5t-11 43t-5 49t-1.5 42.5t1 45.5l1 39q1 26 -0.5 92.5t0.5 92.5q4 118 4 190l5 23l3 14 q1 32 0 57.5t0.5 57t5.5 55.5q7 2 16 1t13 1q8 2 35 2q10 0 33.5 -3t33.5 -3q31 -3 64 0q3 0 6 -2.5t10 -1.5q28 5 39 -4q8 -9 6.5 -13t-7 -11t-5.5 -11q0 -1 1.5 -15.5t1.5 -26t-3 -11.5q2 0 3 -31.5t1.5 -67.5t1.5 -41q3 -26 2.5 -85t3.5 -87q5 -30 1 -107.5t4 -109.5 q3 -13 26 -71q4 0 35 -21q8 -6 35 -20q16 -6 52 -6h36q52 -3 102 14q3 4 13 13.5t12 17.5q2 6 6 17t6 17q3 8 10 23t11 26t6 21q13 77 18 137q3 28 1.5 78t0.5 78q2 36 0 105.5t0 105.5q0 16 1 32t2.5 35.5t2.5 30.5q12 0 43 1t43 1q16 0 47.5 -1t45.5 -1q19 0 25 -0.5 t18.5 -3t17 -10t4.5 -19.5z" />
<glyph unicode="v" horiz-adv-x="1103" d="M1067 973q3 0 9.5 -0.5t8.5 -1t7 -1.5t5 -3.5t2 -6.5t-1 -10q-1 -9 -4.5 -18.5t-6.5 -15t-9.5 -17.5t-8.5 -16q-3 -6 -11 -30.5t-14 -33.5q-8 -24 -26.5 -68.5t-22.5 -54.5q-2 -4 -8 -19.5t-13.5 -34.5t-8.5 -21q-23 -71 -39 -111q-9 -22 -37 -70t-39 -75q-1 -4 -6.5 -20 t-11.5 -30.5t-7 -13.5q0 -13 -10 -38t-12 -36q-9 -57 -37 -114q-2 -6 -6.5 -22.5t-8 -28.5t-9 -26t-12.5 -22.5t-15 -11.5q-4 -4 -12 -6.5t-14.5 -3l-19.5 -1.5t-18 -1q-3 0 -13 -2t-19 -3.5t-11 -0.5q-5 3 -8 8q-16 -4 -38 -4t-45.5 2t-31.5 2q-3 0 -27.5 4t-25.5 0 q-19 -13 -31 0.5t-20.5 44.5t-11.5 37q-5 19 -19 43q-10 25 -16 35q-6 12 -16 44t-15 40q-7 14 -19.5 58.5t-23.5 61.5l-39 78q-28 93 -31 99q-9 10 -23 53.5t-17 48.5q-23 40 -37 98q0 5 -3.5 11t-3.5 12q-4 4 -7.5 18t-6.5 17q-7 10 -13.5 27t-13.5 39.5t-10 29.5 q-7 17 -20.5 41t-22 40t-8.5 19q4 3 12.5 2t27 -5t24.5 -5q13 -3 27.5 -3t32.5 1.5t28 1.5h77q29 0 36.5 -3.5t19.5 -21.5q3 -4 11 -16.5t12 -19.5t8 -18.5t4 -22.5q0 -12 15.5 -51t25.5 -56q7 -11 30 -84q7 -19 20 -49t17 -41q6 -19 16.5 -43t25 -54t18.5 -38q7 -9 16 -30 t12 -27q2 -3 7.5 -16.5t11 -23t12.5 -16.5q9 2 19.5 19t20.5 40t13 27q5 8 16.5 33t20.5 39q23 36 46 113t44 110q4 7 9.5 23t11.5 22q13 26 23 56.5t16 42.5q3 6 5.5 14.5t4.5 11.5q3 4 7 11.5t7 11.5q3 7 6 13t6 11.5t4 7.5l11 33q11 7 29.5 4.5t45.5 -8.5t29 -6 q11 -1 32.5 0.5t31.5 -0.5q8 -1 17.5 0t21.5 -1t18 -7z" />
<glyph unicode="w" horiz-adv-x="1519" d="M1483 872q3 -12 -7.5 -46.5t-15.5 -41.5q-4 -6 -11 -38t-9 -37q-6 -26 -29 -82q-1 -3 -7 -24.5t-11.5 -39t-8.5 -20.5q-6 -6 -22.5 -64.5t-20.5 -64.5q-5 -7 -22 -61.5t-23 -65.5q0 -1 -3.5 -13t-9 -27t-9.5 -22q-2 -3 -6.5 -25.5t-7.5 -29.5q-9 -16 -23 -84 q-3 0 -6.5 -12.5t-6 -27t-3.5 -15.5q-6 -7 -12 -23.5t-7 -19.5q0 -1 -1.5 -3t-2.5 -3l-3 -3t-5 -3t-7 -1.5t-10 0t-14 2.5q-4 0 -4 -4q-10 0 -22.5 2t-16.5 2q-2 -1 -8.5 0.5t-10.5 3t-5 -0.5q-2 -4 -2.5 -4.5t-10.5 1.5q-10 3 -32.5 4t-30.5 3q-8 3 -27 41q-1 1 -7.5 14 t-9.5 19.5t-6.5 17t-2.5 16.5q-2 15 -19 49.5t-20 48.5q0 1 -18 38.5t-19 43.5q-38 77 -35 80q-1 15 -8 33t-8 21q-2 10 -6.5 19t-7 12.5t-11.5 13t-12 12.5q-15 -17 -80 -121q0 -4 -6.5 -23.5t-13.5 -36.5l-7 -18q3 -5 -5.5 -21.5t-18.5 -30.5l-9 -13q-22 -51 -24 -58 t-4.5 -12t-5.5 -14q0 -21 -15 -43q-7 -10 -16.5 -38t-18.5 -44q-1 -3 -32.5 -6.5t-36.5 -1.5l-10 2q-4 1 -12.5 1t-14.5 1q-5 3 -19 0.5t-24 -0.5q-76 12 -98 14q2 8 -1.5 21t-10.5 29.5t-7 17.5q-4 11 -17.5 36t-15.5 41q0 1 -4 13q-14 45 -8 45q1 3 -5 5.5t-9 2.5 q-3 22 -8 39q-20 71 -33 84q-9 9 -22 69t-17 66q-5 7 -8.5 35t-7.5 35q-1 3 -7.5 36t-14 61.5t-11.5 29.5q-4 8 -13.5 50t-15.5 58q-7 28 -23 62t-22 53q-4 11 -9.5 24t-9 24t-5.5 26q0 6 -1.5 12t-2 7.5t0.5 4.5t5 2t12 0q62 -3 94 -12q1 -5 44 -1.5t48 3.5q9 0 36 4.5 t40.5 5.5t22.5 -6q1 -3 6.5 -15t8.5 -19t7 -21t3 -21t-3 -18q-3 -4 0 -13.5t9 -22t7 -19.5q1 -12 0.5 -18t0.5 -14.5t6 -19.5q40 -126 41 -131q0 -4 14.5 -53t15.5 -57q2 -18 18.5 -60.5t22.5 -62.5q3 -4 8 -26.5t13 -29.5q6 3 14 25.5t8 26.5q1 13 7.5 27.5t7.5 19.5 q6 29 18 55q18 58 25 78q1 6 7 21.5t7 21.5q9 45 22 72q22 50 23 51q5 10 9.5 30t6.5 27q3 8 10.5 30t10.5 30q4 10 9 27t11 28q5 8 8.5 18.5t4.5 12.5q1 3 5.5 8.5t4.5 7.5q52 -7 59 -10q4 -2 43 1.5t41 2.5q12 -4 47 -4q12 0 24 -34.5t23.5 -88.5t12.5 -58q-3 0 0 -23.5 t6 -33.5q21 -72 37 -108q55 -151 69 -205q5 23 19.5 61t17.5 47q3 10 7.5 33.5t7.5 32.5q28 82 30 96q1 8 10.5 35t18.5 50t8 24q7 12 29.5 72t19.5 61q-7 14 -4 30.5t12 18.5q2 0 35 1t41 5q1 0 20.5 -2.5t20.5 2.5q3 0 16 -3t23 -3q8 2 36.5 -0.5t35.5 0.5q16 6 15 -19 q0 -7 -15 -72q-3 -13 -2 -16z" />
<glyph unicode="x" horiz-adv-x="999" d="M981 74q4 -6 6 -15.5t2.5 -16.5t0 -19t-0.5 -13q0 -8 -3.5 -10.5t-7.5 -0.5t-9.5 4t-7.5 1q-16 -5 -75 -8t-65 6q-3 -1 -9 -2t-17.5 -2.5t-18.5 0.5t-6 8q-4 0 -25.5 2t-25.5 2q-8 -1 -15 20t-13.5 46t-12.5 30q-5 4 -56.5 91.5t-62.5 97.5q-4 4 -12.5 14t-13.5 14.5 t-12.5 9t-16 3.5t-17.5 -8q-6 -2 -17.5 -18.5t-14.5 -18.5q-21 -18 -33 -37q-7 -10 -20.5 -26.5t-16.5 -16.5q4 -3 -9.5 -20t-17.5 -17q3 -7 -4.5 -12.5t-7.5 -9.5l-2 2q-1 -1 -5.5 -11t-4.5 -12q-1 -7 -12.5 -21t-10.5 -28q-1 0 -23 -36.5t-24 -41.5q-64 -29 -121 -14 q-111 -13 -125 20q8 32 22 59t42.5 67t32.5 46q37 61 37 62l36 43q9 14 26 33.5t30 37.5q11 14 25.5 48t23.5 49q9 12 12.5 39t-2.5 28q-4 0 -12 17.5t-8 21.5q-7 15 -28 39t-28 37q-3 6 -5 13t-9 16q-25 25 -25 30q0 9 -12 21q-6 5 -12 13.5t-12.5 20t-10.5 17.5 q-2 3 -20 28.5t-25.5 37t-21 34t-21.5 40.5t-12 34q-3 27 0.5 34t26.5 11q8 1 21.5 4.5t17 3t20.5 -3.5q8 -4 25 -6q61 0 71 -8q10 -1 33 1t33 1q7 -1 19.5 0.5t19.5 1.5t15 -6t13 -19q18 -67 62 -157q7 -18 23.5 -47.5t27.5 -40.5q12 -28 23 -41q5 1 9 4t8.5 8.5t6.5 7.5 q3 4 9.5 18.5t9.5 18.5q4 8 6 10q1 1 3.5 6t5 9.5t3.5 7.5q10 13 39 71q2 4 16.5 31.5t28 52.5t14.5 25q-4 5 15 26t24 21q20 3 71 3.5t60 -7.5q9 -1 20.5 0t17 1.5t13.5 -3.5t17 -14q17 -1 18 -10.5t-4 -26.5q-3 -12 -8.5 -21t-12.5 -17t-10 -13q-4 -10 -27.5 -46 t-27.5 -40q-7 -7 -30 -46.5t-27 -48.5q-5 -4 -17 -20.5t-22.5 -29.5t-13.5 -11q2 -5 2.5 -8.5t-2.5 -7.5t-6 -6t-6 -5l-3 -2q-12 -33 -14 -35q-6 -34 6 -49q3 -4 28 -34.5t39.5 -52.5t14.5 -34q1 4 6 -6q6 -12 6 -16q2 -6 21.5 -30t23.5 -32q5 -13 22 -35t23 -34 q2 -3 11 -17t18.5 -28.5t19 -30t14.5 -26.5t3 -13q-4 -4 18 -30t29 -31z" />
<glyph unicode="y" horiz-adv-x="1171" d="M1169 979q-4 -10 -12.5 -27t-15.5 -37q-1 -3 -6.5 -22.5t-8.5 -24.5q-22 -27 -36 -77.5t-21 -65.5q0 -7 -2 -13.5t-6 -16t-6 -13.5q-1 -2 -6 -14q-15 -33 -17 -33q-1 -2 -33 -74q-7 -19 -28.5 -56t-28.5 -56q-14 -25 -20.5 -39t-18.5 -35q-7 -18 -27.5 -58t-29.5 -47 q-6 -30 -31 -71l-11 -18q-3 -8 -13 -28q-36 -74 -43 -79q0 -3 2 -2q-4 -14 -19.5 -36.5t-21.5 -35.5q-6 -12 -37 -63q-16 -32 -25 -41l-18 -41q0 -5 -1 -8t-3 -4.5t-5.5 -7t-7.5 -13.5q-60 -106 -67 -111q-25 -19 -41 -41q-24 -28 -62 -49q-8 -4 -24 -20q-7 -7 -19.5 -14 t-17.5 -11q-22 -18 -74 -33l-20 -10t-31 -13.5t-23 -4.5q-14 0 -44.5 -1.5t-49.5 -0.5q-6 0 -24 1.5t-25 0.5q-5 -2 -6 88q0 11 -8 65q-2 11 -2 39.5t-6 48.5q-4 10 5.5 13.5t28 2.5t21.5 -1q11 2 31.5 4.5t36 7t30.5 14.5l37 11q36 10 57 21t25 26q2 4 20 22q3 7 19 39 q0 18 10 23q-4 12 0 24q-3 8 -20.5 43t-22.5 57q-23 28 -45 92.5t-27 75.5q-16 22 -34 74q-1 5 -13 34.5t-12 45.5q-11 2 -27 66q-7 23 -41.5 115.5t-44.5 142.5q-4 41 -45 129q-14 47 -24 65q0 5 -2.5 10.5t-6.5 10.5l-8 10t-7 9.5t-4.5 8t0 6.5t7.5 5q4 1 12 4.5t12 5 t11.5 0.5t15.5 -6q24 10 115 10q16 1 50 1t53 1h4q1 1 5 4.5t7 3.5q3 2 4.5 0.5t1.5 -8.5q0 -4 8 -12q10 -8 17 -35q4 -5 8 -23q2 -3 5 -13t5 -13l6 -6q1 -1 2 -4.5t2 -4.5q9 -14 9 -24v-6q1 -3 4 -8.5t4 -8.5q3 -7 13 -42.5t11 -39.5q9 -21 33 -69q6 -12 26 -60t36 -75 q8 -15 36 -95q3 -7 18.5 -39.5t20.5 -52.5q2 5 27 55q6 12 6 21q0 5 16 29.5t19 27.5q4 10 6.5 17.5t3.5 11t2 4.5q67 153 78 176q2 4 16.5 36.5t22.5 47.5q9 19 24 61.5t25 61.5q5 22 12 35q0 2 1 7.5t1 6.5q5 22 9 27h2q9 16 41.5 17t70.5 -4t43 -5q12 4 52.5 0.5 t58.5 -2.5q6 0 20.5 -0.5t25.5 -0.5t19 1z" />
<glyph unicode="z" horiz-adv-x="987" d="M895 852v-45q-2 -30 4 -84q2 -17 -4 -29.5t-18.5 -26.5t-18.5 -24q-8 -13 -18.5 -25t-23.5 -24.5t-19 -18.5q-12 -12 -50.5 -48t-66.5 -64.5t-43 -50.5q-23 -29 -80.5 -75.5t-77.5 -70.5q4 -3 24.5 -0.5t24.5 2.5q20 2 60 2q4 0 52 -3.5t65.5 -4t54.5 1.5q13 0 47 -4 t49 -2q8 2 24 2t19 -4q3 -12 3 -25.5t-1.5 -29.5t-1.5 -23q-1 -8 1.5 -30t0.5 -31q-8 -28 -8 -43q4 -46 2 -66q-45 -18 -72 -16q-35 3 -118.5 -0.5t-116.5 2.5q-56 12 -101 12q-4 -1 -16 -3t-17 -2.5t-15.5 -1.5t-16.5 -1h-15.5t-18 1.5t-17.5 4.5q-29 7 -101 2 q-14 -1 -59 -7.5t-70 -4.5q-9 1 -28.5 4t-28.5 4q-14 0 -14 49q1 13 -3 34t-4 32q0 7 3.5 33t1.5 36q0 21 4 30.5t18 23.5q10 8 25 23l20 20q4 2 9 5.5t8.5 5.5t5.5 3l20 23v-1q7 5 20.5 18.5t20.5 18.5q24 9 74 53t65 54q53 42 154.5 139.5t120.5 114.5q-7 17 -207 0 q-11 -1 -43.5 -3t-50 -2.5t-44.5 -1t-49.5 1.5t-43.5 7q-43 0 -82 -8q-11 -4 -18 4t-8.5 22.5t-1.5 26t1 20.5q2 33 -8 86q-5 21 -5 49.5t7 45.5q4 11 11 15.5t7 6.5q1 0 42.5 -5.5t62.5 -4.5q11 7 32 9t31 -9q10 -7 26.5 -4.5t42.5 8.5t32 6q15 0 51.5 1t54.5 1 q9 -1 41.5 -9t50.5 -7q43 12 125 12q21 2 62.5 -1t54.5 -3q7 0 29 3.5t39.5 3.5t25.5 -7q3 -4 0 -53t-6 -76z" />
<glyph unicode="{" horiz-adv-x="544" d="M463 1356q12 0 25.5 -8t9.5 -21q-3 -13 -5 -50t-4 -46v-12.5t-3 -13.5t-11 -3q-50 0 -59 -4q-19 -13 -25 -27.5t-4 -40.5v-45q-6 -75 -6 -81v-89q-1 -14 -4.5 -52t-3.5 -60t-5 -42t-6 -42q-3 -5 -7.5 -27.5t-8.5 -29.5q-11 -16 -16.5 -23t-16.5 -16t-24 -13 q4 -4 23 -13.5t26 -18.5q19 -23 22 -48q2 -17 -1 -72t-3 -63q0 -13 -0.5 -39t-0.5 -48t1 -40q0 -8 1 -28t1 -27q0 -8 -1 -13.5t-1 -8t0.5 -6.5t3.5 -11q6 -15 16.5 -22.5t19.5 -9.5t30 -5q18 -1 27.5 -3.5t15.5 -12t4 -27.5q-1 -9 3 -43t3.5 -61t-12.5 -31q-6 -5 -28 -0.5 t-27 4.5q-6 1 -21 0.5t-18 1.5h-56q-44 4 -69 19q-5 3 -16 11.5t-15 10.5q-22 10 -38 36t-19 50q-1 8 -8 33t-7 39q0 64 5 100q5 58 -1.5 140t-29.5 108q-4 -4 -35 4q-7 2 -25 -0.5t-24 0.5q-13 63 -10 80q5 45 2 59q-1 7 1.5 25t2.5 22q1 21 6 31t12 11t16.5 1h20.5h33 q12 -1 27 6.5t20 14.5q11 14 18 63l1 20q1 20 1.5 46.5t1.5 53t0.5 45t-2.5 18.5q-2 2 0.5 32.5t5.5 64t3 36.5q0 15 3 51.5t3 44.5q-6 36 26.5 78t71.5 43q45 0 72 -4q16 -5 45 -1.5t47 -0.5z" />
<glyph unicode="|" horiz-adv-x="565" d="M180 215q0 24 -6 45q-3 8 -3.5 17t0 14t2 14.5t1.5 13.5q1 10 2 27t2 27v41q-1 15 2.5 50.5t-0.5 45.5q-2 6 -2 35.5t4 34.5q2 3 1.5 11.5t-2 17t-3.5 15.5l-2 7q-3 6 -3.5 20t0.5 31l1 18q2 13 -6.5 51t0.5 52q1 4 -1.5 19t1.5 16q-3 6 -3 17t1.5 24.5t1.5 17.5 q0 51 4 82q0 3 0.5 14t0.5 19t-1 17t-4 13q-2 4 -0.5 21t4.5 20q-2 6 -2 37q1 9 -2.5 25.5t-3.5 23.5q0 9 2.5 33t1.5 37q0 7 -10 64q4 -1 5 1.5t0 7t0 8t5 3.5q0 9 9 15t9 14q15 8 63 11q27 2 25 -5q2 2 22.5 2t20.5 -2q10 12 45 3q9 -3 9 -5q26 18 28 -26q1 -22 -4 -56 q-1 -7 -5 -20t-4.5 -19t1.5 -23q6 -34 0 -63q-3 -14 0 -41q0 -2 2 -15.5t2 -15.5q0 -49 -4 -49q2 -2 4.5 -18t3.5 -29.5t-2 -15.5q4 -8 4 -80q-4 -43 6 -90q2 -1 0.5 -16t-4.5 -15q2 -2 1.5 -22.5t-3.5 -28.5q-7 -17 0 -76v-70v-73q0 -52 -4 -68q-1 -5 1.5 -47.5t0.5 -52.5 q-8 -65 2 -97q-1 0 0.5 -10t3 -20.5t0.5 -12.5q-2 -6 0 -22.5t1.5 -34.5t-5.5 -20q4 -17 6 -17q-2 -6 -1 -18.5t4 -16.5q2 -3 -1 -7.5t-2 -10.5q3 -14 0 -23.5t-8 -12t-11 -4.5t-7 -3q-17 1 -52 -4t-51 -4q-26 0 -32 2q-8 4 -21.5 -2t-15.5 -6q-13 -1 -19.5 21t-5 41t1.5 22 q0 7 -2 25.5t-2 25.5q-1 13 0.5 51.5t1.5 46.5z" />
<glyph unicode="}" horiz-adv-x="647" d="M621 696v-39q0 -34 -3 -43q-1 -6 -23.5 -6t-27.5 4q-1 -2 -12.5 -8t-13.5 -8q-12 -10 -16.5 -23.5t-5.5 -34t-3 -28.5q-4 -18 -4.5 -32t1 -31.5t1.5 -30.5v-37q4 -31 3 -45.5t-6.5 -46t-6.5 -45.5q1 -13 -4.5 -49t-5.5 -46q0 -58 -27 -104q-29 -46 -44 -59 q-38 -32 -124 -39q-10 -1 -33.5 -3t-32.5 -2t-32 1q-18 2 -58 2q-27 0 -41 4q-6 3 -21 3.5t-22 4.5q-12 89 -6 135q1 -1 14 2.5t19 1.5q5 1 25 -2.5t22 0.5q9 7 41 7t45 12q3 2 11 7.5t13.5 9t12.5 10t12 12.5q6 8 10 17.5t7.5 23t5.5 20.5q26 65 26 117t5 88q3 22 -1 64 t-2 63q2 7 3.5 26t3.5 27q1 2 0 18t0.5 32t7.5 20q15 11 38 22.5t25 13.5q-8 4 -21.5 9.5t-20 9t-16 11t-17.5 18.5q-18 47 -21 106q-14 159 -14 172q-2 13 -4 35.5t-4 34.5q-1 9 -9 32.5t-8 34.5q-6 3 -14 13t-15 14q-4 4 -17 12.5t-23 15t-9 9.5q-14 3 -40.5 15t-41.5 13 q-9 11 -27 17t-22 8t-2.5 31.5t0.5 34.5q0 31 -4 47q-2 7 4 10t18 3.5t13 0.5l88 4q8 2 18 2.5t18 0t20 -2.5t18.5 -3.5t20 -4.5t18.5 -4t29 -3t32 -7q10 -6 36.5 -17t37.5 -12q4 -7 15.5 -18.5t15.5 -18.5q6 -7 13.5 -21t10.5 -18q10 -14 21.5 -43t7.5 -41q-2 -8 -2 -11.5 t2.5 -13t3.5 -12.5q3 -12 -2 -32.5t-6 -26.5q0 -54 10 -119q-4 -20 -4.5 -27.5t3 -30t3.5 -28.5q0 -23 10.5 -46.5t30.5 -33.5q4 -1 19.5 -8t25.5 -8q2 0 5.5 -1t4.5 -1.5t4 -1.5t4 -1.5t3 -2t2.5 -3t1.5 -4t1.5 -5.5t0.5 -7q1 -15 -0.5 -43.5t-1.5 -38.5z" />
<glyph unicode="~" horiz-adv-x="847" d="M770 666q6 -9 7.5 -15t0 -8t-4 -6.5t-3.5 -9.5q-3 -1 -6.5 -6t-7 -12l-4.5 -9q-3 -4 -9 -16t-11.5 -20t-12.5 -13q-15 -10 -29 -31q-16 -25 -41 -41q-43 -26 -84 -33h-18q-8 0 -21.5 6t-17.5 7q-4 8 -20 23t-21 22q-44 73 -98 71q-41 -3 -85.5 -33t-66.5 -67 q0 -13 -8 -22q-6 -11 -29 24q-1 2 -4.5 6t-9 9.5t-8.5 9.5q-9 9 -26.5 34t-22.5 31q-1 2 -6 8t-8 10.5t-3 6.5q-18 3 -22 22q-1 2 6.5 9t17.5 15.5t12 10.5q7 6 19.5 18.5l20 20t20 16t24.5 13.5q-2 2 -4 2q0 5 27 18t37 15q7 3 33.5 15t42.5 15q51 15 73 17q15 2 39 -5.5 t39 -19.5q26 -21 47 -72q19 -24 39.5 -29t40.5 15q20 26 45 43q5 4 12.5 19.5t15 24t15.5 1.5q13 -11 29 -43q2 -3 8 -9t8 -9q3 -4 5 -6.5t3.5 -3t2.5 -0.5t1.5 -1t0.5 -2.5v-5.5q0 -7 9.5 -17.5t10.5 -12.5z" />
<glyph unicode="&#xa1;" horiz-adv-x="471" d="M88 -328q-2 13 -2.5 49t-1.5 46q0 16 4 30q0 7 -2 64.5t-2 66.5q0 27 2 29q0 3 1 16t1 21q-2 27 -2 65q3 22 -4 64q3 3 4 12.5t1 22t1 16.5q2 15 0 54.5t0 52.5q2 15 -3 44t-3 42q12 84 55 153q34 86 37 98q2 7 7 15t7 12q15 36 39 51q15 6 18 5t9 -7q17 -9 29 -32 q0 -10 8 -35.5t12 -30.5q10 -16 24.5 -48.5t14.5 -33.5t9 -20.5t16.5 -34.5t9.5 -15q1 -14 2.5 -25t2.5 -15t0.5 -9t-1.5 -12q-3 -2 -1 -25l1 -22q1 -6 -2 -23t-2 -20q3 -9 4 -42t-2 -44q-7 -25 -4 -49q1 -8 5.5 -29.5t4.5 -32.5q-2 -20 -2 -123q-4 -39 -4 -102 q0 -5 -3.5 -25t-2.5 -24q3 -12 2 -23q0 -1 5 -14t3 -25q-1 -6 -1 -32.5t-1 -40.5q-4 -41 -14 -65q-1 -4 -2 -1q-4 0 -19 -10q-5 -1 -22 -4t-25 -6q-11 -1 -33.5 1.5t-42.5 1t-35 -11.5q-3 0 -16.5 1t-19.5 2t-16 3.5t-17 6.5q-10 4 -31 67zM121 784l-1 1q-2 12 1 12 q-8 3 -5.5 72.5t9.5 72.5q-1 13 2.5 22.5t10.5 14.5t15 8.5t17.5 4t16 0.5h13.5l7 -1q10 0 51.5 3t46.5 3q9 0 16 -3.5t12 -11.5t8.5 -16t6 -20t4 -19.5t3 -19t1.5 -14.5q0 -69 4 -90q4 -15 -12 -31q-4 -2 -12.5 -2.5t-9.5 2.5q-13 -7 -38.5 -5t-31.5 1q-3 -1 -17 -4t-20 -4 t-17 -2.5t-19.5 -0.5t-16.5 3q-19 -3 -33 6l-4 2q-5 3 -7 11q-1 3 -1 5z" />
<glyph unicode="&#xa2;" horiz-adv-x="772" d="M694 334q1 -3 7 -12.5t8.5 -14t7 -15t4 -15l-1.5 -13.5q-4 -9 -11 -17.5t-16 -19t-14 -16.5q-29 -41 -45 -47q-2 -14 -27.5 -25.5t-27.5 -13.5q-10 1 -27 -6t-23 -8q-51 -26 -77 -19q-1 -7 -6.5 -39t-6.5 -49v-13.5t-2.5 -15t-9.5 -6.5t-45 -2q-5 4 -9.5 2.5t-8.5 1.5 t-7 15q-1 6 -5.5 20.5t-6.5 26t0 20.5q2 18 -6 51q-10 3 -32.5 10.5t-35.5 10.5q-44 13 -51 27q-3 6 -31 34q-54 69 -47 99q1 5 0 7.5t-4.5 7t-5.5 7.5q0 22 -6 43q-2 6 -6.5 18.5t-7 20.5t-5 19.5t-2.5 21.5q0 19 -7.5 71.5t-4.5 80.5q11 60 29 118q18 46 29 58q2 4 13 20 t17 23q33 33 68 59q5 4 21.5 19.5t26.5 24t25.5 16.5t28.5 8q4 0 10 3t13 3q4 10 3.5 54t4 79.5t20.5 34.5q8 -1 23 0.5t18 1.5q1 0 14.5 -0.5t20 -3.5t8.5 -10v-27q0 -5 -0.5 -15t-0.5 -18t1 -14q3 -13 1.5 -35.5t0.5 -34.5q12 -4 33.5 -5.5t30.5 -4.5q31 -8 41 -12 q25 -6 48 -26t30 -44q8 -16 20.5 -49t3.5 -33q0 -4 -11 -19t-25 -33t-17 -22q-1 -1 -7 -9t-12 -15t-14.5 -12.5t-15.5 -4.5q-5 1 -9 5.5t-9.5 14t-8.5 13.5q-39 56 -69 64q1 -10 -0.5 -36t-1.5 -32q-5 -68 -5 -78q1 -1 0.5 -39t-0.5 -39q0 -17 -4 -45q-1 -9 0 -26t0 -27 q-5 -74 -6 -80q0 -3 -3 -20t-3 -25v-11t-0.5 -8.5t0.5 -5t1 -3t3.5 -1t5.5 0t8 1t11 1.5q3 2 18 9.5t24.5 13.5t16.5 13q51 51 64 78q20 50 69 -61zM371 516q0 34 3 68.5t9 84.5t8 68q-9 4 -19.5 -2.5t-20.5 -17t-13 -12.5q-12 -8 -31 -60q-9 -18 -14 -33q-17 -57 -12 -94 q2 -15 4 -43t4 -43q6 -44 18 -84q2 -6 13 -23.5t23 -33.5t17 -15v7q-5 44 3 124t8 109z" />
<glyph unicode="&#xa3;" horiz-adv-x="1083" d="M985 483q13 -1 16 -8t0 -22.5t-2 -22.5q0 -12 -3 -38t-3 -38q3 -68 -20 -161q-10 -57 -17 -70q1 -13 -4 -26.5t-14 -30t-12 -25.5q-42 -50 -97 -84q-8 -4 -46.5 -14t-39.5 -4q-102 0 -157 55q-8 8 -27.5 22t-26.5 21q-2 2 -28.5 22.5t-28.5 34.5q-4 -3 -11.5 -10.5 t-13.5 -12t-14 -8.5q-38 -19 -65 -26q-37 -12 -51.5 -16t-39 -3.5t-47.5 11.5q-95 42 -116 102q-24 65 -27 96q-4 37 -2 54l2 53q-1 41 38.5 78t82.5 51q26 8 69 -15.5t68 -48.5q11 19 21 53t7 66.5t-30 32.5q-13 0 -33 4q-4 3 -24.5 0.5t-24.5 -2.5q-73 0 -76 12 q-5 8 -9.5 35.5t-0.5 34.5q-5 5 -6 27t-2 26q-1 9 -3 27.5t-3 27.5q-1 10 4.5 15.5t20 6.5t20.5 0.5t22 -1.5q11 -1 32 -1t38 -1t31 -4q-5 30 -25.5 60.5t-42 52t-41 52t-24.5 60.5q-20 58 -17 125q0 81 21 117q2 3 9 17.5t12 24t14 19.5t18 12q-2 1 21.5 11.5t50 20.5 t32.5 11q23 4 61.5 8.5t53.5 6.5q12 3 24.5 2.5t18.5 -1.5t23 -5.5t22 -5.5q9 -4 45 -9q25 -3 64 -22q13 -6 22 -14t18.5 -22t12.5 -19t14 -25q1 -1 9 -15t10 -22q3 -10 3.5 -21t-0.5 -25t-1 -19q0 -48 -2 -68q-2 -10 -10 -14t-26.5 -4h-19.5t-39.5 -2.5t-67 -2t-26.5 6.5 t-0.5 15.5t-7.5 21.5t-6 16q-4 18 -6 24t-8.5 14t-18.5 13q-35 16 -60.5 -13.5t-25.5 -72.5q2 -14 27 -55q18 -24 29 -35q7 -7 11.5 -21.5t8.5 -21.5q28 -53 37 -74q2 -12 11 -31t11 -30q71 -5 84 -4q14 1 39.5 -1.5t36.5 -2.5q14 -3 19.5 -8.5t6 -15t-0.5 -24.5 q-5 -64 -19 -153q-4 -30 -8 -45q-12 -1 -31.5 1t-31.5 1q-25 7 -40.5 5.5t-15.5 -22.5q2 -26 -7.5 -74t-22.5 -73q-17 -30 -25 -55q-2 -5 -12 -25q31 -20 41 -35q22 -30 53.5 -52t62.5 -21q13 1 23.5 7.5t17.5 12.5t14 21t9.5 21t8.5 24.5t7 21.5q9 28 11 81.5t6 74.5 q0 20 5.5 27.5t12.5 7t25 -3.5t32 -3q50 0 70 -2q8 -2 20 -1.5t23 -0.5zM272 205q31 52 33 63q-60 12 -63 -21q-1 -22 20 -37q5 -4 10 -5z" />
<glyph unicode="&#xa4;" horiz-adv-x="1175" d="M1110 866q13 -17 0 -30q-6 -6 -61 -39q-35 -22 -80 -58q-9 -8 -10 -18t1.5 -17t10.5 -28q12 -39 12 -150q0 -4 -6 -15.5t-6 -21.5q0 -23 -2 -35t-5 -17.5t-3 -6.5q-7 -23 -13 -43q-2 -6 -5 -19t-6 -22t-7 -16l-10 -21q-3 -3 -8 -6.5t-7 -5t-4 -4t-2 -4.5q0 -5 2.5 -11.5 t7.5 -15.5t9 -14.5t11.5 -16t10.5 -14.5q3 -5 19 -20.5t24 -28.5l5 -6q5 -5 7 -9t1 -11t-7 -13q-3 -9 -20 -17t-35.5 -14t-20.5 -8q-27 -22 -39.5 -30t-44.5 -21q-3 -2 -7 -4.5t-15.5 -7t-15.5 1.5q-9 0 -9 28l-12 15q-4 7 -6 31t-12 38q-77 -43 -240 -43q-8 0 -20 3l-20 5 l-9 3q-32 0 -65 12.5t-49.5 23.5t-45.5 33q-5 -5 -24 -19t-35.5 -29.5t-28.5 -31.5q-1 -2 -5 -8t-7 -9t-10.5 -6t-18.5 -3q-30 61 -70 96q-2 2 -8.5 9t-9.5 10.5t-9 11t-7.5 11.5t-5.5 12.5t-2.5 13.5t1.5 14q0 7 7.5 16.5t15.5 9.5q5 0 11 2.5t11 6t15.5 11t19.5 13.5 q8 3 32.5 20t29.5 17q0 11 -4.5 36t-5.5 36q-5 51 -0.5 103t14.5 71q49 81 63 115q31 72 43 88q9 8 9 20q0 6 -10.5 24t-20.5 27l-10 8q-3 2 -12 13.5t-19 17.5q-22 11 -25.5 25t9.5 28t28 25.5t32 21.5t19 11q65 50 97 18q9 -14 25.5 -62t31.5 -59q67 31 123 31q24 0 33 -2 q32 -8 34 -8h62q5 0 15.5 -4t15.5 -4q11 0 33.5 -13t25.5 -14q10 -3 32 -16.5t29 -16.5q26 19 64 67t53 62q12 34 42 -3q3 -5 10 -14l18 -22q5 -9 20 -33.5t23 -38.5t8 -18zM737 338q2 4 10.5 17t10.5 20q3 11 6.5 34t5.5 29q35 99 21 180q-7 56 -40.5 98.5t-91.5 49.5h-88 q-24 0 -53 -12t-41 -35q-5 -8 -20.5 -23.5t-20.5 -25.5q-5 -9 -15 -24t-14.5 -25t-9.5 -23q-14 -65 -14 -131q8 -72 40 -122t81 -50q16 0 36 -3t25 -3q150 -6 172 49z" />
<glyph unicode="&#xa5;" horiz-adv-x="1175" d="M1126 915q0 -3 3.5 -17.5t4 -25t-3.5 -22.5q-4 -7 -6 -30.5t0 -33.5q0 -28 -14 -34q-6 -3 -17.5 -0.5t-17.5 -3.5q-3 -3 -18 -1t-21 5q-7 4 -35.5 8t-37.5 2q-19 -3 -37 0q-6 1 -20.5 3t-24.5 3q-5 1 -13 4t-13 3.5t-17 -1.5q-1 0 -15 -2.5t-27 -4.5t-14 -1 q3 -4 -9 -23.5t-17 -21.5q-6 -3 -16.5 -22.5t-10.5 -24.5q4 -3 11 -3t16 1.5t12 1.5q43 0 51 -2q4 -1 16.5 1.5t16.5 2.5h35q46 9 63 6q2 0 22.5 -4t28.5 -4q7 1 19 -2l16 -4q7 -2 20 0t19 -4q9 -5 12.5 -14t3 -16.5t-3 -21.5t-2.5 -20q-2 -13 2 -37q7 -28 7 -37 q0 -14 -7 -23.5t-22 -2.5q-6 1 -12 4t-8.5 3t-16.5 -1q-2 0 -9.5 -3.5t-12.5 -4t-11 3.5q-8 13 -18 0q-15 -15 -18 -12q-1 1 -1 5q-6 -6 -28 -0.5t-33 0.5q-15 -8 -70 -2q-13 1 -34 -3.5t-29 -4.5q-6 -1 -21.5 -3.5t-23 -3t-23.5 0.5q-21 -14 -12 -84q2 -21 -2 -57t-2 -66 q1 -11 -2.5 -33.5t-3.5 -29.5q2 -9 4 -25.5t4 -25.5q6 -16 4.5 -73t-0.5 -73q3 -9 0.5 -14.5t-2 -10.5t-5 -8t-7 -5t-8.5 -2.5t-10 -0.5t-11 1t-11.5 1.5t-12 1.5t-11.5 2q-2 0 -17.5 -1.5t-26.5 -1t-15 4.5q-14 10 -32.5 6t-35 -1.5t-18.5 20.5q-1 14 -3 39.5t-4 46 t-5 37.5q-3 24 0 53q-10 35 -9 41q4 70 4 111q0 3 -2.5 23.5t-3.5 34t2 19.5q-3 3 -7.5 19t-4.5 20q-6 -1 -11.5 -5t-8.5 -4.5t-13 1.5q-32 8 -35 8q-10 0 -34.5 -7t-38.5 -5q-6 2 -16.5 1.5t-16.5 -3.5q-9 -5 -36 -1.5t-34 1.5q-32 -7 -51 -0.5t-20 41.5q0 37 -6 51 q-1 4 -2 20.5t-7 34.5q-9 22 -0.5 35.5t35.5 12.5q7 0 15 -1.5t12 -2t8 -0.5t7 2t5 6q5 2 13.5 0t13.5 0q4 0 12 4q2 0 5 -1t5 -1q4 0 12 1t11 1q6 1 17 1t16 1q3 0 22.5 3t28.5 3q3 0 9 -1t9 -1h6h3q47 -4 81 8q-3 10 -9.5 22t-10.5 23q-2 7 -8.5 11t-9.5 8 q-1 8 -17.5 23.5t-19.5 21.5q-2 5 -11 8.5t-18 5t-20 3t-13 1.5t-13.5 -2.5t-12.5 -3.5h-27q-9 4 -40 1.5t-38 4.5q-3 -3 -13 -3t-22 1.5t-14 1.5q-10 1 -16.5 0t-18.5 -4t-18 -4q-13 0 -16.5 2t-6.5 12q-4 13 -4 41q0 32 6 68q1 8 -3 31t5 28q3 3 20 2t17 -4q5 2 16.5 2 t16.5 2q8 -2 18 1t13 3q5 0 33.5 3.5t47.5 5t23 -0.5q5 3 3.5 8.5t-4 8.5t-7.5 7.5t-6 6.5q0 11 -8 31q-5 4 -9.5 10t-8 14t-5.5 11q2 16 -14 32q-3 3 -9.5 17t-7.5 16q-17 22 -18 27q-3 9 -15.5 26.5t-15.5 24.5q-7 22 -14 29q-8 8 -21.5 35t-21.5 36q-1 1 -11.5 9.5 t-13.5 12.5t-8.5 12t-5 16.5t5.5 17.5q4 7 10.5 9.5t12 2t16.5 -2.5t18 -3q28 -3 46 2q7 2 24.5 4t33.5 1.5t15 -5.5q2 4 22.5 6t24.5 6q3 -3 19 -6.5t20 -3.5q0 -7 21 -35q3 -5 9 -21t9 -20q27 -44 29 -47q26 -51 39 -63q24 -24 24 -35q22 -33 29 -47q2 -3 8 -11t10 -15 t5 -11q2 -9 13 -27.5t13 -21.5q4 -8 15 -24.5t16 -26.5q7 -7 19.5 -27t23.5 -26q3 0 11 12.5t9 13.5q14 10 18.5 18.5t2.5 11t2 5.5q11 8 31 53q19 38 24 43t14 23.5t13 21.5q5 3 11.5 11.5t6.5 11.5q2 18 17.5 38t17.5 31q1 5 10.5 14.5t10.5 14.5q1 3 4.5 15.5t9.5 19.5 q21 24 24 55q0 5 0.5 13.5t1 12t3 9.5t6.5 12q17 17 30 13q31 0 29 -9q12 3 57 -2q12 -2 45.5 -0.5t45.5 -3.5q3 -1 10 -2t9.5 -1.5t7.5 -3t7 -5.5t3 -8t1 -13q0 -1 -7.5 -8.5t-8.5 -9.5q6 -13 -10 -45q-2 -3 -8.5 -10.5t-9.5 -13.5t-3 -11q-3 -25 -10 -35q-6 -11 -14 -35.5 t-13 -35.5q-25 -63 -32 -68q-3 -10 -18 -38.5t-13 -47.5q26 13 39 0q11 3 31 5t30 -1q4 4 12.5 4.5t19.5 -0.5t15 0q23 0 33 2q7 0 10 -3t4 -9.5t3 -9.5q-4 -14 -9 -58z" />
<glyph unicode="&#xa6;" horiz-adv-x="423" d="M268 1350q16 -2 18 -26.5t-2 -55.5t-1 -39q2 -20 -0.5 -63t0.5 -60q0 -3 -2.5 -40.5t-4.5 -55.5q0 -108 -2 -174l5 -209q0 -3 -0.5 -7t-1 -5l-1.5 -3t-3.5 -2.5t-6.5 -1.5q-5 0 -12.5 -0.5t-13.5 -0.5t-11 1t-15 3.5t-15.5 3t-14 0t-18.5 -4.5q-3 -1 -8.5 -1t-7.5 -1 q-3 7 -4.5 23t-1.5 30.5t0.5 32t0.5 19.5q1 14 -2.5 46.5t0.5 41.5q4 54 5 156.5t4 144.5q0 23 -9 102q-6 49 -4 80q1 8 -1.5 30.5t-2.5 26.5q1 1 3.5 7.5t4.5 11.5q18 4 58 -4q-8 -4 -13 -4q1 -2 10.5 -2t21.5 1t13 1q17 0 35 -2zM262 469q15 0 19 -10t1.5 -23.5t0.5 -27.5 q1 -28 -1 -87.5t-1 -87.5q-1 -10 -1.5 -84t-2 -140.5t-5.5 -67.5q-2 0 -2 -26t0.5 -50.5t-0.5 -32.5q3 -21 -2.5 -25t-28.5 -4h-6q-17 0 -31.5 -1.5t-21 -2.5t-12 -1.5t-8 1t-4.5 6.5q-9 18 -9.5 40t2 46t1.5 37q-11 20 2 54q12 28 -2 53q-4 4 -1.5 17t1.5 20q-5 50 -5 61 q0 6 2 10t3 11q3 16 -0.5 44t-2.5 40v28q-7 27 -6 29q2 7 1 21t1 24q2 18 1 35.5t-3 21.5q-9 14 -9.5 36t11.5 28q41 9 66 4q12 -2 27.5 2t25.5 2z" />
<glyph unicode="&#xa7;" horiz-adv-x="1052" d="M854 309q80 -30 103 -108.5t-21 -155.5q-11 -25 -47 -61q-2 -3 -4 -10t-4 -9q-4 -3 -13.5 -7.5t-13.5 -10.5q-10 -4 -24.5 -18t-20.5 -17q-13 0 -23 -4q-2 0 -5 -4t-7 -4h-18q-5 -2 -20.5 -10.5t-22.5 -8.5q-22 -7 -83.5 -5t-80.5 1q-8 0 -57 17q-9 3 -30.5 6t-27.5 4 q-19 13 -35 26q-4 2 -17 4.5t-17 4.5q-5 2 -15.5 12.5t-15.5 13.5q-31 9 -41 19q-6 4 -17 14.5t-18 15.5q-4 2 -10.5 2t-11.5 2q-2 2 -4.5 8.5t-4.5 8.5q-2 0 -4 -2t-4 -2q-6 11 -28.5 22t-24.5 23q-2 7 1 15t8.5 16t6.5 12q0 2 -0.5 7t-0.5 8t1.5 7.5t5.5 8.5q7 7 21 29 t14 28q11 19 23 31q6 6 20.5 3t14.5 -12q5 3 14 1.5t10.5 -2t11 -5t15.5 -6.5q21 -8 42.5 -9.5t33.5 -4.5q0 -6 10 -13q1 0 21 -4t30 -10v-4q6 -2 19 -4t18 -4q43 -27 74 -27q19 0 36 9.5t17 25.5q1 10 -11.5 21.5t-23.5 13.5q-5 1 -22 9.5t-31 12.5q-10 4 -26.5 10t-22.5 9 q-1 1 -14 8t-23.5 11t-24.5 7q-4 4 -26 13q-20 7 -54 26t-43 23q-8 4 -37.5 11t-42.5 15q-1 1 -10.5 12t-15.5 15q-45 20 -66 47q-45 65 -45 172q0 10 -2 24t-2 21q-4 45 27 135q0 23 10 37q9 26 16 39q2 7 14 22t13 17l18 31q0 9 -18 37t-23 43q-2 12 -2 25t-2 20 q0 5 -2 19t-2 27t4 23l4 27q2 5 7.5 13t7.5 18q5 23 31 69q3 4 17.5 28.5t29.5 35.5q28 25 90 57q4 2 14.5 2t15.5 2q46 15 56 17q4 1 34 7.5t46 6.5q20 -4 68 -12t77 -15q2 -6 20.5 -11t20.5 -15q3 5 12.5 2t14.5 -10q11 4 24.5 -3.5t31 -23t21.5 -18.5q10 -4 26 -7.5 t19 -5.5q2 -2 15 -14t20 -16q20 -11 54 -19q4 -22 -1 -35.5t-15.5 -28t-14.5 -28.5q-3 -2 -10 -12.5t-9 -10.5q0 -10 -2.5 -18.5t-4.5 -13t-7.5 -13t-7.5 -12.5q-6 1 -14 2t-14 2.5t-11 5.5q-21 12 -57 25q-4 2 -10 8t-9 6q-4 -4 -8 0q-2 1 -10.5 8t-16.5 9q-2 2 -9 4.5 t-11 5.5q-5 2 -21.5 10t-26.5 12.5t-25.5 8.5t-29.5 4q-31 3 -57 -14t-39 -44q-15 -28 -10 -71q6 -26 18 -43q14 -20 45.5 -33t76.5 -24.5t63 -18.5q4 -5 10 -7t14 -3t13 -2q5 0 10 -4.5t6 -4.5q4 0 23 -14q4 -3 24.5 -8.5t28.5 -13.5q10 -5 21.5 -15t28 -28t21.5 -23 q34 -34 60 -106q18 -51 25 -113.5t-9.5 -128.5t-62.5 -92q-6 -10 -17 -18.5t-27 -17t-18 -9.5q11 -11 31 -17zM365 547v-8q73 -96 157 -84q15 4 66 8.5t76 17.5q24 24 30 27q28 14 29 65t-21 74q-43 55 -149 98q-7 3 -27 10.5t-30 12.5q-3 1 -10 4t-9.5 4t-8.5 3t-9 2.5 t-8 1t-8 0t-7 -1.5t-7.5 -3.5t-6.5 -5.5q-7 -18 -27 -31q-37 -34 -49 -91t19 -103z" />
<glyph unicode="&#xa8;" horiz-adv-x="1001" d="M403 1343q3 0 9 0.5t9 0.5t7 -1.5t6 -5t2 -10.5q0 -6 -2 -21t-2 -22q2 -29 -6 -92q-1 -4 -1 -13t-1.5 -16.5t-5.5 -11.5q-4 -3 -25 -0.5t-26 2.5q-43 5 -56 4q-4 0 -14 -0.5t-17.5 -0.5t-16.5 1t-15 4q5 22 0 82q0 9 2 25t2 24q0 3 -1.5 14t-2 16.5t0 14.5t3.5 15 q6 1 32.5 -2t32.5 2q12 2 33 -2q8 -2 26 -3.5t27 -3.5zM598 1159q-2 0 -8.5 -0.5t-9.5 0t-7 1.5t-6 5t-2 11q0 6 2 21t2 22q-2 29 6 92q1 3 1 12.5t2 17t6 11.5q4 3 25 0.5t26 -2.5q43 -5 55 -4q2 0 21 1.5t30 0t13 -6.5q2 -8 1.5 -19.5t-1.5 -31.5t0 -30q0 -9 -2 -25.5 t-2 -24.5q6 -51 0 -59q-3 -4 -15.5 -2.5t-26 4t-24.5 -1.5q-12 -2 -33 2q-8 2 -26 3t-27 3z" />
<glyph unicode="&#xa9;" horiz-adv-x="1396" d="M602 991q-42 -52 -51 -73q-19 -48 -16 -99q5 -14 14 -31t15 -28l7 -10q5 2 13 -21q16 -28 49 -47q16 -8 18 -8.5t14.5 -5.5t15 -2.5t21.5 0.5q42 7 64 22q39 13 65 41q7 15 21 23q3 2 7.5 9.5t6.5 8.5q13 0 29.5 -16t24.5 -19q10 -4 43 -45q16 -16 18 -20q16 -14 10 -25 q-8 -16 -33 -45q-23 -37 -53 -53q-28 -14 -51 -33q-7 -4 -26.5 -8.5t-28.5 -9.5q-59 -32 -123 -29q-62 3 -144 33q-5 2 -14 5.5t-15 6t-13.5 7t-12.5 9.5q-30 40 -31 41q-9 8 -21 26.5t-19 25.5q-37 43 -46 71q-3 9 -15 30.5t-15 27.5q-15 38 -21 77q-12 92 10 148 q47 134 142 199q95 64 223 61h10q31 0 47.5 -1t40.5 -6.5t43 -17.5q11 -8 35 -17.5t33 -14.5q15 -10 37.5 -34.5t30.5 -31.5q19 -15 35.5 -42.5t4.5 -35.5q-15 -10 -77 -65q-4 -3 -16 -16.5t-17 -16.5q-7 -4 -11 -5t-6 0t-6.5 5.5t-9.5 7.5q-32 32 -47 37q-8 3 -24 12 t-30.5 14.5t-29.5 6.5q-34 7 -65 4q-42 -4 -60 -27zM1294 1004q47 -133 -18 -347q-5 -18 -13.5 -36t-22.5 -43t-19 -35q-21 -41 -39 -56q-14 -10 -42.5 -41.5t-35.5 -37.5q-36 -34 -107 -72q-184 -93 -344 -80q-114 8 -180 43q-10 5 -33 13.5t-40.5 18t-26.5 21.5 q-6 8 -28.5 20t-29.5 19q-5 5 -19.5 18t-21.5 21q-2 3 -15.5 17t-32 35.5t-40.5 49.5q-11 14 -21.5 34t-18.5 37.5t-9 19.5q-3 4 -19.5 53.5t-19.5 54.5q-12 27 -12 96q0 2 -2 21t-2.5 28.5t1 24t5.5 23.5l2 20l4 27q2 17 10.5 45t10.5 37q14 59 57 123q55 77 68 92 q15 18 29 31.5t43.5 37.5t33.5 27q129 101 318 111q92 4 239 -37q117 -36 223 -135q104 -99 168 -299zM1182 743q16 77 6 156q-2 51 -21 135q-4 37 -45 107q-4 6 -14.5 22.5t-19.5 28.5t-19 22t-44.5 39t-51.5 47q-69 58 -92 60q-8 1 -27.5 6.5t-24.5 5.5q-3 1 -18 2 t-27.5 3t-17.5 5q-8 4 -44.5 5t-41.5 -1q-8 -2 -22.5 1t-20.5 2q-6 -6 -19 0q-11 0 -22 -3t-24.5 -7.5t-22.5 -6.5q-4 -1 -17.5 -2t-19.5 -6q-1 0 -23 -6q-4 0 -9.5 -3.5t-8.5 -2.5t-4 0.5t-3 -2t-3 -2.5q-6 -7 -27.5 -19.5t-27.5 -19.5q-45 -45 -56 -47q-5 -1 -15 -13 t-13 -14q-2 -1 -9.5 -9t-16.5 -18t-13 -14q-17 -17 -29 -49q-1 -1 -13.5 -19.5t-13.5 -21.5q-12 -17 -14 -19q-4 -3 -7.5 -11t-8.5 -11q-5 -5 -13 -25q-10 -30 -10 -39q-3 -23 -4 -44.5t0 -29t0 -14.5q-3 -5 0 -21l2 -16q0 -53 18 -122q16 -58 43 -111q14 -36 54 -96 q3 0 41 -49q16 -16 29.5 -30t18.5 -19.5t10.5 -10.5t9.5 -7.5t12 -6.5q9 -5 33.5 -25t39.5 -26q125 -54 279 -15q56 8 80 21q8 4 18 4t14.5 -1t8.5 3q1 2 25.5 13t27.5 14q5 4 18.5 10t18.5 10q26 22 39 31q34 27 41 39q2 2 9.5 10.5t14 16t6.5 8.5q4 0 28.5 28t31.5 39 q4 5 9.5 15.5t8.5 13.5q4 7 6.5 19t5.5 16q6 10 8 22.5t2 29t1 25.5z" />
<glyph unicode="&#xaa;" horiz-adv-x="802" d="M748 616q4 -9 15.5 -24.5t17.5 -29t3 -27.5q-6 -6 -34 -7t-63.5 1.5t-58.5 5t-34 4.5q-11 3 -14 7t-5 17q-1 3 -2 4t-3 1t-4 -0.5t-4.5 -1.5t-4.5 -1q-8 1 -20.5 -2t-28 -8t-19.5 -6q-18 -6 -30 -6q-3 0 -11.5 -3.5t-15.5 -2.5h-22q-21 -7 -29 -7q-11 1 -26 3.5t-23 3.5 q-1 0 -13.5 2t-21.5 3t-12 -1q-5 0 -35 6q-2 0 -33.5 15t-36.5 20q-15 21 -67 73q-10 12 -19 47q0 1 -1 12t-1.5 22t0.5 22t4 14q2 2 3 18.5t16 28.5q1 10 10 27q1 12 23.5 38t33.5 34q13 7 30.5 18t24.5 14.5t23.5 8.5t42.5 10q2 2 19 2q61 18 79 18q19 6 52 10 q10 0 36.5 9t40.5 6l17 2q26 4 26 16q3 41 -2 72q-11 42 -61 78q-1 0 -4.5 2.5t-7 4.5t-11 5t-16.5 4q-7 1 -8 0.5t-9.5 -2t-19.5 -2.5q-2 0 -26 -6q-6 -2 -17 -2q-3 -2 -17 -5.5t-20 -6.5q-2 -1 -21 -28t-40.5 -51.5t-32.5 -21.5q-4 1 -35.5 7t-59.5 11.5t-28 8.5 q-15 6 -19 12t1 27q8 23 13.5 39.5t7 23t2.5 12t3 9.5q14 28 27 41q12 18 27 30q7 6 43 25t39 18q22 15 43 15q32 8 59 8q17 0 49 4q4 1 50 -1.5t61 -4.5q9 1 16 0t20 -4t17 -4q18 0 22 -4q44 -17 48 -21q2 -2 18.5 -12t29.5 -21.5t17 -25.5q1 -3 3.5 -35.5t8.5 -44.5 q3 -6 5 -40t0 -52q-1 -2 -0.5 -9t-1 -22.5t-5.5 -28.5v-39q2 -2 2.5 -23t-2.5 -32q-2 -14 -4 -48.5t-2 -39.5q-2 -8 -2 -96q1 -3 1.5 -28.5t2.5 -35.5t3.5 -37.5t7.5 -38.5zM561 825q2 -1 5.5 15t5.5 33t1 20q-17 -3 -38 -6q-3 0 -13.5 -4.5t-13.5 -5.5q-4 -1 -7 -3.5 t-7 -3.5t-13 -2q-1 0 -10.5 -3.5t-20 -6.5t-14.5 -2q-3 2 -5.5 1t-3.5 -2.5t-5.5 -3.5t-11.5 -3q-1 0 -4.5 -1.5t-9.5 -4t-11 -4.5q-2 -2 -18 -4q-11 0 -15 -7q-5 -1 -28 -10q-6 -2 -15 -8q-13 -8 -20 -18q-15 -15 -19 -21q0 -14 -4 -14q1 -8 5 -18.5t5 -14.5q1 -2 6 -5 t5 -5q11 -2 37.5 -8.5t42.5 -8.5q26 0 36 4q2 1 11.5 1t17.5 1t10 5q0 -3 26.5 5t31.5 11q31 24 37 33q5 9 14 35q0 1 5 16.5t5 17.5z" />
<glyph unicode="&#xab;" horiz-adv-x="909" d="M334 522q22 -5 44 -27.5t38 -29.5q-2 -14 -2.5 -52.5t-3.5 -58.5q0 -8 -5 -24t-6 -23q-1 -6 -1.5 -16.5t-2.5 -18t-8 -12.5q-15 7 -34 25t-29 24q-10 4 -23 14.5t-20 14.5q-4 2 -38 23t-50 30q-4 2 -12 4t-11 4q-4 3 -14.5 8t-16.5 9q-3 3 -12 14t-14 14q-15 0 -17 13 q-2 12 -2 45q-2 15 3 55.5t5 50.5v58q0 6 4 10q0 8 -2 21.5t-2 22.5t4 13q0 2 -1 1l-1.5 -1.5t-1.5 0.5q1 10 -3 34t-2 40.5t18 23.5q5 2 11.5 5t11 4.5t9 5t7.5 8.5q22 2 63 25q26 11 35 20q2 1 6 5t6 5q8 6 28 12t21 7q2 2 12.5 12t13 12t11.5 8.5t14.5 8.5t14.5 5t18 3 q6 -21 5.5 -60.5t0.5 -68.5q0 -99 -20 -109q-2 -2 -16 -2q-17 -6 -52.5 -29t-56.5 -28q-2 -1 -6 -3.5t-7 -4.5t-5 -4q-52 -29 -82 -37q7 -15 33.5 -28t31.5 -17q2 -1 4 0.5t4 -0.5q13 -12 51.5 -29.5t51.5 -34.5zM715 522q23 -6 55.5 -28.5t46.5 -28.5q-2 -14 -2.5 -52.5 t-3.5 -58.5q0 -8 -4.5 -24t-5.5 -23q-1 -6 -1.5 -16.5t-3 -18t-8.5 -12.5q-21 9 -83 49q-10 4 -23 14.5t-20 14.5q-35 21 -89 53q-4 2 -11.5 4t-10.5 4q-4 3 -14.5 8t-16.5 9q-3 3 -12 14t-14 14q-15 0 -17 13q-2 12 -2 45q-2 15 3 55.5t5 50.5q1 8 1 18t-0.5 22t-0.5 18 t4 10q0 8 -2 21.5t-2 22.5t4 13q0 2 -1 1l-1.5 -1.5t-1.5 0.5q1 10 -3 34t-2 40.5t18 23.5q5 2 11.5 5t11 4.5t9 5t7.5 8.5q22 2 63 25q26 11 35 20q2 1 6 5t6 5q4 3 13.5 5.5t15.5 6.5t8 11q1 0 5 1t5.5 0t1.5 -5q5 4 17.5 15t19.5 16.5t20 11t27 6.5q6 -21 5.5 -60.5 t0.5 -68.5q0 -99 -20 -109q-2 -2 -16 -2q-17 -6 -52.5 -29t-56.5 -28q-2 -1 -6 -3.5t-7 -4.5t-5 -4q-52 -29 -82 -37q7 -15 33.5 -28t31.5 -17q2 -1 4 0.5t4 -0.5q13 -12 51.5 -29.5t51.5 -34.5z" />
<glyph unicode="&#xac;" horiz-adv-x="1138" d="M834 520q-6 0 -59 -4t-54 -4q-66 8 -88 6q-19 -1 -51 0.5t-43 1.5q-4 0 -21 -3.5t-32 -6t-17 -0.5q-16 2 -47 1t-39 1q-12 -3 -38 -2.5t-38 -3.5q-2 0 -14 1.5t-21 1t-12 -4.5q-2 4 -5.5 3.5t-9.5 -3t-7 -2.5q1 2 -2 3t-7.5 1t-9.5 -0.5t-9 -1t-5 -0.5q-11 -1 -31 -2 t-31 -2q-3 -1 -12 -1.5t-16 -1.5t-9 -3q-10 -6 -15 -1t-5 17q-4 3 -0.5 55.5t6.5 55.5q-16 31 -2 45q9 12 12.5 13.5t20.5 0.5q21 0 41 4q7 2 43 1t39 1q6 3 21.5 1.5t21.5 0.5q14 4 51 4q119 3 244 0q82 -3 168 0q28 0 256 8q26 0 28 2q4 -7 4 -38q1 -11 -2.5 -77t-3.5 -69 q4 -36 -2 -63v-21.5t4 -27.5q1 0 3.5 -34.5t2.5 -43.5q0 -30 9 -43q5 -10 2.5 -12t-13.5 -1.5t-12 0.5q-13 -3 -67.5 -2.5t-65.5 6.5q-30 15 -25 31q4 15 4.5 33t-1 43t-1.5 37q0 4 1 15q5 91 -23 91q-7 -1 -16 -6z" />
<glyph unicode="&#xad;" horiz-adv-x="722" d="M651 743q3 -8 3 -18.5t-0.5 -17t-3 -21t-3.5 -18.5q-1 -7 0.5 -28t-4.5 -28l-14 -14q-5 -4 -10.5 -4.5t-10.5 -3.5q-3 -2 -10.5 -3t-17 -1.5t-13.5 -1.5q-8 -2 -24 3t-23 5q-2 1 -12.5 -1t-18.5 -1q-18 2 -59 2q0 2 -8 2t-15.5 -2t-7.5 -6q-6 6 -26 -2q-13 -3 -39 -0.5 t-51.5 6t-24.5 2.5h-33q-1 -4 -11 -4.5t-20 0.5l-10 2q-2 0 -15.5 -3.5t-14.5 -4.5l-35 -4q-25 0 -35 8q-12 8 -14 23t2 36.5t4 26.5q0 10 2 27t2 20q0 7 -4.5 26.5t-2 31.5t16.5 18q7 -6 43.5 -3.5t64 6t33.5 -2.5q2 2 2 8q8 -3 17 0q4 0 14.5 -1.5t18.5 -1t14 4.5 q4 1 34 -1.5t34 -0.5q18 8 54.5 7t51.5 -5q0 3 46 4.5t91 -2.5t43 -16q0 -11 2 -19q3 -9 -2 -29z" />
<glyph unicode="&#xae;" horiz-adv-x="1255" d="M1171 852v-66q0 -78 -24 -176q-1 -5 -2.5 -15t-3.5 -17.5t-6 -12.5q-5 0 -9 -4q0 -1 -3.5 -15.5t-8.5 -21.5q-14 -34 -45 -90q-6 -10 -21.5 -25.5t-21.5 -25.5q-5 -7 -13.5 -15.5t-19.5 -18.5t-16 -15q-12 -12 -45 -25q-22 -11 -49 -20q-12 -2 -29 -10.5t-27 -8.5 q-16 -8 -28 -8q-4 0 -11.5 1t-14 1t-11.5 -2q-17 0 -57.5 -7t-65.5 -5h-57q-6 0 -20.5 4t-20.5 4q-4 0 -11.5 -2.5t-14 -2.5t-11.5 5q-45 -9 -78 4q-11 -2 -23 0t-27 6.5t-20 5.5q-45 7 -61 17q-18 24 -31 28q-31 20 -53 54q0 1 -12 11t-17 17q-10 9 -41 62q0 2 -4 4t-4 4 q-20 50 -37 160q-1 13 -4.5 34t-5.5 38.5t-2 33.5q-2 5 -2 11.5t1 13t1 8.5q0 16 -3 43t-2.5 47.5t7.5 40.5q0 6 5 20.5t5 20.5q4 21 11 45t21.5 61.5t16.5 43.5q3 9 13 30t12 35q2 4 8 18.5t8 18.5q2 6 7.5 15.5t7.5 15.5q3 5 11.5 15.5t10.5 14.5t4 6.5t6 6.5t7 8 q15 19 28 35q8 11 16 17q4 3 7 5q59 47 65 51q5 4 28.5 17.5t31.5 19.5q12 6 32 9t35 10q10 5 21.5 7.5t26.5 3.5t24 1.5t27.5 0t23.5 -0.5q9 0 180 -12q1 0 4 1t5 1t4 -2q2 0 4 -2t4 -2q8 -2 26.5 -4.5t26.5 -4.5q13 -4 24 -11t25.5 -19t24.5 -19q8 -8 24 -16 q5 -5 13.5 -17t15.5 -16q9 -11 31 -29.5t31 -31.5q2 -7 12 -18.5t12 -14.5q2 -2 4 -11.5t4 -13.5q2 -5 12.5 -25t15 -30t12 -28t12 -33.5t6.5 -30.5q26 -122 28 -158q4 -16 4 -53zM1069 733q16 78 12 137q0 28 -6 72q0 6 -4 25.5t-4 27.5q-10 20 -10 31q-2 4 -6.5 10.5 t-6.5 10.5q-1 4 -9 43t-15 59q-2 6 -10.5 18.5t-10.5 18.5q-4 6 -10 20.5t-10 20.5q-11 14 -41 37q-2 2 -5.5 6.5t-5.5 6t-6.5 4t-7.5 -0.5q-4 11 -14 21t-19 15t-21.5 10.5t-14.5 6.5q-17 11 -41 25q-7 3 -14 4.5t-11 3.5q-9 -6 -28 4q-13 2 -50.5 0.5t-44.5 3.5 q-4 0 -10 2t-10 2q-5 0 -21 -4t-24 -4h-62q-23 0 -66 -13.5t-56 -23.5q0 -2 -1.5 -2h-3.5t-4 -2q-36 -31 -56.5 -50t-46 -49t-42.5 -61q-23 -38 -29 -77q-2 -7 -9 -35.5t-10 -40.5t-8.5 -38.5t-8.5 -43.5t-6.5 -40t-5 -43.5t-1.5 -39.5q0 -117 33 -246q27 -99 100.5 -154 t184.5 -67q26 -3 54.5 -3t44.5 0.5t49.5 3t43.5 3.5q14 0 28.5 1.5t23.5 3.5t25 6t25 6q61 10 82 20q10 5 19.5 11t16 11.5t15.5 15t13.5 14.5t14 18t12 16.5t12.5 19t12 17.5q8 4 12 8q4 6 12 26t15 29q9 13 14 27t8 26.5t5 16.5q5 16 8 30t6 31.5t6 30.5zM856 573 l11 -16.5l10 -15t5.5 -11t2.5 -12.5q0 -4 5 -12.5t7 -13.5q-1 0 -25 4q-23 4 -42.5 5t-50 0t-38.5 -1q-4 0 -11 -2.5t-12 -2.5t-9 5q-2 2 -2 7t1 10.5t1 6.5q-9 36 -9 66q-9 107 -47 149q-3 3 -9 9.5t-8 9t-7.5 7.5t-10 7.5t-12 6.5t-16.5 8t-21 8q-10 -68 -11 -192t-1 -128 q-1 -8 -14.5 -9t-30.5 1t-33 -2q-4 -1 -28 -1.5t-31 -2.5q-3 4 -0.5 25.5t2.5 25.5q-4 66 -4 201v147q8 74 8 129q0 13 -8 37q-2 10 0 35.5t0 38.5q0 2 -2 9t-2 11q-2 11 -1.5 31.5t-2.5 28.5q-3 10 0.5 14.5t15.5 7.5q80 11 106 8q10 -1 52.5 -3t79.5 -6t61 -11q1 0 8 -4 t12 -4q49 -16 62 -29q2 -2 8.5 -7.5t9.5 -8.5q11 -11 11 -21q14 -22 24 -102q0 -53 -37 -99t-86 -71q9 -7 17.5 -17.5t13 -18t14 -23.5t13.5 -23q2 -4 3 -9.5t3 -9.5q6 -12 6 -22q1 -2 7.5 -26t8.5 -36q17 -61 33 -86zM647 946q23 13 33 41.5t-4 50.5q-19 19 -37 25 q-17 8 -78 8q-2 -22 2 -72.5t2 -76.5q3 0 13 1.5t13 2t10.5 1.5t11.5 2.5t10.5 3.5t12 5.5t11.5 7.5z" />
<glyph unicode="&#xaf;" horiz-adv-x="641" d="M530 1282q-2 -3 4 -9t5 -9q0 -1 -4 -10t-3 -15q4 -13 1.5 -37.5t-1.5 -27.5q-3 1 -37 -7.5t-36 -7.5q-25 8 -121 -2q-114 0 -117 -2q-2 -2 -34 -4.5t-33 -3.5q-16 -7 -27 14q-1 4 -8 33t-8 33q-1 3 -5.5 13.5t-3.5 16.5q2 12 8 15t16.5 1t14.5 -1h41q21 -2 75 -2.5 t73 2.5q6 0 9.5 1t7.5 3.5t7 3.5h29q9 0 46.5 1t45.5 1q6 1 37 -4q4 0 9.5 2.5t8.5 1.5z" />
<glyph unicode="&#xb0;" horiz-adv-x="731" d="M596 1280q45 -89 29 -184l-3 -18q-4 -17 -7.5 -33.5t-10 -33.5t-12.5 -22q-7 -8 -12.5 -16.5t-6.5 -9.5t-18 -13q-4 -2 -16 -15t-15 -15q-32 -24 -57 -35q-63 -28 -180 10q-25 7 -57.5 31.5t-47.5 46.5q-19 19 -22 20q-4 2 -6 6t-4 10l-3 9q-31 59 -34 69q-21 64 1 129 t74 111q20 14 45 25l14 6t9 4t4.5 2t4.5 1.5t5 1t9 2l14 3.5q7 2 25.5 5t38 6t22.5 3q27 3 29 3q6 -1 10.5 -3t9.5 -2q6 0 21 -6q7 -3 20 -6t20 -6q31 -15 56 -35q1 -1 12.5 -9.5t22.5 -19.5t16 -22zM352 1257q-28 -7 -61 -40q-34 -41 -15 -105q14 -38 57.5 -67.5 t80.5 -10.5q85 42 67 131q-8 39 -49.5 70.5t-79.5 21.5z" />
<glyph unicode="&#xb1;" horiz-adv-x="1081" d="M954 82q-2 -5 1 -12t1 -13q-5 -29 -6 -32q-1 -2 -3.5 -9t-6.5 -12q-3 -4 -13 -4t-14 -4q-4 -2 -22.5 -4.5t-22.5 0.5q-12 -2 -34 2t-33 2q-35 0 -35 4q-30 5 -37 4q-17 -2 -43 2q-4 0 -14 -2t-15.5 -2.5t-11.5 2.5t-34 5.5t-36 0.5q-7 -1 -16 -0.5t-21 1.5t-14 1 q-4 2 -21.5 2t-19.5 2q-1 1 -13 -0.5t-17 4.5q-3 -1 -2 -3l-5 -1q-3 0 -7 2t-5 -2q-6 -4 -35 -4q-19 0 -30.5 2t-16.5 2q-1 0 -13 -1t-21 -1t-9 2q-17 -8 -18 -4q-2 7 -17 2q-3 0 -7 2t-7 2q-22 0 -49 -6q-3 -1 -7 -2t-6.5 -1.5t-5.5 0t-6 3.5q-2 1 -10.5 3t-12.5 5t-1 7 l-8 12q-11 17 -13 24q-6 7 -7.5 25.5t-6.5 26.5q-4 8 -4 26q0 25 24 25q5 0 9 2t6 2q11 -2 23.5 -3t21.5 -3q3 0 19.5 -2t27.5 -4q5 -1 23.5 3t25.5 1q18 4 51 0t47 0q7 2 22 -0.5t23 2.5q4 0 36 -2.5t36 0.5q10 1 28.5 -0.5t24.5 -1.5q33 0 47 2q5 1 28 0l22 -2 q3 0 23.5 -2t23.5 -2q18 -2 48.5 1t41.5 3q25 -4 35 -2q4 1 23 1.5t24 2.5q12 7 28 -4q1 -1 8 -4.5t11.5 -7t5.5 -7.5q1 -3 6.5 -16.5t8 -24t-0.5 -16.5zM207 553q-1 1 -4 1t-5.5 0.5t-5.5 3t-4 5.5q-10 30 -10 41q0 2 2.5 25.5t1.5 34.5q-1 2 4 28q1 5 5.5 19.5t5.5 21.5 q2 8 9.5 10.5t33.5 1.5q6 -1 10 -1h5.5t4.5 -1q5 -1 15 -0.5t12 -1.5q3 -1 8.5 0t11.5 0q4 -1 12 1t15 1q5 -1 16 -1t24 0.5t17 0.5q66 0 66 2q4 4 1.5 17.5t-1.5 17.5q2 8 1.5 21.5t0.5 19.5q1 13 -1.5 36t-2.5 30q1 11 -1.5 31.5t-0.5 27.5q-4 15 -4 21q-3 26 16 32 q2 1 7.5 1h9t3.5 1q3 0 8 -1l15 -3t22 -4q0 1 11 6q2 1 11.5 -1t10.5 -1q9 0 29 -16q12 -12 8 -23q-2 -5 -2 -11t1 -13t1 -10q0 -4 -1 -17.5t-1 -25.5t2 -19q-2 -3 -2 -3.5t1.5 -4.5t2.5 -8q-2 -4 -2 -18.5t2 -18.5q1 -10 1 -28.5t1 -30.5q10 -14 40 -11t44 -2q109 0 119 -6 q11 4 20 2q15 1 17.5 1.5t6.5 -1t9 -2.5l6 1q5 1 11.5 1.5t17.5 -0.5q20 0 22.5 -22t-2.5 -39q-1 -10 2 -30.5t3 -27.5q-4 -29 -7 -39q0 -4 -6.5 -19t-11.5 -15q-25 0 -35 -4q-4 -2 -25 1t-26 1q-8 -5 -29.5 -2.5t-29.5 0.5q-6 -1 -32 2.5t-30 3.5q-9 -2 -31 2 q-4 1 -24 -2.5t-23 -1.5q1 -15 -1 -44t-1 -44q4 -19 0 -41q4 -12 4 -35q0 -15 3 -39t3 -39q0 -2 -3.5 -9t-10 -16t-12.5 -12q-4 -1 -16.5 -6.5t-22.5 -9.5t-14 -4q-6 1 -18.5 0t-18.5 0q-2 1 -9.5 4.5t-14 6.5t-7.5 3t-7.5 2t-11.5 4.5t-6 5.5q-2 6 2 27t3 24q-2 12 -0.5 31 t4 43.5t2.5 28.5q0 43 6 70q1 6 -0.5 18t-1.5 16q0 2 -2 10t-2 9q-7 0 -15 2q-14 0 -32 4q-20 3 -33 0q-16 -5 -31 0q-8 2 -25 -0.5t-20 -1.5l-57 -2q-28 0 -37 6z" />
<glyph unicode="&#xb2;" horiz-adv-x="634" d="M551 731q2 -3 1.5 -12t-3.5 -12v-29q0 -2 -1.5 -12t-0.5 -15q-2 -6 -1.5 -15t-0.5 -15q-7 -5 -27 -5q-1 0 -6 -1t-9 -1t-5 2l2 2h-15q-5 1 -17 -1.5t-17 -0.5q-30 11 -58 7l-69 -9q-2 0 -43 -1t-43 -1h-21q0 -1 -25 0.5t-30 3.5q-31 6 -41 -2q-25 0 -29 2q-7 4 -9 9 t-1 10.5t0 7.5q3 10 8 57q0 2 0.5 12t3 14.5t8.5 6.5q3 1 7.5 4.5t7.5 7t6.5 7.5t5.5 6q11 8 42 29.5t46 35.5q7 7 22 20t23 21t19 19.5t20 23.5q3 5 8 16t10.5 19.5t12.5 13.5q17 14 28 41q1 1 3 4.5t4 6t4 2.5q-1 6 4 15t6 11q2 11 17.5 46t15.5 51q0 50 -13 65 q-14 14 -34 19q-11 2 -54 -5q-13 -3 -20.5 -6.5t-11 -6t-5.5 -3.5q-9 -3 -14 -14t-7 -24t-3 -15q-15 -24 -16 -37q-1 -2 -3 -8t-4 -10.5t-6 -4.5q-31 -8 -35 -8q-6 0 -26.5 1.5t-30.5 0.5q-5 -3 -10 0q-2 0 -4 -1t-4 -1q-4 1 -4 21q4 10 4 34q-2 7 4 13l4 12q2 6 5 17t5 16 q5 10 12 31q12 27 50 69q7 6 32 14.5t33 14.5q23 10 51 10q25 11 49 4q5 2 50 -4q24 0 51 -10q14 0 22 -4q2 -1 5 -4t5.5 -4.5t6.5 -1.5q2 -2 6 -6.5t6 -6.5q6 -6 14 -30q3 -7 4.5 -22.5t3.5 -20.5q5 -18 9 -41q6 -38 -6 -115q-2 -9 -10.5 -23t-10.5 -22q-1 -1 -10 -19 q-3 -6 -15 -22q-6 -12 -12 -21q-12 -18 -14 -24q-5 -9 -10 -12q-3 -2 -6 -8.5t-5 -8.5q0 2 -2 2q0 -5 -9.5 -10.5t-10.5 -9.5l-8 -6l-17 -17q-1 -1 -9 -9.5t-13 -8.5q-2 -6 -13.5 -16t-15.5 -9q3 -4 -50.5 -45t-64.5 -43q4 -1 9.5 -1t11.5 0.5t8 0.5q25 0 35 2q9 0 30.5 -1 t30.5 -1q4 0 25 -1.5t31 -0.5q28 0 82 4q6 0 16 1t14 1q5 -1 15 -1t14 -1z" />
<glyph unicode="&#xb3;" horiz-adv-x="591" d="M498 965q21 -63 0 -119q-3 -8 -25 -43q-8 -18 -35 -41q-5 -6 -15.5 -15t-14.5 -14q-14 -13 -33 -20q-25 -13 -25 -19l-14 -3q-14 -3 -26.5 -5t-12.5 0q-1 0 -3 -1t-3 -1q-3 -1 -8.5 -1t-8.5 -1q-10 0 -10 2q-14 -2 -19.5 -2t-20.5 2.5l-21 3.5q-2 1 -7 4t-9 5t-7 1 q-10 15 -22 19q-2 0 -5 3.5t-3 4.5q-13 5 -23 20q-1 1 -8.5 9t-9.5 14l-13 39q-2 14 -4 37.5t-2 25.5q0 11 4.5 15.5t16.5 7.5q12 4 22 4q6 0 20 3t21 3l10 1q10 1 15.5 0t7.5 -5q6 -9 12 -30t12 -29q21 -32 56 -29q34 0 45 16q16 16 16 37q1 13 -6 31.5t-16 26.5 q-5 5 -20 6h-15h-10q-3 -1 -5 -1t-4 -1q-4 4 -4 8.5t2 10.5t2 9v45v15v10q-1 2 -1 5.5t-1 6.5t-4 6l1 6q1 6 5 7q2 1 6 2t5 2q22 11 26 14q2 3 9.5 8.5t9.5 8.5q4 4 12 16q10 12 8 27.5t-10 25.5q-2 4 -15 15t-14 8h-26q-22 -5 -29 -15q-4 0 -14 -10q-12 -8 -17 -18 q-3 -3 -14 -25q-3 -5 -11 -15.5t-10 -17.5q-2 2 -7.5 2.5t-6.5 1.5q0 1 -7.5 4.5t-15 7.5t-8.5 5q-4 2 -26.5 9.5t-22.5 6.5q-3 3 -6 3t-4 3q-1 5 6 14.5t8 12.5q7 14 27 49q2 2 31 39q6 12 14 16q5 2 14 10t9 11q8 2 30 18q1 1 7.5 3.5t11.5 4.5t6 3q1 3 8.5 4t16.5 1.5 t12 2.5q42 6 47 6q42 0 71 -10q52 -21 52 -37q4 0 12 -13t12 -22q5 -6 9 -14t8 -18.5t6 -16.5q9 -27 -1 -60t-30 -51q-4 -4 -11 -12t-11 -12q-5 -5 -16.5 -13.5t-16.5 -13.5q-4 -4 -8 -4h16q18 -3 33 -8q30 -17 41 -49z" />
<glyph unicode="&#xb4;" horiz-adv-x="731" d="M248 1120q14 31 33 123q2 20 9.5 59t8.5 48q2 11 22.5 13.5t39.5 0t28 -5.5q17 -3 34.5 -1.5t35.5 0t26 -8.5q-1 -8 -5 -15t-10.5 -15t-10.5 -15q-7 -15 -21 -31q-16 -19 -33.5 -49.5t-29.5 -46.5q-4 -5 -18.5 -21.5t-20.5 -26.5q-5 -12 -10.5 -15t-11 -1t-15.5 -2 q-5 -3 -23 0q-9 -7 -20 -6t-8 16z" />
<glyph unicode="&#xb5;" horiz-adv-x="1193" d="M1053 932q5 -52 4.5 -80.5t-3.5 -84t-3 -85.5q4 -235 -15 -369q-2 -20 -1.5 -65.5t-2.5 -59.5q-4 -33 -2 -41q0 -5 0.5 -25t0 -29t-3.5 -23t-9 -23q-3 -4 -5 -11t-5 -9q-27 -19 -64 -22.5t-67.5 1.5t-65.5 0q-5 -1 -8 2.5t-4 10.5t-1.5 12t-0.5 14q-16 -5 -49.5 -26.5 t-63.5 -24.5q-1 0 -13 -3t-18 -1q-72 -12 -142.5 5.5t-113.5 63.5q-7 -307 -37 -473q-3 -14 -18 -15.5t-38.5 2t-33.5 1.5q-18 -4 -63 3t-55 -1q-14 1 -20 9t-5 17t3.5 26.5t2.5 29.5q-5 235 6 561q4 77 13 105q2 24 -1.5 81t1.5 66q0 6 5 14t5 13q-3 42 1.5 133t4.5 117 q-5 86 -4 106q0 1 6 16.5t6 26.5q1 8 -1 23t0.5 22t12.5 12q1 0 26 3.5t32 7.5q13 2 45 -3.5t47 -5.5q5 -1 12.5 0t11.5 0q24 0 44 -10q4 0 12 0.5t12 0.5t9 -1.5t8 -5t4 -10.5q3 -14 3.5 -30.5t-0.5 -40.5t-1 -32q6 -56 0.5 -182t5.5 -196q1 -8 2 -32t2 -32 q16 -56 52.5 -94.5t90.5 -42.5q54 -5 84 14q23 10 48 51t42 88q3 7 3 19t3 20q0 5 10.5 95t10.5 147q0 91 8 164q0 4 3 7t3 5q1 4 0 11.5t0 9.5q0 5 5 14t5 10q0 5 -4.5 27.5t-3.5 39.5t11 23q6 2 11.5 0.5t12.5 -5.5l6 -3q19 8 31 8q1 0 2 -2t2.5 -3t5.5 1q2 0 6.5 4.5 t10.5 5.5q16 1 44 0t38 0q1 0 5.5 2.5t8.5 2.5t12 -3q4 -1 12.5 -27.5t10.5 -41.5z" />
<glyph unicode="&#xb6;" horiz-adv-x="1300" d="M1053 1266q3 -22 -5 -59.5t-6 -57.5q2 -17 -12.5 -25.5t-33.5 -7t-35 3.5q-8 1 -13 1.5t-7.5 -3t-4 -7t-1 -10t1 -11.5t1 -12.5t0.5 -12.5v-88q0 -7 -2.5 -43t0.5 -43q-2 -2 -6.5 -21t-1.5 -20t-0.5 -35.5t-5.5 -38.5q-3 -2 -7 -44t0 -48q0 -9 -1 -49t-1 -43v-92 q-5 -2 -1.5 -63t3.5 -66q0 -14 1.5 -62t1.5 -76q0 -53 6 -67q-2 -2 -5 -33.5t1 -32.5q2 0 1 -18t-1 -23q0 -64 4 -82q-10 -10 -11 -12q-8 -2 -28 -2q-13 -1 -34 0t-34 0q-10 0 -39 -5.5t-43 -2.5q-6 3 -7.5 16.5t-0.5 33t0 24.5q9 26 4 102q-1 13 -1.5 54t-2.5 63 q-2 28 4 207q1 24 0.5 131t5.5 131q4 30 8 112.5t13 128.5q12 73 6 123q-2 24 -22 29.5t-42 0t-41 1.5l-2 -12q-6 -7 -2 -31q2 -10 -4 -70q0 -8 1.5 -31.5t0.5 -33.5q-6 -31 -6 -131q0 -3 -2.5 -23.5t-4 -34t0.5 -18.5q7 -7 -2 -55q-4 -44 2 -82q0 -1 0.5 -18.5t1 -34.5 t-0.5 -34t-3 -20q-7 -12 2 -75v-80q-1 -18 -1 -55.5t-1 -55.5q-9 -87 -4 -121q2 -15 3.5 -39t0 -54t-7.5 -36q-26 -5 -74 6q-23 5 -86 0q-32 -2 -18 66q0 16 6 115q0 14 1 39t1 36q-1 15 2 40t2 38q0 23 6.5 90t5.5 92q-1 6 -1 89t-9 110q-12 6 -34.5 11t-31.5 10 q-6 3 -28.5 9.5t-32.5 12.5q-8 5 -26 12.5t-30 14.5t-16 14q-1 4 -10.5 14t-11.5 13q-1 2 -3 5q-8 10 -16 11q-3 0 -10 14t-14 30.5t-10 19.5q-13 33 -13 67q0 10 -4 44t0 42q8 42 25 96q42 87 49 105q6 3 19 19.5t20 21.5q2 2 11.5 14.5t18.5 18.5q3 2 9.5 11t19.5 15 q14 0 43 13.5t43 13.5q65 2 176 1.5t176 0.5q25 2 78 -2q16 -1 44 0t42 0h56q5 -1 24 1t21 -3q8 -4 8.5 -22t-3 -41.5t-3.5 -28.5z" />
<glyph unicode="&#xb7;" horiz-adv-x="643" d="M397 817q10 -1 19 0t15.5 -3.5t6.5 -16.5q0 -8 -2 -26.5t-2 -27.5q2 -28 -8 -112q-1 -3 -2 -23.5t-8 -27.5q-3 -4 -30.5 -1t-33.5 3q-57 5 -67 4q-3 0 -17 -0.5t-22.5 -0.5t-20 2t-18.5 5q5 26 0 102q0 9 2 28.5t2 29.5q-1 6 -2.5 18t-2 19.5t0 17.5t4.5 18q8 1 41 -2 t41 2q9 4 37 -2q12 -2 33.5 -3t33.5 -3z" />
<glyph unicode="&#xb8;" horiz-adv-x="524" d="M420 -158q1 -5 -1 -26t-7 -41t-11 -19q4 0 -21 -28q-13 -14 -13 -9q-3 0 -23.5 -13t-24.5 -15q-42 -4 -59 -8q-46 -8 -59 0q-55 0 -56 -2q0 2 -24 2q-13 3 -16.5 8.5t-0.5 21.5q0 2 1.5 27t9.5 31q6 5 27.5 4t21.5 -8q18 9 18 0q4 3 9 3.5t11.5 -0.5t8.5 -1q4 1 12 6 t13 6q-1 5 -1.5 11t-1.5 8.5t-3.5 5.5t-8.5 6q-20 12 -45 8q-61 -6 -61 22q0 3 0.5 10t1 10.5t2 8.5t4 9t6.5 7q8 10 29 39q22 22 22 31q4 2 4 -2q3 1 11.5 28t13.5 29q2 1 7.5 3.5t9 4t7.5 1.5t7 -3q1 1 12.5 2.5t11.5 6.5q25 -16 6 -41q-6 -9 -16 -39q-4 -10 -3.5 -10.5 t6.5 -0.5t9 -4q12 12 58 9.5t53 -15.5q2 -4 12.5 -11.5t13.5 -12.5q13 -24 17 -60z" />
<glyph unicode="&#xb9;" horiz-adv-x="413" d="M315 1327q6 -4 11.5 -20.5t5.5 -22.5q0 -7 -1 -20t-1 -19v-4q0 -4 -1 -12t-1 -12v-5q-2 -4 -2 -12q0 -5 1 -14t1 -12q-1 -12 -2 -36t-2 -34l1 -10q1 -9 1.5 -22.5t0.5 -30t-1 -35.5t-4 -35v-15q0 -10 1 -29.5t1 -31.5q0 -9 -1 -30t-1 -31v-25q0 -8 -1.5 -24.5t-1.5 -24.5 q0 -17 2.5 -34t2.5 -26q-1 -2 -3 -10.5t-5 -13t-7 -4.5q-3 0 -36 -2l-33 -2q-21 0 -28 8.5t-7 42.5v22q-6 35 -6 101q0 12 2 18t2 14q0 6 -0.5 15t-1 15t-0.5 7q0 2 2 5.5t2 5.5q-8 40 -8 55q2 15 2 27q0 8 -2 10q0 3 1 9.5t1 8.5q0 15 -2 28t-2 15q0 -4 -19 -4q-3 0 -8.5 2 t-7.5 2l-8 -2q-51 0 -62 10v4q0 7 -2 25t-2 35v6q-1 -2 -2 2l-2 21q0 9 6.5 16.5t15.5 7.5q1 0 4 0.5t5.5 0.5t5.5 -1q3 -2 7 -4.5t6.5 -4t4.5 -1.5q1 0 6.5 1t6.5 1q4 0 19 7.5t31.5 26t16.5 42.5q0 12 -2 16q1 4 2 10t2 10.5t2.5 9t4 7t5.5 2.5h13h6h2h10q4 0 4 -2 q3 0 11 2t10 2q3 0 6.5 -1t5.5 -1q16 0 16 4z" />
<glyph unicode="&#xba;" horiz-adv-x="989" d="M432 510q-9 -2 -45 2q-12 0 -33 18l-51 31q-34 11 -41 17q-3 3 -14 8.5t-12 7.5q-2 2 -29 20q-23 13 -33 33q0 1 -2 4.5t-5 8.5t-5 8q-2 5 -10 12.5t-13 15.5q-2 5 -4 8.5t-5 7t-5 7.5q-6 7 -12.5 24.5t-3.5 22.5q2 6 -2.5 18t-4.5 13q0 33 -2 37q-5 11 -5.5 35.5 t-0.5 25.5q-7 45 17 172q7 34 34 66q4 6 15 32q6 18 6 21q0 6 6.5 13.5t7.5 10.5q3 0 8.5 5.5t12 13.5t8.5 10q5 3 10.5 8t12 13t10.5 12q3 3 7.5 9.5t8.5 10.5q22 13 37 31q7 15 26.5 26t38.5 13q48 6 52 6q30 -5 39 -2q5 1 14 -0.5t19 -4l14 -3.5q6 -1 18.5 1.5t20.5 0.5 q32 -8 49 -8q4 0 13 -1t15.5 -1t10.5 2q22 -11 22 -13q3 3 18.5 -0.5t22.5 -7.5l8 -6l6 -4.5t5.5 -3t7.5 -2.5q6 -1 15 -11.5t11 -15.5q15 -11 23 -16q16 -7 34.5 -31.5t20.5 -26.5q14 -11 29 -36q10 -14 18 -52q1 -6 3.5 -18.5l4.5 -22.5t5 -18q1 -3 4 -19.5t4 -19.5 q2 -11 4.5 -39t3.5 -31q5 -48 -2 -61q-8 -13 -8 -45q0 -2 1 -9.5t1 -14.5t-2 -11q-7 -13 -13 -45q-22 -79 -53 -110q-2 -2 -10 -11t-14.5 -16t-8.5 -8q-14 -21 -34 -37q-49 -37 -50 -37q-2 0 -15 -7t-21 -7q-2 0 -12 -3.5t-21.5 -7t-14.5 -4.5t-18.5 -3t-30 -4.5t-18.5 -4.5 q-6 -1 -17.5 -1t-17.5 -1q-9 -4 -25 -2.5t-22 6.5q-21 0 -37 -4zM352 678q4 -5 9.5 -7.5t8.5 -2.5h3q0 -3 7 -4.5t16.5 -2.5t11.5 -2q13 -10 24 -10q17 -2 17 -4h12q0 1 1.5 2t5 1.5t7.5 0.5h9h8.5h7h4.5q2 -6 32 -5.5t35 3.5q9 3 17 4.5t11.5 2t9.5 4.5t14 12q23 12 30 22 q0 4 5 10.5t10 8.5q17 29 20 32q3 4 14 23t15 25q6 7 12 34t6 41q0 4 3 19t3 16q0 4 2 14.5t2 14.5q0 31 -2 41q-3 8 -3 26.5t-1 22.5q-2 11 -18 65q-3 16 -12 27q-1 1 -8.5 10.5t-8.5 12.5q-9 18 -32.5 30.5t-24.5 14.5q-4 0 -13 6.5t-14 7.5q-6 0 -18 6q-23 17 -35 12 q-1 0 -4.5 -1t-5.5 -1q-7 5 -29 9q-5 1 -18 2t-21 6q-1 3 -22 0.5t-25 -2.5q-12 2 -16 0.5t-13 -8.5q-10 -10 -24 -17q-8 -3 -21 -15t-20 -16q0 -3 -8 -10t-9 -10q-4 -5 -10.5 -11t-9.5 -10q-3 -3 -14 -12.5t-18 -17.5t-9 -15q-10 -30 -8 -45q-15 -37 -12 -45q3 -1 0.5 -10 t-2.5 -10q-2 -2 -2 -8.5t1 -14t1 -8.5q-2 -13 4 -90q1 -9 12 -41q3 -5 12.5 -28.5t18.5 -34.5q3 -5 18 -23t21 -27q2 0 8 -4.5t6 -7.5q5 -1 7.5 -0.5t4.5 -0.5t4 -7z" />
<glyph unicode="&#xbb;" horiz-adv-x="831" d="M729 780q6 -4 7.5 -8.5t0 -13.5t-1.5 -13q-4 -16 -2.5 -83t0.5 -87q0 -11 -2.5 -29.5t-1.5 -27.5q0 -3 1 -12.5t0 -15.5t-5 -13q-14 -2 -20 -11t-13 -11q-5 -2 -10.5 -7.5t-5.5 -9.5q-19 -14 -54 -41t-56.5 -43t-53.5 -34.5t-61 -30.5q-8 19 -9.5 40.5t0.5 51.5t2 39 q0 5 0.5 16.5t0 18.5t-1 16t-3 15.5t-6.5 11.5q4 13 13.5 21t28.5 17t30 17q8 6 21.5 14.5t21.5 14.5q2 2 29 18t38 25q-21 14 -56 33t-46 26q-3 2 -15 5.5t-16 6.5q0 19 5 74t6 76q8 66 8 94q0 2 -1 9.5t-0.5 12t3.5 8.5t10 5q6 1 25 -8t24 -15q3 -3 14.5 -11t18.5 -17 q8 -11 21.5 -22t17.5 -17q12 -16 38 -42.5t36 -39.5q9 -6 13.5 -13.5t6.5 -9.5zM387 780q6 -4 7.5 -8.5t0 -13.5t-1.5 -13q-4 -16 -2.5 -83t0.5 -87q0 -11 -2.5 -29.5t-1.5 -27.5q0 -5 2 -14.5t1 -16t-7 -10.5q-7 -5 -16.5 -12.5t-16.5 -12t-14 -8.5q-3 -2 -4 -6t-4 -6 q-18 -13 -53 -39.5t-55 -41t-50.5 -32.5t-60.5 -30q-19 45 -19 131q0 10 3.5 29t4 28t-5.5 21q4 13 13.5 21t28.5 17t30 17q8 6 21.5 14.5t21.5 14.5q2 2 29 18t38 25q-74 46 -100 55q-2 0 -2 4q-9 -4 -31 12q0 19 5 74t6 76q8 66 8 94q0 2 -1 9.5t-0.5 12t3.5 8.5t10 5 q6 1 25 -8t24 -15q3 -3 14.5 -11t18.5 -17q8 -11 19.5 -20t15.5 -15q28 -38 65 -66q5 -9 8.5 -13t4.5 -7q0 -4 6 -10q1 -1 6.5 -5t7.5 -8z" />
<glyph unicode="&#xbc;" horiz-adv-x="1331" d="M188 -10q-2 -2 -24 -2q-55 0 -55 14q0 3 3.5 7.5t9.5 10.5t9 11q142 233 207 323q19 27 65 98t72 105q13 16 34 56.5t36 58.5q2 2 17 30.5t30.5 54t19.5 25.5h2v4q0 13 18.5 42.5t35.5 53.5l18 23q35 75 77 133t116 142q0 8 41.5 76.5t52.5 68.5q23 0 47 -6h16 q13 0 17.5 -1t10 -7t7.5 -8q-4 -18 -16.5 -38.5t-30.5 -45t-25 -35.5q-19 -30 -80 -139t-100 -154q-94 -111 -256 -379q-38 -62 -78 -121.5t-114 -165.5l-111 -159q-13 -28 -30.5 -60.5t-24.5 -32.5q-3 0 -6 3t-6.5 8t-4.5 6zM315 1327q6 -4 11.5 -20.5t5.5 -22.5 q0 -7 -1 -20t-1 -19v-4q0 -4 -1 -12t-1 -12v-5q-2 -4 -2 -12q0 -5 1 -14t1 -12q-1 -12 -2 -36t-2 -34l1 -10q1 -9 1.5 -22.5t0.5 -30t-1 -35.5t-4 -35v-15q0 -10 1 -29.5t1 -31.5q0 -9 -1 -30t-1 -31v-25q0 -8 -1.5 -24.5t-1.5 -24.5q0 -17 2.5 -34t2.5 -26q-1 -2 -3 -10.5 t-5 -13t-7 -4.5q-3 0 -36 -2l-33 -2q-20 0 -27.5 16t-7.5 53v4q-4 11 -5.5 23t-1.5 20t0.5 27t0.5 31t4 18t4 14q0 6 -1.5 15t-3 15t-1.5 7q0 2 2 5.5t2 5.5q-8 40 -8 55q2 15 2 27q0 8 -2 10q0 3 1 9.5t1 8.5q0 15 -9.5 27t-9.5 14q0 -2 -4 -2q-3 0 -8.5 2t-7.5 2l-4 -2 q-55 0 -66 10v4q0 7 -2 25t-2 35v6q-1 -2 -2 2l-2 21q0 9 6.5 16.5t15.5 7.5h15h4v-2q0 -3 3.5 -5t7.5 -3h3q1 0 6.5 1t6.5 1q4 0 19 7.5t31.5 26t16.5 42.5q0 12 -2 16q1 4 2 10t2 10.5t2.5 9t4 7t5.5 2.5h13h6h2h10q4 0 4 -2q3 0 11 2t10 2q3 0 6.5 -1t5.5 -1q16 0 16 4z M1233 449q1 0 2 -1q12 -4 12 -10q0 -16 -12 -4q0 -4 -2 -11.5t-2 -12.5q0 -1 0.5 -6t1 -9.5t-0.5 -8.5t-3 -5q2 -12 2 -16t-3 -19.5t-3 -17.5q0 -7 -3.5 -11t-7.5 -5.5t-12.5 -2.5t-11.5 -2q-2 -1 -10 -1t-11 -1h-18q-13 -13 -6 -55q-4 -11 -5 -36t-1 -26q-1 -14 -1.5 -58 t-2.5 -69q-1 -7 -8.5 -9t-15.5 -0.5t-15 -0.5q-4 -1 -18.5 -1t-20.5 -1t-23.5 -4.5t-25.5 -3.5q-9 0 -11 11.5t2 19.5q5 12 5 41q0 12 -3 24q0 2 1 7.5t1 9.5t-2 6v22q1 4 1 10.5t-0.5 14.5t-0.5 12q-1 7 0 36t-6 36q-7 -6 -29 -1.5t-30 1.5q-10 -3 -34.5 -1.5t-35.5 -0.5 q-4 -1 -18 -1.5t-21 -2.5q-3 0 -3 1l-5 1q-2 -2 -14 -2q-4 0 -9 -4.5t-8 -4.5q-5 -1 -6.5 6.5t0.5 10.5q4 16 0.5 58t-0.5 63q1 8 -0.5 10t2.5 9.5t5 9t6 8t6 8.5q1 3 6.5 11.5t5.5 10.5t7.5 10t4.5 13q4 -2 29 47q5 9 16.5 26.5t16.5 26.5q6 13 28 43q1 2 10 14.5t11 18.5 q3 6 12.5 18.5t12.5 18.5q5 18 10 22q2 2 4 5.5t4 5.5q3 2 16 2q12 2 46.5 0.5t48.5 1.5q48 6 51 6q6 1 9.5 -5t4 -15.5t0 -17.5t-1.5 -13q-5 -120 -4 -142v-65q1 -5 1 -15.5t1 -15.5q0 -6 23 -12q7 0 22.5 -3t22.5 -3q6 0 14 -4zM1030 444q1 6 -1.5 26t1.5 26q2 6 2 22 t2 23q8 50 8 80q-9 5 -10.5 3.5t-3.5 -9.5t-6 -11q0 -3 -5.5 -13.5t-6.5 -12.5q0 -2 -4 -9t-8.5 -13t-6.5 -5q2 -5 -12 -25q-7 -13 -33 -47q-1 -2 -9 -11.5t-13 -16.5q-1 -2 -5 -7t-6 -8l-4 -8q5 -4 20 -4.5t17 4.5q0 2 51 2q1 0 12 0.5t15.5 3.5t5.5 10z" />
<glyph unicode="&#xbd;" horiz-adv-x="1357" d="M188 -10q-2 -2 -24 -2q-55 0 -55 14q0 3 3.5 7.5t9.5 10.5t9 11q142 233 207 323q19 27 65 98t72 105q13 16 34 56.5t36 58.5q2 2 17 30.5t30.5 54t19.5 25.5h2v4q0 13 18.5 42.5t35.5 53.5l18 23q35 75 77 133t116 142q0 8 41.5 76.5t52.5 68.5q23 0 47 -6h16 q13 0 17.5 -1t10 -7t7.5 -8q-4 -18 -16.5 -38.5t-30.5 -45t-25 -35.5q-19 -30 -80 -139t-100 -154q-94 -111 -256 -379q-38 -62 -78 -121.5t-114 -165.5l-111 -159q-13 -28 -30.5 -60.5t-24.5 -32.5q-3 0 -6 3t-6.5 8t-4.5 6zM315 1327q6 -4 11.5 -20.5t5.5 -22.5 q0 -7 -1 -20t-1 -19v-4q0 -4 -1 -12t-1 -12v-5q-2 -4 -2 -12q0 -5 1 -14t1 -12q-1 -12 -2 -36t-2 -34l1 -10q1 -9 1.5 -22.5t0.5 -30t-1 -35.5t-4 -35v-15q0 -10 1 -29.5t1 -31.5q0 -9 -1 -30t-1 -31v-25q0 -8 -1.5 -24.5t-1.5 -24.5q0 -17 2.5 -34t2.5 -26q-1 -2 -3 -10.5 t-5 -13t-7 -4.5q-3 0 -36 -2l-33 -2q-20 0 -27.5 16t-7.5 53v4q-4 11 -5.5 23t-1.5 20t0.5 27t0.5 31t4 18t4 14q0 6 -1.5 15t-3 15t-1.5 7q0 2 2 5.5t2 5.5q-8 40 -8 55q2 15 2 27q0 8 -2 10q0 3 1 9.5t1 8.5q0 15 -9.5 27t-9.5 14q0 -2 -4 -2q-3 0 -8.5 2t-7.5 2l-4 -2 q-55 0 -66 10v4q0 7 -2 25t-2 35v6q-1 -2 -2 2l-2 21q0 9 6.5 16.5t15.5 7.5h15h4v-2q0 -3 3.5 -5t7.5 -3h3q1 0 6.5 1t6.5 1q4 0 19 7.5t31.5 26t16.5 42.5q0 12 -2 16q1 4 2 10t2 10.5t2.5 9t4 7t5.5 2.5h13h6h2h10q4 0 4 -2q3 0 11 2t10 2q3 0 6.5 -1t5.5 -1q16 0 16 4z M1274 135q2 -3 1.5 -12t-3.5 -12v-29q0 -2 -1.5 -12t-0.5 -15q-2 -6 -1.5 -15t-0.5 -15q-8 -5 -27 -5q-1 0 -6 -1t-9 -1t-5 2q0 1 2 3h-15q-6 1 -17 -1.5t-17 -1.5q0 3 2 5t2 4q-2 2 -5.5 2t-7.5 -1l-4 -1q-31 0 -45 -2l-69 -9q-2 0 -43 -1t-43 -1h-21q0 -1 -25 0.5t-30 3.5 q-31 6 -41 -2q-25 0 -27 7q-7 -4 -9.5 0t-2.5 12.5v9.5q3 10 8 57q0 2 0.5 12t3 14.5t8.5 6.5q3 1 7.5 4.5t7.5 7t6.5 7.5t5.5 6q11 8 42 29.5t46 35.5q7 7 22 20t23 21t19 19.5t20 23.5q2 3 13 18.5t16 26.5q13 2 30 45q1 1 3 4.5t4 6t4 2.5q-1 6 4 15t6 11q4 19 4 82 q-3 5 -9 14.5t-9 14.5q-4 4 -12.5 10t-12.5 10q-6 6 -18 10t-21 1q-10 -5 -16 -7q-2 -1 -3.5 -2.5t-3 -2.5t-2.5 -1q-4 3 -13 -6t-13 -16q-16 -26 -17 -37v2q-1 -1 -7 -15l-5 -10q-31 -8 -35 -8q-6 0 -26.5 1.5t-30.5 0.5q-5 -3 -10 0q-2 0 -4 -1t-4 -1q-5 2 -5 21 q5 12 5 35q-2 6 4 12l4 12q2 6 5 17t5 16q5 10 12 31q13 29 49 69q7 6 32.5 14.5t33.5 14.5q23 10 51 10q25 11 49 4q11 1 15.5 1t17 -2.5t16.5 -2.5q25 0 52 -10q3 0 10.5 -2.5t11.5 -1.5q3 -10 17 -10q2 -2 6 -6.5t6 -6.5q6 -6 14 -30q3 -7 4.5 -22.5t3.5 -20.5 q5 -18 9 -41q5 -35 -7 -115q-2 -9 -10 -23t-10 -22q-1 -1 -10 -19q-3 -6 -15 -22q-6 -12 -12 -21q-12 -18 -14 -24q-5 -9 -10 -12q-3 -2 -6 -8.5t-5 -8.5q0 2 -2 2q0 -5 -9.5 -10.5t-10.5 -9.5l-8 -6q-2 -2 -6 -5.5t-6.5 -6t-4.5 -5.5q-1 -1 -9 -9.5t-13 -8.5 q-2 -6 -13.5 -16t-15.5 -9q3 -4 -50.5 -45t-64.5 -43q4 -1 9.5 -1t11.5 0.5t8 0.5q25 0 35 2q52 0 61 -2q9 2 28.5 -0.5t27.5 -1.5q27 0 81 4q6 0 17 1t14 1q5 -1 15 -1t14 -1z" />
<glyph unicode="&#xbe;" horiz-adv-x="1331" d="M498 965q21 -63 0 -119q-3 -8 -25 -43q-8 -18 -35 -41q-5 -6 -15.5 -15t-14.5 -14q-14 -13 -33 -20q-25 -13 -25 -19l-14 -3q-14 -3 -26.5 -5t-12.5 0q-1 0 -3 -1t-3 -1q-3 -1 -8.5 -1t-8.5 -1q-10 0 -10 2q-14 -2 -19.5 -2t-20.5 2.5l-21 3.5q-2 1 -7 4t-9 5t-7 1 q-10 15 -22 19q-2 0 -5 3.5t-3 4.5q-13 5 -23 20q-1 1 -8.5 9t-9.5 14l-13 39q-2 14 -4 37.5t-2 25.5q0 11 4.5 15.5t16.5 7.5q12 4 22 4q6 0 20 3t21 3l10 1q10 1 15.5 0t7.5 -5q6 -9 12 -30t12 -29q21 -32 56 -29q25 0 41 23q16 16 16 30q2 19 -22 39q-5 5 -18 5l-13 1 h-10q-3 -1 -5 -1t-4 -1q-4 4 -4 9t2 11.5t2 8.5v63v15v10q-1 2 -1 5.5t-1 6.5t-4 6l1 6q1 6 5 7q2 1 6 2t5 2q22 11 26 14q2 3 9.5 8.5t9.5 8.5q4 4 12 16q10 12 8 27.5t-10 25.5q-2 4 -15 15t-14 8h-26q-22 -5 -29 -15q-4 0 -14 -10q-12 -8 -17 -18q-3 -3 -14 -25 q-3 -5 -11 -15.5t-10 -17.5q-2 2 -7.5 2.5t-6.5 1.5q0 1 -7.5 4.5t-15 7.5t-8.5 5q-4 2 -26.5 9.5t-22.5 6.5q-3 3 -6 3t-4 3q-1 5 6 14.5t8 12.5q7 14 27 49q2 2 31 39q6 12 14 16q5 2 14 10t9 11q8 2 30 18q1 1 7.5 3.5t11.5 4.5t6 3q1 3 8.5 4t16.5 1.5t12 2.5q42 6 47 6 q42 0 71 -10q52 -21 52 -37q4 0 12 -13t12 -22q5 -6 9 -14t8 -18.5t6 -16.5q9 -27 -1 -60t-30 -51q-4 -4 -11 -12t-11 -12q-5 -5 -16.5 -13.5t-16.5 -13.5q-4 -4 -8 -4h16q18 -3 33 -8q30 -17 41 -49zM229 -10q-2 -2 -24 -2q-55 0 -55 14q0 3 3.5 7.5t9.5 10.5t9 11 q142 233 207 323q19 27 65 98t72 105q13 16 34 56.5t36 58.5q2 2 17 30.5t30.5 54t19.5 25.5h2v4q0 13 18.5 42.5t36.5 53.5l17 23q35 75 77 133t116 142q0 8 41.5 76.5t52.5 68.5q23 0 47 -6h16q13 0 17.5 -1t10 -7t7.5 -8q-4 -18 -16.5 -38.5t-30.5 -45t-25 -35.5 q-19 -30 -80 -139t-100 -154q-94 -111 -256 -379q-38 -62 -78 -121.5t-114 -165.5l-111 -159q-13 -28 -30.5 -60.5t-24.5 -32.5q-3 0 -6 3t-6.5 8t-4.5 6zM1233 449q1 0 2 -1q12 -4 12 -10q0 -16 -12 -4q0 -4 -2 -11.5t-2 -12.5q0 -1 0.5 -6t1 -9.5t-0.5 -8.5t-3 -5 q2 -12 2 -16t-3 -19.5t-3 -17.5q0 -7 -3.5 -11t-7.5 -5.5t-12.5 -2.5t-11.5 -2q-2 -1 -10 -1t-11 -1h-18q-13 -13 -6 -55q-4 -11 -5 -36t-1 -26q-1 -14 -1.5 -58t-2.5 -69q-1 -7 -8.5 -9t-15.5 -0.5t-15 -0.5q-4 -1 -18.5 -1t-20.5 -1t-23.5 -4.5t-25.5 -3.5q-9 0 -11 11.5 t2 19.5q5 12 5 41q0 12 -3 24q0 2 1 7.5t1 9.5t-2 6v22q1 4 1 10.5t-0.5 14.5t-0.5 12q-1 7 0 36t-6 36q-7 -6 -29 -1.5t-30 1.5q-10 -3 -34.5 -1.5t-35.5 -0.5q-4 -1 -18 -1.5t-21 -2.5q-3 0 -3 1l-5 1q-2 -2 -14 -2q-4 0 -9 -4.5t-8 -4.5q-5 -1 -6.5 6.5t0.5 10.5 q4 16 0.5 58t-0.5 63q1 8 -0.5 10t2.5 9.5t5 9t6 8t6 8.5q1 3 6.5 11.5t5.5 10.5t7.5 10t4.5 13q4 -2 29 47q5 9 16.5 26.5t16.5 26.5q6 13 28 43q1 2 10 14.5t11 18.5q3 6 12.5 18.5t12.5 18.5q5 18 10 22q2 2 4 5.5t4 5.5q3 2 16 2q12 2 46.5 0.5t48.5 1.5q48 6 51 6 q6 1 9.5 -5t4 -15.5t0 -17.5t-1.5 -13q-5 -120 -4 -142v-65q1 -5 1 -15.5t1 -15.5q0 -6 23 -12q7 0 22.5 -3t22.5 -3q6 0 14 -4zM1030 444q1 6 -1.5 26t1.5 26q2 6 2 22t2 23q8 50 8 80q-9 5 -10.5 3.5t-3.5 -9.5t-6 -11q0 -3 -5.5 -13.5t-6.5 -12.5q0 -2 -4 -9t-8.5 -13 t-6.5 -5q2 -5 -12 -25q-7 -13 -33 -47q-1 -2 -9 -11.5t-13 -16.5q-1 -2 -5 -7t-6 -8l-4 -8q5 -4 20 -4.5t17 4.5q0 2 51 2q1 0 12 0.5t15.5 3.5t5.5 10z" />
<glyph unicode="&#xbf;" horiz-adv-x="1036" d="M440 778q-2 7 -7.5 15t-6.5 14v31q1 13 0.5 36.5t0.5 43.5t5 38q4 5 9.5 15.5t11.5 15.5t18 8q1 0 47 6q42 9 80 -2q4 -1 13.5 -2t17 -3.5t14.5 -8.5v-43q12 -94 16 -139q1 -14 -9 -21.5t-21.5 -9t-31 -1.5t-26.5 -1q-4 -1 -20 -5.5t-21 -4t-22 1.5q-5 2 -18.5 3.5 t-20.5 4.5q-5 1 -9.5 -4t-8.5 -4q1 0 -2 3.5t-6 7.5t-3 5zM66 -106q0 17 -5 55.5t-4 58.5q3 66 37 123.5t88 85.5q9 4 26.5 16t22.5 15q33 14 54 39q14 9 39.5 31t37.5 30q28 21 44.5 59.5t20.5 68t7.5 83t5.5 68.5q1 10 48 12.5t57 -0.5q61 0 108 -27q3 -7 9 -65 q6 -52 0 -101q-2 -23 -19 -73q-21 -67 -35 -76q-6 -4 -19 -19t-20 -20q-4 -3 -13 -8.5t-13 -9.5q-6 -10 -23 -21t-22 -16q-4 -4 -32 -24t-34 -32q-6 0 -17 -13.5t-14 -14.5q-3 -2 -15.5 -15t-18.5 -18q-4 -4 -13 -12t-14.5 -13t-11.5 -13.5t-9 -16.5q-2 -4 -6.5 -13.5 t-6.5 -14t-5 -14.5t-2 -14.5t2 -13.5q15 -46 42 -75.5t59.5 -40t70.5 -14t76 2.5q35 4 69 30t52 60q3 5 10.5 16.5t11.5 18t8.5 16.5t6.5 19q2 6 7 30t9 31q4 5 6.5 16.5t4.5 26t3 19.5q3 11 8.5 12t20.5 -2q7 -1 18.5 0.5t16.5 1.5t23 1.5t32 1.5t18 -3q8 -5 44.5 -1.5 t44.5 11.5q19 15 17 -22q-1 -11 -4 -33q-1 -13 -1 -14q-5 -5 -7.5 -18t-4 -29.5t-2.5 -22.5q-6 -20 -15 -76q-10 -62 -42.5 -124t-82.5 -99q-4 -3 -14.5 -10t-19 -13.5t-15.5 -11.5q-4 -3 -22 -19t-33 -22q-32 -13 -64 -18q-21 6 -45 -4q-3 -2 -7 1t-7 1q-2 0 -70 -11 q-7 -1 -24.5 -4t-24.5 -3t-22 3q-11 5 -35 10t-31 7q-16 3 -47.5 3t-38.5 1q-8 0 -16 2.5t-13.5 5t-13.5 8.5t-11.5 9t-13 11t-12.5 11t-14 13t-15 14t-13 12.5t-13 14t-10.5 13.5t-11 15t-7.5 14t-37 59t-34 81z" />
<glyph unicode="&#xc0;" d="M1130 162q13 -60 21 -66q9 -6 19 -29t11 -42t-12 -23q-8 -1 -28 -2t-39.5 0t-18.5 6q-4 -6 -21.5 -2t-23.5 2q-6 -3 -27.5 -4.5t-27.5 0.5q-30 2 -33 45q-1 13 -14.5 42t-15.5 38q-5 13 -10.5 38.5t-8.5 35.5q-5 5 -15 27.5t-20 49t-12 31.5q-16 30 -37 36.5t-45.5 1.5 t-34.5 -1q-8 3 -31.5 4t-31.5 4q-7 3 -44 3t-70.5 -1t-51.5 0q-12 0 -34.5 1.5t-40.5 1.5t-34 -3q-6 -1 -10.5 -2t-7.5 -2t-5.5 -3.5t-4 -3t-3.5 -4.5t-2 -5t-2 -6t-2 -6q-8 -12 -23 -73.5t-17 -64.5q-1 -2 -10 -33t-19 -62.5t-20 -60t-13 -30.5q-12 -6 -26 -7t-24.5 1 t-27.5 6t-26 6q-10 1 -52.5 -5t-46.5 3q-2 2 -15.5 1t-16.5 1q-2 4 2 14.5t10 21t6 11.5q2 6 7 32.5t7 31.5q10 35 33 86q-2 6 1 20.5t8.5 25.5t11.5 7q2 5 -2.5 6.5t0.5 11.5q7 14 10 23q8 24 8 33q1 2 18 39t19 41q8 15 14.5 42t11.5 40q2 2 4 11t4 16t5 7q0 9 6 28.5 t6 29.5q4 0 19.5 38t17.5 48q-3 9 11 48t20 50q6 13 8.5 34.5t7.5 33.5q3 7 7.5 27.5t8.5 31.5q7 38 21 74q3 8 12.5 40.5t18.5 49.5q2 8 6 26t8.5 31t11.5 23q-2 7 13 37q0 1 2 10t4 15.5t6 8.5q0 8 10 33q-3 30 16 68q1 4 6.5 14t6.5 14q2 14 7.5 17.5t15 4t16.5 5.5 q9 -1 28 0.5t25 1.5q10 -2 26 -2h33t66.5 -4t52.5 -14q8 -14 21.5 -44t19.5 -42q0 -1 3 -9t5 -15t0 -7q3 0 5 -2.5t2.5 -6.5t0 -7.5t-1.5 -6.5v-4q0 -2 4 -2q8 -12 17.5 -40t11.5 -40q0 -1 13.5 -40t26.5 -80t13 -46q0 -1 3 -4q18 -32 10 -30q0 -1 4.5 -5.5t8 -8.5t1.5 -5 q1 -4 5 -20.5t7 -24.5t6.5 -28t6.5 -29q14 -14 14 -39q0 -1 16 -43.5t28.5 -83.5t6.5 -43q0 -3 16 -44.5t17 -49.5q2 -15 20.5 -52t20.5 -55q0 -7 4.5 -34t7.5 -31q9 -6 17 -35.5t13 -55.5l5 -26q-2 -1 3.5 -11t12.5 -22t8 -14zM584 557l161 -4q9 -1 13.5 1.5t3.5 8t-3 12 t-6 16t-5 17.5q0 2 -5.5 26t-5.5 25q-6 12 -20 56t-6 41q-11 31 -11 37q-10 8 -22 32q-18 50 -21 66q-13 37 -14 39q1 3 -3.5 4t-4.5 4t-6 27q0 37 -15 67q-6 37 -18 43q-6 -7 -12 -20t-9 -23.5t-7.5 -28t-6.5 -22.5q0 -2 -7 -16t-7 -17q0 -2 -6 -27t-6 -32q-9 -17 -23 -75 t-31 -75q-10 -14 -18.5 -35.5t-5.5 -35.5q-1 -7 -11 -48.5t-8 -54.5q6 -12 28.5 -13t60 2.5t57.5 2.5zM993 1501q3 -15 -8 -16t-20 6q-5 2 -12.5 0.5t-10.5 -0.5q-9 6 -14.5 4t-11.5 0t-11 14q-6 10 -20.5 26t-18.5 21q-51 70 -69 111q-4 -2 -6 0.5t-4.5 8t-4.5 7.5 q-2 4 -13.5 19.5t-12.5 26.5q10 9 43 8.5t53 1.5q26 9 65 7q28 -3 25 -15q-8 -22 5 -61t14 -46q20 -96 32 -123z" />
<glyph unicode="&#xc1;" d="M1130 162q13 -60 21 -66q9 -6 19 -29t11 -42t-12 -23q-8 -1 -28 -2t-39.5 0t-18.5 6q-4 -6 -21.5 -2t-23.5 2q-6 -3 -27.5 -4.5t-27.5 0.5q-30 2 -33 45q-1 13 -14.5 42t-15.5 38q-5 13 -10.5 38.5t-8.5 35.5q-5 5 -15 27.5t-20 49t-12 31.5q-16 30 -37 36.5t-45.5 1.5 t-34.5 -1q-8 3 -31.5 4t-31.5 4q-7 3 -44 3t-70.5 -1t-51.5 0q-12 0 -34.5 1.5t-40.5 1.5t-34 -3q-6 -1 -10.5 -2t-7.5 -2t-5.5 -3.5t-4 -3t-3.5 -4.5t-2 -5t-2 -6t-2 -6q-8 -12 -23 -73.5t-17 -64.5q-1 -2 -10 -33t-19 -62.5t-20 -60t-13 -30.5q-12 -6 -26 -7t-24.5 1 t-27.5 6t-26 6q-10 1 -52.5 -5t-46.5 3q-2 2 -15.5 1t-16.5 1q-2 4 2 14.5t10 21t6 11.5q2 6 7 32.5t7 31.5q10 35 33 86q-2 6 1 20.5t8.5 25.5t11.5 7q2 5 -2.5 6.5t0.5 11.5q7 14 10 23q8 24 8 33q1 2 18 39t19 41q8 15 14.5 42t11.5 40q2 2 4 11t4 16t5 7q0 9 6 28.5 t6 29.5q4 0 19.5 38t17.5 48q-3 9 11 48t20 50q6 13 8.5 34.5t7.5 33.5q3 7 7.5 27.5t8.5 31.5q7 38 21 74q3 8 12.5 40.5t18.5 49.5q2 8 6 26t8.5 31t11.5 23q-2 7 13 37q0 1 2 10t4 15.5t6 8.5q0 8 10 33q-3 30 16 68q1 4 6.5 14t6.5 14q2 14 7.5 17.5t15 4t16.5 5.5 q9 -1 28 0.5t25 1.5q10 -2 26 -2h33t66.5 -4t52.5 -14q8 -14 21.5 -44t19.5 -42q0 -1 3 -9t5 -15t0 -7q3 0 5 -2.5t2.5 -6.5t0 -7.5t-1.5 -6.5v-4q0 -2 4 -2q8 -12 17.5 -40t11.5 -40q0 -1 13.5 -40t26.5 -80t13 -46q0 -1 3 -4q18 -32 10 -30q0 -1 4.5 -5.5t8 -8.5t1.5 -5 q1 -4 5 -20.5t7 -24.5t6.5 -28t6.5 -29q14 -14 14 -39q0 -1 16 -43.5t28.5 -83.5t6.5 -43q0 -3 16 -44.5t17 -49.5q2 -15 20.5 -52t20.5 -55q0 -7 4.5 -34t7.5 -31q9 -6 17 -35.5t13 -55.5l5 -26q-2 -1 3.5 -11t12.5 -22t8 -14zM584 557l161 -4q9 -1 13.5 1.5t3.5 8t-3 12 t-6 16t-5 17.5q0 2 -5.5 26t-5.5 25q-6 12 -20 56t-6 41q-11 31 -11 37q-10 8 -22 32q-18 50 -21 66q-13 37 -14 39q1 3 -3.5 4t-4.5 4t-6 27q0 37 -15 67q-6 37 -18 43q-6 -7 -12 -20t-9 -23.5t-7.5 -28t-6.5 -22.5q0 -2 -7 -16t-7 -17q0 -2 -6 -27t-6 -32q-9 -17 -23 -75 t-31 -75q-10 -14 -18.5 -35.5t-5.5 -35.5q-1 -7 -11 -48.5t-8 -54.5q6 -12 28.5 -13t60 2.5t57.5 2.5zM537 1499q12 27 32 123q2 20 9.5 57t9.5 50q2 11 22.5 13.5t39.5 0t28 -5.5q9 -2 47.5 -2t48.5 -9q-1 -8 -5 -15t-10.5 -15t-10.5 -15q-6 -12 -21 -30q-16 -19 -33.5 -50 t-29.5 -47q-4 -5 -18.5 -21t-20.5 -26q-5 -12 -10.5 -15t-11 -1t-15.5 -2q-5 -3 -23 0q-9 -7 -20 -6t-8 16z" />
<glyph unicode="&#xc2;" d="M1130 162q13 -60 21 -66q9 -6 19 -29t11 -42t-12 -23q-8 -1 -28 -2t-39.5 0t-18.5 6q-4 -6 -21.5 -2t-23.5 2q-6 -3 -27.5 -4.5t-27.5 0.5q-30 2 -33 45q-1 13 -14.5 42t-15.5 38q-5 13 -10.5 38.5t-8.5 35.5q-5 5 -15 27.5t-20 49t-12 31.5q-16 30 -37 36.5t-45.5 1.5 t-34.5 -1q-8 3 -31.5 4t-31.5 4q-7 3 -44 3t-70.5 -1t-51.5 0q-12 0 -34.5 1.5t-40.5 1.5t-34 -3q-6 -1 -10.5 -2t-7.5 -2t-5.5 -3.5t-4 -3t-3.5 -4.5t-2 -5t-2 -6t-2 -6q-8 -12 -23 -73.5t-17 -64.5q-1 -2 -10 -33t-19 -62.5t-20 -60t-13 -30.5q-12 -6 -26 -7t-24.5 1 t-27.5 6t-26 6q-10 1 -52.5 -5t-46.5 3q-2 2 -15.5 1t-16.5 1q-2 4 2 14.5t10 21t6 11.5q2 6 7 32.5t7 31.5q10 35 33 86q-2 6 1 20.5t8.5 25.5t11.5 7q2 5 -2.5 6.5t0.5 11.5q7 14 10 23q8 24 8 33q1 2 18 39t19 41q8 15 14.5 42t11.5 40q2 2 4 11t4 16t5 7q0 9 6 28.5 t6 29.5q4 0 19.5 38t17.5 48q-3 9 11 48t20 50q6 13 8.5 34.5t7.5 33.5q3 7 7.5 27.5t8.5 31.5q7 38 21 74q3 8 12.5 40.5t18.5 49.5q2 8 6 26t8.5 31t11.5 23q-2 7 13 37q0 1 2 10t4 15.5t6 8.5q0 8 10 33q-3 30 16 68q1 4 6.5 14t6.5 14q2 14 7.5 17.5t15 4t16.5 5.5 q9 -1 28 0.5t25 1.5q10 -2 26 -2h33t66.5 -4t52.5 -14q8 -14 21.5 -44t19.5 -42q0 -1 3 -9t5 -15t0 -7q3 0 5 -2.5t2.5 -6.5t0 -7.5t-1.5 -6.5v-4q0 -2 4 -2q8 -12 17.5 -40t11.5 -40q0 -1 13.5 -40t26.5 -80t13 -46q0 -1 3 -4q18 -32 10 -30q0 -1 4.5 -5.5t8 -8.5t1.5 -5 q1 -4 5 -20.5t7 -24.5t6.5 -28t6.5 -29q14 -14 14 -39q0 -1 16 -43.5t28.5 -83.5t6.5 -43q0 -3 16 -44.5t17 -49.5q2 -15 20.5 -52t20.5 -55q0 -7 4.5 -34t7.5 -31q9 -6 17 -35.5t13 -55.5l5 -26q-2 -1 3.5 -11t12.5 -22t8 -14zM584 557l161 -4q9 -1 13.5 1.5t3.5 8t-3 12 t-6 16t-5 17.5q0 2 -5.5 26t-5.5 25q-6 12 -20 56t-6 41q-11 31 -11 37q-10 8 -22 32q-18 50 -21 66q-13 37 -14 39q1 3 -3.5 4t-4.5 4t-6 27q0 37 -15 67q-6 37 -18 43q-6 -7 -12 -20t-9 -23.5t-7.5 -28t-6.5 -22.5q0 -2 -7 -16t-7 -17q0 -2 -6 -27t-6 -32q-9 -17 -23 -75 t-31 -75q-10 -14 -18.5 -35.5t-5.5 -35.5q-1 -7 -11 -48.5t-8 -54.5q6 -12 28.5 -13t60 2.5t57.5 2.5zM862 1499q11 -18 -31 -14q-4 1 -10 1q-5 1 -6 1q-7 0 -20.5 -2.5t-22.5 -1.5t-27.5 3t-27.5 3q-16 16 -27 59q-2 6 -18 34.5t-15 39.5q-4 -3 -9.5 -14.5t-8.5 -14.5 q-5 -7 -13.5 -22.5t-13.5 -22.5q-2 -3 -6.5 -10.5l-7.5 -12.5t-7.5 -10.5t-9.5 -8.5t-10 -3q-28 -3 -76.5 -2.5t-74.5 12.5q-4 2 -5 6.5t0.5 11t4.5 13.5t8 15.5t9.5 16t10.5 16t9.5 14t8 11.5t5.5 7q6 9 98 145q2 2 5 7.5t4 7t3.5 5t4 4.5t4 3.5t4.5 3t5 1.5t6.5 1h8.5 q16 0 46 2t45 2q12 0 24 -11.5t22 -32.5t17 -38t15 -41.5t10 -29.5q8 -17 20 -49t23.5 -58t25.5 -47z" />
<glyph unicode="&#xc3;" d="M1130 162q13 -60 21 -66q9 -6 19 -29t11 -42t-12 -23q-8 -1 -28 -2t-39.5 0t-18.5 6q-4 -6 -21.5 -2t-23.5 2q-6 -3 -27.5 -4.5t-27.5 0.5q-30 2 -33 45q-1 13 -14.5 42t-15.5 38q-5 13 -10.5 38.5t-8.5 35.5q-5 5 -15 27.5t-20 49t-12 31.5q-16 30 -37 36.5t-45.5 1.5 t-34.5 -1q-8 3 -31.5 4t-31.5 4q-7 3 -44 3t-70.5 -1t-51.5 0q-12 0 -34.5 1.5t-40.5 1.5t-34 -3q-6 -1 -10.5 -2t-7.5 -2t-5.5 -3.5t-4 -3t-3.5 -4.5t-2 -5t-2 -6t-2 -6q-8 -12 -23 -73.5t-17 -64.5q-1 -2 -10 -33t-19 -62.5t-20 -60t-13 -30.5q-12 -6 -26 -7t-24.5 1 t-27.5 6t-26 6q-10 1 -52.5 -5t-46.5 3q-2 2 -15.5 1t-16.5 1q-2 4 2 14.5t10 21t6 11.5q2 6 7 32.5t7 31.5q10 35 33 86q-2 6 1 20.5t8.5 25.5t11.5 7q2 5 -2.5 6.5t0.5 11.5q7 14 10 23q8 24 8 33q1 2 18 39t19 41q8 15 14.5 42t11.5 40q2 2 4 11t4 16t5 7q0 9 6 28.5 t6 29.5q4 0 19.5 38t17.5 48q-3 9 11 48t20 50q6 13 8.5 34.5t7.5 33.5q3 7 7.5 27.5t8.5 31.5q7 38 21 74q3 8 12.5 40.5t18.5 49.5q2 8 6 26t8.5 31t11.5 23q-2 7 13 37q0 1 2 10t4 15.5t6 8.5q0 8 10 33q-3 30 16 68q1 4 6.5 14t6.5 14q2 14 7.5 17.5t15 4t16.5 5.5 q9 -1 28 0.5t25 1.5q10 -2 26 -2h33t66.5 -4t52.5 -14q8 -14 21.5 -44t19.5 -42q0 -1 3 -9t5 -15t0 -7q3 0 5 -2.5t2.5 -6.5t0 -7.5t-1.5 -6.5v-4q0 -2 4 -2q8 -12 17.5 -40t11.5 -40q0 -1 13.5 -40t26.5 -80t13 -46q0 -1 3 -4q18 -32 10 -30q0 -1 4.5 -5.5t8 -8.5t1.5 -5 q1 -4 5 -20.5t7 -24.5t6.5 -28t6.5 -29q14 -14 14 -39q0 -1 16 -43.5t28.5 -83.5t6.5 -43q0 -3 16 -44.5t17 -49.5q2 -15 20.5 -52t20.5 -55q0 -7 4.5 -34t7.5 -31q9 -6 17 -35.5t13 -55.5l5 -26q-2 -1 3.5 -11t12.5 -22t8 -14zM584 557l161 -4q9 -1 13.5 1.5t3.5 8t-3 12 t-6 16t-5 17.5q0 2 -5.5 26t-5.5 25q-6 12 -20 56t-6 41q-11 31 -11 37q-10 8 -22 32q-18 50 -21 66q-13 37 -14 39q1 3 -3.5 4t-4.5 4t-6 27q0 37 -15 67q-6 37 -18 43q-6 -7 -12 -20t-9 -23.5t-7.5 -28t-6.5 -22.5q0 -2 -7 -16t-7 -17q0 -2 -6 -27t-6 -32q-9 -17 -23 -75 t-31 -75q-10 -14 -18.5 -35.5t-5.5 -35.5q-1 -7 -11 -48.5t-8 -54.5q6 -12 28.5 -13t60 2.5t57.5 2.5zM889 1698q4 -7 0.5 -34.5t-5 -36.5t-8 -36.5t-8.5 -34.5q-13 -50 -46 -81t-83 -31q-57 0 -94 29q-3 2 -17.5 13.5t-17.5 14.5q-6 6 -10.5 20t-13.5 26t-29 16 q-8 2 -15 -0.5t-13 -9t-9.5 -12t-8.5 -15.5t-7 -13q-3 -9 -3.5 -28t-8 -26t-31.5 -9q-38 -4 -58 -2q-23 3 -27.5 9t-4.5 30q3 62 37 123q38 68 129 102q11 6 49 3t51 -13q26 -21 51 -82q16 -33 27 -39q6 -6 13.5 -4.5t11.5 4.5t10.5 8.5t11.5 7.5q18 46 22 58l3 19 q3 18 7.5 26t12.5 8q6 1 16 -0.5t15 -1.5q8 -4 26 -2.5t25 -5.5z" />
<glyph unicode="&#xc4;" d="M1130 162q13 -60 21 -66q9 -6 19 -29t11 -42t-12 -23q-8 -1 -28 -2t-39.5 0t-18.5 6q-4 -6 -21.5 -2t-23.5 2q-6 -3 -27.5 -4.5t-27.5 0.5q-30 2 -33 45q-1 13 -14.5 42t-15.5 38q-5 13 -10.5 38.5t-8.5 35.5q-5 5 -15 27.5t-20 49t-12 31.5q-16 30 -37 36.5t-45.5 1.5 t-34.5 -1q-8 3 -31.5 4t-31.5 4q-7 3 -44 3t-70.5 -1t-51.5 0q-12 0 -34.5 1.5t-40.5 1.5t-34 -3q-6 -1 -10.5 -2t-7.5 -2t-5.5 -3.5t-4 -3t-3.5 -4.5t-2 -5t-2 -6t-2 -6q-8 -12 -23 -73.5t-17 -64.5q-1 -2 -10 -33t-19 -62.5t-20 -60t-13 -30.5q-12 -6 -26 -7t-24.5 1 t-27.5 6t-26 6q-10 1 -52.5 -5t-46.5 3q-2 2 -15.5 1t-16.5 1q-2 4 2 14.5t10 21t6 11.5q2 6 7 32.5t7 31.5q10 35 33 86q-2 6 1 20.5t8.5 25.5t11.5 7q2 5 -2.5 6.5t0.5 11.5q7 14 10 23q8 24 8 33q1 2 18 39t19 41q8 15 14.5 42t11.5 40q2 2 4 11t4 16t5 7q0 9 6 28.5 t6 29.5q4 0 19.5 38t17.5 48q-3 9 11 48t20 50q6 13 8.5 34.5t7.5 33.5q3 7 7.5 27.5t8.5 31.5q7 38 21 74q3 8 12.5 40.5t18.5 49.5q2 8 6 26t8.5 31t11.5 23q-2 7 13 37q0 1 2 10t4 15.5t6 8.5q0 8 10 33q-3 30 16 68q1 4 6.5 14t6.5 14q2 14 7.5 17.5t15 4t16.5 5.5 q9 -1 28 0.5t25 1.5q10 -2 26 -2h33t66.5 -4t52.5 -14q8 -14 21.5 -44t19.5 -42q0 -1 3 -9t5 -15t0 -7q3 0 5 -2.5t2.5 -6.5t0 -7.5t-1.5 -6.5v-4q0 -2 4 -2q8 -12 17.5 -40t11.5 -40q0 -1 13.5 -40t26.5 -80t13 -46q0 -1 3 -4q18 -32 10 -30q0 -1 4.5 -5.5t8 -8.5t1.5 -5 q1 -4 5 -20.5t7 -24.5t6.5 -28t6.5 -29q14 -14 14 -39q0 -1 16 -43.5t28.5 -83.5t6.5 -43q0 -3 16 -44.5t17 -49.5q2 -15 20.5 -52t20.5 -55q0 -7 4.5 -34t7.5 -31q9 -6 17 -35.5t13 -55.5l5 -26q-2 -1 3.5 -11t12.5 -22t8 -14zM584 557l161 -4q9 -1 13.5 1.5t3.5 8t-3 12 t-6 16t-5 17.5q0 2 -5.5 26t-5.5 25q-6 12 -20 56t-6 41q-11 31 -11 37q-10 8 -22 32q-18 50 -21 66q-13 37 -14 39q1 3 -3.5 4t-4.5 4t-6 27q0 37 -15 67q-6 37 -18 43q-6 -7 -12 -20t-9 -23.5t-7.5 -28t-6.5 -22.5q0 -2 -7 -16t-7 -17q0 -2 -6 -27t-6 -32q-9 -17 -23 -75 t-31 -75q-10 -14 -18.5 -35.5t-5.5 -35.5q-1 -7 -11 -48.5t-8 -54.5q6 -12 28.5 -13t60 2.5t57.5 2.5zM543 1675q3 0 8.5 0.5t9 0.5t7 -1.5t5.5 -5t2 -10.5q0 -6 -2 -21t-2 -22q2 -29 -6 -92q-1 -4 -1 -13t-1.5 -16.5t-5.5 -11.5q-3 -3 -24.5 -0.5t-26.5 2.5q-43 5 -55 4 q-1 0 -18 -1t-28 0t-18 5q5 22 0 82q0 9 2 25t2 24q0 3 -1.5 14t-2 16.5t0 14t3.5 14.5q6 1 33 -2t33 2q11 2 32 -2q8 -2 26.5 -3t27.5 -3zM737 1491q-3 0 -8.5 -0.5t-9 -0.5t-7 1.5t-5.5 5t-2 10.5q0 6 2 21t2 22q-2 29 6 92q1 4 1 13t1.5 16.5t5.5 11.5q3 3 24.5 0.5 t26.5 -2.5q43 -5 55 -4q3 0 21 1.5t29.5 0.5t13.5 -6q2 -8 1.5 -20t-1.5 -32t0 -30q0 -9 -2 -25t-2 -24q6 -51 0 -59q-3 -4 -15.5 -2.5t-26 4t-24.5 -1.5q-11 -2 -32 2q-8 2 -26.5 3t-27.5 3z" />
<glyph unicode="&#xc5;" d="M1130 162q13 -60 21 -66q9 -6 19 -29t11 -42t-12 -23q-8 -1 -28 -2t-39.5 0t-18.5 6q-4 -6 -21.5 -2t-23.5 2q-6 -3 -27.5 -4.5t-27.5 0.5q-30 2 -33 45q-1 13 -14.5 42t-15.5 38q-5 13 -10.5 38.5t-8.5 35.5q-5 5 -15 27.5t-20 49t-12 31.5q-16 30 -37 36.5t-45.5 1.5 t-34.5 -1q-8 3 -31.5 4t-31.5 4q-7 3 -44 3t-70.5 -1t-51.5 0q-12 0 -34.5 1.5t-40.5 1.5t-34 -3q-6 -1 -10.5 -2t-7.5 -2t-5.5 -3.5t-4 -3t-3.5 -4.5t-2 -5t-2 -6t-2 -6q-8 -12 -23 -73.5t-17 -64.5q-1 -2 -10 -33t-19 -62.5t-20 -60t-13 -30.5q-12 -6 -26 -7t-24.5 1 t-27.5 6t-26 6q-10 1 -52.5 -5t-46.5 3q-2 2 -15.5 1t-16.5 1q-2 4 2 14.5t10 21t6 11.5q2 6 7 32.5t7 31.5q10 35 33 86q-2 6 1 20.5t8.5 25.5t11.5 7q2 5 -2.5 6.5t0.5 11.5q7 14 10 23q8 24 8 33q1 2 18 39t19 41q8 15 14.5 42t11.5 40q2 2 4 11t4 16t5 7q0 9 6 28.5 t6 29.5q4 0 19.5 38t17.5 48q-3 9 11 48t20 50q6 13 8.5 34.5t7.5 33.5q3 7 7.5 27.5t8.5 31.5q7 38 21 74q3 8 12.5 40.5t18.5 49.5q2 8 6 26t8.5 31t11.5 23q-2 7 13 37q0 1 2 10t4 15.5t6 8.5q0 8 10 33q-3 30 16 68q1 4 6.5 14t6.5 14q2 14 7.5 17.5t15 4t16.5 5.5 q9 -1 28 0.5t25 1.5q10 -2 26 -2h33t66.5 -4t52.5 -14q8 -14 21.5 -44t19.5 -42q0 -1 3 -9t5 -15t0 -7q3 0 5 -2.5t2.5 -6.5t0 -7.5t-1.5 -6.5v-4q0 -2 4 -2q8 -12 17.5 -40t11.5 -40q0 -1 13.5 -40t26.5 -80t13 -46q0 -1 3 -4q18 -32 10 -30q0 -1 4.5 -5.5t8 -8.5t1.5 -5 q1 -4 5 -20.5t7 -24.5t6.5 -28t6.5 -29q14 -14 14 -39q0 -1 16 -43.5t28.5 -83.5t6.5 -43q0 -3 16 -44.5t17 -49.5q2 -15 20.5 -52t20.5 -55q0 -7 4.5 -34t7.5 -31q9 -6 17 -35.5t13 -55.5l5 -26q-2 -1 3.5 -11t12.5 -22t8 -14zM584 557l161 -4q9 -1 13.5 1.5t3.5 8t-3 12 t-6 16t-5 17.5q0 2 -5.5 26t-5.5 25q-6 12 -20 56t-6 41q-11 31 -11 37q-10 8 -22 32q-18 50 -21 66q-13 37 -14 39q1 3 -3.5 4t-4.5 4t-6 27q0 37 -15 67q-6 37 -18 43q-6 -7 -12 -20t-9 -23.5t-7.5 -28t-6.5 -22.5q0 -2 -7 -16t-7 -17q0 -2 -6 -27t-6 -32q-9 -17 -23 -75 t-31 -75q-10 -14 -18.5 -35.5t-5.5 -35.5q-1 -7 -11 -48.5t-8 -54.5q6 -12 28.5 -13t60 2.5t57.5 2.5zM737 1665q4 -20 -8 -109q-4 -14 -19 -29.5t-30 -23.5q-45 -25 -86 2t-51 76q-8 38 10 86q13 38 56 64.5t71 7.5q49 -31 57 -74zM612 1616q13 -30 23 -35q4 -2 8 -2t5.5 1 t5.5 4.5t5 4.5q3 3 15 27q5 23 -15 44q-18 18 -30 1q-2 -3 -7.5 -9.5t-7 -9t-4 -11t1.5 -15.5z" />
<glyph unicode="&#xc6;" horiz-adv-x="2125" d="M2017 227q9 2 14 -7t6.5 -28t2 -34.5t-0.5 -36.5t-1 -25q0 -6 -2 -22.5t-2 -26.5q-1 -5 -1.5 -13t-1 -10.5t-2 -7.5t-3.5 -6t-6 -3.5t-10 -4t-15 -2.5q-17 -2 -55.5 0t-59.5 0q2 -2 6 -2q-2 -2 -21 -2t-22 2q-3 -3 -12 -2t-15 2t-8 -2q-4 -4 -31 -4t-58 1.5t-36 0.5 q-47 -3 -88 2q-14 3 -42.5 1.5t-45.5 0.5q-16 -6 -71 -4q-24 1 -23 6q-4 -4 -4 -6q-5 0 -16.5 1t-16.5 1q-46 8 -71 8q-7 1 -40.5 -1t-35.5 3q4 0 4 -4q-13 1 -34.5 -0.5t-29.5 -1.5q-17 -1 -45.5 1t-36.5 5q-14 6 -75 -12q-20 -5 -33.5 11t-1.5 44q7 109 -2 176 q-3 27 2 121q0 11 4 35q0 10 1 11t-2.5 4t-6.5 7q-2 3 -6 5t-9 2t-9 -0.5t-10.5 -2t-8.5 -1.5t-49 -5t-82 -7t-54 3q-5 1 -41 1t-40 -1q-4 -2 -30 -4t-46 -2t-23 2q-33 0 -49 -4q1 -1 -4 -4.5t-11.5 -6.5t-8.5 -3q-8 -39 -39 -88q-6 -7 -15.5 -23.5t-11.5 -19.5 q-1 -4 -10.5 -16.5t-9.5 -20.5q-5 -1 -10.5 -6t-10.5 -14t-9 -16.5t-8.5 -17t-5.5 -12.5q-6 -12 -25.5 -43t-27.5 -49q-1 -4 -5 -10t-5 -12q-3 -6 -7 -8.5t-11 -3.5t-11 -3q-5 -2 -105 0t-104 -6q-6 -6 -39 0q-22 5 -20 14q2 6 8 26t9.5 30t10 25.5t14.5 27.5t17 21 q26 26 33 47q20 32 35 59q43 69 61 113q17 33 66 119t72 135q18 27 26 43q21 35 31 47q5 7 12 27.5t13 29.5q10 23 28 55q36 74 41 93q1 2 11 13.5t12 18.5q1 4 33 70q2 5 17.5 49t29.5 64q4 7 24 53t37 67q5 7 11.5 28t15.5 30q0 2 1 10.5t3 14t6 7.5q3 2 11 3t11 4 q13 -1 101 4q13 0 37.5 -1t44 -1t35.5 2q21 2 78 -0.5t75 2.5q37 2 218.5 3.5t193.5 -3.5q36 4 71 4q12 0 62 -4.5t70 -1.5q10 2 31 2t46 -1t31 -1q80 0 119 10q20 4 61 4q3 0 24 1.5t28 0.5q1 0 7.5 1.5t12 1.5t6.5 -3q14 -37 6 -63q-7 -25 -2 -70q0 -15 -3 -39t-3 -37 q0 -7 0.5 -15t0.5 -11.5t-2 -7.5t-7.5 -5t-15.5 -2q-23 -2 -62 -1.5t-63 -0.5q-6 -1 -27.5 -1.5t-32.5 -2.5q-67 -6 -80 -2q-6 1 -23.5 1t-25.5 1q-12 2 -43 2q-42 6 -43 6q-16 0 -47.5 2t-44.5 2q-36 1 -109 -3t-108 -3q-6 0 -32.5 -3t-35.5 -1q-9 -62 -2 -78 q3 -7 3.5 -24.5t-1.5 -24.5q-6 -18 -6 -28q0 -8 -7 -59t-3 -75q2 -2 27 0.5t30 -0.5q7 2 74 7q8 0 77 -5t77 2q54 5 75.5 5.5t77 -3t76.5 -4.5q4 0 20.5 1.5t37 3t45.5 3t47.5 1.5t41.5 -1.5t29.5 -6t9.5 -11.5q0 -3 -2.5 -65t-9.5 -103.5t-22 -42.5q-11 -1 -62.5 4.5 t-62.5 -2.5q-11 -4 -35 -3.5t-35 -2.5q-10 -2 -45 2q-19 -6 -61.5 -1.5t-59.5 1.5q-24 -3 -70 -2.5t-73 -1.5q-21 -3 -61.5 -3.5t-57.5 -2.5q-10 -2 -27.5 1t-25.5 1q-6 -1 -27 -1.5t-31 -2.5q-4 -1 -5 -9.5t0 -23t1 -16.5q-1 -10 0.5 -32t-0.5 -32q-2 -18 1.5 -65.5 t-1.5 -67.5q-1 -6 -0.5 -34.5t2.5 -34.5q7 -20 -6 -58q11 -4 23.5 -5t27.5 -0.5t23 -0.5q9 0 34 -3t39 -3.5t31 4.5q43 2 43 0q18 4 36 2t40 0t35 12q7 2 25.5 1.5t27.5 2.5h3q30 3 26 -4q6 5 33 4t30 5q7 7 56 0t57 -15q25 6 119 11.5t104 -5.5zM950 887q4 82 6 121 q0 4 -0.5 21.5t-1 33t-0.5 14.5q4 13 0 61q-4 36 -14 29q-5 -8 -25 -58t-36 -67q-3 -3 -14.5 -22t-18.5 -25q-31 -45 -47 -92q-9 -17 -37 -65.5t-39 -73.5q-5 -8 -17.5 -26t-21 -32t-12.5 -28q-1 -3 -7 -9.5t-8 -13.5q-1 -8 -11 -18.5t-13 -15.5q9 0 33 2.5t39 1.5 q26 -4 38.5 -3.5t38.5 4.5t41 5q6 0 45 0.5t43 -4.5q8 -1 12.5 1t6.5 9t2.5 11t0 14t-0.5 12q1 13 7 47t5 51q-3 28 6 115z" />
<glyph unicode="&#xc7;" horiz-adv-x="1128" d="M750 -176q1 -5 -1 -26t-7 -41t-11 -19q4 0 -22 -28q-13 -14 -13 -9q-3 0 -22.5 -14t-24.5 -15q-10 -2 -30 -4t-29 -4q-47 -8 -60 0q-54 0 -55 -2q0 2 -24 2q-13 3 -16.5 9t-0.5 22q1 2 1.5 26.5t8.5 30.5q6 5 28 4t22 -8q18 9 18 0q4 3 9 3.5t11.5 -0.5t8.5 -1 q4 1 11.5 6t12.5 6q-1 5 -1.5 13.5t-3 11t-9.5 6.5q-20 12 -45 8q-62 -6 -62 23q4 32 15 45q1 1 28 39q2 2 7 9t8 9q9 4 12 11q2 1 4 7t5 16.5t5 16.5q-158 15 -225 82q-1 2 -11 6.5t-13 8.5q-38 42 -46 59q-7 11 -25.5 38t-30 47t-19.5 42q-4 10 -13.5 30.5t-14.5 32.5 t-10.5 30.5t-8.5 35.5q-5 24 -12.5 75t-12.5 75q-8 39 -8.5 80.5t3.5 98t5 81.5q1 18 5.5 41.5t8 38.5t12.5 45.5t11 38.5l24 81q2 4 8.5 22.5t13.5 35t11 22.5q13 18 33.5 55t40 63.5t43.5 41.5q26 25 65.5 46.5t71.5 27.5q8 1 29.5 6.5t34.5 5.5q14 0 43 -4t43 -4 q7 -1 28.5 -6t32.5 -4q5 1 45 -6q7 -2 25 -9t26 -8q45 -20 64 -43q5 -5 35.5 -24.5t38.5 -40.5q1 -1 3 -6t7 -7q2 -2 15 -21t16 -22q2 -5 10 -18.5t13 -25t5 -21.5q1 -6 9 -21t10 -22q2 -8 2.5 -23.5t1.5 -19.5q1 -5 6.5 -22t7 -26t-3.5 -18q-5 -7 -14.5 -16.5t-12.5 -13.5 q-11 -15 -34.5 -38t-32.5 -36q-13 -18 -47 -31q-1 2 -9 9.5t-8 8.5q-7 5 -16 31q-20 45 -41 60q-4 3 -16.5 19.5t-23.5 32.5l-11 15q-25 15 -29 21q-33 24 -65 34q-32 8 -72.5 0t-71.5 -26q-24 -16 -49 -41q-5 -4 -9 -9t-9 -12.5l-9 -13.5q0 -6 -9.5 -22.5t-10.5 -20.5 q-12 -24 -25 -74q-2 -19 -8 -52t-9 -60t-1 -51q2 -27 17.5 -79t17.5 -77q2 -27 26 -75t27 -56q5 -15 35 -72q6 -15 24 -29q15 -27 33 -38q21 -13 33 -27q18 -4 31 -14q20 -5 73 -9q72 -3 129 43q7 5 22.5 15.5t25.5 18t21 17.5t17 19q4 5 16.5 18t18.5 21q11 18 24.5 19 t31.5 -9q4 -1 6 -2q19 -9 52 -41t52 -41q51 -25 -10 -102q-6 -7 -47 -59t-68 -70q-118 -82 -338 -64q-1 0 -3 1t-3 1q-2 -2 -2 -4q-6 -9 -16 -39q-6 -12 -3 -12q1 -1 5 0q6 2 10 2q6 -1 34.5 0.5t50.5 -0.5t26 -10q20 -15 26 -25q14 -24 17 -59zM238 113q4 2 4 -2 q-4 -1 -4 2z" />
</font>
</defs>
</svg>
