<?xml version="1.0" standalone="no"?>
<!DOCTYPE svg PUBLIC "-//W3C//DTD SVG 1.1//EN" "http://www.w3.org/Graphics/SVG/1.1/DTD/svg11.dtd" >
<svg xmlns="http://www.w3.org/2000/svg">
<metadata></metadata>
<defs>
<font id="ywft_absent_grotesque_lightLt" horiz-adv-x="1155" >
<font-face units-per-em="2048" ascent="1638" descent="-410" />
<missing-glyph horiz-adv-x="614" />
<glyph horiz-adv-x="2048" />
<glyph horiz-adv-x="2048" />
<glyph unicode="&#xd;" horiz-adv-x="2048" />
<glyph unicode=" "  horiz-adv-x="614" />
<glyph unicode="&#x09;" horiz-adv-x="614" />
<glyph unicode="&#xa0;" horiz-adv-x="614" />
<glyph unicode="!" horiz-adv-x="362" d="M100 395q0 13 -6 164q-4 72 -2 111q2 34 4 98.5t2 69.5q0 55 2 80q1 2 0 12.5t0 13.5q4 14 2.5 70.5t-0.5 72.5q0 54 -4 160q0 5 1 17.5t0.5 21.5t-3.5 17q-1 5 2 26q6 1 9 4t14 2q23 0 33 -4q5 -1 29.5 1t29.5 -3q6 -3 25.5 -4.5t25.5 0.5q8 0 6 -10q-6 -24 -6 -88v-101 q0 -6 -1.5 -21t-0.5 -24q0 -25 -2 -37q-3 -15 -2.5 -50t-1.5 -48q-1 -5 2 -35.5t2 -36.5q-1 -12 -1 -33t-1 -30q-1 -8 0.5 -36t-2.5 -36q-2 -8 1 -23t3 -20q1 -5 -1 -13.5t-1 -12.5q-1 -6 -1.5 -26t-2.5 -30q-5 -30 -2 -75q0 -3 -1.5 -17.5t-2 -24t1.5 -18.5q0 -9 -3 -53.5 t-1 -67.5q0 -16 -6 -34q-3 -22 -10.5 -27t-30.5 -2q-55 4 -74 0q-21 -3 -23 18q-2 14 -1.5 40.5t-0.5 41.5zM223 199q11 -2 17 -8t8 -16t2 -18t-1 -22t-1 -20q0 -7 -1.5 -27t-0.5 -31q2 -14 -3 -29t-5 -18q-54 -8 -80 -4q-37 0 -47 -4q-13 -5 -16 6.5t-0.5 30.5t-0.5 35 q-6 20 0 41q2 12 -0.5 39t0.5 39q2 1 11.5 4t14 4t7.5 0q1 -5 47 -5t49 3z" />
<glyph unicode="&#x22;" horiz-adv-x="372" d="M51 1182q-13 38 -22 139q-8 88 -2 129q3 6 10.5 14t11.5 4q2 1 8.5 6.5t8.5 6.5h38q13 0 23 -13l12 -12q0 -4 1.5 -17.5t0.5 -19.5q-3 -23 -12 -94q-1 -10 -2 -32t-2 -33q0 -26 -2 -29q0 -1 -1 -14t-1 -17q0 -5 -5.5 -10.5t-13.5 -5.5q-12 0 -20 -4q-5 -5 -14 -6.5 t-17 8.5zM244 1339q-1 3 -6 74q-3 29 8 49q10 14 35 27q7 4 18.5 1.5t15.5 0.5q1 2 8 -7.5t14 -20.5t9 -15q8 -24 -2 -74q-5 -19 -10.5 -58t-11.5 -63q-4 -10 -4.5 -24.5t-4 -23.5t-16.5 -13q-10 -6 -26 -3t-17 15q-8 23 -2 35q3 5 -1.5 46.5t-6.5 53.5z" />
<glyph unicode="#" horiz-adv-x="1318" d="M123 713q-5 3 -9 7t-6 10t-3.5 11t-2 13t-0.5 12v13v12t-2 6.5t-7 9.5l-4.5 7.5t-2.5 6t2 5t10 1.5q5 0 10.5 1.5t10.5 0.5h43q12 1 62 4.5t75 2.5q47 -4 84 4q9 1 30 0t33 0h5h4.5h4h4t3 1t2.5 2.5t2 3.5t2 5q0 1 6 43q12 60 31 145q22 94 29 136q4 26 9 76t7 67 q7 -1 11.5 -2.5t9 -4t8.5 -3.5q10 0 26 4q7 0 19 1.5t19.5 2t15.5 -2.5t14 -11q0 -14 -12 -50q-3 -7 -6 -21t-5 -18q-3 0 -6 -23.5t-6.5 -49.5t-5.5 -29q-4 -5 -7 -26.5t-6 -46.5t-3 -27q-1 -5 -4.5 -15.5t-6 -19.5t-2.5 -16q0 -17 -7.5 -49t-11.5 -48t1 -22q5 0 36.5 4.5 t45.5 3.5q1 0 13 -0.5t24.5 -1t23.5 0t12 1.5q0 2 11.5 2.5t13.5 -0.5q4 -1 6 0t3 8t1 10v7q2 9 8.5 29.5t10 36t4.5 30.5q1 28 15.5 83.5t17.5 80.5q1 5 10 48.5t15.5 83t2.5 46.5l2 2q-3 9 58 1l4 -1q7 -5 13.5 -5.5t17 0.5t16.5 1l7 1q6 0 10 -0.5t10.5 -1.5t6.5 -4 t-1 -8q-6 -11 -11 -27t-9 -36t-7 -29q0 -2 -4.5 -20.5t-9.5 -36t-6 -16.5q1 -3 -3 -25t-7.5 -41.5t-0.5 -19.5q-4 -4 -8 -24t-8.5 -47.5t-5.5 -31.5q0 -9 -7 -29.5t-8 -29.5q-4 -20 -4 -27q0 -5 14.5 -4.5t16.5 0.5q18 2 51 2.5t43 1.5q14 1 56.5 1.5t64.5 2.5q8 1 20.5 3.5 t18 3t12 -1t9 -8.5t2.5 -19q5 -62 4 -74q0 -2 -1 -13t-1 -12q-1 -2 -11.5 -0.5t-13.5 0.5q-22 -5 -41 -2q-2 0 -14 2.5t-14 2t-13 -2.5h-57q-4 0 -16.5 0.5t-23 0.5t-16.5 -1q-13 -2 -39.5 2.5t-39.5 -0.5q-2 0 -9 -0.5t-13 -1.5t-12 -3t-8.5 -7t-0.5 -12q1 -5 -5.5 -22.5 t-7.5 -20.5q-1 -7 -6.5 -28t-5.5 -29q-7 -7 -9 -21.5t11 -15.5q7 2 22.5 1t20.5 -5q61 0 92 4q11 2 70 2q5 0 22 -1.5t30 -1t19 4.5q3 5 25 2t29 -2q5 1 16 4.5t14.5 3.5t10.5 -4q5 -8 3.5 -33t0.5 -39q2 -5 -1.5 -20t-2.5 -19q-3 1 -8.5 0.5t-14.5 -1.5t-12 -1h-115 q-22 2 -160 -4q-35 0 -65 -6q-3 3 -16.5 0.5t-16.5 -2.5q-3 -2 1 -5q-1 -3 -3 -3q3 -23 -8 -63.5t-12 -57.5q-4 -38 -23 -111q-3 -12 -9 -29.5t-9.5 -30t-5.5 -26.5l-3 -20q-3 -20 -7.5 -42t-10.5 -38q-3 -7 -5.5 -15t-3.5 -11t-5 -6t-11 -5q-1 0 -8 -1t-8 -1 q-2 -2 -33.5 -3t-34.5 -3q-10 -5 -16 1t-2 19q2 4 5.5 21.5t7 32t5.5 14.5q0 13 13 84.5t16 71.5q-2 3 1.5 22.5t6.5 20.5q-1 8 1 18.5t6.5 23.5t5.5 17q8 37 14 80q1 4 4 12.5t3.5 13t-1.5 11.5q-28 -14 -43 -8q-24 9 -53 4q-12 -3 -22 -3.5t-24 0.5t-22 1q-19 0 -25 -8 t-7.5 -27.5t-4.5 -28.5q-7 -19 -13.5 -56t-10.5 -52q-10 -35 -10 -48q0 -16 -4 -32q-2 -17 -11.5 -59.5t-9.5 -65.5q2 -4 -2 -27.5t-8 -23.5q2 -8 -0.5 -11t-12 -4t-12.5 -2l-51 -2q-5 4 -9.5 2t-9 -1t-6.5 9q-3 9 2 45q1 5 5 27.5t8 42t8 27.5q4 11 17.5 81t13.5 74 q2 19 8.5 58l7.5 45q12 35 -4 35q-27 0 -51 4q-13 2 -25.5 2t-27.5 -1t-23 -1q-6 0 -28.5 -2.5t-26.5 0.5q-1 0 -21 -2t-22 -2q-8 -1 -21 -5t-22 -4q0 5 -5.5 11.5t-5.5 11.5q-4 36 -2 57q0 3 0.5 9.5t0.5 13t0.5 12.5t3 9.5t6.5 2.5q21 0 53 4q1 0 12.5 -1.5t20 -1 t10.5 4.5q8 -5 28 1.5t23 5.5q34 -11 57 -9q7 0 50 -2t49 4q6 14 14 64q7 46 12 61q7 15 3.5 26.5t-23.5 8.5q-41 -9 -49 -6q-6 -4 -24 -4.5t-25 2.5q-3 -2 -20.5 -1.5t-20.5 3.5q-4 2 -28 0t-32 -4q-7 -3 -16 -3.5t-20.5 0.5t-14.5 1q-34 -2 -49 -8zM530 590q-2 -8 1 -12.5 t10 -4.5t13.5 1t15.5 3.5t12 2.5q14 -1 39 0.5t34 1.5h50q8 0 11 1t4 1.5t2.5 6t2.5 9.5q2 10 5 28.5t5 28.5q1 12 10 43t7 48q0 -6 -25 -4.5t-27 1.5q-19 -5 -47 0q-47 -8 -55 -8q-8 -2 -14.5 -1t-13 -1t-9.5 -8q-7 -20 -12.5 -43t-10.5 -51.5t-8 -42.5z" />
<glyph unicode="$" horiz-adv-x="976" d="M86 891q-12 17 -10 49t8 49q2 4 4 16t8 17q1 2 6 20q7 24 33.5 61t30.5 44q7 9 33 31q16 16 24 20q5 3 13.5 11.5t15.5 13.5t12 4q4 0 13.5 5.5t13.5 4.5q18 8 24 12q4 3 15 7.5t14 7.5q4 2 20.5 7.5t22.5 10.5q12 6 19 6h6.5h7.5h7.5t5.5 0.5t4 1.5h1q7 -2 8 18 q1 15 -0.5 53t0.5 42q4 14 8 15.5t10.5 -2t18.5 0.5q4 2 23.5 3.5t36 2.5t16.5 2q8 -7 9.5 -28t-3.5 -31q-3 -15 -3 -41.5t-1 -32.5q1 -7 64 -20l57 -29q10 -5 27 -22.5t32 -22.5v6q10 -4 37 -33t19 -36q16 -16 -2.5 -37.5t-44.5 -35.5t-41 -18q-5 -2 -11 -6t-10 -6t-8 0 q-5 2 -23 23.5t-24 25.5q-21 11 -23 13q-3 -3 -27 9t-26 17q-4 -4 -4 -96q0 -58 -2 -68q-1 -3 0 -22.5t0 -22.5q-3 -36 0 -71q1 -6 4 -10.5t9.5 -7.5t10.5 -5t13.5 -4.5t11.5 -3.5l17.5 -3.5t23 -5t14.5 -5.5q39 -13 43 -15q3 -1 11.5 -4t11.5 -4q10 -5 22 -14 q27 -19 31 -21q16 -5 33 -22q5 -6 17 -16t18 -17l8 -4q7 -5 14 -15t13 -28q4 -4 6 -8q14 -21 14 -31q0 -23 2 -33q6 -9 1 -53t-5 -53q0 -29 -25 -74q-1 -3 -5 -13.5t-11 -21.5q-4 -5 -8.5 -22t-5.5 -19q-3 -11 -17.5 -31t-25.5 -30q-4 -3 -17 -16.5t-24.5 -24t-16.5 -8.5 q-5 -2 -10 -8t-7 -7.5t-9 2.5q-6 -6 -18.5 -8t-16.5 -4q-6 -2 -34 -9t-34 -9q-5 -2 -15.5 -3t-14.5 -4q-1 -1 -2.5 -1.5l-3 -1t-3.5 -1.5q-5 -3 -10.5 -2t-9 -1t-2.5 -11t0 -27t0 -26q0 -10 -1 -25t-1 -24q0 -15 -22.5 -19t-22.5 -6q-2 12 -76 12q-1 3 1.5 36t3.5 57.5 t-3 27.5q-3 -1 -20.5 0.5t-22.5 3.5l-33 6q-1 0 -13.5 1.5t-16.5 5.5q-5 5 -17 6.5t-16 5.5q-3 1 -6 1.5t-9.5 1.5t-13.5 3q-29 7 -37 12q-12 7 -19.5 10.5t-12 4.5t-7.5 2q-5 2 -47 30q-15 11 -32.5 39.5t-26.5 38.5q3 17 21.5 50.5t27.5 41.5q19 16 37 21q7 3 10 0 q10 -15 14 -19t23 -14t22 -18q9 -5 9 -11q8 -4 14 -10q4 4 6 4q-1 -4 3.5 -8t11.5 -7.5t16 -7.5t18 -7l16.5 -5.5t12.5 -4.5l4 -1q3 -7 21 -12.5t30 -5.5q5 0 14 -3.5t14.5 -4t10 8.5t4.5 30q0 6 -1 22t-1 21q2 18 2 45q0 37 2 53q0 2 -1.5 17t-0.5 20q2 10 -1 41t-1 41 q0 6 1 19t1 15q0 13 1 36t1 34q0 6 1 11.5t1.5 8.5t-0.5 5.5t-4 4t-10 3.5q-5 1 -14.5 3t-14.5 3q-29 3 -47 10q-41 14 -49 19q-15 9 -42.5 13.5t-35.5 8.5q-4 4 -26 4q-17 3 -33 19q-40 33 -49 47q-1 2 -10.5 13.5t-16.5 20.5t-4 9zM608 672q-3 0 -24 8t-33 4 q-1 -10 0.5 -31t1.5 -30q0 -13 -1 -42t-1 -44q0 -11 0.5 -37.5t0.5 -48t-1 -37.5q0 -7 -1.5 -36t-0.5 -42q0 -3 1 -21t1 -22h12q10 4 26.5 7t24.5 7q4 2 17 9.5t16 7.5q3 6 29 16q7 4 24 39q3 5 12 14t13 17q1 2 16 21.5t19 27.5q9 24 -2 88q-1 11 -11 29t-16 24 q-3 3 -43 33q-46 29 -57 29q-4 0 -9.5 4.5t-13.5 5.5zM242 1053q-23 -36 -11 -82q1 -6 1 -19t6 -22q4 -6 16 -16t14 -15q4 -5 18.5 -7t20.5 -7q2 -3 16.5 -8t18.5 -7q10 -5 31 -9.5t22 -4.5q5 -1 15 -1t17.5 -1.5t14.5 -5.5q0 8 1 78t-5 78q-3 8 4 34q-3 4 -3 24t3 25 q-7 35 -6 39q6 19 -2 31q0 -4 -12 -5.5t-28 -1.5t-19 -1q-4 0 -15 -4t-18 -6t-10 -8t-10 -7q-8 -4 -21.5 -16t-21.5 -16q-18 -11 -37 -39z" />
<glyph unicode="%" horiz-adv-x="1280" d="M63 930q5 4 2 32t-2 35q5 59 11 74q2 7 5 23.5t5 23.5q2 4 5.5 15.5t7 19.5t7.5 14q3 4 10.5 13t12.5 17t6 13q1 7 7 15t15.5 17.5l12.5 12.5q4 5 16.5 9.5t16.5 7.5q1 1 13 7t13 7q32 11 56.5 12t33.5 -2t23 -10q14 -5 23 -12t19 -17.5t19 -17.5q73 -59 88 -168 q9 -52 9 -59q-1 -9 1 -48.5t1 -56.5q-1 -22 -1.5 -29.5t-2 -17t-2.5 -10.5t-4.5 -11t-6.5 -18q-1 -3 -3 -12.5t-4 -15t-5.5 -13t-7.5 -10.5q-3 -3 -11.5 -18.5t-11.5 -18.5q-29 -33 -47 -45q-17 -15 -51 -26q-16 -6 -34 -7t-31 1.5t-33 7t-33 6.5q-36 11 -82 80 q-28 32 -33 49q-2 4 -10 21.5t-10 21.5q-3 5 -6 43t-7 45zM172 1075q-4 -12 -4.5 -33.5t-3.5 -31.5q-5 -21 4 -74q2 -8 4 -22t4 -23q14 -53 21 -66q3 -4 15 -19t15 -22q3 -1 10 -8.5t9 -9.5q7 -6 24 -6q37 0 52 6q7 3 12.5 6.5t9 6.5t8 8.5t6 8.5t6.5 11t7 12q11 17 17.5 37 t9.5 34.5t2.5 40t-1 35.5t-4 41t-4.5 37q-3 23 -12 55.5t-29.5 65.5t-44.5 29q-58 -6 -67 -12q-23 -14 -45 -56q-9 -15 -21 -51zM1032 688q21 4 50.5 -12.5t39.5 -34.5q4 -6 22.5 -30t29.5 -45t18 -52q0 -9 8.5 -29.5t9.5 -25.5q2 -7 4.5 -30.5t4.5 -29.5q0 -61 -2 -92 q2 -1 0 -14.5t-4.5 -29t-2.5 -17.5q-5 -111 -43 -152q-4 -4 -10 -14.5t-10 -13.5q-21 -15 -45 -27q-15 -10 -45 -14q-13 -3 -21 -11q-8 4 -10 4q-21 -3 -39 2q-1 0 -14.5 3.5t-14.5 3.5q-59 15 -69 32q-16 24 -29 37q-31 36 -43 88q-4 18 -13.5 54.5t-15.5 66.5t-8 57 q0 66 21 113q10 20 22 66q13 54 39 71q3 3 11 11.5t14 14t12 9.5q4 2 13.5 12t15.5 13q16 8 43 8q7 1 20.5 6t20.5 6q15 -5 20 -4zM1106 211q0 25 4.5 72.5t5 72.5t-7.5 72q-2 6 -6.5 25t-7 26t-7 21t-10 25t-12.5 22q-4 6 -8 10t-10 7t-9.5 4.5t-12 3t-10.5 2t-12.5 1 t-11.5 0.5q-27 1 -47.5 -26.5t-25.5 -59.5q-1 -14 -7 -40t-8 -37q-2 -10 0 -31t0 -29q-3 -21 6 -78q11 -33 9 -43q12 -12 12 -26q4 -1 15.5 -18.5t15.5 -26.5q23 -28 32 -35q4 -3 10.5 -3t16 1.5t14.5 1.5q22 -6 35 14q2 3 12.5 16.5t13.5 18.5t7 16t4 21zM434 375 q2 3 24.5 41.5t30.5 58.5q6 16 28 48t28 44q3 5 12.5 26.5t17.5 27.5q0 7 6.5 22t12.5 16q2 4 16.5 25t16.5 29q6 21 16 41q5 8 22.5 41t24.5 43q5 8 16 29.5t15 27.5q3 4 8 13.5t8 13.5q8 14 24.5 44.5t24.5 45.5q3 5 21 41.5t33 54.5q19 25 26 47q2 8 5.5 14.5t10 14 t9.5 12.5q5 7 25 43.5t28 46.5q3 4 12 21t15 22q27 -7 30 2q61 8 74 -10q4 4 4 8q8 -10 10 -16.5t0 -10t-7.5 -10.5t-8.5 -12q-25 -45 -35 -55q2 -15 -12.5 -40.5t-15.5 -29.5q-4 -12 -16.5 -32t-16.5 -29q-12 -26 -31 -52q-4 -6 -28 -41.5t-35 -54.5q-13 -21 -38.5 -56.5 t-33.5 -47.5q-5 -7 -14 -26t-17 -28q-21 -28 -28 -49q-5 -12 -13.5 -22t-17.5 -29q0 -10 -15 -38.5t-24 -37.5q-5 -5 -13.5 -23t-13.5 -22q-2 -10 -18 -32q-4 -5 -21 -39q-33 -59 -36 -70q-3 -14 -21 -41t-22 -35q-6 -14 -25 -40.5t-25 -39.5q-24 -50 -90 -145 q-11 -15 -26 -43t-23 -39q-1 -2 -6 -10q-35 -59 -41 -39q-2 0 -6 -4q-4 -2 -17.5 -1.5t-19.5 -0.5q-7 -1 -21.5 -2t-21.5 -2q-21 12 2 39q3 5 7 13t7 13t5 7t3 1.5t2 -0.5t3 2q0 6 20 33q17 33 25 31q3 15 18 27q0 8 -0.5 9t4 8.5t4.5 8.5q3 5 17.5 24.5t19.5 32.5 q10 30 29 52q10 11 19 25.5t19.5 36t14.5 28.5z" />
<glyph unicode="&#x26;" horiz-adv-x="1208" d="M137 215q-1 2 -6.5 40t-11.5 42q-1 1 -3.5 20t-2.5 25q0 70 20 137q2 5 7 24.5t7 24.5q26 71 43 90q2 2 13 18t16 19q4 3 11.5 11.5t15.5 20t10 13.5q8 13 20 24.5t27.5 24t24.5 21.5q8 8 34 26t35 27q2 2 6 3.5t5.5 2t3 3.5t-1.5 8q-1 2 -6.5 7t-9 10t-3.5 9 q1 3 -3 13.5t-9 15.5q-4 8 -6 16t-3.5 16t-2.5 13q-2 7 -7.5 23.5t-7.5 29.5q0 14 -5.5 46.5t-4.5 50.5q4 69 8 86q5 37 17 49q2 2 13 22t15 23q5 3 17 19t26 16q3 0 19 15t24 15q2 0 9.5 3.5t9.5 4.5q18 6 20 9q9 14 25 8q6 -1 10 0t9.5 4t10.5 4q8 2 70 -4q16 2 54 -16.5 t38 -34.5q4 0 6 2q11 -4 45 -49q2 -3 9 -15.5t12 -17.5q10 -10 10 -37q0 -4 -1 -11t-1 -12.5t2 -9.5q14 -35 -10 -100q-2 -5 -6 -17.5t-6 -17.5q-1 -4 -8 -14.5t-9 -16.5q-4 -10 -9 -18.5t-14 -20t-14 -18.5q-1 -1 -8 -12.5t-10 -12.5l-20 -20q-16 -27 -31 -33 q-3 -2 -17.5 -11t-17.5 -11q-5 -4 -22.5 -20t-32 -27.5t-19.5 -10.5q25 -49 21 -53q12 -2 20 -22q1 -2 6 -8.5t6.5 -10.5t-2.5 -10q4 2 30.5 -35t57 -82t35.5 -51q14 -17 27 -36t29 -45t24 -38q3 -5 15 -18t20 -24t10 -19q12 10 25 44t6 46q3 3 6 0q1 13 8.5 48.5t5.5 55.5 q-1 14 7 19t20 5l12 -1l10 1q11 1 18 1.5t9 -0.5q1 2 4.5 2t8.5 -1l4 -1q5 0 5.5 -1t1 -4.5t1.5 -6.5q4 6 12 -1t8 -10q10 -16 0 -43q-2 -10 -7 -27.5t-7 -27.5q1 -4 -3.5 -15t-10.5 -23.5t-7 -16.5q-5 -22 -20 -51q-18 -35 -27 -60q-1 -4 -5.5 -11.5t-6 -11.5t1 -10 t10.5 -12q7 -5 17.5 -18.5t21.5 -20.5q2 -1 8 -7t8 -7t5 2q4 -7 9.5 -10.5t14 -5.5t13.5 -5q3 -1 13 -7.5t17 -6.5q6 -4 29 -5t25 -1q10 0 13.5 -9.5t3 -29t-0.5 -23.5q0 -53 4 -53l-27 -6q-17 -5 -32 -2q-39 9 -49 12q-12 2 -37 15q-8 4 -15 8t-11.5 7t-11 8.5t-9.5 8 t-11 10.5t-12 11q-5 5 -19 17t-24 23t-16 23q-62 -62 -113 -88q-4 -2 -16.5 -10.5t-20.5 -11.5q-2 -1 -17 -5.5t-20 -9.5q-9 -9 -37.5 -13.5t-33.5 -6.5q-9 -7 -49.5 -3t-51.5 3q-50 -3 -92 6q-58 6 -65 12q-10 5 -50 13q-10 1 -34 23t-33 26q-20 6 -33 20q-8 8 -14 11 q-5 2 -7.5 10.5t-3.5 9.5q-6 5 -22 33q-11 11 -31 51zM449 1165q-20 -51 -15 -73q4 -16 4 -43q0 -12 2 -23.5t6.5 -27t6.5 -23.5q6 -37 24 -66q1 -3 8 -11.5t7 -16.5q7 1 12 4.5t11 10.5t11 11q8 6 24.5 22.5t24.5 22.5q18 18 23 21q8 6 12 14q2 6 19 17q7 4 14.5 13 t16.5 23t12 17q3 4 8 14.5t8 13.5q20 26 20 67.5t-22 66.5q-2 2 -9 11t-13.5 15t-10.5 6q-3 0 -9 7.5t-11 9.5q-34 9 -62 5t-39 -13q-3 -2 -17.5 -9.5t-23 -14.5t-12.5 -15q-3 -9 -14.5 -26.5t-15.5 -29.5zM258 426q-4 -31 -4 -100q0 -26 10 -56q13 -48 45 -80 q4 -3 12.5 -11.5l14 -14t14.5 -10t17 -4.5q3 -3 0 -9q7 2 17.5 -1t25.5 -11t16 -8q16 -3 47 -15q3 -2 8 -2t15.5 -0.5t23.5 -3.5q14 -3 76 7.5t72 15.5q36 22 39 24q43 36 43 37q43 33 49 47q6 0 -10.5 26.5t-37.5 56.5t-22 32q-17 30 -33 39q-2 2 -10 14t-8 13q1 4 -4.5 11 t-13.5 15.5t-11 14.5q-11 23 -18 26q-4 3 -6.5 7.5t-5.5 11.5t-5 10q-14 21 -20 27q0 5 -5.5 14.5t-12.5 20t-9 14.5q-2 3 -23.5 29t-27.5 40q-1 2 -2 5t-6 8l-12 18l-25 37q-2 -4 -8.5 -8.5t-16 -8.5t-12.5 -6q-9 -5 -22 -16.5t-21 -15.5q-18 -8 -41 -35q-10 -13 -20 -29 q0 -1 -8 -8.5t-9 -13.5q-1 -1 -5 -8.5t-9 -17t-8 -15.5q-2 -10 -8.5 -30.5t-6.5 -21.5q-1 -9 -9 -30.5t-9 -30.5z" />
<glyph unicode="'" horiz-adv-x="143" d="M41 1253q0 1 -3 24t-5 30t-2 29t-2 28q-13 40 4 68q6 10 26 26q10 7 41 -2l13 -26q9 -31 7 -53.5t-9 -58t-7 -50.5q0 -8 -5 -30t-5 -26q-1 -3 -1.5 -11t-2.5 -15q-3 -8 -8.5 -15t-7.5 -14q-3 7 -9.5 16t-10 17.5t-5.5 19.5q-1 7 -4 20.5t-4 22.5z" />
<glyph unicode="(" horiz-adv-x="481" d="M88 594q0 5 -2 20t-2.5 24.5t2.5 18.5q4 4 6 24t0 30q0 39 4 49q1 1 3.5 15.5t5.5 30t4 17.5q15 72 20 78q5 5 12 27q2 8 9.5 25.5t9.5 25.5q10 35 28 61q4 6 9.5 21t9.5 20q6 8 21.5 36.5t25.5 39.5t25 33.5t20 28.5q26 34 49 59q3 3 16.5 19.5t24 24t21.5 7.5 q8 0 11 -16t-2.5 -38.5t-19.5 -37.5q-4 -5 -13 -19.5t-13 -19.5q-10 -14 -64 -104q-19 -40 -30 -95q-2 -12 -12.5 -34t-12.5 -35q-3 -19 -11.5 -58t-13.5 -72t-2 -59q1 -7 -4 -41t0 -41q3 -6 5 -19.5t2 -24t-0.5 -28.5t-0.5 -22q-7 -236 101 -391q3 -4 10.5 -20.5 t11.5 -22.5q16 -20 29 -33q9 -7 11.5 -14.5t4.5 -22t6 -28.5q6 -29 3 -37q-1 -1 -10 -2t-9 -6q-17 11 -43 41q-3 3 -10.5 9.5t-12.5 12t-8 10.5q-5 5 -14 13t-15.5 14.5t-11.5 15.5q-4 7 -20.5 23.5t-20.5 26.5q0 3 -3.5 7.5t-8.5 9.5t-6 7q-3 5 -12 13t-13 12q-2 4 -7 13.5 t-8 17t-3 12.5q0 3 -3 8.5t-6.5 11t-4.5 6.5q-5 10 -11.5 32.5t-11.5 31.5l-8 24q-3 18 -15 50t-14 49q-2 12 -5 41t-5 41q-1 6 0.5 29t1.5 24z" />
<glyph unicode=")" horiz-adv-x="436" d="M74 -8q-8 6 -10 35t4 43q2 4 14 19.5t14 23.5q3 11 15 18q36 84 39 98q4 19 19.5 58t18.5 61q21 92 29 164q2 27 3 100t7 111q3 25 -2 102q-1 19 -3 54.5t-3 54.5q-1 11 -4.5 48.5t-3.5 57.5q0 7 -6 31q-1 2 -2 7.5t-2.5 10t-3.5 7.5q2 3 -1.5 12.5t-7.5 13.5 q-6 34 -10 47q-12 35 -41 64q-12 15 -51 43q-5 3 -4.5 32.5t-3.5 34.5q10 5 24 5q6 0 18 -8.5t15 -8.5q8 0 23.5 -21t19.5 -24q3 -2 6.5 -10.5t10.5 -7.5q3 -2 8.5 -8.5t7.5 -8.5q3 -3 7.5 -12.5t8.5 -13.5q18 -21 39 -58q42 -76 58 -168q2 -12 4.5 -35.5t5.5 -42t8 -34.5 q4 -15 5 -49.5t5 -49.5q-1 -27 0.5 -92t-0.5 -92q0 -7 -0.5 -26.5t-2.5 -32.5t-7 -25q-3 -5 -6 -40t-6 -40q-9 -15 -23 -84q-17 -53 -37 -94q-5 -10 -20 -42.5t-25 -49.5q-14 -21 -18 -35q-9 -18 -17 -22q-3 -3 -5 -7t-5 -6q-2 -2 -11.5 -15t-16.5 -17q-7 -16 -37.5 -50 t-40.5 -26z" />
<glyph unicode="*" horiz-adv-x="489" d="M84 1262q-3 -3 -16 7t-11 13q0 3 0.5 12t1 12.5t2 9.5t4.5 8.5t8.5 4t12.5 0.5q4 -1 30 -7t48.5 -11t23.5 -4q4 15 9.5 47t9.5 47q2 14 13.5 26.5t23.5 8.5l6 -3l4 -2t3.5 -2.5l2 -2t1.5 -2.5t1.5 -3.5l1.5 -4.5t2 -5q9 -16 17 -48.5t10 -39.5q1 -4 4 -6t7.5 -2h9t11 2 t10.5 3.5t10.5 3.5t8.5 3q26 5 37 12q23 13 27 -8q1 -5 6.5 -15t6.5 -14.5t-3 -15.5q-7 -14 -18 -26.5t-29.5 -29t-24.5 -22.5q-10 -11 -2.5 -35.5t20 -46t16 -42t-14.5 -23.5q-10 -4 -25 -19q-4 1 -8 3.5t-9 7t-7 6.5q-6 5 -17.5 17.5t-17.5 17.5q-3 2 -9.5 9.5t-11.5 11.5 t-12 7t-12 -4q-3 -3 -11.5 -8.5t-14.5 -10.5t-9 -9q-4 -6 -11.5 -20.5t-13.5 -22.5q-3 -5 -5.5 -11t-5.5 -8t-11 -4q-12 -2 -19 8q-4 6 -14.5 9.5t-12 6.5t2.5 19q16 31 14 45q12 20 13.5 36.5t-6 30t-17.5 24.5t-23 25.5t-20 26.5z" />
<glyph unicode="+" horiz-adv-x="1040" d="M561 516q-1 -20 2.5 -23t24.5 -1q16 1 44.5 1.5t52 1.5t44.5 3q21 1 62 4t63 4q5 0 13.5 0.5t15 0.5t10.5 -1t12.5 1.5t15.5 4.5t13 -0.5t6 -11.5q0 -8 4 -22t4 -21q0 -5 2.5 -15.5t3 -16.5t-3.5 -13q-4 -4 -9 -4.5t-11 0.5t-10 0q-23 0 -48 -5q-29 3 -55 0 q-51 -8 -74 -10q-7 0 -19.5 1t-18.5 1q-69 0 -76 -4q-3 -2 -8.5 -2t-14 1t-12.5 1q-6 0 -17 -1t-16 -1q2 -8 1.5 -57t-1 -86.5t1.5 -44.5q-4 -10 -0.5 -47t2.5 -50q0 -11 1.5 -34.5t0.5 -38.5q0 -2 -1 -9t-1.5 -9.5t-2.5 -8t-5.5 -4t-9.5 1.5q-3 -4 -17 -4q-12 1 -34 -1.5 t-31 -0.5q-12 1 -17 12t-6 31.5t-2 23.5q-4 17 -2 55.5t-2 55.5q-5 10 0 52t4 57q-2 35 2 108q-6 -4 -33.5 -2.5t-33.5 0.5q-7 0 -20 1t-19 1q-4 0 -12.5 -2t-12.5 -2h-57q-7 1 -44.5 -0.5t-72.5 -4t-35 -3.5q-7 2 -11 7.5t-4 14.5t0.5 15t3.5 18t3 15q1 5 -2.5 17.5t-1 19 t15.5 6.5q35 0 70 -7q7 -2 20 -2t27.5 1t18.5 1q2 0 7.5 3.5t8.5 3.5h25q30 -4 90 0q3 1 21 -0.5t33.5 -1.5t16.5 4q3 9 -0.5 33.5t2.5 31.5q0 22 1 62.5t1 74t-2 62.5q-3 53 0 102q0 2 11 41q10 7 28 0q31 -8 39 -4t24.5 -4t18.5 -8q-8 -25 -8 -90q0 -7 -2 -53t4 -52 q0 -2 -1 -15.5t-1 -15.5q-1 -14 0 -38.5t0 -36.5t1 -34.5t1 -33.5z" />
<glyph unicode="," horiz-adv-x="344" d="M143 -135q22 39 25 76q0 7 1 19.5t0.5 16.5t-3.5 10t-10.5 7t-20.5 0q-8 0 -13 1t-8 2t-4.5 6t-2.5 7.5t-1.5 10.5t-1.5 12q-3 5 -7 21.5t-1 21.5q8 16 -4 90q0 3 9.5 15t13.5 7q7 -1 20 -2t19 -2q10 0 21 -1t24.5 -2.5t21.5 -2.5q1 0 4.5 -0.5t4.5 -1t4 -1t4 -1t3 -2 t3 -3t1.5 -4t0.5 -5.5q0 -6 1 -19.5t1 -19.5q0 -13 1.5 -57.5t0.5 -67.5q-10 -91 -14 -105q-9 -32 -23 -53q-10 -18 -30 -35t-33 -4q-3 3 -9.5 7.5t-10 9t-1.5 12.5q9 27 14 37z" />
<glyph unicode="-" horiz-adv-x="638" d="M524 719q7 -2 15 -10q4 -4 5.5 -14t3 -22.5t1.5 -15.5q3 -13 3.5 -15.5t-3 -8.5t-4.5 -12q-2 5 -13 10q-2 -4 -2 -11.5t-2 -12t-10 -3.5q-98 10 -112 6q-14 -3 -29 -4t-24.5 -1t-28 0.5t-31.5 0.5q-7 0 -36 -3.5t-40 -2.5q-6 0 -19.5 -1t-19.5 -1q-51 0 -63 2 q-14 4 -17 10t-1 19t1 20q-1 2 -3.5 8.5t-4.5 11.5t-3 11t1 10t8 6q34 9 70 9q12 0 34 -1.5t33 -1.5q7 0 35 1.5t37 1.5q5 0 20.5 2t24.5 2.5t19 -2.5q9 -4 31 1.5t28 4.5h72l7.5 2.5t8.5 2.5t8 1z" />
<glyph unicode="." horiz-adv-x="323" d="M96 10q0 14 -1 40t-1 38q0 4 -1.5 15t-2 19.5t0.5 18t7.5 14t18.5 3.5q7 -1 11 1t11 1q4 -2 15 -2q16 0 16 -2l27 2l24 -6q6 -11 9 -25t3.5 -22.5t0 -26.5t-0.5 -23q0 -20 -0.5 -26t-4.5 -15t-14 -10t-28 0q-61 0 -61 4l-3 -4l-7 -7t-8 -7.5t-7 -5.5t-4 0q-2 3 -2 7.5 t1 10t1 8.5z" />
<glyph unicode="/" horiz-adv-x="854" d="M233 143q-5 -12 -14.5 -32t-11.5 -25q-23 -46 -25 -49q-2 -4 -6.5 -17t-9.5 -18q-11 -11 -16 -11.5t-17 3.5q-9 4 -35 0t-35 -4q-3 0 -8 -1t-8.5 -2.5t-7 -1.5t-5 1t-1.5 5t2 11q5 14 47 107q2 4 7 19t7 19q3 6 9 26t12 28q11 19 27.5 57t23.5 51q3 7 10 19t12 22.5 t9 20.5q10 36 20 53q13 19 19 41q6 25 24 51q6 11 14 33.5t17 34.5q11 16 26 51.5t17 40.5q4 8 18 48t27 52q4 3 7.5 10.5t6.5 18t4 12.5q6 17 19 37q4 7 12 28t10 25q5 11 24 44.5t23 43.5q5 18 19 47q1 2 5 7.5t9 12.5t6 9q14 19 49 103q3 0 10 17.5t15 37t10 22.5 q33 44 35 66q3 0 7 2.5t7 4.5l3 3q25 -3 63 10q43 10 59 6q0 10 14 0q13 -10 5 -14l5 -2q6 -2 10 -4.5t3.5 -7t-8.5 -10.5q-7 -5 -22 -35q-12 -25 -39 -70q-37 -52 -47 -82q-14 -31 -25 -43q-3 -3 -7 -19t-11 -20q-7 -6 -18.5 -36t-12.5 -31q-14 -19 -33 -66q-3 -7 -31 -49 q-13 -23 -24 -55q-1 -4 -11.5 -25.5t-11.5 -28.5q-8 -33 -20 -45q-4 -5 -8.5 -15.5t-8.5 -23t-6 -16.5q-14 -38 -22 -49l-33 -74q-21 -28 -48 -87t-36 -75q-4 -6 -15.5 -26t-17.5 -30.5t-14 -28t-12 -31.5q-5 -15 -23 -50.5t-23 -50.5z" />
<glyph unicode="0" horiz-adv-x="1335" d="M1223 729q0 -9 -2 -30t-2 -31q-1 -10 0 -36.5t1 -54.5t-3 -28q5 -11 3 -29.5t-4.5 -29.5t-8 -30t-7.5 -30q0 -26 -8 -47q-1 -2 -4.5 -9.5t-4.5 -11.5l-3 -12t0 -10q-4 -7 -7 -28t-6 -27q-13 -27 -14 -29q-14 -22 -25 -57q-2 -7 -9 -20.5t-9 -20.5q-3 -11 -12.5 -21.5 t-23.5 -21.5t-19 -17q-25 -25 -41 -39q-1 -1 -13 -10.5t-14 -9.5q-3 0 -16 -9t-17 -10t-13.5 -7.5t-16.5 -6.5q-4 0 -23.5 -5.5t-32 -8t-20.5 3.5q-1 -2 -6 -5t-6 -5q-1 3 -26 3.5t-28 -1.5q-3 -5 -22 -6.5t-25 0.5q-68 0 -78 -5q-8 -5 -23.5 1.5t-19.5 7.5q-2 0 -14 2 t-21.5 4.5t-11.5 5.5q-5 5 -26 11.5t-25 8.5q-21 7 -49 21q-6 4 -33 19.5t-33 19.5q-15 10 -61 33q-75 52 -111 125q-28 54 -34 77q-4 5 -7.5 14t-7.5 20t-6 15q-2 3 -8 29q-13 53 -16 60q-3 12 -12 37t-11 40q-3 20 -12 99q-1 11 -1 28t-1 27q0 7 4 29t4 30q0 36 8 68 q2 8 6 30t8 33q8 18 20 61t23 64q48 87 50 90q49 73 141 144q9 8 27 19.5t24 15.5q3 2 10 7.5t11 8.5t10 6t12 4t27 8.5t24 8.5t26.5 4t29.5 8q8 7 27.5 9t29.5 5q11 4 45 4q53 0 84 -2q89 -4 139 -37q7 -4 24 -12.5t28.5 -15.5t19.5 -15q14 -14 22 -20q6 -3 11 -9.5t8 -8.5 q7 -4 18.5 -19t18.5 -20q6 -6 14 -17.5t10 -13.5q19 -22 41 -51q16 -22 39 -88l12 -37q5 -6 13 -27q4 -8 14 -38.5t10 -39.5q17 -39 13 -86q0 -8 2 -26t2 -27zM1067 623q0 4 2.5 17t1.5 17q-5 4 -5 17.5t2 28t1 18.5q-2 10 -4 31t-4 32q-3 19 -12.5 53.5t-12.5 49.5 q-25 127 -65 200q-1 1 -7.5 6.5t-7.5 10.5q-7 16 -38 47q-13 11 -39 26.5t-35 22.5q-35 25 -53 25q-3 0 -25 4t-29 4q-16 -8 -30 -8q-29 0 -43 -4q-27 -5 -33 -4l-43 -17q-2 -2 -14.5 -5t-16.5 -3q-18 -17 -55.5 -34t-48.5 -30q-3 -3 -19 -23.5t-20 -23.5q-5 -4 -9.5 -10 t-10 -15t-7.5 -12q-3 -6 -16 -19.5t-15 -16.5t-4 -11.5t-4 -11.5q-18 -31 -29 -86q-8 -40 -12 -90q-1 -8 -4 -26.5t-4 -26.5v-31l4 -4q-6 -3 -6.5 -25.5t2 -51.5t2.5 -30q4 -39 14 -73q2 -4 7 -31q1 -8 2.5 -16t1.5 -15q1 -19 9.5 -49t10.5 -45q8 -34 16 -53q3 -8 14 -25 t13 -24q1 -7 6.5 -16.5t14.5 -21t12 -16.5q27 -32 39 -41l20 -18q20 -19 35 -25q30 -15 66 -24q9 -1 26 -6t23 -6q5 -1 24 -7t27 -6q15 0 41.5 -3t32.5 -3q10 -1 49.5 14.5t48.5 14.5q1 2 17.5 9.5t19.5 10.5q14 14 24 29q3 4 12.5 12t12.5 13q5 10 23 28q21 18 28 45 q5 16 17.5 46t17.5 46q0 2 7.5 23t8.5 33q7 31 7 37q1 15 6 49t6 41q-1 15 2.5 42.5t3.5 39.5z" />
<glyph unicode="1" horiz-adv-x="677" d="M47 1079q1 5 -1 36t7 36q64 -10 86 6q3 1 49 17q7 3 23 14t18 14q7 8 27 20.5t27 18.5l24 37q-1 5 9.5 29.5t9.5 27.5q-3 10 3.5 16.5t14.5 8.5l8 2h47q47 0 54 -6q11 -9 14 -27.5t1 -34.5t1 -32q2 -9 -2.5 -37t-1.5 -41q2 -9 2 -66q0 -6 -0.5 -36t0.5 -35q7 -69 0 -84 q-3 -6 -4.5 -33.5t0.5 -36.5q2 -13 -2 -45q-1 -5 -1.5 -23.5t-2.5 -25.5q-1 -6 -0.5 -12.5t1.5 -22.5t1 -27l-1 -11q-2 -11 -1 -15q2 -6 -1 -25.5t-3 -26.5q-1 -4 -0.5 -10t1.5 -19t1 -20v-82q0 -23 4 -73q0 -4 2 -18t2 -19q1 -25 1 -68.5t1 -70.5q2 -10 2 -35v-49 q-2 -1 -2.5 -14.5t0 -28t1.5 -28.5t1 -15q-1 -10 3.5 -36.5t4.5 -37.5q0 -9 -4.5 -14t-5.5 -9q-2 -5 -1 -7.5t-1 -4t-10 -4.5q-12 3 -15 -6q-4 -7 -47 2q-3 0 -14.5 0.5t-18 2.5t-10.5 7q-2 4 -2 39q1 5 -1 40.5t-1 41.5q5 36 0.5 123.5t-0.5 128.5q2 22 0.5 70.5t-0.5 68.5 q1 17 -2.5 67t0.5 66q2 14 -2 46t-4 42q0 5 2 30t2 30q0 2 -0.5 30t-0.5 49.5t1 20.5q6 10 6.5 28.5t-1.5 40t-1 29.5q4 18 3.5 66t-11.5 63q-5 -2 -15 -12t-18 -12q-3 -2 -13 -12t-20 -17q-11 -4 -30 -13.5t-33 -11.5q-25 0 -45 -10q-19 -11 -40 -12.5t-32.5 1.5t-38.5 11 q-7 34 -4 45z" />
<glyph unicode="2" d="M901 -6q-6 1 -17.5 1.5t-21 1.5t-14.5 3q-83 -7 -115 -4q-8 1 -21 -1.5t-24 -2.5q-7 1 -18.5 2.5t-21 2.5t-17.5 1q-47 -5 -53 -4q-32 4 -46 0q-5 -4 -52 -1t-54 3q-9 -1 -24.5 -2t-24.5 -2q-27 -5 -45 -2h-39q-1 0 -43 -6h-25q-4 0 -14 -1.5t-15.5 -1.5h-13.5t-14.5 2 t-11.5 5q-12 8 -15.5 14t-3.5 23q-1 9 1.5 23.5t2.5 21.5q0 4 -2.5 21t-2.5 26.5t3 17.5q4 5 24.5 18.5t24.5 18.5q8 9 28.5 22.5t27.5 20.5q2 1 13 9t19.5 14.5t16 14.5t6.5 13l4 -4q12 14 27.5 26t36.5 25.5t30 20.5q22 16 64.5 52t60.5 50q63 49 101 82q4 4 15 14 t20.5 18.5t17.5 12.5q7 4 13 10t11.5 13t8.5 10q9 8 31 25.5t35.5 31.5t19.5 31q1 4 36 39q13 11 27 39q27 45 41 108q4 10 2.5 43t-0.5 43q-7 49 -14 56q-2 7 -6 14.5t-11.5 18t-9.5 14.5q-3 4 -9 15.5t-9 15.5q-2 2 -8.5 12t-8.5 12q-4 5 -16 17.5t-16 17.5q-26 41 -80 70 q-13 7 -35 13t-35 13q-5 3 -24 2.5t-27 -6.5q-3 -2 -14 -2q-22 0 -46 -8q-7 -2 -20.5 -4t-24.5 -5.5t-18 -9.5q-12 0 -27.5 -6.5t-21.5 -15.5q-3 -2 -18 -9t-28 -13.5t-12 -6.5q-2 1 -6 -1t-9 -6.5t-9 -8.5t-8.5 -9t-5.5 -6q-4 -4 -4.5 -7.5t-10.5 -10.5q-9 -7 -18 -25 q-5 -9 -17.5 -29.5t-17.5 -29.5q-7 -16 -9 -29.5t-0.5 -36t1.5 -28.5q0 -21 10.5 -53.5t26.5 -46.5q19 -17 32 -42t9 -47q-82 -57 -86 -57q-11 1 -25.5 22.5t-21.5 26.5q-12 10 -29.5 36.5t-18.5 27.5q-15 15 -22 35q-2 14 -6 33t-6 31.5t-2 23.5q0 2 -4 9.5t-1 10.5 q5 7 5 31q0 17 8 57q9 34 20 62q2 8 9.5 22.5t9.5 18.5q1 6 4 11.5t5 8t7 8t8 8.5q3 5 4.5 15.5t8.5 13.5q1 0 38 32t48 34l40 24q5 2 29 11t27 10q1 0 12 3.5l22 7t15 5.5q24 18 65 25q77 13 93 22q1 1 5.5 -2.5t4.5 -1.5q14 3 43 -2q38 0 61 -10q12 -4 47.5 -19t51.5 -20 q6 -2 16 -7.5t16 -8.5q37 -16 56 -35q5 -5 19 -12t18 -15q5 -10 30 -35q21 -31 31 -67q4 -13 14.5 -36.5t14.5 -33.5q2 -9 10 -34t12 -43t6 -36q1 -1 2.5 -6.5t3 -10.5t3.5 -5q-2 -5 -3 -17.5t0 -15.5q2 -19 -3 -54.5t-5 -49.5q-1 -12 -4 -24t-9.5 -26t-10 -21.5 t-12.5 -24.5t-11 -21q-33 -65 -67 -92q-3 -11 -23.5 -32t-30.5 -26q3 -3 -0.5 -7t-10 -8.5t-7.5 -6.5q-6 -9 -27 -23q-11 -7 -28 -12q-6 -7 -14 -14t-18 -14.5t-15 -12.5q-40 -24 -48 -43q-7 -11 -43 -33q-3 -2 -18.5 -13t-28.5 -21.5t-16 -14.5q-3 -6 -15.5 -18t-19.5 -15 q-2 -1 -8.5 -8.5t-11.5 -12.5t-7 -1q-9 -8 -40.5 -34t-40.5 -34q-44 -44 -52 -41q7 -3 20 -2.5t32 3.5t20 3q154 0 184 3q10 1 31.5 0.5t38.5 0.5t29 5q3 1 29.5 -1t27.5 5q2 2 45 2q8 1 21.5 2.5t25 2.5t21.5 1q8 0 12.5 6t9.5 8q3 -3 11 -3.5t14 1.5q7 0 20 -5t19 -5 q3 0 8 1.5t7 -0.5t7 -9q6 -3 4 -32t-2 -32q0 -51 2 -78q0 -4 6 -22q-16 -8 -20 -4q-4 5 -21 4.5t-22 -4.5q-13 -10 -78 0z" />
<glyph unicode="3" horiz-adv-x="1200" d="M958 98q-6 -1 -24 -12t-23 -16q-18 -18 -53 -39q-5 -3 -28 -9.5t-29 -9.5q-6 0 -24.5 -7t-18.5 -11q-10 1 -16 0.5t-18 -3t-17 -3.5q-42 -8 -43 -6l-13 -2q-13 -1 -26 -2.5t-17 -0.5q-4 -4 -21.5 -4t-25.5 2q-6 1 -17 1.5t-19.5 1t-12.5 2.5q-4 1 -16 -1t-17 -2 q-18 0 -30 2t-24 5t-22 4l-4 4q-4 4 -10 4q-3 0 -8 2t-8 2q-1 3 -12 7t-23.5 7.5t-15.5 5.5q-8 6 -25.5 16t-22.5 13t-17 7t-17 7q-13 5 -23 15.5t-22 28.5t-17 24q-3 3 -18 18.5t-17 20.5q1 5 -20 33q-2 3 -5.5 13.5t-7.5 18t-8 9.5q-9 8 -0.5 25.5t13.5 17.5q9 1 63 28 q5 3 11 8.5t12 9.5t14 5q10 2 15.5 -1.5t10.5 -12.5t9 -13q7 -6 16.5 -27.5t16.5 -27.5q2 -3 6 -15t10 -18q77 -87 180 -98l90 -10q22 -2 103 10q2 4 14 6l12 2q5 0 10 2.5t11 3.5q5 1 15 6.5t14 6.5q8 4 24 10.5t24.5 10.5t20 12t21.5 18q51 48 75 100q19 25 27 98 q6 79 -55 150q-10 12 -20.5 18.5t-18.5 8.5t-22.5 5.5t-24.5 6.5q-60 15 -62 8q0 2 -1 5t-1 5q-9 -3 -14 2l-8 4q-6 -5 -28 2.5t-26 1.5q-2 -7 -20.5 -3t-22.5 3q-5 -2 -13.5 -2t-19 1t-14.5 1t-22.5 -4.5t-32.5 -3.5q-27 5 -41 2q-7 -2 -22.5 -1.5t-22.5 -2.5 q-5 -1 -7.5 0.5t-8 6t-11.5 8.5q-3 2 -6 3t-6.5 1.5t-5.5 1.5q5 6 7 17.5t2.5 27.5t0.5 20t-4.5 36t0.5 34q-10 8 3 23q10 11 14 4l10 -5q7 -1 25 3.5t26 1.5q5 0 32.5 3.5t32.5 -1.5q6 -1 17.5 2.5t17.5 3.5q116 14 142 22q8 2 41.5 15.5t37.5 17.5q6 7 32 17t28 12 q3 2 15 11t21 17t13 15q3 5 11.5 21.5t11.5 21.5q15 31 12 73q-2 32 -33 80q-45 72 -117 90q-58 17 -82 19q-19 2 -67 10q-8 1 -19.5 0t-26 -3t-20.5 -3q-2 0 -20.5 -2t-30.5 -3t-16 1q-8 -2 -22 -3t-26 -4t-26 -12q-33 -6 -47 -22q-13 -13 -42 -33.5t-48 -41.5t-25 -50 q-4 -17 -6.5 -19.5t-11.5 4.5t-19 9q-3 0 -10 5t-14.5 11.5t-9.5 7.5q-7 6 -23 16.5t-18 12.5q-43 21 -27 30q4 2 10 3q3 24 27 53q5 5 10.5 15t10 16t10.5 6t20 17.5t18 19.5q15 10 31 31q3 3 12 8.5t18 9.5t19 8.5t11 5.5q12 7 47 13q1 0 14 3.5t24 7t11 7.5q9 -3 26 0 t23 8q4 -1 18.5 1.5t14.5 4.5q1 -1 2 -3q1 -3 5 -2t7 1q29 3 55 0q33 -2 88 -2q72 -4 109 -10q38 -5 49 -12q7 -5 30 -8.5t36 -10.5q11 -6 31 -21l20 -16q6 -3 14.5 -13.5t14.5 -14.5q0 -4 25 -37t28 -33q2 -14 20 -37q3 -6 9 -19.5t10 -21.5q10 -22 15 -51t-3 -51 q2 -32 -6 -96q-6 -36 -15 -45q0 -28 -10 -35q-15 -14 -47 -44t-43 -40q-2 -3 -18 -10.5t-17 -14.5q-8 -2 -29.5 -9.5t-25.5 -10.5q3 -3 28 -4t31 -4q42 -21 48 -27q9 -1 20 -14t14 -15q37 -25 52 -55q18 -37 22 -53q1 -3 4.5 -14.5t6 -22t1.5 -15.5q-2 -18 1.5 -57.5 t2.5 -52.5q0 -45 -10 -68q-11 -35 -24 -67q-2 -3 -4.5 -12.5t-5 -17.5t-3.5 -9q-4 -5 -14.5 -26.5t-17.5 -28.5q-5 -4 -20.5 -26.5t-27.5 -25.5z" />
<glyph unicode="4" horiz-adv-x="1136" d="M676 326q-4 0 -35 4l-31 4q-10 -2 -44.5 -1t-41.5 -1q-57 -2 -57 -6q-3 0 -7 4t-9 4q-4 -1 -14 -1t-15 -1q2 2 -20 5q-4 1 -5 1q-23 0 -35 -6q-6 0 -19.5 2.5t-20.5 1.5q-36 0 -43 2q-6 2 -17 0t-18 0q-3 1 -10 4.5t-11 3.5q-6 1 -35.5 -4.5t-31.5 -5.5q-18 2 -34.5 0.5 t-30 -2.5t-24 -0.5t-16 7t-4.5 19.5q0 8 0.5 31t2.5 39.5t7 28.5q16 21 25 28q3 2 7 9t7 10q8 3 33 53q12 18 47 53q88 102 109 131q8 13 26 37t23 31q3 4 13 18.5t19 27.5t15 20q38 46 47 59q34 45 35 47q6 9 20 23q31 30 58 69q3 4 10.5 16t14.5 21.5t14 15.5q5 4 10 13.5 t8 11.5q13 9 37 43q5 9 20.5 24.5t18.5 20.5q11 19 40.5 56.5t39.5 62.5q1 2 23 2t41.5 -0.5t25.5 0.5q6 0 18.5 -9.5t18.5 -9.5q0 -2 3.5 -6t4 -6t-3.5 -4q-2 -2 -2 -29q0 -11 1.5 -45t0.5 -53l-4 -51q2 -13 0.5 -55.5t-0.5 -53.5v-71q0 -13 -1 -38t-1 -38q0 -5 3 -34 t1 -38q-1 -3 2.5 -37.5t-0.5 -48.5q-5 -3 -1.5 -40.5t3.5 -43.5q0 -90 4 -135q1 -5 -1 -24.5t0 -32t11 -13.5q6 -1 37.5 2t34.5 -2q2 -1 20 5q2 0 3.5 -0.5t3 -2t2.5 -3.5t2 -4.5t2 -4.5t2 -5.5t2 -4.5q10 -20 10 -37q0 -55 2 -67q0 -2 1 -5q0 -3 -4 -5q-1 0 -3 -1l-5 1 q-5 1 -10.5 2t-12 1t-9.5 -2q-15 4 -31 0q-4 -1 -18.5 1.5t-25.5 2.5t-11 -6q0 -2 1.5 -48.5t-1.5 -49.5q-2 -10 -2 -39q0 -45 4 -68q1 -5 -0.5 -31t-0.5 -46.5t7 -24.5q-5 -9 -16 -11t-28 0.5t-19 2.5t-11 1q-55 6 -53 -3q-18 1 -22.5 23.5t-1.5 57t2 42.5q-2 11 0.5 30 t1.5 27q-6 81 -6 84q-1 8 0.5 31.5t-0.5 34.5q-14 -2 -37 1t-35 1zM530 446q30 3 60 0h39q8 1 22 -1t21 -1q0 3 28 1.5t31 -1.5q17 0 19 2.5t4 20.5q2 7 2 26t-2 27q-2 24 1 59.5t3 51.5q-2 53 -2.5 149t-1.5 127q0 2 0.5 30.5t1 60t0.5 65t-2 55.5t-6 23q-3 -7 -16.5 -20.5 t-18.5 -20.5q-16 -20 -31 -35q-2 -2 -8.5 -15t-9.5 -16q-16 -11 -35 -37q-5 -6 -19 -21t-20 -22q-5 -6 -21.5 -29t-19.5 -26q-14 -13 -33 -42.5t-31 -41.5q-2 -2 -10 -9.5t-12 -12t-9.5 -12t-7.5 -13.5q-1 -4 -9 -14t-18.5 -21t-12.5 -14q-7 -9 -22.5 -25.5t-25.5 -30 t-16 -28.5q-3 -6 -21 -23t-20 -20t-15.5 -24t-17.5 -27q-2 -2 -9 -12t-14.5 -20t-11.5 -15q0 -1 -7.5 -10t-12.5 -17t-4 -12q8 -1 38 2t36 -4q4 -3 27 -0.5t30 0.5q5 -1 22.5 1t24.5 1q21 -3 78.5 -6.5t64.5 -2.5z" />
<glyph unicode="5" horiz-adv-x="1003" d="M608 -14q0 4 2 6q-16 -1 -48.5 -6t-50 -6.5t-48.5 4.5q-32 9 -43 4q-3 -1 -15.5 1.5t-19.5 2.5q-10 0 -27.5 5.5t-25.5 6.5q-24 8 -27 10q-57 38 -67 43q-7 4 -34.5 29.5t-35.5 34.5q-5 7 -14 16t-14.5 17.5t-8.5 19.5q-5 1 -8 3.5t-4 5t-2.5 7.5t-3.5 9q0 2 2 17.5 t2 16.5q6 -4 29 10.5t28 24.5q7 2 21.5 10t21.5 11q5 1 8 -1.5t5 -8.5t3 -7q4 -4 12 -16t11 -16q3 -3 11 -12t12 -13q3 -5 22 -20.5t23 -16.5q21 -14 28 -14q19 -13 37 -23q2 -2 17 -7.5t18 -2.5q3 -1 19.5 -2t21.5 -6q7 1 23.5 1t28.5 1.5t20 5.5q19 14 38 14q3 1 9.5 7.5 t13.5 5.5q5 -3 10 2q6 8 45 33q15 9 29 28q11 11 35 43q11 13 18 39l6 14q15 13 15 111q0 6 -17 109q-3 20 -17 46.5t-28 32.5q-8 3 -30 21l-20 12t-23 15q-32 21 -81 27t-87 -3q-30 -6 -58 -20q-7 -3 -31 -19t-30 -22q-4 -3 -28.5 -21t-31.5 -24q-5 -4 -16 -11.5t-16 -11.5 q-5 -5 -12 -17.5t-9 -15.5t-5 -11t-4.5 -12.5t-6.5 -7.5t-12 3q-10 7 -27 15t-23 11q-17 11 -23 35t-3.5 43.5t-1.5 34.5q4 7 2.5 31.5t-0.5 31.5q1 3 0.5 16.5t1.5 16.5q2 8 1.5 15.5t-2 21t-1.5 18.5v60q0 46 2 53q5 6 4.5 51.5t-0.5 51.5q5 50 2 114q-2 16 -2 62 q4 36 4 57q0 31 -4 37q4 9 3.5 31t4.5 30q2 8 17.5 2t19.5 -4q20 7 25 4q3 -2 8 -1.5t8 -0.5q4 -2 20 -2q6 2 35 2q52 0 53 2q8 -4 25.5 -3.5t26.5 -0.5q23 -9 51 2q3 0 4.5 -0.5t2 -1t1.5 -1t3 -0.5t5 1h19q6 -2 41 -2q5 0 16.5 1t17.5 1h19q2 4 9.5 6.5t12.5 -0.5 q3 -1 33 4t47 0q10 -2 27.5 3t26.5 2q20 -6 51 -2q7 -2 23.5 0t21.5 0q21 -7 24 -7q10 1 12.5 -18t0.5 -39t0 -31q0 -3 0.5 -10.5t0 -11t-1.5 -8t-5 -6.5t-11 -3h-59q-6 0 -16 -5t-19 -3q-1 0 -9 2t-9 2q-15 -2 -82 -2q-7 0 -17 3.5t-20 2.5q-4 -1 -14.5 -3.5t-15 -2.5 t-15.5 2q-13 -3 -46 -1t-48 -1q-8 -2 -29 2q-8 1 -17.5 0t-21.5 -3l-18 -3q-37 9 -97 -10q-7 -2 -11.5 -6t-6 -11.5t-2 -13.5t-0.5 -20.5v-24.5q0 -4 -3.5 -43t-2.5 -47q1 -16 -2.5 -49.5t-1.5 -52.5t1.5 -48t0.5 -47q2 -34 -7 -112q5 2 23 16.5t18 18.5q27 14 29 16 q7 7 15 12t13 8t13.5 5.5t11.5 3.5t13 3t12 3q3 1 20.5 8.5t22.5 7.5q31 0 37 2q69 14 86 13q75 -4 115 -19q10 -3 51 -27q28 -18 75 -65q11 -12 20 -28t18 -37.5t14 -30.5q56 -102 49 -258q-2 -33 -12 -69t-19.5 -58t-28.5 -64q-3 -7 -10 -16.5t-10 -16.5q-3 -5 -14 -15.5 t-15 -16.5q-6 -10 -25 -29t-30 -27q-7 -5 -22.5 -18.5t-29 -22t-26.5 -10.5q-10 0 -18 -4q-1 -1 -10 -7.5t-11 -8.5z" />
<glyph unicode="6" horiz-adv-x="1097" d="M985 514q0 -71 -6 -113q0 -4 -1.5 -22.5t-2 -25.5t-2.5 -25t-3.5 -28t-5 -25.5t-7.5 -25.5t-10 -21t-13 -19q-4 -4 -11.5 -17.5t-15.5 -28.5t-10 -18l-16 -24q-9 -9 -15 -12v-9q3 -3 -18.5 -19.5t-49.5 -36.5t-32 -24q-6 -5 -13.5 -7.5t-16.5 -4.5t-15 -4q-23 -9 -27 -12 q-24 -12 -37 -12q-24 6 -26 -3l-7 -1q-7 -1 -13 -1t-12 2t-7 7v-4q-4 0 -4 6q-7 -7 -23.5 -6t-33.5 6l-17 4q-4 0 -11 -1.5t-14 -1.5t-14 3q-6 2 -24 6t-25 8q-4 2 -22 8t-33.5 11t-16.5 8q-7 0 -25.5 13.5t-21.5 14.5q-32 21 -51 50q-5 7 -16.5 16.5t-16.5 15.5 q-8 8 -12 27q0 5 -11.5 26.5t-11.5 22.5q-5 11 -13 34t-13 34q-15 23 -15 32q0 16 -16 64q-3 11 -3.5 36.5t-2.5 33.5q-6 41 -6 90q-1 24 4 149q0 60 8 109q2 13 9 58t11.5 65.5t14.5 53t24 56.5q5 8 14 30t17 32q2 3 8.5 12.5t8.5 15.5q6 11 20 32t18 28q3 6 7 11.5 t11.5 14t10.5 11.5q20 20 35 32q34 24 55 33q33 20 49 25q6 1 35.5 16t34.5 18q15 7 52 10l36 3q41 3 90 -15q1 -1 22 -4t23 -4q4 -1 13 -2.5t15.5 -3t8.5 -4.5q76 -34 103 -74q34 -47 39 -73q1 -4 2 -9q0 -5 2.5 -18.5t5.5 -13.5q-4 -8 -9 -13t-14 -11t-14 -11l-23.5 -23.5 t-25.5 -23.5q-11 -6 -25 22q-1 4 -2.5 11t-3.5 11t-6 7q-1 11 -15 28.5t-16 24.5q-3 4 -10 11.5t-16.5 16t-12.5 11.5q-15 18 -49 18t-55 7q-5 2 -26 0.5t-23 -0.5q-11 1 -34 -10.5t-28 -10.5q-29 -14 -35 -16q-23 -9 -57 -43q-4 -5 -32.5 -27t-35.5 -33q-20 -41 -28 -53 q-7 -12 -25 -63q0 -1 -4.5 -10.5t-7.5 -18t-2 -12.5q5 -22 -11 -72t-16 -70q12 20 33 41q5 5 6 8q2 3 3.5 5t3 2.5t4 2.5t5.5 5t5.5 8t5.5 8q2 3 9 6t9 4q21 21 31 25q4 2 33.5 12t36.5 15t38.5 12t38.5 12q5 2 19.5 -0.5t19.5 2.5q3 3 6.5 3.5t9 -0.5t7.5 -1q10 -1 30 2 q3 0 4.5 -2t1.5 -3.5t1.5 -3t5.5 0.5q1 3 8 0.5t10 -2.5q34 -6 41 -8q29 -11 92 -43q18 -11 29 -19q2 -2 16.5 -9t18.5 -13q3 -3 13 -14.5t13 -14.5q12 -12 19 -30q3 -6 9.5 -17.5t8.5 -17.5q3 -7 17 -38t18 -48q2 -10 11.5 -32t11.5 -30q1 -2 7.5 -21t6.5 -30q0 -5 2 -22.5 t2 -22.5zM836 432q6 22 2 47q-3 1 -7 33t-4 39q-1 17 -11.5 47.5t-12.5 42.5q-6 40 -31 78.5t-59 60.5l-27 18q-26 18 -37 23q-2 6 -39.5 2t-40.5 -4q-23 -5 -30 -8q-4 -2 -12.5 -1.5t-12.5 -2.5q-2 0 -21 -6.5t-22 -9.5q-4 0 -14.5 -5t-21.5 -12t-13 -8q-16 -8 -33 -29 q-20 -8 -24 -16q-3 -7 -12.5 -15.5t-12.5 -11.5q-8 -16 -10 -18q-12 -4 -35 -45q-1 -10 -12 -29.5t-11 -28.5q0 -17 -8 -41q-5 -16 -7 -38t-1 -40t0 -38q-1 -14 9.5 -47t10.5 -35q5 -30 27 -66q2 -17 13.5 -33t30.5 -34t24 -25q17 -21 47 -40t53 -19q3 0 31.5 -6.5 t36.5 -6.5q85 0 98 5q38 12 74 41q42 31 67 79q20 40 49 140q16 43 9 63z" />
<glyph unicode="7" horiz-adv-x="1126" d="M1055 1292q10 -57 -6 -98q-9 -21 -43 -45q-8 -5 -25 -31q-54 -73 -63 -82q-8 -8 -26 -32t-24 -29q-3 -4 -8 -15.5t-8 -15.5q-2 -4 -25 -39q-37 -56 -49 -90q-16 -44 -41 -88q-23 -34 -28 -53q-14 -28 -17 -31q-4 -3 -10.5 -22.5t-11.5 -26.5q-1 -2 -3.5 -14.5t-7.5 -18.5 q-12 -23 -22 -65q-8 -24 -8 -29q0 -8 -11.5 -26.5t-11.5 -26.5q0 -25 -6 -49q-11 -28 -16 -50q-1 -5 -4.5 -13t-4.5 -11q3 -12 -4 -23q-14 -33 -14 -41q0 -21 -2 -26q-3 -8 -3.5 -23t-2.5 -22q-3 -14 -4.5 -36t-3.5 -32q-1 -3 -4 -15t-5 -22t0 -16q8 -14 5 -35 q-3 0 -7.5 -2.5t-7 -3t-6.5 3.5q-2 7 -10 4q-27 -7 -43 -2q-13 1 -43 0.5t-61 -0.5t-31 2q-4 21 -4 30.5t3.5 31t4.5 32.5q4 65 10 90q10 48 23 86q2 7 3.5 31t8.5 35q-1 4 7.5 24t8.5 27q0 12 15 57q4 10 19 50.5t24 60.5q39 78 51 90q4 7 12 29t12 29q9 15 29 55 q3 8 24.5 35.5t24.5 38.5q16 32 33 49q5 5 13.5 20.5t13.5 20.5q33 37 49 69q2 5 18.5 19.5t16.5 21.5q0 5 2.5 8.5t8 10t7.5 8.5q10 11 29.5 37t35.5 41q6 6 18 22.5t21 24.5q8 7 11 10.5t-1 5.5t-7.5 2h-11.5h-5q-14 0 -40 2t-40 2l-23 2q-23 1 -28 0q-41 -7 -100 0 q-3 0 -14.5 1t-24 1t-23.5 -2q-35 0 -41 4q-12 1 -29 -2.5t-30 -1.5q-6 2 -21.5 2t-35 -1t-25.5 -1l-49 -2q-3 11 -37 0h-33q-7 0 -21.5 -1t-21.5 -1q-5 -1 -7 -3.5t-2.5 -6t0 -6.5t2 -7.5t1.5 -6.5v-62q-1 -12 -2 -28t-2 -29l-10 -31h-49q-43 0 -50 -4q-5 -3 -8 0 q-4 5 -4 6q-5 5 -6 8.5t0 10t0 12.5q-4 25 -4 57v51q-1 4 -0.5 35t-1.5 35q-3 7 -5.5 30t-0.5 31q0 25 18 25q7 0 43 1t43 1q51 0 76 2q6 1 25.5 0.5t25.5 1.5q4 1 10 0t11 0q3 1 9 -0.5t9 -1.5q23 5 59 -2q1 -3 26 -1.5t26 1.5q44 -4 63 4q5 0 14.5 -3t14.5 -3q41 4 63 2 q9 0 36.5 1.5t41.5 0.5q3 0 23 -2.5t23.5 -2t23.5 2.5q27 0 113 -1.5t134 -0.5q5 0 15 1t16 1t12 -3t9 -9q2 -5 1.5 -12t0.5 -9z" />
<glyph unicode="8" horiz-adv-x="1163" d="M1024 539q21 -90 23 -105q6 -15 0.5 -73t-5.5 -72q0 -9 -4.5 -24t-5.5 -23q-9 -54 -10 -56q0 1 -10 -15t-21.5 -34.5t-13.5 -21.5q-3 -4 -9.5 -11.5t-9.5 -11.5q-3 -6 -10.5 -12.5t-9.5 -9.5q-24 -27 -74 -45q-11 -4 -34 -8.5t-33 -8.5q-6 -3 -22.5 -3.5t-22.5 -4.5 q0 -3 -71.5 -8.5t-90.5 -5.5q-25 -1 -70.5 3.5t-54.5 4.5q-5 0 -22.5 5.5t-29.5 8t-20 -1.5q-33 4 -63 25q-6 4 -19 11.5t-28 15t-19 10.5q-37 23 -43 30q-4 5 -28 29l-21 23q-1 3 -14.5 23t-14.5 32q-1 7 -4 18.5t-4 18.5q-2 4 -2.5 11t-3.5 11q-4 8 -4 12q1 8 3 29.5t3 38 t0 29.5q0 8 3 33t3 32q0 4 3.5 18t6.5 17t7 16t8 17q1 1 14 20t27 40l16 24q36 47 53 55q13 3 27 17q3 6 12 7t13 3q-7 2 -60 26q-5 3 -22 10.5t-27.5 14t-17.5 14.5q-3 3 -9.5 8.5t-10.5 10.5t-7 10q-2 2 -7.5 14.5t-10.5 14.5q-4 2 -7.5 13t-7 25t-4.5 17q-10 20 -18 76 l-2 69q6 10 6 39q4 0 8 12t4 17q2 7 27 70q16 43 37 55q3 2 19.5 22.5t23.5 24.5q1 1 14.5 9t17.5 13q6 6 18.5 12.5t16.5 8.5q32 21 49 27q3 1 15 10t20 10q37 5 72 14q55 11 67 11q5 -1 37 5t37 -1q5 -3 14 0t13 0q3 -2 20 -2q79 -10 150 -27q16 -4 22 -4q20 -4 43 -16 q4 -3 19 -12.5t24 -18t8 -17.5q3 -1 10.5 -8t13.5 -13t7 -5q-2 -4 3 -12t12 -17.5t8 -11.5q12 -15 18 -23t19 -61q8 -32 12 -96q3 -26 -2 -117q-4 -49 -21 -80q-38 -70 -84 -108q7 -7 33 -24.5t31 -25.5q6 -8 16.5 -33.5t12.5 -29.5q14 -27 20 -53zM911 281q1 4 9 24t8 31 q0 5 -4 29.5t-4 29.5q0 9 -8 24t-9 19q-6 18 -12 39q-9 11 -25 53q-24 57 -112 80q-9 2 -25.5 8t-29.5 9t-27 4q-4 0 -23.5 -0.5t-23.5 4.5q-41 16 -121 2q0 -1 -43 -23q-22 -10 -41 -26q0 1 -3.5 -1t-6.5 -5l-4 -2q-17 0 -21 -15q-3 -12 -10 -12q-11 0 -43 -43 q-2 -4 -14 -21.5t-17 -27.5q-15 -32 -24 -76t-5 -76q6 -35 7 -37q-1 0 1 -4t5 -7.5t4 -2.5l10 -18q2 0 5.5 -3.5t8 -7.5t6.5 -6q48 -28 54 -35q13 -13 37.5 -17t33.5 -9q4 -3 23.5 -11t24.5 -12q7 -6 39.5 -15t41.5 -9q7 1 82 -4q18 -1 46 4.5t44 13.5q73 36 74 43 q3 -3 30 19.5t30 31.5q2 6 16 26.5t16 31.5zM313 811q3 0 12.5 -7.5t12.5 -8.5q14 -7 29 -13q5 -1 19.5 -7.5t23.5 -6.5q19 0 43 -8q31 -8 59 -8q10 0 30.5 -2t33.5 -2.5t30 0.5t31 4q8 2 19.5 1.5t19.5 0.5q11 2 57 16q41 16 51 21q28 28 31 28q0 -18 55 35q13 19 25 23 q1 6 8 16t10 12q26 130 -8 193q-6 10 -12.5 19.5t-11 15t-13.5 15.5t-14 15q-43 37 -51 41q-38 19 -53 19q-14 0 -44 6t-44 6q-32 -4 -50 -2q-62 0 -77 -2q-8 -2 -22.5 -2.5t-25.5 -3.5l-77 -27q-2 -5 -7.5 -8t-9.5 -2q-1 0 -8 -6t-15 -12.5t-10 -8.5q-54 -37 -67 -61 q-45 -74 -43 -125q0 -8 10 -53q0 -26 8 -39q1 -3 3 -12.5t5 -16.5t7 -8q5 -2 17 -15.5t13 -19.5z" />
<glyph unicode="9" horiz-adv-x="1179" d="M1059 829q5 -7 4.5 -55t-0.5 -55q1 -15 -0.5 -42.5t-1.5 -39.5q0 -19 -1 -56t-1 -57q-9 -63 -8 -71q5 -38 -7 -56q-7 -14 -10 -35q-1 -11 -16 -61q-8 -35 -25 -78q-10 -20 -18 -30q-4 -5 -6.5 -16.5t-7.5 -16.5q-16 -16 -35 -49q-5 -10 -14.5 -17t-22.5 -12.5t-19 -9.5 q-16 -16 -45 -35.5t-37 -26.5q-46 -15 -49 -16q-45 -6 -51 -10q-51 -26 -121 -11q-22 5 -60 10t-50 7q-55 7 -125 41q-48 19 -58 28q-2 1 -19.5 11.5t-21.5 19.5q-9 5 -16 12.5t-14.5 16.5t-12.5 14q-2 3 -7.5 13.5t-10.5 15.5q-4 5 -0.5 18.5t8.5 16.5q50 39 60 49q1 1 4 5 t4.5 5.5l5 5t5 4.5t5 3t5.5 2h5t5.5 -2t5.5 -5q6 -7 15.5 -30.5t12.5 -28.5q12 -19 52 -37q6 -3 26 -16t31 -15q2 -1 16.5 -4.5t28.5 -7l18 -4.5q26 -10 74 -6q7 2 27 -1t24 -3q4 2 9.5 -0.5t9.5 0.5q5 3 9 2.5t9 1.5q47 7 78 22q4 2 16 6t21 8.5t14 8.5q36 27 37 28 q6 7 15 21t14 20q11 14 21 33t15.5 32.5t15.5 39t13 33.5q34 86 25 149q-4 -11 -24 -28t-34 -25q-9 -4 -28 -12t-33 -15t-25 -16q-10 1 -41 -14t-40 -15q-19 0 -55 -11t-54 -11q-41 -19 -127 -2q-4 1 -19 7t-24 7q-32 8 -37 12q-3 2 -16 7t-23.5 10.5t-13.5 9.5q-4 8 -27 16 q-7 4 -17.5 15.5t-17.5 15.5q-13 9 -33.5 33.5t-25.5 29.5q-39 39 -74 142q-2 6 -6 16t-6 16t-4 14.5t-2 16.5q0 9 -5 28t-5 28q-1 13 2.5 36t3.5 33q0 9 6 51q3 27 8 43q8 19 8 37q3 7 9 22t8 19q1 5 0 10t-1 9t3 6q11 7 16 28q1 8 11.5 23.5t11.5 17.5q4 9 10 17.5 t13.5 18.5t11.5 16q5 8 32 39q17 20 23 24q6 5 17.5 16.5t17.5 16.5q68 44 102 51q11 7 22.5 9.5t26 3.5t23.5 3q46 13 114 13q40 0 60 -6q7 -2 27 -4t30 -5q5 -1 51 -22q36 -12 49 -27q7 -9 26.5 -27t25.5 -26q5 -6 17.5 -17.5t21 -21t12.5 -18.5q10 -20 20 -35 q1 -2 7.5 -16t11.5 -19q18 -14 35 -78q34 -100 51 -203zM872 588q86 76 54 276q-11 77 -33 127q-6 12 -18 43.5t-21 46.5q-8 8 -19 30.5t-16 29.5q-21 31 -39 39q-9 4 -27.5 19.5t-27.5 19.5q-51 27 -92 24q-31 -4 -35 -6q-3 3 -19.5 3t-19.5 -3t-21 -4.5t-22 -3.5 q-12 -4 -33 -4q-46 -23 -61 -29q-40 -20 -86 -80q-4 -6 -15 -19t-18.5 -24t-11.5 -22q-2 -7 -10.5 -21.5t-10.5 -17.5q-31 -71 -34 -138q-6 -87 4 -155q6 -36 51 -101q4 -6 17.5 -23.5t17.5 -23.5q16 -24 18 -26q6 -7 15.5 -15t21 -16.5t14.5 -11.5q13 -10 60 -29 q19 -7 55 -11t43 -5q45 -10 80 8q7 3 19.5 4t19.5 4q15 7 50.5 24t54.5 26.5t46.5 27.5t48.5 37z" />
<glyph unicode=":" horiz-adv-x="366" d="M141 2q-18 5 -26 27.5t-8 44t2 51t2 31.5q0 4 -1 12.5t-1 16.5t2 14q1 5 12 10.5t14 5.5q8 -2 9 -8t4 -6q4 0 18 1.5t22.5 2t14.5 -1.5q5 -4 15.5 -1t15.5 -1q1 0 3 3t7 3q8 1 11.5 -9.5t3.5 -30t-1 -34.5t-3.5 -35.5t-2.5 -21.5q-1 -10 0 -19t-0.5 -19t-5.5 -15 q-4 -4 -15.5 -5t-17.5 -4q-3 -1 -11.5 -4.5t-12 -3.5t-11.5 4q-8 3 -22 -2.5t-17 -5.5zM104 649q-4 2 -4 9t1.5 16t0.5 12q0 5 3 24.5t4 20.5q6 5 2.5 35.5t-0.5 40.5q2 8 4.5 13.5t6 8t5.5 3.5t8 2t8 2h54h49q14 -7 16 -9q4 -1 2.5 -27t-0.5 -28q1 -4 -1 -39.5t-1 -40.5 q1 -6 0.5 -8t-2 -7.5t-2.5 -8.5q0 -10 -9 -18q-4 -4 -7 1q-4 3 -8 2t-12 -3.5t-11 -2.5q-9 0 -23 2t-20 2q-5 0 -13 1t-12 1t-9.5 -3t-10.5 -9q-3 0 -8 3t-11 5z" />
<glyph unicode=";" horiz-adv-x="376" d="M260 834q10 -3 12 -17t-1.5 -30t-6.5 -33.5t-2 -24.5l2 2q-10 -36 -10 -82q1 -13 -18 -14.5t-35.5 1.5t-20.5 -3q-2 2 -2 6q-7 -3 -23 -3t-22 -3l-14 22q-8 5 -8 52q3 5 0.5 31.5t-2.5 31.5q1 8 0.5 28t1.5 27q1 6 4 10t8.5 5.5t8.5 1.5h11q17 0 55 -5t62 -3zM104 152 q0 7 1 18.5t1 17.5q0 1 1 9.5t2.5 11t5.5 2.5q9 1 19.5 -0.5t25.5 -5t24 -4.5q6 -1 21 0.5t22 -0.5q6 -2 8.5 -3.5t3.5 -6.5t3 -9q4 -2 2.5 -42.5t-0.5 -43.5q1 -6 -2.5 -45.5t-3.5 -40.5q0 -5 -6.5 -30t-13 -47.5t-5.5 -22.5q0 -3 -7 -11t-9 -14q-16 -38 -33 -41 q-5 -1 -19 13q-5 8 -18 12q-15 6 -17 15t7 16q11 9 24.5 32t10.5 29q10 25 10 31q0 1 0.5 8t0 10.5t-2.5 8.5t-6 6q-16 4 -26.5 2t-16.5 3t-7 23q-3 0 -2 49z" />
<glyph unicode="&#x3c;" horiz-adv-x="1007" d="M385 981q1 1 18.5 13.5t32 23.5t17.5 14q3 4 6.5 6.5t6.5 3t8 1.5t7 1q9 2 41 29q6 6 53 33q31 24 33 24q32 20 62 35q8 3 26 21q5 5 16.5 11.5t14.5 8.5q30 22 37 25q53 30 63 43q7 7 27.5 19.5t30.5 15.5q12 4 22.5 11.5t24 20t20.5 17.5q9 8 17.5 4.5t9.5 -13.5 t-4 -20q-8 -8 -6 -43t0 -43q0 -39 -11 -37l-6 -2q-9 0 -17.5 -4.5t-20 -14t-13.5 -11.5q-27 -21 -39 -29q-8 -5 -29.5 -19t-35.5 -22q-15 -11 -47 -29q-13 -6 -51 -29.5t-46 -31.5q-31 -31 -61 -41q-17 -6 -90 -55q-13 -8 -35.5 -25t-30.5 -23q-10 -6 -28.5 -18t-28.5 -18 q-9 -3 -27 -21q-25 -25 -35 -22q-3 0 -19 -10t-17 -13q-5 -6 -20.5 -13t-20.5 -14q-4 -4 -11.5 -9t-11.5 -9q-4 -5 -15 -10.5t-16 -10.5q-1 -6 3.5 -13t10.5 -10.5t15.5 -9.5t11.5 -7q48 -24 60 -39q7 -10 35 -21q3 -1 15.5 -10.5t16.5 -11.5q6 -3 25 -19q2 -2 8 -5.5 t10 -6.5t4 -6q3 1 16 -8t17 -13q1 -1 23.5 -15t39.5 -26t21 -16q15 -19 29 -19q13 0 33 -20q6 -3 18 -12t12 -13q5 0 28 -15.5t28 -20.5q5 -3 34.5 -25t42.5 -27q14 -5 37.5 -24.5t40.5 -28.5q5 -8 44 -35.5t42 -31.5q4 0 12 -6t16.5 -13.5t12.5 -9.5q4 -4 13 -8t12 4 q3 1 4.5 -3t5.5 -3q2 -8 2.5 -21t-0.5 -22.5t-2.5 -26.5t-1.5 -23q-1 -3 -1 -15t1 -19q1 -3 -2 -21.5t-2 -21.5q-13 0 -19 2q-6 1 -13 9t-9 9q-4 4 -7 4t-5 2q-13 5 -34.5 17.5t-27.5 19.5q-2 3 -21.5 14t-21.5 13q-3 3 -28 22t-27 21q-11 1 -31 15.5t-26 17.5 q-7 4 -21 17.5t-20 16.5q-3 2 -20 10t-23 13q-35 24 -64 39q-36 19 -67 43q-11 9 -37.5 27.5t-30.5 21.5q-8 5 -25 15t-28 18q-5 4 -20.5 14t-24.5 18q-18 18 -33 27q-3 3 -9.5 4t-9.5 4q-11 11 -36 31q-10 5 -23 18q-12 10 -40 28.5t-40 27.5q-10 7 -33 16q-25 11 -49 35 q-3 0 -11.5 4t-10.5 6q-11 7 -4.5 17.5t4.5 17.5q-1 3 -0.5 13t-0.5 18.5t-5 11.5q4 8 -1.5 25.5t-0.5 25.5q2 3 6 9.5t6 9.5q2 4 11 5t11 5q22 6 58 31q11 10 23 18.5t27.5 17.5t24.5 15q14 10 58 43q7 0 19 8t25.5 19.5t16.5 13.5q44 31 76 53z" />
<glyph unicode="=" horiz-adv-x="868" d="M47 377q0 -1 -12 10q-1 2 -2 2q0 25 -2 31q-3 10 2.5 44t13.5 40q0 -6 80 -5l80 1q12 -2 46.5 3.5t43.5 6.5q5 -4 49 -1.5t49 1.5q10 5 24 6t32.5 -0.5t23.5 -1.5q78 -3 156 6q90 5 94 6q94 6 113 2q10 -19 0 -84q-1 -10 -1 -19.5t-1 -17t-7 -12t-18 -4.5q-7 0 -21 3 t-22 3q-3 0 -20.5 -3.5t-20.5 1.5q-11 8 -52 6t-52 0q-15 1 -20.5 1t-21 -2.5t-20.5 -2.5q-2 -1 -18 -2t-17 -2q-4 -2 -12 -2t-18 1t-13 1q-8 0 -25 -2t-26 -2q-11 -1 -36 -4.5t-38.5 -4t-40.5 2.5q-18 4 -51 -2q-9 -1 -28 0.5t-25 1.5h-61q-9 0 -26.5 -2t-27.5 -2 q-6 0 -24 -1.5t-27 -0.5zM31 778q-5 3 -7 11t-1 16.5t0 17.5q0 5 -1 15.5t-1 19t2 14.5q4 5 5.5 4t5.5 -3t7 -1q29 8 91 6t93 5q30 7 89 4.5t89 1.5q10 2 38 2t40 2q9 1 29.5 -0.5t26.5 -1.5q39 0 43 -2q24 0 59 6h33q33 0 45 6q8 2 15 1.5t19.5 -2t16.5 -1.5q7 -1 34 -1 t42 -3q10 -29 -2 -43q3 -4 0.5 -29.5t-2.5 -29.5q1 -4 -13 -4.5t-33 1.5l-20 1q-7 0 -21 2.5t-22 1.5q-17 0 -31 2h-20q-25 4 -39 2q-4 0 -24 -4.5t-31 -3.5q-36 6 -41 6q-25 0 -25 2q-8 -8 -22 -8q-59 13 -84 2q-6 -3 -20.5 -1t-16.5 -1q-37 -8 -78 -5q-2 0 -13.5 -3 t-13.5 -3q-41 0 -61 -4q-33 -2 -84 2h-27q-24 0 -30 -6q-7 4 -20 3t-19 3z" />
<glyph unicode="&#x3e;" horiz-adv-x="937" d="M547 983q55 -48 88 -65q1 0 6.5 -6.5t5.5 -8.5q5 -5 20.5 -10t20.5 -10q30 -30 84 -70q2 -1 23 -20t26 -21q2 -2 23.5 -20t36.5 -23q3 -8 18 -13t19 -9q0 -3 -3.5 -12t-3.5 -13q0 -6 -3.5 -19.5t-4.5 -17.5q-1 -5 -0.5 -20.5t-1.5 -18.5q-3 -9 -26.5 -26t-34.5 -19 q-4 -1 -15.5 -10.5t-23.5 -15.5q-7 -4 -17.5 -16t-17.5 -15q-13 -6 -36.5 -23t-29.5 -20q-36 -20 -71 -55q-8 -8 -17.5 -14t-22 -12t-20.5 -11q-6 -4 -35 -21.5t-56 -35.5t-42 -33q-18 -16 -50.5 -40t-39.5 -30q-30 -21 -63 -43q-1 -1 -29.5 -17.5t-40.5 -27.5 q-18 -14 -54.5 -37.5t-47.5 -30.5q-3 0 -13 -12t-16 -12q-24 -33 -47 -45q-12 0 -13.5 25t5.5 32q0 3 -3.5 5.5t-3.5 16.5v50v12t1.5 9t2 6t3.5 5t4.5 4t7 5t8.5 6q5 5 27 16q12 5 25 13.5t29 19.5t24 16q55 41 94 62q21 19 60.5 42t55.5 36q52 41 91 63q10 5 19 12 t19.5 16.5t16.5 14.5q7 5 35.5 19.5t38.5 27.5q9 11 35 26t34 27q5 2 16.5 12t14.5 11q18 10 51 43q10 7 13 11.5t2 6.5t-7 8.5t-10 12.5q-2 2 -12 9t-18 13t-15 13.5t-8 11.5q-8 4 -20.5 16.5l-14.5 14.5q-49 34 -70 55q-12 11 -32 27t-31 28q-6 6 -24.5 18.5t-24.5 20.5 q-5 7 -33 29q-3 3 -9.5 10.5t-11.5 12.5t-11.5 10t-12.5 6q-3 3 -16.5 15.5t-22.5 19.5t-18 12t-30 26.5t-24 24.5q-6 6 -30 25t-33 32q-22 30 -98 74q-5 3 -18 12.5t-21 12.5q-29 13 -25 59q1 9 1 30.5t1 35t7.5 27t19.5 16.5q7 1 17 -7t22 -21.5t16 -16.5q32 -25 88 -74 t68 -60q3 -3 7 -8.5t7.5 -9t7.5 -4.5q5 0 23 -18q3 -3 39 -33q4 -3 9.5 -9.5t10.5 -9.5q7 -5 8 -8q2 -2 13.5 -12.5t21 -18t12.5 -6.5q4 -4 18 -14.5t21 -18.5q25 -28 62 -61z" />
<glyph unicode="?" horiz-adv-x="931" d="M395 532q3 3 10.5 16.5t10.5 18.5q2 2 9.5 6.5t10.5 10.5t14.5 14.5t16.5 13.5q9 11 28.5 27.5t26.5 24.5q11 9 21 21t21.5 28t17.5 24q10 11 22.5 34.5t18.5 31.5q9 11 13.5 25.5t7 37t3.5 29.5q3 11 3.5 23.5t0 21t-2 24t-1.5 23.5q-5 50 -31 103q-1 8 -18.5 29 t-28.5 30l-17 17t-29 25t-23 9q-6 0 -17 8t-12 9q-7 3 -22.5 5t-22.5 5q-71 27 -145 -23q-20 -11 -60 -51q-19 -16 -43 -76q-1 -2 -8 -16.5t-8 -20.5q-32 -8 -39 4q-3 5 -9.5 9.5t-18.5 9.5t-13 6q-11 6 -12.5 12t0.5 19q8 2 8 30q1 5 4 19.5t4 19.5q6 53 53 91q9 7 24 25 t23 24q2 2 14.5 9t22 13t10.5 10q0 -1 10 5t19 12t20 9.5t24.5 5.5t17.5 3q6 2 17.5 6t16.5 5t14 1t19 -4q1 -3 15 -0.5t16 2.5q17 -1 46.5 -7t39.5 -7q6 -4 25 -12t35 -17.5t24 -19.5q2 -2 6 -9.5t7 -11t7 -2.5q29 -24 33 -30q22 -28 27 -31q14 -8 37 -35q4 -5 11.5 -19.5 t10.5 -19.5q14 -21 23 -39q19 -40 26 -96q1 -9 2 -28.5t2 -28.5q2 -18 2 -51q-1 -5 1 -35.5t-3 -32.5q-4 -7 -8 -17.5t-6 -15.5q-1 -2 -2.5 -12t-3.5 -18.5t-4 -10.5q-19 -20 -21 -26q-2 -5 -5 -15t-4.5 -14.5t-6 -11.5t-10.5 -13q-4 -11 -16.5 -27.5t-14.5 -19.5 q-14 -23 -51 -53q-22 -16 -49 -47l-37 -37q-3 -5 -9 -17t-12 -21.5t-12 -14.5q-2 -5 -10.5 -24t-9.5 -29q0 -6 -3.5 -29.5t-3.5 -38.5q4 -66 -8 -102q-1 1 -8.5 -3t-9.5 -6q2 0 -19 9q-11 -11 -32 -7q-7 0 -23.5 3.5t-24.5 3.5q-18 13 -21 31.5t1 39.5q2 18 2 51q3 29 10 72 q5 46 19 60q5 5 11 19t13 19zM356 14q-8 -2 -12 1.5t-4.5 11t0 15t1.5 16t1 10.5t-1.5 22t0.5 30.5t9 14.5q13 4 36 2.5t38 1.5q2 0 10 1.5t13.5 2.5t12.5 1.5t12 -1.5t7 -6q-6 -59 -8 -59q9 -69 -6 -74q-17 -7 -37 0q-6 1 -16 -0.5t-15 -1.5l-27 7q-9 1 -10 -3q-4 4 -4 8z " />
<glyph unicode="@" horiz-adv-x="1818" d="M1053 -258l-54 -6h-28q-7 -1 -41 3t-41 -3q-3 -6 -17 -1t-18 5q-116 -17 -252 45q-21 8 -69 36.5t-66 37.5q-49 22 -66 39q-3 3 -20.5 18.5t-24.5 24.5q-7 10 -29 27.5t-26 21.5q-5 8 -16.5 21t-16.5 24q-12 21 -35 47q-8 8 -21 33.5t-15 29.5q-15 32 -34.5 105.5 t-31.5 103.5q-5 14 -11 54.5t-11 54.5q-4 16 -6.5 36.5t-3 35t-1 39.5t-0.5 38q-1 17 13 76t20 70q13 27 27 82t18 67q20 63 80 131q7 8 27.5 36t29.5 40q13 18 45 51t45 52q41 59 68 63l12 16l5 -2.5t5 1.5t7 3q20 0 20 15q2 -2 15.5 7t13.5 13q11 -6 30.5 12.5t30.5 12.5 q7 -2 21.5 5.5t19.5 8.5q11 2 39.5 9.5t44.5 9.5q30 0 58 8q21 1 58 -1.5t52 -2.5q4 0 9 3t8.5 3t7.5 -6q2 3 18 1l17 -1q6 -1 30 -4.5t35 -6.5q4 0 23.5 2t35.5 2t23 -4q13 -7 57 -14q5 -1 51.5 -19t69.5 -18q16 0 39 -10t29 -12q12 -4 24 -9.5t27 -13.5t23 -12 q53 -27 99.5 -75.5t74.5 -100.5q5 -9 15.5 -29t14.5 -27q5 -4 21 -36q3 -6 16 -34t22.5 -50t12.5 -33q6 -23 6 -90q0 -3 -1 -21t-0.5 -31.5t3.5 -21.5q5 -92 -12 -137q-8 -22 -18.5 -61t-14.5 -52q-1 -5 -12.5 -25t-11.5 -28q0 -11 -7 -22t-18 -23.5t-16 -20.5 q-5 -6 -14 -19t-14 -19.5t-13.5 -16.5t-18.5 -18q-8 -7 -30 -27t-33 -29q-33 -26 -82 -59q-21 -15 -57.5 -20t-51.5 -11q-44 0 -49 -8q-4 -8 -37 -8q-4 0 -12 1t-11.5 1.5t-9 2t-10.5 5.5q-17 17 -22 21q-4 2 -17.5 6.5t-19.5 9.5q-29 22 -78 86q-8 -15 -28.5 -37t-32.5 -26 q-2 -1 -35 -23q-4 -1 -15 -9t-18 -7q-5 1 -72 -21q-3 0 -43 -16q-5 -2 -20.5 -0.5t-18.5 0.5q-21 -6 -40 -7.5t-43 3.5t-34 7t-40.5 13t-34.5 12q-60 40 -66 52q-71 63 -86 112q-2 13 -22.5 69.5t-14.5 86.5q3 26 1.5 51.5t2 56t15.5 48.5q5 10 12.5 36t11.5 37q4 6 13.5 28 t13.5 28q8 9 25 47q14 24 34 41q31 37 43 45q6 4 17 13.5t23 20t16 13.5q36 31 94 65q37 21 51 21q6 0 62 14q40 14 82 17q68 8 79 -3l50 -6q4 -4 13.5 -8.5t23 -11t18.5 -8.5q29 -17 49 -39q1 -1 12.5 -14t16.5 -13q6 4 12 18.5t11.5 34t8.5 25.5q6 17 9 20.5t12 -0.5 t16 -4q48 0 86 -20q14 -7 17 -17q2 -11 2.5 -13t-4 -9.5t-6.5 -11.5q-1 -13 -9.5 -32t-11.5 -30q-8 -15 -16 -35q-1 -7 0.5 -13t0.5 -11t-7 -15q-12 -17 -9 -30q-3 -27 -14 -49q-9 -37 -12 -41q-6 -9 -10.5 -25t-6.5 -29t-5.5 -34.5t-4.5 -28.5q-3 -15 -6 -36t-6.5 -37.5 t-7.5 -31.5q-1 -11 -5 -45t-6 -45q-6 -70 9 -114q9 -29 46 -39t72 -4q27 4 45 16q5 4 27.5 11.5t26.5 11.5q48 32 73 57q5 5 11 15t10 14q9 4 12.5 8t7 9.5t9.5 10.5q5 9 15.5 26t12.5 21q1 2 20.5 38.5t24.5 58.5q1 4 18.5 56t12.5 81q-1 15 1.5 60.5t-1.5 60.5 q-3 65 -31 145q-27 36 -84 125q-9 13 -61 56t-70 55q-17 9 -54.5 28t-45.5 23q-2 1 -15 9t-24 13q-7 3 -48 11.5t-48 11.5q-7 1 -30.5 5t-35.5 9q-9 1 -22 -1.5t-15 -2.5q-6 6 -30 6q-5 2 -27 3t-40.5 3t-18.5 7q-1 -6 -18 -8t-38.5 -2.5t-27.5 -2.5q-9 -3 -52 -11.5 t-43 -4.5q-16 -4 -34 -11.5t-38.5 -18t-31.5 -15.5q-7 0 -59 -35q-14 -10 -40 -28.5t-40 -28.5l-7.5 -7.5t-12.5 -12t-13 -12.5t-10.5 -10t-3.5 -5q-14 -5 -31 -28l-17 -22q-3 -1 -11 -10.5t-11 -11.5q-1 -3 -2 -5t-2.5 -2t-4 -2.5t-5.5 -7.5q-1 -9 -12 -30t-13 -27 q-9 -36 -35 -65q-14 -28 -14 -37q0 -5 -6 -21.5t-12 -31.5t-7 -15v-1q1 -20 -6 -13q3 -6 -8.5 -30.5t-11.5 -29.5q-1 -13 -7 -41.5t-8 -42.5q-13 -52 6 -190q5 -24 16 -69.5t15 -61.5q24 -58 29 -84q5 0 11.5 -16.5t2.5 -24.5q4 4 12.5 -7.5t18 -26.5t12.5 -17 q4 -4 13 -14.5t18.5 -19.5t19.5 -17q13 -13 42.5 -35.5t41.5 -34.5q3 -7 20.5 -16t20.5 -13q4 -4 15 -13t25.5 -19.5t15.5 -10.5q7 -1 16.5 -8t15.5 -8q26 -21 41 -23q5 -1 25.5 -9.5t30.5 -10.5q22 -4 71 -11t49 -6q5 1 30 -1t43 -3.5t22 0.5q82 4 88 0q0 2 5 2.5t10 -0.5 h5q11 -9 103 16.5t92 31.5q11 0 37 6.5t34 13.5q18 6 55.5 18t57.5 19q61 31 90 55q4 4 10.5 13t11 14t12 13t12.5 10t12.5 4.5t11.5 -3.5q4 -3 16.5 -12t16.5 -12q5 -4 8 -14.5t6 -12.5q-2 -3 -4 -18.5t-4.5 -28.5t-5.5 -12q-3 -2 -21.5 -17.5t-26.5 -21.5t-24.5 -15.5 t-30.5 -15.5q-9 -5 -49.5 -20.5t-40.5 -12.5q-4 -2 -20.5 -11t-20.5 -11q-6 -3 -27 -7t-24 -3q-10 -9 -72.5 -29.5t-64.5 -22.5q-3 -3 -22 -3.5t-23 -2.5q-73 -27 -86 -14zM1094 811q3 8 0.5 19t-3 15.5t-5 13.5t-7 12.5t-9 12t-9.5 13.5q-8 11 -18 17t-29.5 10.5t-22.5 5.5 q-12 5 -17.5 6t-12.5 0t-15 0q-4 1 -16.5 5.5t-24.5 2.5q-12 -1 -30 1.5t-29 2.5t-30.5 -6.5t-34.5 -14t-35.5 -18t-24.5 -12.5q-14 -6 -32 -25.5t-35 -41t-21 -25.5q-70 -70 -84 -143q-4 -19 -17.5 -59t-17.5 -64q-13 -73 -10 -99q0 -45 8 -84q4 -19 23 -67 q3 -7 15.5 -17.5t14.5 -13.5q9 -9 20.5 -13t16.5 -7q9 -6 32.5 -6t41.5 -11q7 -4 41.5 -6.5t38.5 0.5q1 3 15.5 6t32 5t19.5 3q4 1 20.5 7.5t24.5 5.5q4 1 24.5 14.5t25.5 15.5q9 4 36 37q49 49 52 51q21 13 38 134q14 35 23.5 109t11.5 83q6 33 15 125z" />
<glyph unicode="A" horiz-adv-x="1177" d="M1137 59q-4 -16 18 -49q-1 -9 -2.5 -14.5t-5.5 -7.5t-6.5 -2.5t-11 -1t-13.5 -0.5q-7 -4 -24.5 -2t-22.5 10q-14 -8 -49 4h-4q-4 -1 -6.5 -1t-5 2t-3.5 5q-3 4 3 8t6 8q-3 14 -14 36.5t-15 33.5q-1 6 -9.5 22t-8.5 19q-1 8 -5 17t-11 20t-9 16q-9 19 -20 56.5t-15 48.5 q-5 12 -12 34.5t-12 34.5q-23 46 -27 50q-9 9 -26.5 13.5t-31.5 4.5t-37 -1t-30 -1q-14 0 -45 -1t-49 -1h-139q-31 0 -43 6q-1 1 -8 -2t-9 -2q-7 3 -26 -0.5t-27 -1.5q-1 3 -23 0.5t-26 -2.5q-2 0 -11 1.5t-14 1.5t-12 0.5t-12.5 -1t-8.5 -4.5q-9 -8 -10 -22.5t-4 -20.5 q-1 -2 -7 -13.5t-11 -17.5q-11 -15 -17 -43q-6 -19 -20.5 -59.5t-20.5 -59.5q-6 -14 -16 -61q-1 -4 -2.5 -17.5t-4.5 -24t-9 -14.5q-2 -5 -4.5 -18t-2.5 -14l-4.5 -13.5t-3.5 -17.5q-2 0 -5.5 -1t-6 -1.5t-5 1.5t-3.5 7q-3 -2 -28.5 -2t-33.5 -2q-4 -1 -13 0t-13 0 q-5 9 -4.5 23.5t4.5 21.5q2 4 5.5 26t10.5 29q-1 17 8 41.5t10 32.5q2 14 10 39.5t9 30.5q13 40 44.5 113t43.5 110q13 42 43.5 115.5t38.5 95.5q3 6 18.5 47t29.5 78.5t17 40.5q6 6 19.5 41t24 68t8.5 34q22 40 37 94q2 9 12.5 34t11.5 40q49 93 70 162q5 4 7.5 19t6.5 20 q3 1 16.5 -1.5t16.5 1.5q16 -5 37 -2q1 1 4 2q12 3 14 4v-3q-1 -5 0 -6.5t8 1.5q13 5 15 2t6 -19q1 -10 4.5 -20.5t10.5 -23.5t9 -17q0 -1 5.5 -13.5t9.5 -24t4 -15.5q1 -13 9.5 -39.5t10.5 -36.5q1 -5 13.5 -32t15.5 -44q0 -3 15.5 -39t19.5 -43q16 -36 22 -59q0 -2 17 -41 q1 -2 8 -21.5t12.5 -36t5.5 -22.5q4 -3 7.5 -14.5t5.5 -14.5q4 -9 12 -27.5t12 -27.5q3 -8 37 -83t45 -114q3 -15 16.5 -36.5t16.5 -30.5q5 -12 20.5 -50t22.5 -59q1 -6 17.5 -45t17.5 -49q5 -12 22.5 -41t20.5 -53q2 -20 20 -60q-1 -7 7 -24.5t14 -20.5zM784 539q0 -1 1 0 l3 3l3 3q0 -5 7.5 -5.5t10.5 1.5q0 2 -8.5 24.5t-9.5 34.5q1 3 -4.5 15.5t-4.5 19.5q-4 10 -13.5 42.5t-18.5 47.5q-5 8 -15 41q-1 1 -22 51q-7 31 -37 98q-2 6 -15 40t-20 51q-4 7 -15 42.5t-24 47.5q-5 5 -14.5 34.5t-20.5 30.5q-7 -1 -12.5 -19.5t-9.5 -21.5q0 -4 -8 -21 t-13 -20q3 -1 -8 -29.5t-14 -31.5q0 -24 -31 -74q-4 -6 -8.5 -27.5t-9.5 -29.5q-8 -11 -19.5 -39t-13.5 -31q-25 -47 -29 -74q-2 -12 -15 -42t-16 -42q1 -3 -5 -14t-7 -14q-2 -8 -9 -19.5t-9 -19.5q-1 -4 -6.5 -13.5t-6.5 -14.5t2 -15l35 -4q2 -1 15 -1t14 1q10 -5 18 -2 q7 6 70.5 1t71.5 -5q0 -1 29 -1l30 1q10 1 30.5 -1t29.5 -1q2 0 11 1.5t11 0.5q27 -5 61 2q12 2 39 -2z" />
<glyph unicode="B" horiz-adv-x="1312" d="M174 31q0 28 -4 35q0 1 -1.5 31t-0.5 52t6 27q2 2 2 10.5t-1 19t-1 11.5q0 51 2 76q2 21 1.5 71.5t2.5 71.5q4 0 2 57t-2 58q0 30 3 90.5t3.5 93t-4.5 90.5q-2 9 0.5 79.5t4 121t-4.5 61.5q0 3 1 7.5t2.5 11t2.5 10.5v31q0 4 -2 28.5t4 28.5q-6 4 -4 35t2 35q0 3 -1 19.5 t-0.5 26.5t3.5 13q2 2 14.5 1t25.5 -2.5t24 1.5q6 2 21.5 -1.5t19.5 -0.5q26 -6 59 -2h86q154 0 228 2q5 0 44 -0.5t44 4.5q10 -2 39.5 3t38.5 -1q5 -1 35.5 1t37.5 -3q5 -3 37 -7.5t39 -4.5q18 0 45 -18q6 -4 18.5 -11.5t18.5 -11.5q35 -21 53 -39q7 -6 16.5 -18.5 t16.5 -18.5q27 -22 53.5 -67t26.5 -76q0 -3 -1 -50t-1 -50q-5 -78 -35 -115q-4 -6 -28.5 -44.5t-26.5 -41.5q-2 -1 -36 -35t-40 -37q-3 -2 -11.5 -9t-15.5 -10.5t-14 -4.5l-7 -3q-7 -3 -12.5 -6.5t-5.5 -7.5q7 -7 33.5 -14t28.5 -8q5 -3 14 -6t15.5 -6.5t11.5 -8.5 q2 -8 18 -16.5t19 -11.5q1 -1 10.5 -11t13.5 -18q2 -6 15.5 -40.5t17.5 -55.5l14 -58q-4 -1 -0.5 -22t0.5 -25q-2 -1 -0.5 -18t0.5 -21t-1 -13.5t-1 -17.5t-4 -12q-9 -14 -39 -90q-3 -8 -17 -23.5t-16 -19.5q-6 -9 -21 -21.5t-24 -17.5q-10 -4 -30.5 -17t-34.5 -16 q-8 -2 -25 -16q0 -1 -12 -3.5t-16 -2.5q-40 -10 -52 -16q-39 -11 -51 -11q-15 -1 -43.5 -6.5t-43.5 -7t-42 3.5q-19 6 -86 -2q-10 -1 -76 1.5t-112 4t-58 -3.5q-1 1 -9 1.5t-14.5 1.5t-6.5 3q-2 0 -8.5 -2.5t-18.5 -1.5h-20q-10 -2 -25 -1.5t-22 -0.5q-5 -2 -24.5 1.5 t-21.5 -1.5l-47 3l-2 -1q-1 2 -4 6.5t-4 5.5t-2.5 6t0.5 9zM305 1055q-4 -5 -4.5 -18.5t1 -31.5t1.5 -22q-2 -18 -2 -53q6 -27 2 -82q0 -27 2 -39l8 -14q-6 -6 -6 -27q0 -1 -1 -6t-2 -11.5t-1.5 -13t1 -10.5t5.5 -4q19 8 19 2q5 1 23 1t18 -1q2 -4 11.5 -4.5t23 1t14.5 1.5 h20q6 -2 23 -2q11 0 43 -1.5t51 -0.5q9 1 30.5 5t31.5 4.5t30 -5.5q9 -4 70 -6.5t74 0.5q8 1 41 8.5t51 7.5q12 0 34 6t29 13q2 2 16 10t15 8q5 2 37 29q13 9 37 47q4 6 8.5 15t8.5 16t9 12q10 12 11.5 43.5t7.5 42.5q16 31 12 39q-3 4 -4.5 13t-2 20t-1.5 14q-7 29 -25 59 q-5 10 -53.5 54t-65.5 51q-21 8 -76.5 14t-68.5 4q-1 -2 -27.5 -2t-58 -0.5t-41.5 -3.5q-11 -3 -41.5 1t-36.5 3q-41 0 -57 -2q-12 -4 -17 -4q-2 -1 -3 -3.5t-3 -2.5q0 5 -2 7.5t-6 3t-7 -0.5t-8 -2.5t-7 -1.5q-9 -2 -22.5 1t-18.5 3q-14 0 -37.5 -2t-34.5 -2q-5 0 -17.5 -1 t-17.5 -1h-14.5h-11.5t-7.5 -4.5t-1.5 -14.5q0 -4 -2.5 -24.5t-2.5 -35.5t5 -19q-2 1 -3.5 -18t-2.5 -39.5t-2 -22.5zM307 485q0 -9 0.5 -77t-4.5 -82q-6 -31 -4 -39q2 -7 0.5 -28t-0.5 -30q0 -6 2.5 -34t-0.5 -35q0 -4 -1.5 -10t-2 -9t0 -6t2.5 -4.5t7 -1.5q0 -1 -1 -4 t-1 -4q32 3 96 -3t91 -5q18 -4 53 -2t53 -2q12 -2 27 -2t33.5 1t27.5 1q4 6 56.5 5t58.5 -1q7 0 24 4t21 6q18 4 60.5 19.5t54.5 25.5q4 4 18.5 6.5t17.5 7.5q4 5 15.5 10.5t15.5 10.5q4 4 25 18.5t26 26.5q7 21 19 37q4 4 5.5 12t1.5 18t1 13q6 10 5.5 30t-5.5 31 q-4 7 -15 37.5t-18 40.5q-26 34 -49 49q-51 40 -53 41q-8 6 -25.5 14.5t-21.5 10.5q-64 9 -78 14q-8 -4 -31 1.5t-29 4.5q-6 8 -71 8q-10 1 -49.5 -2t-47.5 -2q-9 1 -21 1t-20 0.5t-12 2.5q-27 2 -65 2q-115 4 -172 0q-7 0 -10.5 -0.5t-5.5 -3t-2 -4.5t-0.5 -8t-0.5 -10v-31 q0 -11 -1 -35t-1 -35z" />
<glyph unicode="C" d="M176 219q-26 60 -43 135q-29 148 -24 252v64q0 3 1.5 16t2 21t-1.5 14q-2 4 0.5 19.5t1.5 19.5q8 27 8 65q0 17 3.5 34t9.5 39t9 34q2 7 5.5 21.5t5.5 21.5q1 4 7 27.5t11 35.5q18 36 25 43q5 4 11 17.5t7 15.5t8.5 14t13.5 19.5t11 11.5q3 2 19.5 27t19.5 28 q15 13 35.5 32.5t37 32.5t43.5 26q55 29 84 36q22 5 25 7q3 1 13.5 1t13.5 1q4 4 12 4.5t19.5 -1t15.5 -1.5q26 4 32 4h46q1 0 21 1.5t24 -1.5q37 -8 69 -29q50 -20 58 -24q5 -3 21 -14.5t24 -14.5q11 -4 41 -27q21 -16 28 -30q4 -8 15.5 -24t15.5 -24t14.5 -22.5 t14.5 -22.5q5 -9 11 -27t11 -26q0 -3 -2.5 -8.5t-1.5 -9.5q0 -3 2 -4.5t2 -4.5q1 -9 -3 -13t-12.5 -6.5t-12.5 -4.5q-44 -33 -56 -19q0 73 -18 91q-4 3 -12.5 23.5t-24.5 23.5q0 2 -6 7t-13 9.5t-8 5.5q-63 31 -63 35q-5 0 -9.5 2.5t-10.5 7.5t-7 6q-20 10 -24 13 q-36 27 -45 20q-5 -3 -56 10q-10 0 -28.5 1t-28.5 1q-21 1 -59 -7.5t-60 -18.5q-20 -9 -46.5 -32t-37.5 -30q-10 -6 -48.5 -46t-37.5 -48q-38 -50 -53 -112q-2 -9 -6 -34t-8 -36q-4 -10 -6 -31.5t-5 -30.5q-16 -44 -20 -145q-4 -62 -2 -92q0 -27 6 -57q3 -16 16 -72 q10 -44 19 -59q7 -12 13.5 -39t8.5 -33q7 -20 29 -64q5 -9 18.5 -26.5t18.5 -26.5q17 -5 59 -41q5 -5 36 -17.5t59 -24t28 -13.5q3 1 39 -17q9 -6 32.5 -6t30.5 -2q32 -8 74 -12q6 -1 34 4t34 4q12 -2 35 13.5t32 15.5q13 0 31 24q12 0 19 5q33 14 47 34q3 4 24 23t27 31 q9 22 29 24l6 1.5t4 -1t3 -2.5t3 -4.5t4 -5.5q11 -2 24.5 -14.5t14.5 -22.5q4 -10 0.5 -11.5t-4.5 -8.5v-15q-5 3 -8.5 -2.5t-5 -14t-1.5 -9.5q-6 -4 -15 -25t-13 -25q-5 -7 -27 -24q-3 -2 -13 -12t-13 -11q-5 -2 -13 -6.5t-17.5 -10.5t-14.5 -9q-12 -6 -52 -21 q-3 -4 -13 -10t-15 -6q1 -2 -13 -5.5t-31.5 -8t-21.5 -5.5q-20 -4 -29 -4t-28.5 3.5t-28.5 4.5q-55 5 -76 -4q-4 0 -19 3t-18 6q-3 2 -13.5 0.5t-12.5 3.5q-8 0 -8 -2q-1 1 -4.5 2.5t-6.5 3.5q-6 2 -25 5.5t-32 7.5t-20 9q-17 12 -31 15q-37 3 -62 28q-5 5 -24.5 14 t-22.5 13q-6 8 -21.5 17t-19.5 12q-20 20 -32 30q-27 20 -31 33q-4 0 -16.5 19.5t-14.5 25.5z" />
<glyph unicode="D" horiz-adv-x="1415" d="M176 6q-12 64 -6 146q2 28 1.5 95t2.5 95q2 26 2 56t-1 67t-1 57v119v102q0 5 2.5 33.5t-0.5 30.5q-6 23 4 61q1 3 1.5 22.5t2.5 22.5q3 5 3.5 19.5t-0.5 34.5t-1 22q-2 10 7 74q1 15 1 48t1 48q0 6 -1.5 29t-0.5 31q8 48 10 79q0 3 -1 11t-1.5 13t0.5 9q4 8 4 15h22 q4 -2 4 -9h23q41 0 41 6q47 -6 65 -2q14 3 47.5 3t47.5 2q36 0 37 -5q10 7 28 7h17q2 0 8.5 -0.5l13 -1t14 -0.5t12 1.5t5.5 4.5q2 -7 16 -4q3 2 4 4q12 -7 49 -2h64q8 1 24.5 2t24.5 2q3 0 14 -1t19.5 -1t11.5 2q7 5 26 0.5t27 -2.5q2 -3 27 -7t27 -6q7 -5 30 -14.5 t33 -15.5q3 -2 41 -24t41 -25q8 -7 33.5 -28.5t42 -39t26.5 -35.5q7 -13 24 -39.5t24 -40.5q6 -17 32 -61q4 -5 11 -35t12 -35l6 -22q2 -1 3.5 -9.5t2.5 -19t2 -12.5q4 -13 13.5 -42t13.5 -46q3 -12 6 -47.5t2 -57.5q-1 -15 -1.5 -43.5t-2.5 -51.5t-8 -42q-4 -11 -22.5 -70 t-18.5 -61q-7 -15 -16.5 -45t-10.5 -33q-4 -6 -9.5 -14.5t-9 -15t-5.5 -13.5q-1 -5 -25 -41q-11 -17 -32 -39.5t-36 -46.5q-4 -7 -19.5 -21.5t-19.5 -19.5l-30 -24q-6 -2 -10 -13q-9 3 -19 -4q-8 -5 -27.5 -22.5t-29.5 -22.5q-4 -3 -19.5 -5t-21.5 -5q-54 -27 -162 -35 q-51 -4 -150 -4q-10 0 -28.5 -1t-28.5 -1q-2 0 -22 -1t-32.5 0.5t-19.5 6.5q-2 -1 -12 0.5t-18 1.5t-8 -4q-5 1 -21.5 1.5t-24.5 2.5q-11 3 -24.5 4t-30.5 1t-26 1h-48q-7 -1 -18.5 2t-17.5 2q-4 -2 -16.5 -0.5t-16.5 0.5q-3 -1 -12.5 -4.5t-16.5 -3.5zM289 268 q1 -11 -1 -55t3 -53q1 -4 2.5 -11.5t2.5 -11.5t4 -8.5t9 -5.5q3 -1 20 1t19 -3q4 -2 7 0.5t7 -2.5q1 -4 19.5 -1.5t21.5 1.5q12 -4 48 -4h38q13 1 27 1t30.5 -0.5t24.5 -0.5q15 -1 76 13.5t103 6.5q14 -3 47 8q9 3 35 5.5t36 9.5q9 6 35.5 11.5t34.5 10.5q18 15 35 23 q2 2 9.5 8.5t13 11.5t5.5 8q0 2 4.5 5.5t10 7t6.5 4.5l8 16q2 3 18.5 21.5t18.5 21.5q31 38 35 47q2 4 10 19.5t14 21.5q18 18 31 82q11 53 14 117q0 10 1.5 43.5t2 49.5t-0.5 42t-5 47q-15 85 -43 166q-2 6 -6 22.5t-8 29t-8 18.5q-5 8 -10.5 21.5t-11 22.5t-13.5 13 q0 7 -15 22t-16 17q-4 3 -16.5 14t-20.5 15q-8 5 -13.5 10.5t-8.5 7.5q-3 4 -7 6t-11 5t-11 5t-13.5 10t-16.5 11q-4 3 -17.5 9.5t-15.5 8.5q-4 1 -22 9.5t-21 7.5q-1 0 -7 1.5t-11.5 2.5t-6.5 0q-11 -2 -36.5 4t-28.5 6q-22 1 -66.5 3t-58.5 3q-6 0 -29 2.5t-31 1.5h-43 q-5 0 -16 -0.5t-20 -0.5t-15 1q-14 2 -39 -1t-37 -1q-1 0 -8 1t-11 1.5t-11.5 0.5t-12 -0.5t-11 -2.5t-10 -5t-6.5 -8.5t-3 -12.5q2 -2 -3 -32t-8 -34q2 -15 -2.5 -48.5t-3.5 -49.5q0 -4 2 -12.5t2 -12.5q1 -6 -2 -19t-2 -20q0 -14 -6 -137q-4 -86 -4 -135v-123 q0 -17 -1 -36.5t-2.5 -43.5t-2.5 -37q0 -9 1 -30.5t1 -30.5q-4 -35 -2 -53q0 -14 -2.5 -48t-1.5 -53z" />
<glyph unicode="E" horiz-adv-x="1146" d="M168 317q0 22 3 72t3 74q-4 165 6 274q2 30 2 183q0 108 -4 157q-2 30 2 88.5t4 77.5q0 50 -10 66q0 20 10 30q1 -1 5.5 -1t7.5 -1.5t2 -5.5q5 -1 7.5 1.5t8.5 0.5q7 -5 27 0q13 1 67 6q17 2 65 0.5t64 3.5q16 3 38.5 4t39 0.5t43 -2.5t37.5 -2q5 0 13.5 1t15.5 1t12 -2 q24 0 27 3q8 2 30 -1.5t27 -3.5h43q5 -2 38 -0.5t40 0.5h55q5 0 20 0.5t28 0.5t22 -1t21 1t21 1.5t17 -4.5q5 -3 7.5 -3.5t4 0t5.5 1.5t10 2q9 1 12 -4t1.5 -13.5t-4.5 -18t-6 -21.5t-3 -20q4 -33 -19 -41q-8 2 -48.5 5t-47.5 5q-25 8 -80 8q-4 0 -24 -1.5t-29 -0.5h-72 q-33 -1 -87 6t-93 8q-3 0 -23.5 3.5t-25.5 2.5q-30 -8 -78 0q-45 4 -76 -6q-2 0 -9 -3t-12.5 -5t-11.5 -1.5t-8 5.5q-2 -4 -8 -10t-6 -14v-35v-66q0 -19 3.5 -65t2.5 -72q0 -8 -2.5 -33.5t-2.5 -34.5t1 -34q7 -54 0 -90q-2 -7 -2 -17t1 -22.5t1 -18.5q1 -3 1 -9v-8.5 t3.5 -4.5t9.5 -2q15 -7 15 2q3 4 100 4h74q6 -1 26.5 -0.5t26.5 -1.5q5 -1 25 1.5t28 -3.5q42 10 76 2q13 -4 27.5 -4.5t37.5 1t37 1.5q6 -4 17.5 -4.5t26.5 1t20 1.5q43 -4 57 0q2 10 23 -4q17 -11 10 -15q-15 -9 -6 -88q-2 0 -5.5 -5.5t-11.5 -6.5q-24 -4 -32 -4 q-6 0 -23.5 -3t-23.5 -3q-8 0 -34 1t-32 1l-28 4q-27 5 -35 -4h-62q-20 3 -78 8.5t-84 11.5t-34 -2q-10 6 -33 6q-8 1 -35 -0.5t-35 0.5q-3 0 -11.5 1.5t-12 1.5t-9 -2t-10.5 -7q-5 -6 -5.5 -16.5t1 -23.5t0.5 -19q-6 -37 2 -47q0 -4 -0.5 -32t4.5 -32q-7 -9 -2 -48.5 t4 -49.5q-1 -28 -1 -38.5t2 -38t3 -38.5q0 -6 -1.5 -24.5t-1 -32.5t4.5 -23q11 1 38 -0.5t38 0.5q10 2 34.5 -3t31.5 1q7 -3 23.5 -1.5t25.5 -0.5q14 -4 37 -4q11 0 31 -5.5t32 -4.5h41q3 1 20.5 1.5t20.5 2.5q2 4 30.5 1.5t35.5 -1.5q12 1 35.5 3t43 3t35.5 0q70 0 76 2 q8 2 29 -5t24 -7q10 -1 25 0.5t22 1.5q0 -4 -2 -6q4 -2 7 0l4 2q6 -19 9 -39t5 -43.5t4 -36.5q3 -11 -4 -15t-18 1q-5 18 -9.5 18.5t-13.5 -6.5q-3 1 -12.5 0t-16.5 -0.5t-8 4.5q-6 -4 -7 -0.5t-7 4.5q-2 3 -10 6t-9 0q-3 -4 -6.5 -5t-10 -1.5t-9.5 -1.5q-4 0 -17 1.5 t-22 0.5t-15 -6q-2 3 -28 10q-6 -2 -18 -3t-17 -3q-2 0 -9.5 3t-10.5 1q-4 -4 -25 -4t-29 -4q-7 0 -39 4q-3 3 -14 0.5t-14 -2.5q-36 1 -132 -3t-153 -1q-100 6 -106 6q-7 0 -26 -2.5t-30.5 -3.5t-25.5 2t-23 12q-11 78 -4 178q1 23 -0.5 67.5t-1.5 59.5z" />
<glyph unicode="F" horiz-adv-x="1138" d="M279 -4q-18 -1 -38 -3.5l-28 -3.5t-16.5 0.5t-12 7t-6.5 17.5q-7 20 -4.5 72.5t0.5 73.5q-3 17 -3.5 33.5t0.5 40.5t1 36q1 12 -1.5 49.5t1.5 51.5q-4 4 -2.5 25t0.5 26q-1 2 -1 15t-1 14q-2 4 -2 14t1 21.5t1 13.5q7 83 4 147q-2 34 3 102t5 93v276q0 10 -3.5 48t-3 51 t4.5 49q0 7 -6 37q-3 12 9.5 18t27.5 6q57 4 174 4q41 0 51 2q13 2 31 -0.5t29 -1.5q22 0 59 2t61 2q106 5 115 6q109 9 201 -2q4 -1 16.5 2t20 3.5t14.5 -5.5q2 -2 47 -2q29 4 43 -4q4 0 10 -6q2 -1 6 -8t7 -8q-7 -4 -11 -27t-2 -35q1 -5 7 -16t6 -19q-1 0 -6.5 -2.5 t-9 -3.5t-5.5 2q-2 5 -6.5 7t-7.5 -5q-36 15 -78 0h-47l-16 -4q-6 4 -25 4q-45 0 -57 -6q-5 -3 -30.5 1t-29.5 3q-10 -2 -32.5 -3.5t-26.5 -2.5h-27q-2 0 -23 1t-26 1q-30 4 -76 -2q-3 0 -10.5 -1.5t-12 -2t-10.5 0t-10 3.5q-4 -1 -27 0.5t-24 -0.5q-2 -7 -22 -3t-27 1 q-4 -1 -20 -1t-29 -1.5t-17 -5.5q-28 20 -28 -27q2 -20 2.5 -24t-2 -24t-2.5 -23q-11 -107 -9 -150q1 -8 -3 -25t-3 -26q2 -9 0 -33t0 -33q-12 -7 -2 -49q4 -18 15 -20q0 -1 -2.5 -5t0.5 -5q2 1 7 1.5t11.5 0.5t12 0.5t9.5 2t3 3.5q14 -3 94.5 -2.5t91.5 4.5q6 2 27.5 -5 t27.5 -5q8 0 31.5 -1.5t36.5 -0.5l102 6q3 -4 19 -4t37 2t24 2q7 0 21.5 -1t25 -0.5t21.5 3.5q3 -1 6 3t6 1q4 -4 10 -4.5t13.5 1t11.5 1.5q23 5 28 2q8 -3 17 2.5t14 5.5q0 -10 6 -16q6 -5 8 -16t1.5 -20.5t-3 -25.5t-2.5 -22q0 -1 -1.5 -6t-3 -5.5t-5.5 -3.5t-11.5 -4 t-19.5 -2q-8 0 -22 -3t-21 -3q-12 -1 -41 1.5t-45 0.5q-20 1 -58 -3t-60 -1q-9 1 -39.5 -1.5t-36.5 1.5q-21 4 -28.5 4.5t-29 -2.5t-30.5 -4q-108 -14 -111 -6q-5 3 -14.5 2t-24 -3.5t-16.5 -2.5q-24 -2 -76 2q-11 1 -19.5 -3t-12.5 -13t-7 -18t-3 -23v-22.5t1.5 -23 t1.5 -18.5q0 -12 -3 -31.5t-3 -23.5q-1 -8 1 -25t1 -25q0 -49 -4 -51q-2 -5 -2 -14.5t1 -21t1 -15.5q0 -9 -1 -30.5t-1 -30.5q0 -35 4 -47q3 -10 -2 -39q-2 -8 -2 -41q0 -13 -1 -37t-1 -35q0 -31 -2 -33q-4 -12 -14 -12z" />
<glyph unicode="G" horiz-adv-x="1273" d="M295 123q-15 10 -35.5 33.5t-30.5 31.5q-26 23 -47 54q-4 8 -14 24.5t-14 24.5q-20 35 -21 43q-1 5 -7 13.5t-7 14.5q-1 2 -1.5 13t-2.5 14q-4 5 -4 29q-1 8 -4 30t-3 33q0 9 -1 28.5t-1 33.5q0 19 5.5 60t5.5 61q-1 13 10 86q8 42 10 61q1 11 6 28.5t6 24.5 q1 5 6.5 24.5t6.5 24.5q2 6 4 20t5.5 24t10.5 20q0 12 10 27.5t11 19.5q3 5 7 17.5t7 17.5q3 4 8.5 10.5t7.5 11.5t8.5 19.5t12 24t12.5 16.5q9 9 23.5 33t17.5 28q25 33 31 37q7 4 13.5 11t14.5 17.5t11 14.5q7 7 22.5 17t20.5 14q46 37 123.5 47.5t134.5 -4.5 q9 -2 21.5 -3t29.5 -1.5t25 -1.5q2 0 45 -11q49 -9 88 -32q6 -4 20.5 -13t18.5 -12l14 -10.5t15 -12.5t12 -13.5t14 -18.5q8 -12 34 -44.5t40 -59.5t24 -68v-3v-5q-3 -7 -5 -7l-1.5 -1t-3.5 -3q-20 -17 -59 -28q-1 -1 -3 -2.5t-8 -3.5t-10 -1q-3 -1 -13 -4t-16 -6 q-23 -11 -28 37q-2 5 -6.5 17.5t-9 21t-9.5 14.5q-3 5 -3.5 14.5t-2.5 12.5q-7 11 -31 31q-6 5 -37.5 30.5t-37.5 30.5q-8 6 -24.5 16t-16.5 7q-47 24 -125 20q-55 -6 -68 -10q-6 -2 -28 -10.5t-31 -10.5q-4 -1 -12.5 -6.5t-17 -12t-9.5 -7.5q-28 -9 -29 -10q0 -2 -11 -12 t-24.5 -21t-15.5 -13q-30 -28 -62 -79q-4 -5 -7 -16t-7 -15q-5 -4 -16 -25q-48 -106 -62 -153q-1 -5 -6.5 -46.5t-5.5 -43.5q-10 -48 -10 -99t-2 -80q0 -49 20 -151q3 -24 19 -51q3 -5 7 -18.5t9 -18.5q-1 -5 3 -13.5t11.5 -19.5t8.5 -12q27 -39 30 -41q18 -29 31 -35 q1 -11 20.5 -22.5t20.5 -12.5q14 -17 59 -39q7 -2 22.5 -11t24.5 -11q27 -7 76 -23.5t66 -21.5q35 -10 116 10q101 21 140 76q4 6 33 47q10 14 18 37q3 8 11.5 24.5t10.5 26.5q1 3 2 14t2.5 20t4.5 13q10 74 6 184q-1 10 0 19.5t-3 17.5t-14 10q-13 2 -36.5 -0.5t-34.5 -1.5 q-17 2 -49.5 1t-47.5 1q-55 8 -71 -4q-20 4 -58 -0.5t-57 -1.5q-15 2 -22 8.5t-7 13t1.5 21t0.5 23.5q0 2 -1 14.5t-1 23t2 15.5q4 18 8.5 19.5t16.5 -5.5q8 -5 26 -6l17 -2q3 -4 29 -1t30 3q31 -3 62 0q24 2 73.5 -4.5t77.5 -3.5q15 2 59 -4.5t64 -3.5q2 0 17 3t19 3t16 -2 q3 -1 5.5 -2t4 -3t2.5 -3t1.5 -4t0.5 -4v-5.5v-5.5q2 -21 -2 -60.5t-4 -53.5q0 -17 2 -48.5t2 -46.5q2 -33 -2 -98t-2 -96q2 -25 1.5 -66.5t0.5 -66.5q4 -47 2 -68q0 -29 6 -39v-15t-2.5 -14.5t-9.5 -5.5q-1 0 -9.5 -1.5t-15 -1.5t-8.5 3q-5 4 -19 2t-32 -5.5t-19 -2.5 q-4 3 -17 1t-20 1q-7 4 -3 10.5t3 10.5q1 8 1.5 32.5t5.5 38.5q-6 0 -21.5 -13.5t-23.5 -14.5q-39 -23 -72 -35q-3 1 -13 -1.5t-22 -6.5t-14 -4q-63 -16 -68 -13q-13 -3 -41.5 -3.5t-32.5 -2.5q-5 -2 -24 4q-5 1 -19 0.5t-16 1.5q-8 5 -25 6.5t-22 2.5q-56 15 -68 20 q-67 29 -106 49q-30 18 -45 33q-23 17 -35 37z" />
<glyph unicode="H" horiz-adv-x="1294" d="M193 1307q6 11 26 4q9 -2 44.5 0t39.5 -6q3 -7 3 -18t-2.5 -30t-2.5 -22q0 -125 -2 -152q-4 -28 -4 -57q-2 -14 -2 -39q0 -18 -1 -50t-1 -48q0 -44 -4 -64q0 -2 -1 -6t-2 -6.5t-1.5 -6.5t-0.5 -6.5v-5.5t1 -4.5t3 -3t4.5 -2t6.5 -0.5q56 0 59 2q6 4 34 -1.5t34 -0.5h43 q9 1 35 -0.5t33 0.5q27 4 86 0q99 4 147 -2q38 -8 70 -4q74 -9 84 -2q5 3 22 2.5t21 1.5q8 2 13 0.5t6.5 2t0.5 18.5v43q1 17 2 55.5t2 56.5q0 25 8 97q9 167 9 223q0 3 -1 13t-1 17t1 15t6 12.5t13 3.5q28 0 35 6q2 1 6.5 -5.5t11.5 -0.5q3 -3 12.5 -2.5t14.5 -1.5 q6 -3 15 -4t8 -3t-1 -15q-4 -16 -8 -56q0 -14 1 -42t1 -44q0 -119 -14 -284q-4 -36 -5 -77t-0.5 -91.5t-0.5 -77.5q-4 -58 -2 -88q0 -6 1 -19.5t1 -24.5t-2 -18q-2 -11 -3 -44.5t3 -41.5q0 -1 -3 0q-4 0 -3 -2q5 -34 4.5 -53t-3.5 -56t-3 -56v-62v-4q-1 -5 -1.5 -9t0 -8.5 t1.5 -5.5q2 -3 1 -20.5t-4 -20.5q7 -28 2 -77q-5 -46 -24 -38q-2 1 -4 3q-8 6 -45 2q-29 -4 -37 6q-4 6 -1 10t9 4q-7 8 2 76q1 17 0 49t0 49q1 27 0 83.5t0 84.5q0 6 -1 23.5t-0.5 30.5t3.5 24q3 0 1 24l-1 23q0 3 -0.5 19t-0.5 30t1 19q2 9 -1 29t-3 24v17q-1 3 -1.5 6.5 t0 7t0.5 6t-0.5 4t-2.5 0.5q-4 -1 -23 -1t-41.5 0.5t-23.5 0.5q-11 1 -57.5 5t-71.5 3q-29 0 -43 -2q-23 0 -25 -2q-3 4 -28 4q-9 0 -24 1t-23 1q-33 0 -39 -2q-6 -3 -22 1t-23 3t-16 -2t-31.5 -2t-22.5 2q-4 1 -10 0.5t-15 -1.5t-10 -1q-11 -1 -72 4q-49 0 -59 2h-14 q-6 -2 -8.5 -27.5t-1.5 -49.5t0 -33q-3 -38 -3 -158q-6 -105 -6 -106q-1 -12 -1 -35t-1 -35q-4 -42 0 -125l4 -53q0 -4 3.5 -14t4 -15t-3.5 -10q-4 -3 -6.5 -4t-3 -1t-2.5 0.5t-4 0.5t-16 3t-26 1.5t-19 -10.5q-15 4 -17 6q-3 1 -5.5 -3t-6.5 -3q1 1 0 10t-2.5 19t-1.5 12 v47q0 14 2 42t2 44q0 35 1 104t1 103q0 11 -0.5 30.5t-0.5 34.5t1 29q0 10 -0.5 32t-0.5 40.5t1 33.5q1 17 0.5 46.5t0.5 52.5t5 45q8 66 8 100q0 6 2 42.5t2 41.5q0 9 1.5 30t1.5 31q0 2 1.5 16t0.5 17q-3 4 -2.5 7.5t2.5 9.5t2 8q1 10 -1.5 29t-2.5 26q4 75 2 113 q-4 28 0 88q0 4 -2.5 12.5t-2.5 12.5t3 10z" />
<glyph unicode="I" horiz-adv-x="491" d="M197 0q-13 13 -16.5 31.5t-2 47.5t1.5 38q-1 29 -1.5 83t-1.5 98t-3 83q-2 50 1 142.5t3 121.5q0 12 2.5 70t-0.5 69q-4 77 2 115v64q-1 7 0.5 32.5t-2.5 30.5q-2 7 -2 16.5t1 20.5t1 16v66q1 3 -1 20t-1 19q6 48 6 53q0 3 1.5 15t1.5 22t-3 14q-5 9 -1.5 19.5t12.5 11.5 q61 10 90 2q3 -1 8 1.5t14 2.5q12 0 12 -20q-1 -10 -4 -40.5t-3.5 -45t1.5 -41.5q1 -11 -0.5 -41.5t-1.5 -34.5q0 -7 1 -25.5t1 -25.5q-2 -19 -2.5 -49.5t-1.5 -40.5q-1 -22 -1 -47t0.5 -55.5t0.5 -45.5q0 -13 -4 -43.5t-2 -48.5q2 -21 -3 -65t-3 -66q4 -15 2.5 -69.5 t-0.5 -69.5q0 -204 2 -246q2 -47 -2 -146v-7v-8v-9.5t-0.5 -9.5t-1.5 -8.5t-2.5 -7.5t-3.5 -5.5t-5 -2.5t-7 1q-8 2 -42.5 -5t-39.5 3z" />
<glyph unicode="J" horiz-adv-x="993" d="M33 356l28 -2v0q5 0 6 3q1 2 7 1q5 -3 10 2q3 2 10.5 4t11.5 5q20 11 25.5 1.5t5.5 -32.5q6 -44 19 -80q9 -26 14 -35q4 -8 13.5 -23.5t13.5 -23.5q4 -9 21 -21t30 -18q24 -12 39 -14q3 -1 9.5 -2t8.5 -2q14 -9 51 -17q3 -1 17 0.5t16 -0.5q11 -4 14 -2.5t15 5.5t28 4 q11 0 18.5 2.5t19.5 9.5t24 12q22 7 35 10q1 0 4 3.5t8.5 8t9.5 7.5q1 1 11 6.5t19 11t16.5 12t6.5 9.5q-2 7 5 14t19 16t17 17q7 9 19.5 61.5t13.5 55.5l6 22l4 33v84q-3 56 0 112q0 7 -1.5 15.5t-0.5 13.5q4 21 0 31q0 6 2.5 22t2.5 23q0 6 1.5 27.5t0.5 31.5 q-4 27 -5.5 63.5t-1 66.5t-0.5 65q-4 70 -4 102q0 5 1.5 21.5t0.5 25.5q-2 14 -2 39v58q5 13 0 24q11 78 0 82q-8 2 6 16q6 7 11 7q0 -2 16.5 -1t18.5 1h45q5 3 11 3.5t13.5 -0.5t9.5 -1q7 -4 4 -18.5t-8.5 -36t-3.5 -25.5q3 -9 -1 -31.5t-3 -28.5q2 -11 2 -67 q0 -16 1 -49.5t1 -46.5q2 -10 -1 -95t-1 -90q5 -9 1.5 -43.5t-1.5 -40.5q-2 -6 1 -27t1 -26q-6 -12 -6 -39q0 -5 -1.5 -14.5t-1.5 -17.5t3 -13q3 -6 0.5 -21.5t-0.5 -21.5q3 -21 3 -30t-3 -29t-4 -29q0 -35 2 -51q2 -10 2 -41q0 -6 1.5 -18t2 -18t0 -14t-3.5 -14 q-16 -28 -16 -63q0 -12 -3.5 -25.5t-10.5 -30.5t-9 -24q-31 -96 -67 -119q-2 -1 -7 -8.5t-12 -13.5q-3 -3 -9.5 -8t-8.5 -7q-4 -4 -12 -14t-15.5 -16t-17.5 -9t-45.5 -18.5t-59.5 -15.5q-4 0 -40.5 -6.5t-41.5 -6.5q-4 0 -13.5 2t-14.5 2.5t-11 -2.5q-7 -2 -26 4 q-15 5 -39 5l-39 4q-2 3 -45 10q-48 4 -88 35q-46 33 -64 61q-12 21 -43 80q-24 46 -30 102q0 20 -9 35q6 18 0 27q2 6 9 11t8 9z" />
<glyph unicode="K" horiz-adv-x="1267" d="M776 1036q4 6 24.5 23.5t24.5 23.5t37 39q8 9 24.5 28t24.5 28q40 46 70 90q2 3 14 16.5t13 15.5q2 4 3 8l1.5 6t3 4.5t6.5 4.5q1 0 2 2t2 4.5t4 4.5t6 3q6 2 15 -4q8 -2 18.5 -1t30 4t28.5 3t25 4.5t18 4.5q4 0 13 0.5t14.5 0.5t11.5 -0.5t8.5 -3.5t0.5 -8q-2 -3 -4 -5 t-6 -7t-9 -10q-3 -6 -18 -21q-1 -1 -10 -11t-16.5 -18t-8.5 -8q-26 -18 -90 -98q-8 -9 -21.5 -22.5t-21.5 -22.5q-8 -5 -22.5 -26.5t-22.5 -26.5q-3 -3 -11 -12t-14 -11q-1 -2 -11 -16t-15 -18q-5 -6 -20 -18t-21 -21q-37 -47 -52 -58q-17 -13 -26 -26q-12 -17 -39.5 -45.5 t-38.5 -42.5q-11 -11 -11 -13t7 -16q5 -15 19 -30q2 -2 3 -1q0 -13 16.5 -33t18.5 -28q23 -23 25 -39q12 -20 41 -60t41 -63q21 -36 61 -86q14 -18 38 -52.5t32 -45.5q5 -7 14 -22.5t14 -22.5l6 -9q7 -8 13 -15t8 -7q-1 -4 11 -21.5t18 -23.5q1 -2 12.5 -21t19.5 -26 q2 -7 66 -92q32 -38 33 -39q7 -5 8.5 -8.5t0 -10t-0.5 -12.5q-1 0 -3.5 3.5t-4 4t-4.5 -3.5q1 3 -3.5 5t-9 2.5t-6.5 0.5q-9 1 -26 -1.5t-23 -2.5q-7 0 -23 -4.5t-20 -5.5q-29 0 -41 -8q-1 4 -4 6t-8 3.5t-8 2.5q3 10 -2 18q-2 2 -5.5 6.5t-7.5 8t-8 6.5q-11 23 -40 62 t-36 51q-14 25 -59 86q-40 57 -47 69q-4 5 -14 17t-17.5 22t-11.5 18q-9 18 -34.5 53t-29.5 42q-2 4 -21 27.5t-20 35.5v-4q-7 7 -54 80t-48 74q-4 5 -15 -7t-23 -27.5t-17 -17.5q-13 -4 -39 -43q-9 -12 -20 -14.5t-17 -15.5q-2 -1 -5 -4t-9 -6q-16 -8 -27 -19 q-6 -6 -19 -13.5t-16 -13.5q-5 -12 -28.5 -30.5t-30.5 -28.5q-12 -20 -14.5 -40t-2.5 -71q0 -81 -2 -96q-1 -4 2 -17t2 -20q-2 -17 2 -49q0 -4 -2 -18.5t-2.5 -24t2.5 -18.5q3 -3 1.5 -22.5t-5.5 -26.5q2 -4 -0.5 -16.5t0.5 -16.5q-3 -4 -33 -11.5t-32 -5.5l-27 9 q-22 -12 -30.5 2t-8.5 37q-2 63 2 161q1 7 -2 26.5t-2 27.5q0 12 1 33.5t1 35.5l-1 49q-1 48 1 50q4 218 2 327q0 7 1.5 26t1 34t-4.5 26q-6 15 2 76q8 74 4 111q-2 9 -2 21t1 27t1 21q0 44 -4 62q-1 11 4 48.5t2 47.5q-2 9 -2 59q0 6 -1.5 19t-0.5 20q1 14 23.5 15 t41.5 -3.5t23 1.5q5 0 7 -2.5t12 -0.5q8 0 20 7q7 1 9 -4.5t2 -12.5q-2 -12 -3.5 -41t-1.5 -35v-131q0 -5 -3.5 -27.5t-2.5 -33.5v-47q-6 -17 -6.5 -37t3 -49t3.5 -37q0 -11 -2 -36t-2 -45t4 -34q2 -15 1.5 -44.5t0.5 -47.5q0 -17 -1 -53.5t-1 -50.5q2 3 51 48.5t100.5 93.5 t57.5 54q15 17 47.5 44.5t46.5 45.5q8 8 30 26.5t30 29.5q3 3 13 15t13 15t14.5 13.5t14.5 13.5q15 11 47 53z" />
<glyph unicode="L" horiz-adv-x="1073" d="M573 119q13 -3 36 -3t28 -1q45 -9 61 -9q99 4 148 -4q2 -4 44 -2l42 2q5 -1 15.5 0t13.5 0q20 -7 43 0q0 3 12 1.5t16 -1.5q10 0 14.5 -13.5t6 -33t2.5 -22.5q3 -7 -3 -19t-14 -8q-3 2 -22 2q-5 0 -29 4q-7 3 -31.5 0.5t-29.5 -2.5q-8 0 -23 -1.5t-25 -1t-18 4.5 q-11 3 -44.5 0.5t-43.5 -2.5q-11 0 -31 -1t-34 -1q-9 0 -33 3t-37 1q-12 -3 -33.5 -0.5t-32.5 0.5q-30 -6 -57 -6q-4 4 -37 4q-8 0 -30.5 3t-36.5 1q-11 -2 -28.5 -3t-27.5 -3q-4 -3 -29 -0.5t-30 2.5q-8 0 -29.5 -3t-34.5 -1q-8 1 -19.5 -1.5t-14.5 -2.5h-15 q-3 -4 -8.5 -1.5t-5.5 5.5q-2 3 3 17.5t5 17.5v55q0 17 -1 53.5t-1 55.5v135q3 3 0.5 47t-2.5 45q0 12 1 37t1 39q0 107 8 156q4 8 1 73t-3 72q0 27 3 83t3 83q0 8 4 61t3 80q0 10 1 41t0.5 51.5t-4.5 38.5q-4 30 0 56q0 28 -4 32q-4 6 9 9.5t20 1.5q7 -5 29.5 -1t27.5 3 q4 -1 17 3.5t20 2t6 -18.5q-1 -13 -1 -39t-1 -39q-11 -91 -8 -159q3 -91 -2 -158q-1 -10 -1.5 -39.5t-2.5 -44.5q0 -10 -2.5 -35.5t-1.5 -40.5q3 -63 0 -129q0 -11 1 -34.5t1 -36.5q0 -21 -4 -45q-1 -6 0.5 -29t1.5 -27v-45q1 -20 -1.5 -65t-2.5 -58q0 -117 4 -166 q0 -4 1 -6.5t2 -4t3.5 -2.5t5 -1.5t7.5 -0.5t9.5 0.5t12.5 0.5h16q14 0 38 -2.5t32 -3.5q17 -1 47.5 0t55.5 0t48 -6z" />
<glyph unicode="M" horiz-adv-x="1544" d="M1376 1333q2 -8 -1 -23t-3 -22q0 -9 -1 -28.5t-1 -28.5q-5 -86 -4 -101q0 -10 1 -31t1 -38.5t-2 -32.5t-2.5 -50.5t-1.5 -45.5q-1 -14 -4 -57t-6 -66q-1 -19 -5 -78t-4 -84q1 -9 -2.5 -34.5t-1.5 -37.5q1 -7 -2 -20t-2 -20v-25q0 -3 0.5 -8t0.5 -8.5t-1 -6.5q-3 -7 0 -18 q7 -24 -2 -55q-4 -7 -2.5 -43.5t0.5 -46.5q-2 -39 1 -110.5t3 -94.5q-1 -18 1 -54t1 -55q-3 -27 -26 -24q-8 1 -28.5 -2.5t-31 1.5t-10.5 25q2 12 1.5 43.5t2.5 44.5q2 10 0.5 31t-0.5 31q1 19 1 41.5t-0.5 50t-0.5 41.5q1 10 2.5 29t2.5 34t1 29q0 7 2 20t2 21q0 5 -2 15 t-2 16q7 54 6 153.5t3 153.5q1 14 1 29.5t-0.5 35.5t-0.5 31t2.5 37t1.5 41q0 13 1 39.5t1 40.5q-1 18 4 96q-18 -18 -27 -65q-6 -9 -16.5 -37t-14.5 -35q-5 -10 -15 -36.5t-17 -37.5q-2 -5 -6 -16.5t-9 -20.5t-14.5 -28l-13.5 -27q-7 -13 -22 -46t-25 -50q-14 -19 -23 -45 q-5 -12 -25 -45q-1 -1 -14 -41q-7 -24 -27 -49q-5 -7 -13.5 -35t-12.5 -37q-31 -72 -35 -86q-5 -16 -18.5 -43.5t-18.5 -42.5q-4 -9 -18 -34t-19 -30q-4 -7 -9.5 -17.5t-8.5 -16t-6.5 -13.5t-5.5 -16q-9 -27 -23 -55q-3 -6 -16.5 -51t-18.5 -58q-1 -1 -9 0.5t-17 2.5t-17 -1 q-34 -8 -41 25q-2 7 -2 11t-0.5 7.5t-3.5 11.5q-8 19 -10 31q-4 23 -22 65.5t-23 63.5q-6 24 -24 64.5t-23 56.5q-4 13 -14.5 36t-14.5 36q-11 39 -18 55q-2 5 -7.5 21.5t-7.5 21.5q-5 10 -10.5 28t-7.5 23q-5 12 -13 41.5t-16 44.5q-7 14 -31 88q-4 15 -16 45t-16 47 q-9 28 -33 88t-33 91q-6 24 -33.5 85.5t-31.5 96.5q-4 -6 -1.5 -54.5t1.5 -50.5q-3 -14 -4.5 -45.5t-4.5 -44.5q-2 -14 1 -42t1 -44q-1 -9 3 -22.5t4 -20.5q-1 -5 0 -18t0 -17q-2 -14 -2 -63q0 -9 -1 -37.5t-1 -38.5q-1 -3 1 -21.5t1 -27.5q-5 -30 -5 -39q0 -20 3 -60.5 t4 -50.5t-0.5 -31.5t0.5 -31.5q3 -21 1 -65t1 -68q2 -15 -1.5 -44t-2.5 -42q0 -1 1.5 -12.5t1 -19.5t-4.5 -11q-2 -10 -0.5 -40t0.5 -42q0 -44 -3 -53q-6 -24 -22 -15q-7 2 -8.5 2.5t-7.5 -1.5t-11 -3q-3 -6 -11.5 -3t-12.5 1q-5 -2 -15 1t-12 3q-8 0 -9.5 17t1.5 43l2 26 q0 9 -1.5 26t-0.5 30q0 6 1.5 25.5t0.5 31.5q-3 28 2 119q6 117 2 252q0 153 4 227q1 11 -1 34t-1 36q0 7 1.5 31t0.5 38q-2 18 2 68.5t-2 68.5q-3 17 -0.5 58t0.5 59q-1 14 1.5 36t2.5 32q-3 45 0 84q2 11 18.5 11.5t28.5 -9.5q4 -4 33.5 -4.5t32.5 2.5q29 4 29 -15 q1 -3 8.5 -23.5t9.5 -29.5q3 -7 7 -19.5t7 -19.5q3 -6 11 -36.5t14 -34.5q4 -3 7.5 -18.5t6.5 -18.5q6 -8 10.5 -25.5t6.5 -21.5t7.5 -23.5t10.5 -28.5q2 -3 10 -32l5 -12q13 -40 18 -46q2 -5 8.5 -27t11.5 -32q23 -57 39 -117q3 -10 10.5 -28.5t10.5 -28.5q2 -8 14 -32 t14 -32q1 -3 8 -20t14 -32.5t7 -16.5q17 -37 23 -66q1 -9 7 -20.5t7 -16.5q8 -31 20 -43q4 -4 10.5 -23.5t13 -41.5t7.5 -25t27 -49.5t28 -54.5q2 -2 9 8.5t15.5 26.5t16.5 32.5t15 30.5l8 16q3 6 13 26.5t16 33.5q1 3 8.5 23t13.5 28q12 14 25 45q5 16 21 43t22 41 q17 40 32 68q7 14 18.5 42.5t18.5 43.5q7 13 17 39.5t20 42.5q27 50 51 108q6 18 39 86q8 21 25 51q4 7 13 34t16 36q12 17 34 68q26 58 50 92q21 30 30 30q0 -2 9 0.5t21.5 5t18.5 1.5q10 -2 17 0t12 -1t8 -14z" />
<glyph unicode="N" horiz-adv-x="1433" d="M266 27q2 -25 -12.5 -31.5t-36.5 -3t-27 1.5q-4 -7 -20 14q0 1 1 11.5t-5 19.5q-3 10 -3 17t2.5 20t2.5 18q1 13 1 37t1 37q1 16 -1.5 45t-2.5 41q1 10 4.5 39t3.5 45q0 13 -1.5 52t-0.5 61q2 25 2 75q0 6 2 41.5t2 40.5q4 158 4 168q-4 92 2 137q8 53 4 199q0 14 3 49.5 t2 55.5q-2 22 2 40q1 7 -2.5 29.5t0.5 30.5q0 2 4 22q0 5 7 10q5 3 7 -3q6 3 26.5 4t34.5 -2q22 -4 41 0q5 -6 10.5 -19.5t10.5 -19.5q15 -18 38.5 -57t30.5 -50q15 -22 63.5 -96.5t76.5 -114.5q11 -15 54.5 -79.5t70.5 -96.5q12 -14 37 -43.5t36 -44.5q4 -7 21.5 -26 t25.5 -25q9 -8 22 -27.5t19 -27.5q2 -3 15.5 -14.5t15.5 -18.5q2 -5 10.5 -15.5t12.5 -13.5q25 -25 37 -47q8 -4 34 -43q14 -14 29 -39q2 -3 13.5 -16.5t15.5 -22.5q3 -8 17.5 -19.5t17.5 -15.5q16 -20 20 -28q1 -9 29 -43q20 -20 37 -47q1 -2 7 -11t11.5 -15.5t9.5 -8.5 q5 5 5 13t-2 18t-1 16q1 2 -2.5 38t0.5 40q2 5 1.5 11t-2 15.5t-1.5 12.5v43q0 50 -4 77q-3 15 0 47.5t0 47.5q-9 58 -6 88q1 9 1 36.5t-1 34.5v78q1 43 1 130t1 130q1 12 -1 35t-1 33q4 58 4 86v61q-1 4 4 21t8 22q2 4 0.5 9t0.5 8.5t10 3.5q1 0 9.5 0.5t15.5 0.5t17.5 -1 t18.5 -3t15.5 -5.5t11 -10t2.5 -14.5q-2 -10 -1.5 -47t0.5 -78.5t-3 -42.5q-2 -7 -1.5 -47t-0.5 -47q-6 -9 -4.5 -59.5t1.5 -59.5q0 -18 -3.5 -58.5t-2.5 -72.5q1 -16 -2 -50t-2 -52q1 -10 1 -21t-0.5 -33t-0.5 -43v-67q-1 -16 3 -55.5t1 -59.5q-3 -28 -3 -39.5t3 -38.5 t4 -41q0 -10 -1.5 -31t-1 -36.5t4.5 -30.5q5 -8 4 -62t-1 -63q2 -16 2 -45q0 -3 -2.5 -15.5t0.5 -13.5q4 -4 -9 -18q-4 -2 -11.5 -1t-12.5 -1q-7 -4 -31.5 -2.5t-28.5 8.5q0 4 -24 33q-27 36 -51 76q-32 42 -37 53q-4 8 -8.5 15.5t-12 16t-10.5 12t-15 15t-14 13.5 q-4 6 -15 23t-19 26q-1 1 -32.5 35.5t-37.5 48.5q-10 23 -46 60.5t-46 51.5q-3 4 -17.5 22t-21.5 29q-7 12 -23 31t-22 29q-20 38 -64 82q-5 5 -21 28t-29.5 43.5t-14.5 20.5q1 0 -11.5 18t-28 38t-20.5 24q-36 36 -71 108q-2 5 -23.5 29.5t-23.5 32.5q-4 15 -20.5 34.5 t-22.5 30.5q-10 19 -41 64q-2 3 -12 13t-17 19t-8 15q-6 -2 -6 -43v-84q2 -29 0 -63t-6 -78t-5 -66q-6 -61 -5.5 -159.5t-0.5 -161.5q-1 -19 2 -91.5t-2 -91.5q-2 -6 -1.5 -24.5t3.5 -24.5q0 -7 2.5 -43t-0.5 -43q-1 -12 -0.5 -43t-1.5 -43q-5 -79 0 -106z" />
<glyph unicode="O" horiz-adv-x="1290" d="M1196 643q3 -13 3 -45t-3 -51q-12 -72 -14 -80q-2 -11 -13 -51q-1 -2 -3.5 -28t-4.5 -32t-10.5 -19.5t-9.5 -19.5q-3 -23 -37 -61q-31 -34 -51 -68q-8 -15 -30.5 -33.5t-29.5 -27.5q-10 0 -39 -29q-6 -9 -17.5 -17t-19.5 -12.5t-23 -11.5t-17 -8q-44 -22 -50 -24 q-7 -1 -23 -11t-22 -8q-4 2 -28 -12q-2 -1 -11 -2t-10 -2q-1 0 -5 -1t-6.5 -1.5t-4.5 0.5l-7 -4q-6 -4 -14 -4q-2 -1 -13.5 -4t-22.5 -5.5t-15 -3.5q-3 -1 -21.5 -0.5t-23.5 -1.5q-16 -7 -40.5 4.5t-31.5 12.5q-5 3 -30 6q-8 1 -20.5 10t-24.5 10q-4 0 -18.5 10.5 t-18.5 12.5q-2 1 -17 9.5t-18 8.5q-4 0 -7.5 1t-6 2t-6.5 4l-6 4.5t-7 6.5t-8 7q-7 6 -31 19t-28 22q-8 17 -45 43q-15 11 -27 43q-3 6 -14 21.5t-15 23.5q-4 7 -7 24t-7 25q-1 2 -6.5 11.5t-10.5 18t-4 9.5q-5 9 -10 22t-8 17q-3 5 -27 100q-11 48 -8 117q1 24 2.5 69 t3.5 82t6 68q17 126 115 276q30 49 62 78q4 3 27 28.5t30 29.5q6 4 32.5 23t35.5 24q5 2 36.5 18t34.5 19q18 14 66 28q5 0 35 10q32 9 63 14.5t53.5 6t39 0t29 -2t13.5 -1.5q7 0 47 -8q2 0 8.5 -3t14.5 -6t10 -4q7 -3 23.5 -9.5t19.5 -8.5q10 -3 51 -23q11 -4 29 -22 q6 -6 19.5 -16.5t19.5 -16.5q24 -32 31 -39q5 -5 28 -51q3 -7 11 -19.5t10 -15.5q7 -11 16 -37q4 -9 12 -22.5t9 -16.5q4 -9 12 -34.5t14 -34.5q2 -2 8 -47q11 -36 15 -62q1 -14 2 -32.5t2 -32.5q6 -42 6 -43v-54q1 -8 1 -30.5t1 -28.5zM1090 563q0 15 5 55t5 46 q1 17 -2.5 42t0.5 33q1 7 -2.5 37t-3.5 33q-4 56 -15 76q-12 45 -28 90q-23 60 -95 182q7 0 -27 34q-5 6 -7 7q-3 2 -17 15.5t-20 13.5q0 -1 -11.5 3.5t-23.5 9.5l-12 5q-8 1 -35 8.5t-43 6.5h-23h-22q-10 2 -17.5 0.5t-13.5 -0.5h-14q-5 -1 -60 -7q-15 0 -39 -8 q-6 -1 -23 -8t-22 -8q-9 -2 -20 -7.5t-24.5 -14t-20.5 -11.5q-17 -7 -31.5 -19t-33 -30.5t-27.5 -26.5q-21 -17 -51.5 -59.5t-34.5 -46.5q-4 -8 -9 -13q-2 -4 -4.5 -7.5t-5.5 -7t-4 -5.5q0 -2 -7 -17t-7 -22q-1 -5 -8 -17.5t-9 -19.5q0 -1 -2 -18t-4 -25q-23 -55 -26 -102 q-11 -88 -11 -109q0 -39 11 -127q0 -15 3.5 -29.5t9.5 -31t9 -29.5q6 -23 16 -45t27.5 -53t22.5 -41q8 -16 28 -51q4 -1 9.5 -9.5t5.5 -11.5q8 -6 21.5 -21.5t21.5 -21.5q12 -6 32 -26q13 -13 82 -33q28 -14 35 -17q17 -8 31 -12q5 -2 14 -2t17 -4t23 -5.5t22 -6.5 q26 -7 45 -2q52 12 67 26q6 5 29.5 12t30.5 13q4 3 12 7t13.5 6t6.5 3q35 17 41 25q5 5 18 12t17 12q4 3 7 6t7 7.5t7 7.5q6 6 14 16.5t14 16.5q39 42 72 102q26 53 33 96q3 13 16.5 55t14.5 68z" />
<glyph unicode="P" horiz-adv-x="1165" d="M358 547q-6 1 -31 -4t-28 2q-5 -5 -5 -23.5t2 -40t1 -26.5q-6 -43 0 -86q3 -44 -6 -164q-2 -28 0.5 -77.5t1.5 -70.5q0 -3 1 -10.5t1.5 -14t0 -13t-3.5 -10.5t-9 -5q-2 0 -18 -2.5t-21 -1.5q-10 2 -19 2q-7 2 -17 0t-16 -4t-11.5 3t-6.5 19q-4 20 -2.5 95.5t0.5 97.5 q-2 21 0.5 49.5t1.5 36.5q-2 12 1 37.5t1 34.5q-7 17 -2 80.5t4 80.5q-2 42 2 129.5t2 129.5q-1 15 1.5 42t2.5 39q-1 15 -2 45t-2 44q0 21 1 45t2.5 53.5t2.5 46.5q2 3 1 48t-1 46q4 101 -4 139q0 -4 7 -1.5t16 1.5q1 0 6.5 1t13.5 1q13 0 13 -4q4 -1 17 0t17 0 q20 -3 52 -2.5t55 -3.5q8 -1 37.5 0.5t40.5 3.5q7 0 28 -2.5t35 -1.5q21 2 78 -4h47q10 0 23.5 -2t24.5 -2t24 4q9 0 29.5 1.5t31.5 2t26.5 0t27.5 -3.5q9 -1 25.5 2.5t23.5 3.5q6 0 13.5 -5t12.5 -5q2 0 4.5 -2t4.5 -2q28 0 71 -27q17 -11 43 -41q3 -3 6 -13t6 -11 q19 -8 31 -51q2 -7 10.5 -23.5t8.5 -26.5q2 -6 6.5 -25.5t3.5 -19.5q0 -4 5.5 -28t7.5 -38t-1 -28l4 -59q-1 -12 -2 -38.5t-4 -48.5t-10 -50q-14 -42 -14 -46q0 -7 -8.5 -18t-10.5 -16q-2 -8 -9 -17.5t-9 -13.5q-13 -21 -27.5 -37t-25.5 -24.5t-37 -28.5q-12 -9 -36.5 -18 t-39.5 -9q-6 0 -24.5 -5.5t-18.5 -10.5q-3 1 -5.5 3t-3.5 1.5t-4 -6.5q-4 4 -4 6q0 -4 -6 -6t-16 -2.5t-14 -1.5q-30 -9 -43 -2q-8 3 -24 4t-24 -2q-6 -1 -15 0t-15 0q-16 -2 -36.5 3t-31.5 5q-3 -1 -35 4q-14 -6 -30 -2q-5 1 -12 0.5t-17.5 -1.5t-13.5 -1q-14 0 -41 4 t-39 4q-18 0 -56 -10zM303 739q0 -6 1 -18t1 -21.5t-2 -17.5h39q7 -2 44 5t38 -1q3 -3 20.5 0.5t20.5 -2.5q1 -1 13.5 -0.5t24.5 1t19 -0.5q4 -2 22 -1.5t23 -2.5q3 -3 18 -4t27.5 -1t12.5 -1q5 3 20 3.5t33.5 -0.5t35.5 -2.5t30 -2.5l12 -2q6 0 10 1.5t5.5 1.5t6.5 -5 q2 -2 7 0t11.5 5t8.5 3h22q20 -8 64 29q21 21 27 24q6 0 12 7t12 19t8 15q6 8 13 24t10 21t3.5 20t2.5 19q3 15 8 86q1 3 0.5 22.5t1.5 24.5q4 15 -4 68q-1 8 -7 24.5t-13.5 33t-8.5 20.5q-6 20 -26 30q-11 8 -19 19q-8 0 -24 8q-23 13 -61.5 14.5t-65.5 -2.5 q-3 0 -20.5 -0.5t-26.5 0t-22 2.5t-21 6q-13 6 -39 2q-8 -2 -47 -2q-4 0 -16.5 -1.5t-18.5 -2t-15.5 0.5t-17.5 5q-7 2 -13.5 1.5t-16 -2t-11.5 -1.5q-11 -1 -42 2t-40 -2q-11 -3 -26 -0.5t-28.5 1t-14.5 -10.5q0 -41 -2 -61q0 -5 -3 -18t-2 -21q3 -16 -1.5 -52t-2.5 -53 l-4 -75v-56q-2 -10 -1.5 -28t-0.5 -29q0 -3 0.5 -35t-4.5 -33z" />
<glyph unicode="Q" horiz-adv-x="1263" d="M1137 430q-6 -46 -29 -84q-1 -2 -4 -11t-7.5 -17.5t-9.5 -14.5q-57 -85 -34 -102q1 -1 30 -37q6 -8 18 -22t19 -23q2 -3 12.5 -16.5t15.5 -24t1 -17.5q-3 -5 -14 -10q-4 -3 -11.5 -11t-11.5 -11q-6 -4 -16.5 -19.5t-20.5 -25.5t-18 -7q-10 3 -20.5 22t-20.5 21 q-4 4 -12 17.5t-13 19.5q-2 2 -11.5 12.5t-16 19t-7.5 13.5q-3 -1 -16.5 -13.5t-27 -23.5t-17.5 -8q-1 1 -9.5 -2t-18.5 -7t-13 -5q-7 -3 -16.5 -11.5t-16.5 -11.5q-4 -1 -43 -14q-3 -1 -33.5 -7t-33.5 -7q-12 -3 -72 -10.5t-70 -6.5q-29 5 -39 11q-4 1 -15.5 1.5t-18.5 2.5 q-3 1 -19.5 7t-30.5 11t-14 4q-14 12 -65 29q-31 10 -66 45q-4 3 -17 18.5t-18 18.5q-18 11 -39 41q-3 4 -9 19.5t-9 19.5q-21 28 -33 55q-4 15 -24 61q-4 11 -13.5 42.5t-9.5 39.5q-1 9 -5 42t-5 42q0 3 -7 37t-6 51q0 75 5 119q1 3 4.5 46t5.5 50q3 11 8 37t10 39 q5 15 12.5 45t12.5 45q25 79 76 141t127 126q4 3 17.5 16t24 22t19.5 13q4 2 13.5 8.5t19.5 14t12 8.5q6 3 32.5 11t33.5 13q15 1 40 10.5t31 10.5q30 8 66 4q8 6 28 5.5t31 -3.5q84 -4 115 -15l4 -1q23 -6 23 -1q2 -1 2.5 -6.5t3.5 -5.5q2 2 2 6q32 -25 43 -31 q7 -1 17.5 -13.5t12.5 -14.5q37 -30 80 -109q5 -7 33 -59t27 -53q2 1 4 -3.5t4.5 -12.5t5.5 -18t6 -22.5t5.5 -24.5t5 -23.5t4.5 -21t3.5 -17t2.5 -9.5q11 -57 16.5 -87t11.5 -77t5 -87.5t-7 -80.5q-8 -55 -14 -86q-1 -9 -7 -25.5t-7 -25.5zM1042 612q16 53 7 93q-1 1 -1 8 t1 8q3 22 0.5 36t-11 42.5t-10.5 36.5q-21 103 -61 196q-37 97 -142 182q-7 6 -38 14.5t-35 10.5t-25 5t-27 5q-10 2 -28 -1l-17 -3q-81 -5 -184 -84q-14 -10 -26.5 -22t-28 -27.5t-25.5 -24.5q-11 -10 -18.5 -19.5t-18 -25t-14.5 -20.5q-8 -12 -43 -78q-29 -52 -37 -88 q-3 -15 -18 -59q-3 -16 -7.5 -52t-5.5 -43q-2 -19 -1.5 -57t-0.5 -57q0 -9 11 -72q7 -67 34 -149q2 -8 15 -33t14 -29q22 -33 29 -47q18 -30 41 -43q5 -3 18 -16.5t19 -20.5q3 -4 40 -25.5t41 -25.5q3 -3 11.5 -4.5t18.5 -2t13 -1.5q8 -2 23 -2.5t20 -1.5q55 -6 56 -6 q4 0 35.5 5t44.5 5q6 0 35.5 11.5t35.5 16.5q10 8 32.5 20t33.5 23q1 1 31 25q8 6 31 38.5t26 41.5q4 9 24 39.5t23 50.5q3 10 10.5 30.5t10.5 30.5q8 29 19 83.5t19 82.5z" />
<glyph unicode="R" horiz-adv-x="1181" d="M1083 1194q2 -3 7 -13t6.5 -12.5t4.5 -11t4 -13.5t2.5 -15t2 -21t0.5 -25q-2 -88 2 -90q2 0 0 -11.5t-4 -21.5t-5 -22t-3 -14q-3 -24 -13 -47q-4 -16 -23 -56.5t-30 -48.5q-16 -11 -37 -35q-6 -8 -25 -21.5t-24 -21.5q-4 -9 -17.5 -14t-34.5 -8.5t-22 -3.5q-8 -2 -32 -3 t-29 -3q-9 -3 -28 -3.5t-25 -3.5q-13 -8 -31 -8q4 -23 12 -33q3 -6 8 -16.5t7 -15.5q7 -12 21.5 -41.5t23.5 -44.5q9 -13 30 -64q2 -4 13.5 -23.5t17.5 -31.5q3 -9 23 -39q11 -17 29.5 -52.5t21.5 -41.5q4 -6 21.5 -38t21.5 -38q3 -5 16 -28t17 -29q7 -7 20 -41 q2 -4 9.5 -16t7.5 -15l10 -10q27 -23 14 -39q-6 -6 -33 -6q-30 -4 -47 0q-21 6 -57 6q-13 2 -33 12q-28 75 -41 88q-1 10 -12 25.5t-14 23.5q-16 51 -45 94q-19 27 -31 58q-4 12 -10 24q-20 26 -33 58q-6 12 -25 41.5t-26 46.5q-2 8 -12 25l-9 16q-2 3 -9 20.5t-9 20.5 q-10 14 -45 73q-15 -1 -39.5 4t-34.5 5q-13 0 -35.5 -4.5t-38.5 -4.5q-4 0 -16.5 -2t-16.5 -2q-3 0 -11.5 1.5t-10.5 0.5q-4 -1 -16 1t-19 1q-5 -1 -14 1t-15 1q-11 0 -32 7q3 -12 -4 -72v-70q0 -10 1 -29.5t1 -29.5q0 -24 4 -74q4 -45 2 -67q0 -7 3.5 -50.5t-1.5 -54.5 q-4 -43 -2 -57q3 -1 1.5 -33t-1.5 -33t1 -6q6 -51 -3 -52l-2 1q-7 5 -50 9t-47 -3q-4 -5 -10 19l-8 36q-2 5 -0.5 28t0.5 30q2 10 2 21.5t-1 24.5t-1 19q4 38 2 56q-4 31 0 92q2 18 -1.5 56t-0.5 60q8 55 5.5 152.5t0.5 153.5q4 84 -4 252q-2 0 -1 46l1 46q-4 46 -2 69 q0 8 3 68t-1 70q0 3 -0.5 7.5t-0.5 7.5v7t1.5 6.5t3 4t5.5 0.5t9 -3q5 -3 10.5 -3.5t9.5 0t10.5 2t8.5 1.5q21 2 59.5 -0.5t55.5 -1.5q21 2 77 3.5t85 4.5h61q5 0 19.5 2t23 2.5t17.5 -2.5q8 -2 25 1.5t24 0.5q12 -4 29 -5t38 -0.5t31 -0.5q2 0 29.5 2.5t27.5 -0.5 q7 -3 25.5 -3t22.5 -1h26q5 0 17 -3t16 -3q11 0 22 -4.5t23.5 -12t17.5 -9.5q5 -3 8 -5t7 -7t8 -9q28 -24 39 -49q17 -34 22 -39zM1004 989q1 15 0 23.5t-2 16t-1 9.5q0 23 -6 29q0 2 -12 31q-2 7 -12.5 16.5t-12.5 13.5q-3 5 -10.5 14t-11.5 15q-27 32 -45 43 q-25 25 -76 21q-35 0 -45 2q-27 6 -84 6q-4 0 -29 -2t-26 -2q-11 -2 -40.5 -1.5t-37.5 -0.5q-6 0 -45 3.5t-43 -1.5q-24 -4 -76 -8q-5 -1 -17 -3t-22 -3t-16 -1q-7 0 -15.5 -2.5t-17.5 -1.5q-8 1 -12.5 0t-5.5 -4.5t-1.5 -6.5t0.5 -8t1 -7q1 -8 -0.5 -30.5t0.5 -31.5 q4 -12 2.5 -55t-0.5 -55q7 -52 4 -95t2 -79q-3 -7 -3.5 -22t-2.5 -21q-4 -21 -4 -23q4 -4 49 -4q43 -6 51 0q0 -3 76.5 -5.5t101.5 -2.5q17 -1 44.5 1.5t39.5 2.5q45 8 62 2q9 -1 26.5 -0.5t42 1.5t27.5 1q25 5 28 8q4 5 18.5 7t18.5 7q2 2 23 12.5t22 10.5q3 2 18 15t19 16 q16 14 31 57q1 3 5 13.5t7.5 19.5t5.5 10t4 24.5t3 24.5z" />
<glyph unicode="S" horiz-adv-x="1085" d="M154 193q-5 9 -13.5 24.5t-13.5 24.5q-14 28 -27 39q0 4 3 10t3 10q2 1 9 9.5t12.5 17t3.5 8.5q7 7 13.5 15.5t11.5 12.5t14 5q1 0 3 2t4.5 3t12 -1t25.5 -8q6 -5 7 -8.5t-1 -8t-2 -8.5q-2 -3 2.5 -9.5t9.5 -12.5l5 -5q4 -7 29 -38.5t30 -34.5q5 -5 14.5 -15t16 -16.5 t15.5 -14.5t17 -14q31 -22 91 -49q10 -7 38 -12q7 -1 20.5 -2t20.5 -2q3 0 15.5 2.5t15.5 1.5q6 -4 51.5 5t53.5 15q4 3 35.5 16t33.5 15q3 1 35 28.5t37 32.5q43 43 43 68q0 15 8.5 50.5t5.5 58.5q-4 15 -8 45q-1 10 -9.5 26.5t-10.5 22.5q-2 1 -14.5 15t-24 25.5 t-13.5 8.5q1 1 -4.5 4.5t-14.5 7.5t-19.5 8t-20.5 8t-16.5 6t-8.5 3q-9 4 -33 8.5t-36 9.5q-9 3 -28 8.5t-28 8.5q-83 30 -106 39q-33 10 -49 20q-1 1 -7.5 4.5t-13 7.5t-13.5 8.5t-11.5 8.5t-3.5 6q-2 0 -4 1t-7 4.5t-10 6.5q-31 20 -35 16q-9 9 -29 22.5t-26 20.5 q-1 2 -10.5 10t-11.5 15l-31 31q-4 5 -7.5 11.5t-6.5 16t-5 13.5q-5 10 -7 22t-1 22.5t0 24.5q-13 70 -4 109q3 10 7.5 40t11.5 44q1 3 9 23t13 26q3 4 8 22t10 21q15 11 15 21q6 3 19 17t24 19q3 1 7 6.5t11 6.5q1 1 5 2.5l8 3t4 2.5q2 7 14 12t30.5 8.5t20.5 3.5 q71 21 148 11q0 2 49.5 -2t101 -13t55.5 -20q2 -2 24.5 -12t23.5 -7q11 -2 47 -38q5 -4 22.5 -13t18.5 -10q4 -2 16.5 -15.5t17.5 -13.5q1 -1 9.5 -12.5t13.5 -13.5q24 0 24 -7q0 -3 -4 -6q-5 -3 -28 -32q-5 -7 -18 -20.5t-17 -18.5q-3 -4 -14.5 -11.5t-12.5 -15.5 q-4 0 -15.5 8t-14.5 13q-6 8 -14 14.5t-13.5 10t-16 9.5t-16.5 9q-28 19 -43 36q-3 4 -13 9t-19.5 8.5t-20 7t-12.5 4.5q-23 14 -49 14q-2 0 -12.5 5t-14.5 6q-18 6 -33 6q-17 1 -46.5 -0.5t-39.5 -1.5l-57 -6q-8 -6 -27 -16t-29.5 -19t-15.5 -23q-16 -16 -24 -32 q-16 -28 -21 -64q-11 -15 -8 -64.5t10 -62.5q4 -8 10.5 -17t15.5 -20t13 -16q13 -18 47 -33q10 -1 18 -7t17 -7q1 -1 3 -2.5t4.5 -3.5t4.5 -5q0 1 5 -0.5t9 -3.5l5 -2q7 -7 32 -20t31 -12q18 -9 73.5 -24t61.5 -13q7 1 21.5 -3.5t21.5 -9.5q6 -6 37 -14q7 -4 34.5 -14.5 t27.5 -9.5q2 -2 20 -11q2 0 6.5 -4t7.5 -4q-1 -2 11 -14q4 -4 13.5 -11.5t16.5 -15t11 -14.5q29 -29 32 -35q3 -8 17 -26t16 -21q2 -2 11.5 -28t11.5 -27q10 -40 10 -54q6 -60 6 -78l-1 -10q-1 -11 -1.5 -18.5t0.5 -9.5q-2 0 -3 -16t-2 -35t-3 -23q-20 -47 -39 -80 q-3 -6 -13.5 -17.5t-19.5 -20.5t-21 -20.5t-14 -13.5q-20 -16 -28 -22q-3 -4 -12 -9t-13 -8q-9 -9 -39 -24q-20 -11 -47 -19q-11 -2 -26.5 -9t-22.5 -9q-3 -2 -6 -1.5t-6 -2.5q-3 0 -8.5 -1.5t-8.5 -0.5t-26 -4q-11 -3 -21 -3.5t-24 0.5t-21 1q-3 -3 -15 -3t-16 3 q-2 1 -7.5 0t-8.5 0q-51 6 -55 20q-1 -1 -8.5 2t-8.5 2q-5 0 -19.5 5t-14.5 8q-43 17 -44 18q-36 27 -47 27q-10 0 -30 14t-25 16q-15 7 -47 35q-39 28 -59 60z" />
<glyph unicode="T" horiz-adv-x="1073" d="M1012 1221q-13 -4 -33 -4q-22 1 -90 -3q-39 -6 -45 -4q-13 -3 -38 2t-36 2q-4 -1 -38 0.5t-60 3t-31 -0.5q-6 4 -28.5 2.5t-28.5 -0.5q-11 -4 -13.5 -24t2.5 -32q3 -8 3 -20.5t-1.5 -28.5t-1.5 -22q2 -26 -2 -76q-2 -30 1 -87t3 -73q0 -221 -6 -238q-1 -1 2.5 -51.5 t1.5 -58.5q-2 -27 -1.5 -40t3 -41.5t3.5 -41.5v-121q0 -9 2 -28t2 -29q0 -39 2 -53q4 -14 3 -42t3 -44q4 -13 2 -36t-12 -30q-12 -5 -32.5 -4.5t-33.5 4.5q-5 1 -20 -1.5t-21 -0.5q-6 22 -4 39q0 31 -4 117q-1 10 0.5 46t-2.5 46q-2 9 -1.5 31.5t-0.5 29.5q-9 61 -2 133 q4 106 4 160q0 35 -2 101.5t-2 121t4 101.5q-6 16 -4.5 71t0.5 72q-1 14 -0.5 72.5t-5.5 60.5q-2 0 -13.5 -1t-19.5 -0.5t-12 3.5t-10.5 3.5t-16 -0.5t-10.5 -1q-8 -4 -39 -4q-8 2 -14 1.5t-11 0.5q-2 0 -15 3t-18 1q-5 -3 -32 -1t-37 5q-12 1 -62 -4q-9 -2 -23.5 0.5 t-21.5 1.5q-14 -2 -38.5 3.5t-36.5 3.5q-1 5 0.5 24t1.5 21q-5 15 -5 51q-2 28 76 20q5 0 22 -2.5t27 -2.5t21 3q8 4 36 6t38 0q3 -5 44.5 -1.5t43.5 3.5q10 0 46 2.5t44 -0.5q46 -6 92 2q9 2 33.5 1.5t29.5 1.5q13 4 78 4q22 -1 66.5 -3.5t66.5 -3.5q41 -2 125 -2 q7 0 29 -1.5t33 -0.5q7 0 22.5 1t22.5 1q3 1 15.5 1t15.5 1l6 -25v-5q-4 -9 -4.5 -45t4.5 -37l-21 -6q-3 -1 -7.5 -1.5t-12.5 -2.5z" />
<glyph unicode="U" horiz-adv-x="1275" d="M803 10q-9 5 -43 -12q-8 -5 -17.5 -6.5t-25.5 -0.5t-19 1q-27 0 -41 2q-17 4 -39 0q-5 -1 -28.5 7.5t-28.5 6.5q-7 -3 -21 2.5t-22 3.5q-32 13 -45 13q-31 4 -47 14q-7 4 -35 24.5t-35 24.5q-13 8 -31.5 33t-23.5 31l-12 12l-14 14t-12.5 13t-13 14.5t-10.5 13.5 t-10.5 15.5t-7.5 15.5q-6 11 -11 25t-11 33.5t-9 27.5q-10 28 -16.5 58.5t-12.5 73.5t-9 62q-6 16 -3 65t1 65q-2 30 2 92q12 160 10 239q0 14 -0.5 43t-0.5 47t1 43t4 45q2 18 -3 77.5t5 74.5q20 8 57.5 9.5t57.5 -3.5q8 -2 8.5 -30.5t-2.5 -55t-6 -39.5q-5 -23 -9 -67.5 t-6 -59.5q-3 -43 0 -82q0 -54 -6 -69q-2 -5 -2 -72v-66q-3 -17 -3.5 -40t0 -38.5t2 -44.5t1.5 -38q2 -35 -2 -119q0 -37 6 -49q1 -7 2.5 -19.5t3.5 -22.5t6 -18q12 -41 39 -71q7 -8 21 -33q6 -7 18.5 -24.5t18.5 -24.5q24 -28 35 -33q2 -8 7.5 -13.5t13.5 -11t11 -8.5 q9 -8 18.5 -13.5t23.5 -12t20 -9.5q10 7 28 -6q5 -3 11 -4t13 -1t11 -1q5 -1 26.5 -3.5t40.5 -6t27 -8.5q15 0 66 8t82 16q47 13 80 88q12 12 26 33q29 37 29 59q0 7 4 23t10 34t7 23q10 45 10 70q0 19 3 56t3 55q1 10 2 32t2 33q5 69 23 438q1 18 -0.5 53t-1.5 46 q-14 145 10 145q1 1 8 1.5t16 6.5q7 0 15.5 -0.5t12 -0.5t7.5 -1t6.5 -2.5t5.5 -5.5q4 -4 8 -6t9 -2t7.5 0.5t8.5 2.5t8 3q6 -1 1 -41.5t-5 -42.5q0 -26 -4 -76q-1 -20 -0.5 -76t-1.5 -75q-1 -14 -1.5 -59t-2.5 -68v-41t-4 -51q-4 -12 -5 -26.5t-1.5 -33.5t-1.5 -26 q0 -8 -1 -27t-1 -31t-3.5 -38t-2.5 -40q2 -32 -3.5 -91.5t-5.5 -71.5q-3 -81 -24 -142q-13 -39 -33 -71q-3 -5 -28.5 -44.5t-28.5 -44.5q-24 -43 -49 -55q-32 -16 -70 -26q-1 0 -7 -1.5t-12.5 -3t-13.5 -3t-11 -3.5t-3 -4z" />
<glyph unicode="V" horiz-adv-x="1196" d="M1016 903q-4 -7 -9.5 -22.5t-9.5 -22.5q-12 -24 -18 -39q-11 -20 -18 -43q-4 -18 -19.5 -50t-19.5 -50q-4 -21 -12.5 -45t-12.5 -39q-1 -5 -19 -42t-20 -42q-3 -11 -11.5 -35.5t-14.5 -45t-9 -34.5q-5 -36 -20 -55q-2 -3 -6.5 -16t-8 -24.5t-6.5 -12.5q-3 -2 -12 -26.5 t-12 -27.5q-1 -2 -6 -20.5t-11.5 -35.5t-11.5 -21q-6 -4 -16.5 -40.5t-14.5 -41.5q-2 -3 -8.5 -22.5l-7.5 -22.5q-2 -5 -3 -13t-3 -14t-6 -8q-7 -2 -30.5 -5.5t-25.5 -4.5q-4 -1 -19.5 5t-19.5 3q-9 -2 -12 -1t-6.5 9.5t-3.5 9.5q-4 5 -9.5 20.5t-11.5 20.5q3 6 1 10.5 t-7 12.5t-6 12q-8 25 -16 43q-20 47 -25 53q-7 8 -22 46t-17 42q-19 36 -48.5 105.5t-37.5 87.5q-15 31 -39 88.5t-36 83.5q-10 21 -24.5 62.5t-21.5 58.5q-17 38 -34 90q-6 17 -29.5 75t-32.5 89q-8 23 -82 227q-10 26 -16 51q-2 6 -10.5 18.5t-8.5 20.5q15 5 40.5 3.5 t37.5 -7.5q3 -2 16 -3.5t15 -2.5q13 0 16 -8q0 -1 3.5 -5.5t3.5 -5.5q5 -11 10 -39q2 -6 7.5 -18t6.5 -20l6 -13q1 -7 14 -37.5t13 -44.5q0 -7 8.5 -29.5t9.5 -25.5q5 -11 12.5 -32t10.5 -29q6 -13 18 -39.5t20.5 -47t12.5 -38.5q4 -16 16.5 -44t16.5 -40q2 -4 15 -26.5 t18 -43.5q6 -25 51 -129q4 -8 17.5 -51.5t25.5 -61.5q9 -13 18 -38t13 -33q24 -48 26 -58q2 -12 16 -36l13 -25q2 -3 8 -20.5t8 -20.5q4 -4 11 -16l6 -11q1 -1 10 -24q16 -27 16 -41q12 0 20 15.5t13.5 36.5t9.5 26q8 11 18 46.5t15 45.5q8 16 18 51t15 47q7 15 11.5 31 t9 36.5t7.5 32.5q6 19 32 94t38 115q9 32 31 90t30 84q5 19 18.5 55t18.5 54q1 2 9.5 23t9.5 32q5 33 10 41t24 58.5t23 64.5q9 24 21 45q7 17 14 29v14q1 5 4.5 7t7.5 0.5t8 -2t5 0.5q2 3 8 3t10.5 -0.5t5.5 1.5q5 -8 22.5 -8t20.5 -2q6 -2 10.5 -3t8.5 0.5t6.5 3t7 5 t6.5 4.5q4 0 9.5 -2t8.5 -2q-1 -3 1.5 -8.5t-1.5 -7.5q-6 -3 -6 -10q-8 -10 -11 -30t-7 -28q-6 -8 -11 -26.5t-6 -20.5q-29 -57 -34 -90q-2 -9 -11.5 -28.5t-11.5 -28.5q-1 -3 -10.5 -21.5t-9.5 -25.5q1 -6 -2.5 -17t-10 -25t-8.5 -18q-8 -34 -16 -49z" />
<glyph unicode="W" horiz-adv-x="1873" d="M1839 1323q4 -2 6.5 -4.5t3.5 -4t1.5 -5t0.5 -5.5t-1.5 -6t-2 -5t-2.5 -5.5t-2 -5.5q-5 -16 -19 -48.5t-18 -47.5q-3 -13 -20 -51.5t-19 -57.5q-3 -21 -14 -39l-18 -45q-2 -7 -9.5 -32.5t-13.5 -38.5q-7 -23 -16 -45q-12 -41 -49 -121q-5 -11 -10.5 -30t-10.5 -30 q-21 -43 -29 -69q-5 -14 -18.5 -59t-22.5 -66q-7 -18 -16.5 -55.5t-19.5 -57.5q-8 -7 -11 -33.5t-6 -31.5q-21 -37 -28 -70q-1 -7 -9 -17t-10 -14q-4 -6 -5 -16.5t-1 -11.5q-2 -5 -10 -21.5t-12.5 -29t-4.5 -21.5q0 -10 -10.5 -32.5t-11.5 -33.5q0 -15 -12.5 -36t-16.5 -31 q-27 6 -31 6q-6 2 -34 2q-3 0 -6 0.5t-5 2t-3.5 2.5t-3 3t-2.5 3.5t-2 4.5l-1.5 4.5t-1.5 6t-2 6.5q-13 33 -16 49q-3 15 -8.5 30.5t-14 35t-12.5 28.5q-81 229 -107 311q-28 93 -43 140q-5 19 -22.5 62.5t-22.5 66.5q-5 16 -13 46.5t-13 45.5q-32 80 -27 96q-19 57 -29 86 q-4 13 -16 47.5t-16 54.5q-4 -4 -7 -9t-4.5 -9t-3 -11.5t-2.5 -10.5q-2 -9 -9 -26t-9 -24q-5 -15 -14 -47t-15 -51q-1 -4 -15 -35.5t-16 -46.5q-2 -11 -15 -35t-13 -37q0 -6 -4 -14.5t-5 -13.5q-3 -8 -9 -24.5t-9 -24.5q-8 -35 -31 -82q-21 -38 -32 -90q-6 -22 -20.5 -62 t-18.5 -51q-19 -57 -69 -189t-73 -206q-6 -9 -10 -23q-13 0 -22 -6q-4 -1 -10.5 -1t-10.5 -1q-10 4 -35 3.5t-35 0.5q-12 21 -23 63.5t-13 47.5q-12 16 -18.5 38t-11.5 50t-9 41q-5 19 -17.5 71.5t-21.5 81.5q-31 96 -76 272.5t-63 239.5q0 2 -3.5 16.5t-7.5 22.5l-10 49 q-1 0 -3 8.5t-4 17.5t-3 11q-14 29 -21 70q-3 28 -15 77.5t-15 71.5q-1 11 -17 64q0 1 -3 7.5t-2.5 10.5t5.5 8q1 1 6.5 2.5t9 3t3.5 3.5q30 -6 41 -6q41 -8 49 0q16 13 30 -9q3 -6 4.5 -8.5t1.5 -7.5t-1 -8t-4 -13.5t-5 -19.5q-2 -8 3.5 -15t5.5 -14q0 -5 10 -45 q2 -13 8 -40t8 -42q7 -50 21 -84q18 -48 34 -133q11 -65 27 -116q5 -15 16.5 -65t22.5 -75q9 -22 20.5 -67t14.5 -54q20 -63 45 -155q19 -67 24 -82q1 -4 8.5 -31t14.5 -39q8 8 18.5 45.5t12.5 40.5q1 2 6 11.5t7 14t4 12t1 13.5q0 1 10 31q2 2 9.5 22t9.5 21q4 4 5 16t5 17 q1 2 5.5 11.5t6.5 13.5q6 9 13 34t4 33q0 8 9.5 24t10.5 21q1 0 2 2t2.5 5.5t2.5 8t2.5 10t2.5 10t2 8.5t1 5q4 18 16 51t16 48q3 10 13.5 41.5t13.5 48.5q2 15 14 40t15 36q12 35 47.5 123t50.5 139q20 75 37 112q9 18 10 19t6 8t10 8q6 1 21 -0.5t20 0.5q20 10 56 0 q4 -1 18 0.5t22.5 -2t8.5 -16.5q0 -12 5.5 -39.5t10.5 -32.5q4 -4 6 -15t4 -26t2 -16q2 -5 6.5 -16.5t6.5 -16.5q15 -44 16 -57q4 -23 18.5 -62t18.5 -55q5 -25 22.5 -80t22.5 -84q2 -14 9.5 -36t9.5 -32q1 -7 9 -30.5t9 -36.5q5 -43 31 -101q22 -48 32 -108q3 -15 21.5 -59 t21.5 -80q1 -9 11.5 -29t11.5 -29q14 -17 14 -37q16 24 36 79t34 77q10 12 10 39q11 29 33 78q18 40 22 61q7 43 23 74q21 38 53 152q16 59 53 153q11 44 21 64q18 44 33 69q4 8 10 28t10 28q0 2 2 7.5t4.5 12t3.5 8.5q13 39 15 43q8 16 15.5 53t8.5 41q5 21 35.5 27t32.5 8 q5 3 10.5 -3.5t7.5 -6.5q3 0 10 1t12 1t9 -2z" />
<glyph unicode="X" horiz-adv-x="1292" d="M1227 51q18 -33 18 -35q2 -11 -2 -15.5t-15 -4.5h-11q-8 -2 -26 1t-22 3q-8 1 -10 0.5l-8 -2l-10 -2.5q-18 -3 -29 8q-7 6 -20.5 27t-20.5 28q-2 2 -6 10.5t-6 10.5q-15 9 -38 44t-28 40q-6 8 -19 29.5t-22 31.5q-2 2 -10.5 16t-11.5 17q-22 22 -33 41q-16 20 -25 37 q-8 14 -28.5 35t-28.5 35q-9 16 -35 48.5t-35 49.5q-6 8 -40 45t-41 59q-23 -22 -50 -61q-2 -3 -19 -23t-20 -28t-27.5 -43.5t-27.5 -40.5q-33 -64 -55 -80q-7 -5 -21 -26t-18 -25q-6 -6 -20.5 -27.5t-18.5 -26.5q-7 -7 -16.5 -20t-12.5 -17q-12 -24 -18 -30 q-4 -3 -22 -23.5t-23 -23.5q-5 -5 -19 -24t-18 -23q-8 -16 -39 -52q-4 -4 -8.5 -9.5t-6.5 -8t-5 -3.5t-5.5 1.5t-5.5 9.5q0 6 -10 3t-14 -1q-15 3 -18 4t-11 -3l-10 -5q-4 0 -9 0.5t-7 0.5t-5.5 -0.5t-7.5 -2t-10 -4.5t-13.5 -4t-13.5 -4q-5 -2 -9 3.5t-3.5 12.5t6.5 8 q0 11 10.5 25t26 29t19.5 20q2 3 7 10t10 13t11 10q9 8 21.5 27t19.5 26q8 12 78 100.5t74 92.5q6 11 15 32t16.5 34.5t15.5 17.5q5 2 27.5 34t25.5 35q1 1 31 37q25 25 28 35q3 9 19 25t18 20q6 12 31 47q2 3 9.5 11t10 12t5 10.5t0.5 12.5t-9 13q-3 1 -15 18.5t-15 24.5 q0 2 -6 8t-14 15.5t-11 17.5l-9 11q-14 17 -16 18q-3 5 -9 14.5t-9 14.5q-5 12 -21.5 33.5t-17.5 23.5q-6 10 -14 18q-43 43 -54 70q-8 22 -34 49q-2 1 -17 31l-26 39q-6 7 -22 25t-23 28q-4 7 -11.5 21t-14 24.5t-11.5 16.5q-27 27 -31 45q-7 3 -6.5 6.5t3.5 10t1 9.5 q10 -6 96 -6q6 -1 15 1t16.5 4t15 2.5t11.5 -3t4 -12.5q0 -10 7.5 -23.5t20 -29t15.5 -21.5q3 -5 20 -28t23 -35q26 -39 45 -58q24 -29 26 -41q0 -1 27 -41q8 -14 20.5 -31.5t18.5 -27.5q11 -14 37 -42t46 -52.5t32 -46.5q11 12 22 26.5t24 33t19 26.5q11 14 30 42.5 t34 45.5q10 10 74 93t67 89q16 31 16 33q12 15 23 37q7 13 22 33t21 30q4 8 7.5 10t6.5 0.5t8.5 -4t10.5 -2.5q3 -1 11 -1t11 -1q7 -3 9.5 -4t5.5 -1.5t3.5 0t4 1.5t6.5 2q1 0 11.5 2.5t14.5 1.5q3 -1 10 -4.5t11 -3.5q2 0 6 -4.5t8 -5.5q5 -1 6.5 -4t-1 -8t-5 -9.5 t-7.5 -11t-7 -10.5q-2 -13 -21 -35t-22 -27q-12 -20 -33 -41q-3 -4 -11 -17t-11 -17q-2 -4 -4.5 -12.5t-6.5 -12.5q-2 -2 -6 -6.5t-7.5 -8t-6.5 -5.5q-7 -4 -28.5 -29.5t-28.5 -36.5q-9 -15 -31 -41q-13 -17 -35 -47q-16 -24 -37 -45q-7 -7 -18.5 -32.5t-16.5 -31.5 q-10 -11 -45 -55q-18 -18 -20 -26q-1 -7 -4.5 -14.5t-3.5 -9.5t2 -13q1 -12 64.5 -94.5t64.5 -90.5q29 -34 41 -53q4 -5 18.5 -24t20.5 -29q22 -38 36 -58q5 -8 19 -26.5t20 -26.5q5 -6 23.5 -28t29 -36t17.5 -28q6 -9 20 -29t19 -30q2 -4 7 -8.5t7 -8.5q4 -7 8.5 -8.5 t8.5 -7.5q0 -4 8 -16.5t22.5 -32.5t18.5 -25z" />
<glyph unicode="Y" horiz-adv-x="1110" d="M1065 1356l11 -6q1 0 3 -1l4 -3q0 -2 2 -9.5t2 -12.5t-4 -7q-20 -9 -45 -43t-34 -55q-2 -5 -16 -26t-15 -24q-5 -10 -15 -20q-10 -14 -19.5 -29.5t-19.5 -35t-16 -29.5q-60 -106 -96 -156q-3 -5 -12.5 -19.5t-15 -22.5t-11.5 -20.5t-8 -21.5q-5 -15 -25.5 -41t-23.5 -31 q-8 -13 -21.5 -22.5t-23.5 -26.5q-3 -4 -19 -24q-4 -5 -12 -18.5t-19 -26.5v-41v-31q0 -2 -2.5 -17t-1.5 -22q1 -6 1 -20t1 -21q5 -32 0 -132.5t-4 -135.5q1 -17 -4 -113v-88q0 -14 -26 -20q-17 0 -17 -4q-8 -2 -15 2t-13 4q-2 0 -9 1.5t-12 1.5t-6 -3q-1 0 -7 1t-7 1 q-14 0 -9 22q6 27 0 56q-3 15 -4 34.5t-1 33.5t0.5 37t0.5 34q0 29 -3 118.5t-1 139.5q1 20 -3.5 57.5t-4.5 52.5q0 48 -10 56q-4 4 -7.5 8.5t-7.5 10.5l-6 9q-7 9 -13.5 25t-10.5 23q-9 17 -29 40q-10 14 -23.5 38t-19.5 34q-19 29 -55 89t-58 93q-7 12 -53.5 79t-64.5 104 q-5 9 -17.5 24t-15.5 19q-5 9 -20 27.5t-24.5 34.5t-10.5 30q0 3 -3 8t-2 8q1 0 11 3t12.5 2.5t11.5 -3.5q18 3 24 2.5t23 -5t23 -5.5q9 -1 17 1.5t13.5 2t14.5 -7.5q-3 -12 20 -47q8 -12 24.5 -39.5t30.5 -48t29 -37.5q14 -16 33 -61q1 -3 13.5 -17t13.5 -16 q6 -7 15.5 -27.5t12.5 -25.5q5 -7 13.5 -23t13.5 -23q8 -12 23.5 -35t23.5 -34q3 -5 7.5 -15t11 -19.5t16.5 -16.5q3 -3 6 -12t10 -13q-3 -1 9 -18t16 -19q2 -7 14.5 -30t16.5 -23q9 6 19 21t15 20q4 2 21 24t14 23q14 14 49 59q4 5 14 23.5t20 33.5t18 19q3 2 15.5 20 t26 38t15.5 22q26 35 35 49q5 8 16.5 30t18.5 32q26 31 57 100q3 7 22 40.5t25 47.5q3 7 19 23q4 5 10 5.5t17.5 -1t21.5 -0.5q23 0 55 4z" />
<glyph unicode="Z" horiz-adv-x="1193" d="M1110 119l12 -82q0 -39 -16 -39q0 1 -29 1t-61 1t-37 4q-20 3 -34 3t-36 -2.5t-30 -2.5q-3 0 -29.5 1t-51 1.5t-48 -0.5t-27.5 -4q-4 -2 -12 -1t-15 3l-8 2q-3 4 -50.5 1t-53.5 -3q-57 -3 -107 0q-18 3 -105 0.5t-102 -2.5q-185 -14 -190 0q-1 3 0.5 39t-0.5 45 q-4 16 3 36t7 21q-3 7 9 20.5t22 18.5q9 9 17.5 13.5t17.5 13.5q3 3 8.5 5t7.5 5q3 4 15 15t16 18q19 28 57.5 70.5t56.5 66.5q5 6 19 19.5t20 23.5q4 5 25 29.5t25 29.5q20 26 62 79t64 83q3 5 15.5 20t17.5 23q11 26 27 37q4 4 12.5 21.5t13.5 19.5q6 4 31 37q38 42 49 65 q4 9 28.5 36.5t31.5 37.5q2 2 14 27q4 7 16.5 21.5t16.5 23.5q5 11 14.5 22.5t23.5 25.5l19 19q12 12 34 38.5t26 31.5q5 5 8.5 11t7 13.5t6.5 12.5q0 2 8.5 12.5t8.5 12.5q-9 1 -29 -1t-29 -1h-29q-7 5 -30.5 4.5t-30.5 -4.5q-23 -1 -51.5 0t-64 3t-52.5 3q-11 1 -110 -3 t-107 -6q-22 -2 -63 3q-16 6 -52 2q-13 -2 -36.5 -2.5t-36.5 -2.5q-12 -1 -84 5q-8 1 -17.5 -2t-15 -2t-10.5 10q-4 4 -4 10.5t2 14.5t2 12q-3 8 -1.5 26t-0.5 29q-3 19 4.5 23.5t29.5 2.5q3 -1 10 2t11 3t11.5 -3.5t12.5 -3.5q7 0 20.5 -2t20.5 -2q11 1 44.5 -2.5t46.5 0.5 q12 2 92 2q79 0 88 2q7 1 24.5 -1t24.5 -1q7 2 51 -4l150 4q15 -4 33 -5t47 0t34 1q15 1 45 2t45 2q58 0 70 2q8 2 32 -0.5t29 0.5q28 4 38 -6t10 -35q1 -8 -1.5 -28t-0.5 -29q4 -16 -12.5 -34.5t-18.5 -24.5q-6 -11 -26 -39t-27 -31q-16 -18 -45 -70q-3 -6 -20.5 -29 t-22.5 -28t-14.5 -17t-18 -22t-15.5 -16q-4 -4 -26 -37q-14 -19 -43 -52.5t-37 -43.5q-16 -17 -49 -62q-2 -2 -8 -14t-13 -19l-20 -22q-20 -22 -27 -27q-4 -9 -10 -17.5t-17 -19t-14 -14.5q-4 -6 -16.5 -20t-18.5 -23q-3 -7 -14 -22q-28 -30 -79 -96.5t-75 -92.5 q-5 -6 -15.5 -25.5t-18.5 -27.5q-26 -22 -35 -35q-4 -6 -14.5 -22t-12.5 -19q-5 -6 -17 -23.5t-20 -25.5q-1 -1 -7 -9.5t-11 -10.5q-9 -4 -11.5 -8.5t0.5 -8t8 -5.5t9 -3q10 -1 24 -1t30 0.5t22 0.5q11 0 29 1t26 1q47 -3 68 -3t69.5 3t65.5 4q12 1 149 -5t142 -5q8 1 66 1 t71 5q39 17 47 -8z" />
<glyph unicode="[" horiz-adv-x="434" d="M367 1360q0 -13 0.5 -19.5t1.5 -14t2 -17.5q0 -27 2 -35q2 -9 2 -14.5t-1.5 -7t-3 -2t-4.5 0t-4 0.5h-1q-13 5 -23 4q-13 1 -22 -0.5t-17 -1.5q-5 0 -24 -2t-23 -2q-4 -1 -10 -1t-12.5 0.5t-8.5 0.5v-26q4 -56 0 -84q-2 -11 -1.5 -48t-0.5 -47q-1 -9 0.5 -30.5t1.5 -26.5 v-168v-80q0 -5 1.5 -25t0.5 -28q-2 -18 -2 -78v-47q-6 -22 0 -61q3 -12 3.5 -25t-0.5 -30.5t-1 -24.5q0 -10 -1.5 -35t-0.5 -43q2 -14 2 -57q0 -7 -2 -58t-2 -53q1 -9 0 -18t1.5 -17.5t8 -14.5t19 -9.5t35.5 -3.5q8 2 26.5 -1t28.5 -1q13 3 17.5 -0.5t6.5 -16.5q1 -7 3 -22 l3 -22.5t0.5 -20.5t-3.5 -27q-8 -8 -12 -8.5t-11 1.5t-25 -1q-20 -4 -63 2q-76 -4 -123 0q-8 0 -12 2l-3 1q-2 1 -4.5 6.5t-2.5 16.5v29q-3 12 -3 68q0 5 1.5 26t1.5 29q0 9 -0.5 26.5t-0.5 33.5t1 32q0 29 -1.5 87t-1.5 89q0 28 -1 86t-1 90q0 15 1 45.5t1 55.5t-2 47 q-4 48 5 160v71q0 8 -1.5 27t-1.5 31q3 91 3 182v90q5 4 5 14t5 15q18 18 28 6l3 2q2 1 6.5 2t9.5 0q24 -3 50 0.5t37.5 5t35.5 -7.5q8 1 15.5 5.5t12 5.5t23.5 -5q17 2 29 0q0 -8 -2 -8z" />
<glyph unicode="\" horiz-adv-x="854" d="M621 143q-5 15 -23 50t-23 51q-4 14 -12 31.5t-14 28t-17.5 30.5t-15.5 26q-9 16 -36 75t-48 87q-27 66 -33 74q-8 11 -22 49q-2 4 -6 16.5t-8.5 23t-8.5 15.5q-12 12 -20 45q-1 7 -11.5 28.5t-11.5 25.5q-11 32 -24 55q-21 31 -31 49q-3 4 -16.5 33t-16.5 33 q-1 2 -12 31.5t-18 35.5q-7 4 -11.5 20t-7.5 19q-10 10 -24 43q-9 28 -48 82q-27 45 -39 70q-15 30 -22 35q-6 4 -8 8.5t0.5 8.5t5.5 6.5t7 4.5l3 2q6 4 12.5 5t8.5 3q16 4 59 -6q38 -13 64 -10q12 0 16 -10q13 -36 35 -66q3 -4 19.5 -35.5t21.5 -39.5q10 -14 23.5 -46 t25.5 -49q2 -3 7.5 -20.5t6.5 -18.5q14 -29 19 -47q3 -7 22.5 -40t24.5 -48q14 -36 22 -53q13 -20 19 -37q13 -33 18 -41q9 -14 23.5 -50.5t21.5 -49.5q2 -5 17 -40.5t26 -51.5q9 -12 17 -34.5t14 -33.5q18 -26 24 -51q6 -22 19 -41q6 -10 20 -53q4 -10 9 -20.5t12 -22.5 t10 -19q7 -13 23.5 -51t27.5 -57q6 -8 12 -28t9 -26q2 -4 9 -19t9 -19q34 -75 43 -107q6 -16 3 -20t-6.5 -2t-11.5 6t-13 4q-26 0 -80 8q-6 -1 -13 -3q-6 -2 -10 7q-10 25 -16 35q-2 3 -25 49q-2 5 -11.5 25t-14.5 32z" />
<glyph unicode="]" horiz-adv-x="425" d="M178 123q6 1 9.5 3t4.5 7.5t1.5 8.5t0 11t-0.5 11q0 8 -1.5 27t-1.5 30v49v45v72q3 24 3 57q2 6 1.5 18.5t2.5 20.5q6 12 1.5 49t-1.5 52q-4 12 -4 27t2 33.5t2 27.5q0 20 -4.5 80.5t-2.5 91.5q2 35 2.5 41t-2 42t-2.5 42q-1 15 -0.5 56.5t-1.5 57.5q-4 21 -3.5 82 t-4.5 82q-2 4 -10 6t-19.5 2.5t-22 0.5t-22 -0.5t-14.5 -0.5q-32 0 -29 25q1 10 0 16t1 13.5t8 15.5q4 5 10 37q13 0 29 4q3 0 10 -2h6q1 -2 45 -2q14 -3 37 4.5t33 7.5q3 1 5 0.5t5 -1.5t4 -1q2 0 6.5 3t7.5 3l4.5 -1.5t1.5 -1t2 -1t7 -0.5q12 0 18 -12q-1 -10 -6 -40.5 t-6.5 -45.5t0.5 -47q1 -11 -2 -43t-2 -43q2 -7 2 -22t-1 -32t-1 -20q0 -13 2.5 -42t1.5 -44q-2 -15 1.5 -42t2.5 -46q-2 -12 -1 -26.5t3 -33.5t2 -22q10 -57 6 -80q-3 -10 -2.5 -17.5t2.5 -19.5t2 -16v-70q0 -86 -2 -98q-5 -10 -1.5 -40t3.5 -42q0 -4 4 -44.5t2 -59.5 q-7 -29 2 -76v-78q1 -13 0.5 -65t1.5 -62q1 -8 -3.5 -26.5t-4.5 -20.5h-2h-4q-8 2 -36.5 3.5t-28.5 0.5h-4l-2 1l-2 1h-7q-10 -5 -20 -2q-3 3 -8.5 3t-13.5 -1.5t-11 -1.5t-24.5 -2t-37.5 -1.5t-20 5.5q-4 2 -2 39.5t2 38.5q0 20 10 27t35 8.5t37 5.5h10z" />
<glyph unicode="^" horiz-adv-x="780" d="M184 946q-17 13 -18.5 18t6.5 27q10 40 16 47q13 31 33 74q31 74 41 102q23 76 41 105q11 17 21 43q2 4 12 35q1 3 2 5l2 4t2.5 2.5t2.5 1.5t3.5 1h3.5h4.5h5.5q32 0 50 12h6q1 0 6.5 -2t7.5 -2q6 -1 9 -7l3 -7q1 -7 13 -28.5t14 -26.5q5 -14 25.5 -64t27.5 -76 q4 -16 19 -51q7 -9 22 -55q-1 -4 6 -18t15.5 -29.5t9.5 -18.5q2 -4 10.5 -17.5t9.5 -19.5q5 -20 5 -28q-5 -23 -7 -29q-14 -4 -37.5 -3.5t-31.5 5.5q-12 -1 -23.5 14t-22 37t-14.5 27q-23 29 -41 86q-2 8 -9 26.5t-11 33.5t-4 28q0 18 -16 50q-13 26 -21 14q-16 -23 -33 -62 q-32 -74 -33 -100q-1 -13 -13 -40t-13 -32t-7.5 -19.5t-7.5 -23.5q-2 -8 -9.5 -22.5t-8.5 -24.5q-15 -5 -47 2q-1 0 -7.5 2t-13 3.5t-6.5 0.5z" />
<glyph unicode="_" horiz-adv-x="1013" d="M1030 -307q-2 -3 1 -8.5t3 -8.5q-2 -4 -8 -7.5t-8 -6.5q-2 0 -26 6t-38 2q-9 -3 -45 2q-7 0 -19 -1t-18 -1h-67q-15 0 -43 -3t-33 -3q-5 -1 -22 2t-21 2q-14 -3 -41 2q-17 2 -55 -2q-45 -7 -76 -4q-21 2 -56.5 -0.5t-51.5 -1.5q-18 1 -52 1t-51 1q-1 0 -15.5 -1.5t-24 -2 t-13.5 1.5q-4 4 -43 4q-10 2 -28 1.5t-27 0.5q-24 2 -71 -1t-69 -1q-20 2 -23 7q-2 4 -3 10q-4 16 -4 59q0 45 2 53q6 -2 13.5 -1.5t19.5 2t14 1.5q46 2 139 2t137 2q74 4 105 4q22 -1 68 1t71 1q8 -3 27.5 -3.5t45 0.5t27.5 1q80 0 121 -2q58 -4 109 2q13 3 61 -2 q2 0 14 -1t22.5 -1t14.5 2t19 2q11 -1 14 -8.5t1 -17t1 -19.5q12 -60 2 -67z" />
<glyph unicode="`" horiz-adv-x="1024" d="M496 1085q4 -5 16 -18t20.5 -24t10.5 -19q3 -14 -10 -16.5t-27 0.5t-14 2q-1 -4 -11 -5t-29.5 0t-23.5 1q-6 0 -8.5 11.5t-9.5 16.5q-3 2 -12.5 13t-12.5 14q-7 7 -30 26t-33 33q-5 6 -28 24t-30 32q-2 10 7 13t21 2t13 -1q10 4 23 1.5t20 0.5q13 7 40.5 3.5t35.5 -19.5 q10 -19 35 -41q4 -6 18.5 -25t18.5 -25z" />
<glyph unicode="a" horiz-adv-x="958" d="M506 549q3 2 35.5 3.5t36.5 4.5q2 2 14 0.5t16 3.5q14 3 27 3.5t19 1.5t10 7q2 3 6 19q1 4 -2.5 12.5t-3.5 13.5q0 16 -5 23q-5 9 -13.5 26t-15.5 29t-16 19q-14 17 -51 37q-57 22 -61 22q-32 4 -53 4q-65 0 -84 -10q-3 -2 -34 -12.5t-46 -30.5q-42 -42 -54 -82 q-1 -5 -6.5 -16t-5.5 -17q-5 -3 -12 -3.5t-11 0t-13 2t-11 1.5q-40 8 -51 19q-4 3 -14.5 6.5t-12.5 9.5q-3 3 -2 10t2 10.5t4 10.5t4 10q2 11 13 33t14 31q2 4 21.5 23t21.5 22q4 6 25 16.5t22 11.5q19 16 47 25q7 2 25.5 9t25.5 9q45 15 60 15q4 0 11.5 1t17.5 2.5t16 2.5 q12 4 26 4t31 -2t27 -2q10 1 21.5 -0.5t19 -3t20.5 -5t19 -4.5q45 -6 73 -18q49 -23 93 -86q4 -8 14 -25t14 -25t9.5 -23t9.5 -31q14 -66 14 -148q0 -96 -2 -115v-53v-57q2 -12 2 -36.5t3.5 -44t14.5 -36.5q3 -4 7.5 -14.5t7.5 -14.5q7 -8 19.5 -16.5t15.5 -11.5 q6 -11 32 -17q9 0 25 -4q6 -1 4 -5.5t2 -8.5q-2 -1 -1 -33t1 -33v-13t-0.5 -11.5t-2.5 -7t-6.5 -5t-12.5 -1.5q-3 0 -15.5 -0.5t-21.5 -0.5t-19.5 2t-15.5 7q-4 4 -11.5 5.5t-16 1.5t-11.5 1q-6 1 -11 2.5t-9.5 4t-8 4.5t-8.5 6.5t-6.5 6l-7 7l-6.5 6.5q-8 8 -26.5 21 t-28.5 25t-15 30q-9 -2 -18.5 -12t-14.5 -13l-6 -6t-9.5 -9t-6.5 -3q-14 -2 -25 -13q-7 -8 -24 -12t-23 -8q-3 -1 -11 -6.5t-15 -10t-11 -4.5q-2 -2 -10.5 -4.5t-18.5 -5t-14 -4.5q-11 -4 -37 -8q-16 -3 -59 -8q-32 -4 -64 0q-3 1 -9.5 1.5t-12 1.5t-10.5 5l-21 6 q-5 2 -18.5 0.5t-18.5 1.5q-46 16 -75 41q-9 10 -18.5 24t-12.5 19q-19 27 -27 53q-8 27 -10 45q-8 64 -4 96q4 30 16 72q22 64 84 96q15 7 72 27q7 3 36 12t40 15q17 8 52.5 13t43.5 7q10 4 43 12q8 6 22 11.5t17 7.5zM633 463q-9 -2 -31.5 -10.5t-26.5 -8.5q-7 0 -32 -7.5 t-29 -8.5q-58 -10 -59 -10q-16 0 -46 -11t-40 -12q-56 -6 -119 -35q-17 -7 -37 -36t-20 -43q-12 -28 8 -78q4 -5 8.5 -13t9.5 -14q8 -15 19 -22q30 -17 38 -19q2 -1 27 -16q3 0 18 -8t17 -7q11 -2 31 2t28 3q11 -1 51 8t46 10q23 3 46 14.5t40.5 24t21.5 14.5q50 20 53 94 q3 27 -4 74q1 8 1.5 34t2.5 40q2 13 2.5 23.5t-5 16t-19.5 1.5z" />
<glyph unicode="b" horiz-adv-x="915" d="M143 195q0 4 -1.5 22.5t-2 27.5t0 23.5t3.5 24.5q5 12 1.5 50.5t-1.5 57.5q1 18 0.5 55.5t-1.5 86.5l-1 49q2 25 -0.5 76.5t2.5 68.5q8 36 4 123t-2 117q1 21 0 54.5t0 47.5q0 5 -1.5 22t-1 29.5t4.5 20.5q8 21 0 90q-3 0 -1 43l1 43q0 3 -0.5 10.5t0 11t1.5 8.5t4 8t8 5 q40 8 45 8q31 0 33 -10q3 3 8.5 3t9.5 -1.5t10.5 -4t9.5 -3.5q-3 -3 -5 -10.5t-2 -13.5t0.5 -15.5t0.5 -11.5q0 -5 -1 -13.5t-1 -16t2 -13.5q-1 -6 0 -17.5t0 -17.5q-1 -15 -1 -40t-1 -38q0 -9 1.5 -40t0.5 -42q-4 -39 -4 -192q-3 -50 2 -101q-3 -3 -5.5 -35t-0.5 -38 q5 0 16.5 13.5t12.5 14.5q9 9 32.5 41.5t41.5 38.5q9 2 15.5 6t13.5 11t9 8q5 2 13.5 4t13.5 4l19 9.5t20 8.5t18.5 5t24 6.5t18.5 1.5q5 1 37.5 -5t34.5 -8q3 -1 16 -5.5t23.5 -8.5t13.5 -6q4 -3 19 -16t18 -15q37 -37 76 -113q2 -6 7 -17t7.5 -18t7.5 -16t11 -16 q13 -15 16 -35q20 -82 14 -176q0 -3 -3 -40.5t-7 -75.5t-8 -54q-12 -25 -20 -31q0 -7 -4.5 -18t-12.5 -25.5t-10 -19.5q-5 -9 -9.5 -26.5t-8.5 -24.5q-1 -2 -6.5 -12t-11 -19t-11.5 -15q-4 -5 -20.5 -17t-18.5 -15t-16 -14.5t-17 -14.5q-6 -6 -43 -13t-47 -5q-33 2 -39 2 q-29 6 -49 14q-36 7 -61 23q-2 1 -24.5 12.5t-41.5 22.5t-23 16q-21 26 -36 30q-2 -2 -2 -43q0 -3 -1 -14t-1 -20t2 -13q-5 -16 -37 -22q-20 -3 -58 6q-11 2 -19 1t-16 0.5t-12 6.5q8 118 4 189zM274 584q-4 -15 -5 -31.5t0 -25.5l1 -9q1 -31 -2.5 -98.5t-1.5 -108.5 q2 -17 1 -32.5t2.5 -33.5t13.5 -30q52 -63 92 -84q16 -8 36.5 -13.5t36 -8t30.5 -4t16 -1.5q5 -1 17.5 1.5t23.5 5t12 2.5q7 0 32 15t29 19q24 43 41 60q15 17 31 88v31q2 12 -1 39.5t-3 33.5q0 9 -1 38.5t-1 37.5q0 41 -17 115q-20 60 -30 76q-16 24 -43 39l-19 20 q-2 0 -14.5 8.5t-15.5 9.5q-8 0 -21.5 3.5t-24.5 1.5q-33 -10 -40 -13q-5 -2 -15.5 -6t-15.5 -6q-52 -26 -62 -41q-3 -5 -14 -13t-14 -16q-2 -4 -8 -10.5t-9 -11.5q-2 -2 -10 -11.5t-14 -17.5q-2 -5 -13 -18z" />
<glyph unicode="c" horiz-adv-x="866" d="M88 305q0 3 -1 10.5t-2 13t-3.5 12t-5.5 9.5q-4 200 63 312q8 16 11 34q6 0 10 9t16 24q9 9 24.5 32t30.5 34q6 3 36.5 28t49.5 29q10 1 45 10l9 6q9 6 16.5 9.5t9.5 1.5q15 -5 54 2t53 4q15 1 31.5 -4.5t36.5 -15.5t28 -13q72 -19 105 -49q50 -40 57 -58q11 -8 22 -22 q4 -6 1.5 -13t0.5 -12q8 -12 -55 -59q-2 -1 -4.5 -2.5t-4 -2l-3 -1t-3.5 -0.5t-5.5 0.5t-8.5 1.5q-27 9 -28 10q-2 1 -2 3t-2 3q-5 17 -18 27t-32.5 18.5t-29.5 16.5q-6 5 -21 8.5t-20 7.5q-3 1 -20 5.5t-33 8t-15 2.5q-26 4 -56.5 2t-47.5 -10q-55 -20 -76 -37 q-12 -9 -22 -19.5t-18 -24t-12.5 -21.5t-12.5 -25.5t-11 -23.5q-17 -40 -20 -88q-5 -73 -4 -82q5 -79 8 -88t13 -34.5t14 -39.5q2 -6 6.5 -14.5t9.5 -17.5t6 -11q3 -4 9 -14t11.5 -17.5t12.5 -11.5q9 -5 24.5 -15.5t28 -18t23.5 -11.5q68 -28 163 -14q9 2 31.5 4.5t39.5 6.5 t34 11q62 32 82 62q27 40 59 8q3 -3 20.5 -16.5t26 -25.5t6.5 -24q-15 -15 -28 -37q-10 -14 -37 -41q-8 -12 -33 -24q-111 -55 -217 -58q-28 -2 -78.5 2.5t-68.5 4.5q-31 2 -97 41q-18 12 -29 23t-30 38q-2 2 -6 3t-6 3q-5 3 -8.5 6t-6 7t-4.5 6q-7 6 -14.5 21.5t-13.5 21.5 q0 6 -7.5 16.5t-7.5 11.5q-2 2 -6 8.5t-6 8.5q-4 4 -8.5 14t-8 24.5t-4.5 16.5q-1 6 -8.5 26.5t-7.5 26.5z" />
<glyph unicode="d" horiz-adv-x="962" d="M92 383q0 10 -1 35t-1 35q1 32 12 75.5t13 55.5q7 38 37.5 98t37.5 78q7 21 35.5 44.5t53.5 31.5q13 4 35.5 14t39.5 15t35 5q11 0 38 1t44.5 0.5t34.5 -5.5q25 -3 35 -8q4 -2 11.5 -10t10.5 -10q7 -3 21 -14.5t18 -14.5q2 -1 16.5 -15t20.5 -14q2 5 3.5 42t2.5 40 q2 21 4 57t2 42q2 33 2 108q4 61 -2 111q-8 52 -4 157q0 12 5 29.5t14 17.5q2 0 19 -1.5t26 -0.5q12 3 49 -2q6 0 14 -4t12 -4q1 -10 5 -13t14 -5q3 0 5 -2t3 -6t1 -7.5t-0.5 -8.5t-0.5 -7q0 -131 -2 -156q-2 -11 4 -47q2 -11 -8 -78q-2 -7 -2 -19t1 -26t1 -18q0 -53 -2 -76 q-1 -7 1 -32t1 -33t-0.5 -38t2.5 -38q1 -7 -0.5 -39t-1.5 -33v-39q7 -17 1 -52.5t-3 -53.5q0 -11 1 -33t1 -33q-9 -218 -8 -289q1 -18 -0.5 -66t0.5 -61q3 -1 1.5 -32.5t-1.5 -32.5q-6 -6 -39 -6q-12 4 -45.5 1.5t-40.5 2.5q-6 3 -11 8.5t-8 14t-4.5 14t-2.5 17.5t-1 16 v18.5v15.5q-11 -27 -43 -53q-28 -28 -63 -43q-22 -9 -31 -8q-5 0 -25 -10q-3 -1 -11 0.5t-11 1.5q-52 -8 -80 -6q-47 6 -80 30q-4 3 -24.5 17.5t-24.5 17.5q-22 17 -46 41.5t-28 38.5q-25 50 -37 57q-4 2 -8.5 13t-8.5 26t-5 17q-6 14 -21 73q-8 27 -8 70zM233 469 q-5 -47 -2 -109q0 -13 4 -29.5t10.5 -35.5t8.5 -27q19 -70 43 -94q42 -51 45 -53q7 -7 22.5 -17t20.5 -16q24 -22 74 -18q70 9 94 28q47 50 72 107q2 6 10.5 28t7.5 37q0 10 1.5 40.5t0.5 47.5q-2 39 3 145t-3 144q-11 66 -51 92q-7 5 -24 18t-27 19q-6 3 -17.5 8.5 t-17.5 8.5l-6 -1q-6 -1 -10.5 -0.5t-6.5 3.5q0 2 -20 -2t-41.5 -10t-26.5 -9q-6 -4 -19.5 -10.5t-21.5 -13.5q-8 -9 -24.5 -26t-22.5 -24q-36 -39 -49 -96q-2 -10 -7.5 -32t-9 -35.5t-6.5 -32.5t-4 -35z" />
<glyph unicode="e" horiz-adv-x="976" d="M115 240q-23 73 -23 157q-3 163 60 273q13 21 40.5 56.5t34.5 45.5q26 31 45 39q7 2 22.5 14t16.5 13q3 2 25 11t24 11q29 25 99 25q10 0 28.5 2t28.5 2q2 0 20 -1t21 -1q9 0 43 -8.5t41 -12.5q6 -3 18.5 -8t18.5 -8q17 -11 41 -25q5 -3 11 -11t9 -11q8 -5 17 -23 q4 -6 13 -18.5t13 -18.5q6 -6 13.5 -20t9.5 -16q14 -17 24 -41q2 -7 9.5 -19.5t9.5 -19.5q3 -12 12 -40t12 -42q1 -7 5 -24t6.5 -30.5t1.5 -23.5q-1 -6 2 -18t2 -17q-5 -12 -19 -14q-48 -10 -131 -10q-9 4 -31.5 3.5t-39.5 -3.5q-14 -2 -38.5 -1.5t-39.5 -0.5q-60 -4 -76 -5 q-12 2 -78 2q-16 -1 -60.5 1t-51.5 2q-19 0 -54 -5q-3 -1 -12 0.5t-12 -0.5q-3 1 -11.5 6.5t-13.5 -1.5q-9 -5 -11.5 -15.5t-0.5 -30t2 -22.5q-1 -10 3 -28t5 -23q2 -50 53 -113q19 -19 43 -35q15 -10 49.5 -24.5t49.5 -24.5q7 -5 34 -9.5t41 -4.5q26 0 74 6q3 0 15 1.5 t20.5 2.5t18 3t12.5 5q7 0 26.5 9.5t20.5 9.5q5 1 12.5 5.5t18.5 12t16 10.5q2 4 8 10t13.5 12.5t9.5 8.5q3 3 11 16t14.5 25t4.5 12q1 4 10.5 14.5t10.5 18.5q18 0 29 -8l14 -12q15 -11 20 -17l23 -22q0 -8 -7.5 -17t-9.5 -12q-6 -13 -20.5 -33t-17.5 -26q-9 -18 -34 -39 t-46 -31q-28 -14 -43 -29q-5 -4 -13.5 -6.5t-21.5 -4t-14 -1.5q-10 -1 -32 -4t-32 -4q-3 0 -9 -1t-9 -1h-33q-13 -1 -47 -4t-47 -2.5t-47 4.5q-18 4 -48 15t-36 13q-45 13 -90.5 45.5t-73.5 71.5q-25 38 -45 107zM229 563q-1 -6 -4.5 -25.5t-3.5 -29.5q4 -3 15 0t14 6 q4 2 15.5 0.5t29.5 -3.5t24 -1q12 1 37 -0.5t31 -1.5q20 -6 72 -6h59q4 0 24 3t27 1t31 1t27 3q7 0 29.5 -2t29.5 -2q2 1 10.5 -0.5t10.5 -1.5q52 6 53 6q1 9 0 16t-4 20t-4 17l-33 64q-27 51 -72 96q-8 10 -40 35t-40 20q-6 6 -32.5 2.5t-34.5 -0.5q-6 -6 -54 -6 q-14 1 -41.5 -11.5t-29.5 -12.5q-15 0 -36.5 -18t-33.5 -34q-15 -18 -29 -39q-2 -4 -7 -12.5t-7 -15.5q-3 -10 -16 -27q-3 -5 -6.5 -20t-10.5 -21z" />
<glyph unicode="f" horiz-adv-x="583" d="M43 760q1 2 3 14.5t3 13.5q6 8 3 22.5t-3 29.5t10 16q4 0 22.5 -2t27.5 6q4 2 10.5 2t15 -1t12.5 -1q10 0 15 0.5t8 3.5t3 5t0.5 11t0.5 15q2 26 1.5 99.5t2.5 99.5q1 9 2.5 37.5t5 52t9.5 41.5q14 36 38 63q1 1 9.5 7.5t16 13t9.5 10.5q5 9 47 33q1 1 12.5 3.5t25 5 t16.5 3.5q2 0 12.5 4t21 6t23.5 0q22 0 35 -8q4 -3 17 -7.5t20 -8.5q25 -15 30 -19q46 -33 52 -76q1 -6 -5 -11t-6 -11q0 -12 -12 -19q-43 -37 -59 -43q-8 -1 -14 3t-10.5 11.5t-7 14t-5.5 16t-4 11.5q-9 21 -24 30t-46 9q-5 0 -20 -15q-24 -18 -27 -22q-2 -3 -11.5 -17.5 t-11.5 -17.5t-8 -41q-1 -5 -3 -38.5t-3 -39.5q-5 -34 0 -119l2 -57v-35q6 -2 34 -1t40 -1q8 4 51 4q5 -1 22.5 1t29 -0.5t14.5 -12.5q2 -12 2 -51t-4 -43q-25 -21 -66 -15q-35 5 -90 5q-29 0 -29 -31q2 -16 2 -53q0 -68 -2 -80q-2 -47 -2.5 -53.5t2 -53.5t2.5 -51 q1 -11 3 -41.5t2 -41.5t-1 -42q-1 -12 -2 -47.5t-2 -48.5q0 -10 0.5 -38t0.5 -51.5t-1 -39.5v-33q0 -2 2 -18.5t4 -22.5l-72 -18q-12 -2 -12 0q-8 4 -30 4.5t-31 5.5q7 6 5 13.5t1 21.5q4 4 0 31t-4 34q0 81 -4 117q-3 31 0 45q3 0 2 34l-2 34q-1 19 0 57t0 59q-3 45 2 209 v10v15v16.5t-1 17t-2.5 15t-4 11.5t-6.5 5l-52 4q-11 -1 -20.5 1.5t-24.5 1.5q-15 0 -18 12z" />
<glyph unicode="g" horiz-adv-x="1036" d="M879 180q3 -26 3.5 -54.5t-0.5 -68t-1 -55.5t-1 -72t-1 -73q0 -99 -5 -119q-14 -67 -30 -96q-23 -38 -35 -52q-2 -2 -6 -8t-7 -9.5t-7.5 -8t-8.5 -6.5t-23.5 -13.5t-23.5 -13.5q-7 -3 -25 -13.5t-28 -13.5q-10 -4 -28 -8t-25 -6t-25.5 -3.5t-28.5 -4.5q-86 -21 -223 31 q-86 29 -131 90q-45 56 -45 86q-1 4 -4.5 17t-4 19.5t2.5 18.5q16 -2 47 8q4 1 18 9q50 28 57 10q2 -5 1 -15q-2 -19 10 -51q2 -4 10 -14t18 -21t13 -14q14 -16 57 -29q21 -8 58 -12q89 0 106 2q97 14 137 49q4 3 11.5 10.5t11.5 10.5t6 6t3.5 6.5t2.5 5.5t17 39 q11 24 4 123q0 2 1.5 47.5t0.5 56.5q-4 23 -1.5 74.5t-2.5 73.5q-10 -7 -13 -15q-6 -16 -16 -27t-35 -29t-26 -19q-8 -7 -25.5 -15.5t-22.5 -11.5q-17 -11 -71 -31q-61 -21 -80 -16q-52 6 -59 10q-17 9 -58.5 16t-58.5 17q-4 2 -11 10t-12 10q-24 8 -26 11q-32 32 -39 43 q-4 7 -25 31t-22 38q0 7 -15.5 44t-19.5 38q-8 3 -13.5 35.5t-5.5 48.5q0 10 -5 32t-5 34q0 8 2 33t2 38q-5 30 19 123q22 92 63 148q6 7 19.5 22.5t19.5 22.5q1 1 9 10t16 16.5t12 10.5q8 5 30 24t35 25q4 2 10 6.5t13 5.5q5 1 27 12q24 10 70.5 16t62.5 11h59q2 -1 15 -6 t20 -6q11 -3 61 -31q35 -24 52 -45q8 -9 20 -27t18 -26q3 3 0.5 18.5t-2.5 18.5q0 1 1 10.5t0.5 16t-3.5 9.5q1 6 -3 40.5t5 35.5q8 8 76 0q7 -1 17 -2t18 -2.5t16 -5.5q0 -19 4 -31q2 -11 -1 -33t-3 -30l-1 -49q-1 -50 1 -50q1 -17 3.5 -63t2.5 -64.5t-2 -62.5 q-2 -20 1 -58t2 -55q0 -39 4 -57q-1 -4 -4 -2q-3 -6 -0.5 -42t2.5 -42v-76zM745 469q1 8 0 36.5t0 37.5q1 2 0 9.5t-2.5 16.5t-1.5 11q0 24 -6 36q-18 46 -20 56q-9 32 -36 59t-61 41q-25 13 -35 17.5t-32 9t-47 2.5q-9 0 -28 -3.5t-23 -6.5q-2 -1 -13.5 -4.5t-22 -8.5 t-14.5 -10q-8 0 -21.5 -7t-19.5 -9q-13 -5 -30 -27q-5 -9 -23 -31q-8 -9 -16.5 -27.5t-13.5 -25.5q-1 -9 -9 -26.5t-8 -28.5q-15 -31 -24 -107q-5 -54 -5 -135q0 -9 5.5 -32.5t5.5 -37.5q2 -18 7.5 -35t14.5 -36.5t13 -32.5q29 -78 151 -117q9 1 29.5 -0.5t27.5 0.5 q11 3 45 8q16 4 21 11q14 -3 27 4q32 12 38 16q11 2 32 22l22 19q11 4 30 35.5t21 44.5q0 2 6.5 17.5t12 30t3.5 15.5q-2 37 -2 86q1 19 1 54t1 53z" />
<glyph unicode="h" horiz-adv-x="1079" d="M143 315v160q-1 13 0 63t0 64q0 9 4.5 46t-0.5 46q-4 20 -4 66q1 7 2 20.5t2 20.5q3 3 3 33q-1 9 -1.5 31.5t-1.5 27.5q3 50 -2 90q0 5 5 68q0 15 1 41t1 38q-3 47 0 95q0 5 1.5 20t1.5 27.5t-3 19.5q-3 5 -3 18t-2 19q-5 24 5 60q70 9 92 2q50 -14 51 -15q9 -10 4 -37 q-2 -8 -1.5 -23t-0.5 -24v-55q0 -4 -1.5 -16t-0.5 -19q1 -11 -1.5 -35.5t-2.5 -33.5q0 -14 -1 -43t-1 -46q-1 -6 3 -41.5t-3 -39.5q-3 -9 -2.5 -21.5t-1.5 -19.5q1 -6 1 -19.5t1 -19.5q1 -11 -2.5 -33.5t-4.5 -36.5t5 -31q4 1 8.5 4.5t10 10t7.5 8.5t10 4t11 8q4 5 14 10.5 t24 11.5t17 7q11 8 36 16.5t34 7.5q3 0 20 6.5t23 6.5q3 0 22.5 3.5t22.5 2.5q12 -6 86 -6q13 0 43 -15h2t4.5 -0.5t6.5 -1t6 -0.5t4 0.5t1 1.5q9 0 27 -12q6 -3 18.5 -10t18.5 -10q47 -20 69 -48q4 -5 12.5 -12t10.5 -10q3 -6 11.5 -15t11.5 -12q14 -12 24 -33.5t10 -39.5 q2 -6 6 -29.5t7.5 -43.5t5.5 -20q3 -1 6.5 -36t1.5 -41q-2 -16 1.5 -47t2.5 -46q-1 -17 -1 -48.5t-1 -49.5q-7 -96 -4 -174q0 -9 -1 -30.5t-0.5 -35.5t3.5 -26q0 -1 1 -6t0.5 -8.5t-3.5 -6.5l-8 -16q-3 -4 -9 -6t-10.5 -2.5t-12.5 0.5h-7q-33 0 -45 4q-5 1 -24.5 -1.5t-33 0 t-16.5 13.5q-2 4 0.5 33t1.5 35q-1 8 2.5 40t3.5 34q0 37 -2 55q0 82 2 125q13 165 -6 248q-19 79 -47 120q-2 3 -17 19.5t-29.5 31t-14.5 11.5q-17 13 -27 16q-2 1 -9 2.5t-13 3.5t-9 4t-10.5 3t-18 2t-14.5 2q-10 2 -40 -3.5t-36 -5.5q-15 -1 -77 -16q-11 -2 -34.5 -21 t-25.5 -20q-4 0 -14 -20q-2 -3 -10 -11t-11 -12q-5 -11 -8.5 -23.5t-6.5 -28t-5 -22.5q-4 -18 -4.5 -39t1 -48.5t1.5 -39.5q0 -1 -1 -9.5t-1.5 -17t0.5 -20.5l-2 -31q-2 -31 -2 -34q5 -43 2 -103q0 -57 2 -90v-30q-1 -6 1 -19t1 -20q-1 -6 0 -20t0 -21q0 -5 -2.5 -26 t-1.5 -28l-3 4q-1 0 -1 -2q2 -11 1 -15.5t-14 -12.5q-17 3 -22 16q-14 2 -46 -8t-50 -8q-5 1 -8 7t-3 16v19t1 18.5t1 12.5q0 43 -2 72q0 8 2.5 46t-0.5 46q-2 12 -2 88z" />
<glyph unicode="i" horiz-adv-x="454" d="M313 219q5 -21 0 -63v-35q-2 -1 -2.5 -7t-0.5 -15v-17.5t0.5 -16t0.5 -8.5q0 -6 1 -21t1 -27t-2 -19q-6 -9 -17.5 -9t-26.5 4.5t-21 4.5q-3 0 -11.5 2t-11.5 2q-4 0 -13 -4t-13 -4q-2 4 -15 0.5t-14 9.5q0 1 -3 14t-3 21q1 14 -1 37.5t-1 35.5q0 6 1.5 26t0.5 32 q-4 25 -4.5 53.5t1 65.5t1.5 53q0 125 -2 180q-1 75 -1 101t2.5 103t2.5 101q0 29 -2 43q4 6 26 10q4 1 32 -1t34 -1q41 5 61 -8q5 -37 2 -90q-1 -16 -1 -66.5t-5 -72.5q-4 -10 -4.5 -22t1 -29t1.5 -25q4 -50 4 -86q0 -24 -2 -64.5t-2 -56.5q0 -9 -2 -23t-2 -24.5t4 -21.5 q1 -9 3 -31.5t3 -30.5zM170 1012q-16 0 -20 4q-5 5 0 14q6 20 8 21l2 39q1 10 4 34t2 47q3 12 -4 23q0 7 8 10q2 -1 16.5 -3t16.5 -3q5 -2 19 -2t22 2q12 4 30 -12q2 0 6.5 -3.5t8.5 -4.5q11 1 15.5 -6t4 -15t-2.5 -19l-1 -10q-6 -29 0 -49q7 -3 2.5 -30.5t-4.5 -30.5 q0 -14 -14 -23q-4 0 -21 2t-26 2l-17 9q-3 2 -6 2t-7 -1t-7 -1q-5 0 -16 2t-19 2z" />
<glyph unicode="j" horiz-adv-x="532" d="M-135 -291q5 2 17 10t18 9q4 1 15 8.5t17 9.5q3 0 39 12q5 2 10.5 5.5t7.5 4.5t6 0.5t9 -4.5q1 -2 6 -20t10 -23q1 -2 4.5 -4.5t6.5 -5.5q5 -13 26 -35q13 -10 25 -10q71 -18 101 17.5t28 107.5q0 12 2 43t2 47q0 1 2 32t3.5 63t0.5 36l-6 213q2 59 2 133t-1 164.5 t-1 134.5q4 118 4 164q1 8 -1.5 19t-2.5 18q0 6 4 8.5t11 3t14 -0.5t15.5 -2t12.5 -1q3 0 11 2t13 2.5t11 -2.5h19q3 0 15.5 2.5t15.5 -1.5t1 -19q0 -12 -1 -33t-1 -33q0 -10 1 -30t1 -36t-2 -30q-5 -43 2 -130.5t4 -125.5q-1 -15 1.5 -49t1.5 -51q0 -7 2.5 -32.5t1.5 -35.5 q-3 -32 0 -65q3 -34 -2.5 -111t0.5 -111q2 -17 -0.5 -35.5t-1.5 -31.5q1 -6 1 -19.5t-0.5 -28.5t-0.5 -18q0 -11 -9 -47q-4 -18 -4 -63q-1 -11 -16 -74q-10 -29 -31.5 -61t-50.5 -45q-10 -4 -27.5 -11.5t-27.5 -11.5q-2 -1 -13 -2.5t-22.5 -4t-18.5 -5.5q-3 0 -8.5 2t-7.5 2 q-37 -6 -49 -2q-28 4 -31 4q-4 1 -12.5 0.5t-11.5 1.5t-15 8.5t-22 12t-13 8.5q-6 7 -20 15.5t-16 10.5q-5 4 -15.5 20t-15.5 21q-4 4 -11.5 19.5t-9.5 21.5q-14 34 -22 45zM377 1186q5 -7 3 -30.5t-5.5 -57.5t-1.5 -41q1 -1 -3.5 -17.5t-7.5 -21.5q-4 -5 -22 -8.5t-25 -1.5 q-6 3 -21.5 5t-21.5 1q-28 -4 -30 -4q-1 0 -5.5 -1.5t-9.5 -2.5t-8 0q-13 4 -15.5 9t1.5 11.5t4 9.5q-1 16 1.5 45.5t-1.5 38.5q3 6 -0.5 23.5t0.5 21.5q4 1 2.5 9t-0.5 10q4 6 10 12q9 1 13 -2.5t10 -1.5q76 7 133 -6z" />
<glyph unicode="k" horiz-adv-x="915" d="M473 655q8 8 28.5 25.5t28.5 26.5q25 21 56 49q8 8 32 30.5t37 36.5q2 2 6.5 7t8.5 9t8 7q1 2 6.5 9.5t5.5 10.5q8 2 41.5 4t58.5 2.5t29 -0.5q2 0 9.5 -3t9.5 -3t8.5 1.5t8.5 1t6 -1t5 -4t2 -9.5q1 -3 -9 -11.5t-22.5 -18t-15.5 -13.5q-38 -43 -47 -51q-4 -4 -14 -13 t-18.5 -17t-14.5 -17q-4 -5 -24 -21t-31 -30q-3 -4 -16 -17t-15 -16q-3 -3 -14.5 -13t-16.5 -16v-13.5t4 -17.5q2 -4 8.5 -13t8.5 -13q5 -11 14.5 -29.5t11.5 -21.5q21 -42 25 -46q5 -9 11 -27.5t9 -25.5q6 -15 19 -43.5t18 -42.5q2 -5 34 -73.5t50 -104.5q5 -9 26 -43 t28 -53q2 -5 11 -13t9 -12q0 -9 -3 -11.5t-11 -2.5t-13 -2q-9 -2 -18 -1.5t-24 2t-21 1.5h-27q-5 1 -17 0t-15 0q-10 2 -16.5 13t-11.5 29t-9 25q-11 16 -27 51.5t-20 43.5q-7 15 -24 49t-24 49q-6 16 -22 44t-23 44q-7 18 -23 47.5t-22 44.5q-3 11 -16 33t-16 37 q-2 -5 -10 -13t-16 -14.5t-19 -15t-13 -10.5q-21 -21 -37 -33q-2 -2 -12 -12.5t-14 -12.5l-11 -11t-13 -12.5t-10.5 -12t-8.5 -13.5q-13 -19 -11 -33v-41q0 -8 -2.5 -45.5t0.5 -44.5q1 -13 -0.5 -37t-1.5 -30q0 -21 -2 -27q0 -1 0.5 -5.5t-0.5 -8.5q-2 -18 -2 -66 q0 -8 -8 -8q-2 1 -9.5 -2t-10.5 -2q-3 0 -8.5 -1t-8 -1.5t-4.5 0.5t-7.5 0.5t-10 0.5t-6.5 5q-11 -4 -33.5 -7.5t-26.5 -0.5q-6 6 -12 0q-8 0 -11.5 3.5t-4.5 8.5v4q0 6 1.5 25.5t0.5 29.5l6 70v115v127q0 7 4 66t4 67v51q-1 8 -1 30t-1 31q-3 5 -0.5 46.5t2.5 46.5 q1 22 1 69t1 70q3 60 0 123q0 25 1 71t1 68t-6.5 112.5t-1.5 129.5q27 5 37 2q5 -1 23 1t22 1q3 -1 16.5 -0.5t24.5 -5.5q2 -1 7.5 4t9 7.5t7.5 -1.5q2 -7 1.5 -17.5t0.5 -21.5q1 -12 2 -35t2 -35v-22q3 -35 -2 -137q0 -36 1 -113t1 -113l-6 -192q-1 -27 1.5 -85t0.5 -91 q13 5 26.5 17.5t30.5 32t23 25.5q31 29 82 80z" />
<glyph unicode="l" horiz-adv-x="471" d="M309 1360q4 -4 8 -4q-1 -3 0.5 -13.5t-0.5 -13.5q-9 -23 -6 -33q2 -9 2 -51q-2 -10 -2 -61q0 -7 -4 -84.5t-4 -79.5q0 -7 1 -36t1 -36v-61q0 -3 -1 -15t-1 -22t2 -16q1 -11 -1.5 -69.5t-2.5 -68.5q2 -2 2 -28.5t-1 -59.5t-1 -35q1 -27 -0.5 -79t-1.5 -68 q-1 -50 0.5 -140.5t1.5 -117.5q0 -7 3.5 -48.5t-1.5 -47.5q-1 -7 1.5 -21.5t4 -25t-3 -19.5t-18.5 -10q-36 0 -51 -6q-10 -5 -30.5 0.5t-25.5 5.5q-8 0 -13.5 7t-7 18.5t-2.5 22.5t-1 23.5v16.5v88q0 1 -1 36t1 36q8 48 4 151q-1 14 -3 55.5t-2.5 62.5t-1 55.5t0.5 63.5 t4 56q4 51 4.5 107.5t-1 129.5t-1.5 109q0 149 2 215q0 4 -2.5 29.5t0.5 28.5q1 7 0.5 28.5t1.5 28.5q2 6 11 8t17 -4q5 0 5 -14q0 2 26.5 7t52 6.5t35.5 -7.5z" />
<glyph unicode="m" horiz-adv-x="1316" d="M508 778q-64 4 -66 4q-61 -4 -98 -24q-33 -22 -43 -45q-1 -2 -7 -10t-10 -13.5t-7.5 -14.5t-4.5 -18q0 -4 -3.5 -16.5t-4.5 -17.5q-10 -63 -6 -144q1 -14 0 -41.5t0 -40.5q0 -17 3.5 -43.5t2.5 -36.5q0 -6 -1 -16.5t-1 -22t2 -26.5q0 -39 -4 -62q-2 -16 -2 -75 q-5 -47 0 -70q4 -23 -5.5 -33t-29.5 -4q-4 2 -11.5 2t-18 -1t-15.5 -1q-6 0 -14.5 -2.5t-11.5 -3.5q-5 -1 -13.5 2t-11.5 2q-7 -2 -10.5 -1.5t-4.5 8t-1 13.5t1 15t1 12q-4 48 -4 150t-3 149q-9 146 -6 189q2 23 2 88q-4 25 -4 26q7 8 2 51.5t-4 51.5q1 11 0 36t0 42 q2 11 -2 32q-3 18 17 23q16 -2 20 0q5 3 10.5 3t8 -1t4.5 0q7 2 18.5 1.5t28 -2t18.5 -1.5q19 -1 27 -13.5t7.5 -26.5t-2.5 -36.5t-1 -34.5q14 4 26 33q11 20 27 25q14 17 59 30q2 0 14.5 5t20.5 6q17 4 41 4q52 4 90 -9q5 -2 54 -8q4 -1 18.5 -3.5t27.5 -4.5t19 -2 q15 0 29.5 -16.5t32 -47.5t20.5 -36q6 6 24.5 31t32.5 36q8 6 33.5 19.5t32.5 13.5q9 1 29.5 5t29.5 5q43 3 74 0q84 -15 113 -37q38 -28 39 -30q8 -6 18 -21l12 -18q5 -5 8 -10.5t6 -13t4 -12.5t3.5 -15.5t3.5 -14.5q13 -37 16 -92q4 -34 6.5 -103.5t6.5 -99.5 q2 -22 2 -116q0 -21 -3 -55.5t-3 -45.5q0 -3 -2 -16.5t-1 -22.5q3 -9 -1 -39.5t-3 -42.5q0 -13 -4.5 -39t-3.5 -34q-8 5 -20 -4q-14 -9 -52 4q-7 3 -48 -1q-16 -2 -15 3q0 1 2 4l4 16q0 3 -1.5 6t-0.5 9q2 8 2 28q1 10 0.5 23t1.5 16q2 11 -4 41q-2 24 2 62t2 55 q-1 35 -1 48t2 47.5t3 49.5q3 64 3.5 93.5t-6.5 85.5t-25 98q-1 1 -11.5 20t-16.5 28t-20 21.5t-30 18.5q-20 6 -55 4t-46 4q-1 0 -5 -3t-7.5 -5.5t-3.5 -1.5q-9 0 -22.5 -6t-24.5 -9q-13 -5 -27 -32t-18 -45q-5 0 -12 -40t-7 -53q0 -12 -0.5 -39t-0.5 -50.5t1 -41.5 q1 -20 -1.5 -64t-2.5 -56q0 -7 -1.5 -30t-0.5 -42q3 -31 0 -62q-2 -23 -3 -61.5t-3 -58.5q-1 -12 0.5 -27t0.5 -24t-7 -17l-27 -10q-4 1 -13.5 4.5t-11.5 3t-16 -3.5q-5 -1 -16 -1t-18 -1l-12 4l-9 3t-6.5 2.5t-4.5 2.5t-1.5 3t0 4.5t2.5 6.5q1 2 8.5 17.5t7.5 17.5 q-11 13 -4.5 55.5t4.5 57.5q-6 17 -5 27t4.5 26t2.5 25q0 6 -1 51.5t-1 52.5q0 36 4 60q1 15 -1.5 50t-2.5 54q0 52 -14 74q-1 9 -1.5 41.5t-2.5 42.5q-5 27 -20.5 55.5t-32.5 40.5q-5 3 -31 12z" />
<glyph unicode="n" horiz-adv-x="997" d="M418 780q-11 -9 -33.5 -24t-36 -27t-20.5 -27q-22 -43 -25 -55q-2 -7 -5 -26.5t-7 -38.5l-4 -29v-37q0 -9 0.5 -29.5t0.5 -37t-1 -29.5q-8 -24 -5 -152.5t3 -152.5q0 -5 1 -24t0.5 -32.5t-2.5 -30.5t-8.5 -26t-17.5 -10q-4 0 -13 -0.5t-18 -0.5h-20.5t-20.5 1t-17 2.5 t-12.5 4.5t-4.5 7t-1.5 23.5t-0.5 27.5v5q1 6 1 11.5v12.5t-1 10q-5 51 0 107q3 64 -5 217q-2 36 -0.5 122t0.5 120q0 20 -1 55.5t-1 52.5q1 9 -1.5 53.5t-4.5 57.5q-1 4 4 6t12.5 2.5t14.5 -0.5q5 0 19 -2t20 -2q8 -1 23 1t26 1.5t18 -6.5q4 -3 6 -7t4 -9.5t3 -8.5 q3 0 1 -18l-1 -17q0 -3 -2 -14t-2.5 -18t2.5 -13q2 -2 3 -7t3 -7q7 6 18 22t15 21q5 8 10.5 14t19.5 16t15 11q17 18 49 28q44 11 51 11q7 2 19 2.5t16 1.5q146 23 260 -98q12 -12 21.5 -26t17 -32t13.5 -30.5t10.5 -36t7 -34t5.5 -37.5t3.5 -34t3 -36.5t2.5 -32.5 q8 -136 8 -197q-4 -50 -4 -76q1 -9 1.5 -42t2.5 -46q3 -14 3.5 -30.5t0 -27.5t-2 -31.5t-1.5 -29.5q-12 -8 -32.5 -12.5t-32.5 -1.5q-15 3 -32 -1.5t-28 -4.5l-12 -6q-22 22 -17 43q0 -2 3.5 2.5t7 16t2.5 26.5q0 1 -1 14.5t-1 25t2 13.5q3 8 2 23.5t-4.5 39t-3.5 27.5 q0 44 -5 125t-6 111q0 22 -6.5 62t-5.5 60q0 12 -2.5 24t-6.5 24.5t-5 19.5t-8 25t-9 24q-21 51 -55 76q-1 1 -16.5 5.5t-18.5 6.5q-11 6 -21 10t-12 5q-11 9 -54.5 5t-59.5 -20z" />
<glyph unicode="o" horiz-adv-x="909" d="M231 59q-25 14 -32 23q-4 5 -16.5 18t-18.5 21q-3 6 -9 21.5t-12 23.5q-5 3 -10.5 12t-5.5 15q0 8 -3.5 18.5t-9.5 23.5t-8 17q-17 42 -12 55q3 13 -2 43t-4 41v32t4 38q-2 23 1.5 45.5t12 53t11.5 44.5q18 68 43 98q2 4 13 23t13 23q3 6 12 14t11 10q4 6 11.5 11t10.5 8 q6 8 28 26t26 23q2 2 12 2.5t18 7.5q12 12 41 12q4 0 30 11t30 12q8 2 26 1.5t23 2.5q8 2 23 -1t16 -3l98 -21q2 -2 18.5 -7t18.5 -7q4 -4 21 -17t24 -20q25 -32 27 -35q7 -15 29.5 -45.5t29.5 -50.5q1 -6 8.5 -19.5t7.5 -23.5q0 -3 7.5 -23t7.5 -26q4 -11 8 -33.5t6 -30.5 q3 -9 3 -26t1 -21q11 -97 -6 -170q-1 -5 -2.5 -17.5t-3.5 -22.5t-6 -15q2 -5 -0.5 -18.5t-5.5 -16.5q-4 -5 -11.5 -29t-15.5 -30q-6 -3 -11 -12t-7 -11q-9 -6 -35 -37q-5 -6 -13.5 -13.5t-11.5 -10.5q-8 -12 -24 -24t-27 -13q-2 0 -8.5 -4.5t-9.5 -5.5t-43 -21 q-46 -16 -50 -16q-7 -1 -22.5 -6.5t-24.5 -5.5h-35q-8 3 -34.5 2.5t-32.5 1.5q-12 3 -32.5 4.5t-35 6.5t-32.5 21q-6 4 -10 10t-7 9q-15 15 -31 24zM240 477q-3 -29 0 -57q0 -21 4 -45q5 -53 14 -84q10 -30 10 -41q0 -5 7.5 -24t7.5 -25q7 -17 17 -25.5t11 -11.5 q5 -8 19.5 -19t15.5 -12l7 -7t5.5 -5t6.5 -4.5t6 -4t7.5 -4t8.5 -4t11.5 -6t13.5 -6.5q14 -8 49 -4q49 6 67 18q32 18 60 60q0 1 12.5 14.5t13.5 18.5t13.5 24.5t13.5 24.5q2 11 13.5 51.5t13.5 48.5q32 168 -19 279q-4 8 -18.5 26t-20.5 33q-4 11 -21 26.5t-18 16.5 q-85 96 -213 27q-18 -10 -36.5 -32t-20.5 -32q-24 -47 -29 -74q-2 -8 -7 -24.5t-7 -24.5q-16 -66 -18 -92z" />
<glyph unicode="p" horiz-adv-x="997" d="M502 -10q-67 7 -103 22q-26 12 -56 36t-48 46q-5 -5 -2.5 -30t0.5 -33q-3 -15 0.5 -53t1.5 -50q-4 -13 -2.5 -43t0.5 -41q0 -16 2.5 -45t1.5 -51q-1 -10 -1 -29.5t-1 -29.5q-2 -12 -2 -60q5 -101 4 -116l2 -72q1 -6 -0.5 -9t-5 -4.5t-6 -1.5t-9 0.5t-10.5 0.5q-2 0 -52 1 t-54 5q-9 9 -4 20q4 6 5 16.5t0 26.5l-1 17q1 13 1 32t1 33q2 37 -2 115q-1 8 -1 18.5t0.5 24.5t0.5 22q0 6 -1.5 31t-0.5 35q3 37 0 76q-4 62 -4 69q4 65 -2 99q-1 4 -1 9.5t0.5 12t0.5 8.5q0 6 1.5 70t-1.5 70q-2 16 2 70.5t2 60.5q-1 5 -0.5 14t1.5 21.5t1 15.5 q0 6 -3 50t1 48q5 16 1.5 58.5t-1.5 60.5q2 27 -2 84q-6 61 6 121q1 5 -2 21.5t2 17.5q5 5 21.5 5.5t21.5 -1.5q19 -5 39 -1t33 -5t8 -37q-3 -19 -1.5 -51.5t-0.5 -49.5q5 3 10 8.5t10 13.5t6 9q2 2 18.5 13t16.5 14q4 9 33 26q1 1 14 10.5t19 10.5q8 2 21.5 10t17.5 10 q39 20 51 15q3 -2 19 2t20 4q7 1 19.5 -0.5t16.5 -1.5q24 0 62 -17q4 -1 14.5 -3.5t18.5 -4.5t14 -6q7 -5 27.5 -14.5t27.5 -14.5t23.5 -18t25.5 -20.5t22 -19t22 -23.5t16 -25q27 -53 41 -113q18 -60 18 -67q0 -4 -5 -26.5t-3 -29.5q7 -10 0.5 -50t-6.5 -50q0 -19 -3 -39.5 t-6 -33.5t-9 -38t-9 -36q-5 -21 -23 -56t-22 -45q-5 -16 -19.5 -31t-34 -31t-26.5 -24q-15 -4 -29 -15t-26 -16q-20 -10 -41 -16q-3 -1 -10.5 -5.5t-11.5 -4.5q-5 0 -28.5 -3t-29.5 -3q-12 0 -32.5 2t-30.5 2zM377 147q12 -12 40.5 -30t41.5 -21q47 -14 65 -12q64 8 86 18 q48 23 68 37q6 2 24 29q4 6 16 29t13 28q7 32 25 68q20 45 20 102q0 2 1 29.5t1.5 49t-0.5 34.5q-16 77 -20 88q-27 93 -94 154q-15 13 -21 17.5t-17.5 10t-27.5 8.5q-62 14 -84 9q-18 -4 -33.5 -9.5t-39 -16.5t-31.5 -15q-26 -13 -72 -54q-22 -19 -35 -79q-8 -31 -8 -95 q-2 -14 -2 -86q-5 -66 -4 -78v-35.5t0.5 -39t6 -37.5t15.5 -31q3 -9 15 -22.5t31 -31t20 -18.5z" />
<glyph unicode="q" horiz-adv-x="921" d="M768 868q-4 -7 -4.5 -15t1 -20t1.5 -18q-6 -48 -6 -55q4 -149 0 -225q-5 -101 -4 -119q5 -40 0 -58q0 -2 1 -14t1 -18q0 -22 -6 -58v-28q1 -14 -2 -42t-2 -42v-95l4 -104q0 -8 -2 -32t-2 -31q0 -11 2 -34t2 -36q-1 -16 1.5 -46.5t2.5 -43.5q0 -29 2 -37q2 -7 1.5 -15 t-2 -21.5t-1.5 -18.5q1 -19 -4 -119q0 -5 -1.5 -22.5t-0.5 -26.5q0 -23 2 -31q-3 -8 -33 -8h-80q-5 -1 -14 -1t-17.5 3.5t-7.5 9.5q8 72 2 141q-1 15 2 83.5t2 80.5q0 2 -1 94t-1 97q0 3 -1 13.5t-1 14.5l4 72q-2 -1 -94 -33q-20 -10 -41 -16q-4 -2 -20 -4t-19 -4 q-4 -4 -13.5 -5.5t-22 -2t-15.5 -1.5q-37 -3 -38 -2.5t-32 9.5q-33 11 -54 25.5t-26.5 22.5t-23.5 36q-4 6 -21 19.5t-20 21.5q0 1 -11.5 16.5t-13.5 21.5q-15 39 -22 52q-3 6 -5.5 22.5t-4.5 20.5q-5 13 -5 39.5t-2 40.5q-1 6 -1.5 29.5t-6.5 33.5q-8 63 4 154q4 65 13 86 q2 3 6.5 26t7.5 27q1 2 10.5 14t11.5 15q3 3 11.5 12t11.5 12q8 8 23 22t22 21q10 11 35.5 28.5t32.5 24.5t37 24.5t42 22.5q3 2 23 5.5t25 5.5q36 9 94 -11q58 -13 80 -40q4 -5 16 -15.5t20 -20.5t11 -20v60q1 6 1 17.5t1 18.5q0 1 2 11.5t2 11.5q3 -2 9 1t11 3t7 -5t6 -3 q26 9 26 -2q3 1 8.5 2t8.5 2l16 4q8 2 8.5 0.5t-1.5 -5.5t3 -9q4 -3 6 -4t4 -0.5t6 0t9 -1.5q-4 -8 4 -11zM606 231q-2 41 4 121t6 97v100q0 11 -5.5 37.5t-6.5 34.5q-4 31 -7 48.5t-13 39t-25 36.5q-4 3 -13 10.5t-14.5 12t-14 9.5t-17.5 7q-61 12 -72 11q-32 -6 -39 -11 q-6 -4 -17 -10.5t-16 -9.5q-23 -15 -32 -37q-2 -5 -18.5 -27t-16.5 -34q0 -6 -8 -23.5t-9 -21.5q-20 -120 -20 -148q0 -8 3.5 -48.5t2.5 -57.5q0 -14 5.5 -51t6.5 -46q5 -44 19 -69q4 -8 11.5 -27t15 -31.5t18.5 -19.5q2 -1 7.5 -5t7.5 -5.5t7 -4.5l7.5 -4.5t7.5 -4 t8.5 -3.5t8.5 -2.5t10 -2.5t10 -1q3 0 15 -1t22.5 -1t15.5 2q18 6 22 6q8 0 18 4.5t13 5.5q1 0 2 -1t2 -1q12 3 37 23q4 3 11.5 9t11.5 9q6 4 9 8t3.5 6t1.5 8.5t2 10.5t7 21.5t5 31.5z" />
<glyph unicode="r" horiz-adv-x="608" d="M578 731q-9 0 -25 12q-8 4 -23 9q-4 4 -30 0.5t-33 -2.5q-15 0 -64 -21q-22 -12 -49 -43q-8 -9 -18 -27.5t-14 -23.5q-13 -22 -25 -55q-10 -28 -6 -82q0 -7 -2.5 -30t-1.5 -36q0 -21 -3 -59.5t-3 -57.5q0 -6 1.5 -22.5t0.5 -24.5q-2 -10 -2 -30q0 -51 4 -78 q3 -7 0.5 -52.5t-2.5 -54.5v-55q-5 0 -17 -4.5t-14 -5.5q-12 -2 -21 -0.5t-24.5 5.5t-20.5 5q-4 1 -15 0.5t-18.5 0.5t-9.5 5q-4 8 -6 29t0 33q-2 6 -2 15t1 19.5t1 14.5q0 13 2 37t2 36q0 70 -2 103q-3 17 -0.5 104.5t2.5 106.5q1 5 1 11.5t-0.5 13t-0.5 8.5q-1 8 0 18.5 t3 24t3 18.5q3 64 3 129v113q5 -1 9.5 3t6.5 5q2 0 6.5 -1t7.5 -1q4 0 13 -1t14 -1q8 0 22 1.5t24.5 1t20.5 -4.5q17 -6 20 -11.5t3 -23.5q0 -1 -1 -9q-5 -24 -1 -24q2 0 4 2q9 9 29.5 25t29.5 24q11 9 31.5 19.5t34.5 11.5l76 8q3 4 67 4q10 1 15.5 -4t6 -12.5t1 -16 t0.5 -16.5q0 -7 1 -23t1 -24l-1 -14q-1 -13 -4 -19t-9 -6z" />
<glyph unicode="s" horiz-adv-x="817" d="M635 37q-1 -4 -13 -11.5t-18 -9.5t-24.5 -10.5t-31 -12t-24.5 -1.5q-4 0 -41 -5l-37 -5h-59h-33q-4 -1 -22 6t-25 4q-18 -3 -53 20q-12 9 -47 23q-6 2 -13.5 7.5t-17 14.5t-12.5 11q-27 22 -53.5 60.5t-1.5 51.5q5 3 18 15.5t25.5 21.5t19.5 6q21 -12 37 -28q6 -6 8 -7 q4 -2 19.5 -14t19.5 -14q3 -1 13.5 -11t13.5 -12q51 -22 67 -26q88 -18 119 -15q13 2 23 7t22.5 14t20.5 14q7 6 16.5 19.5t13.5 17.5q2 3 7.5 13.5t9.5 19t6 8.5q18 74 -21 119q-18 26 -73 49q-42 21 -54 29q-38 15 -43 20q-14 6 -39 12t-36 11q-7 2 -34 16t-30 18 q-4 4 -24 12.5t-23 14.5q-3 7 -14.5 12.5t-14.5 7.5q-35 35 -49 60q-22 37 -16.5 90.5t33.5 85.5q4 4 18.5 22t29 32.5t27.5 19.5q56 22 70 26t41 8q2 0 12.5 1.5t16.5 3.5q6 4 16 4.5t23.5 -1t17.5 -1.5q52 -2 133 -25q16 -4 44 -16.5t42 -24.5q29 -22 43 -39q2 -3 13 -6.5 t16 -7.5q8 -5 -8 -17q-5 -4 -12 -8t-15 -12q-3 -3 -10.5 -11.5t-12.5 -15.5q-1 -2 -4 -6.5t-5.5 -7.5t-6 -7t-6.5 -6t-6 -1q-33 13 -43 28q-7 11 -31 19q-4 0 -16 8q-7 5 -27 12t-23 8q-12 7 -26 7q-33 9 -43 8q-5 -2 -23 -2.5t-26 -3.5q-5 -4 -17.5 -6.5t-17.5 -6.5 q-17 -5 -21 -10q-8 -2 -31.5 -25t-19.5 -30q1 -2 2 -18.5t2 -20.5q1 0 2.5 -4.5t3.5 -9t4 -5.5q2 -3 14 -14t23 -20.5t11 -8.5q-1 -2 14.5 -5.5t32.5 -7.5t20 -7q15 -5 33 -16t31 -11q5 0 15 -7t15 -7q17 0 45 -14q62 -28 101 -64q20 -24 41 -45q6 -5 13 -17t11 -16 q7 -7 11.5 -15t7 -19t4 -18t2.5 -20.5t2 -17.5q7 -45 -4 -102t-41 -78q-10 -7 -24 -24t-19 -27z" />
<glyph unicode="t" horiz-adv-x="561" d="M115 741q-5 2 -21 2q2 14 2.5 51t3.5 56q1 4 -1.5 11.5t-0.5 10.5q0 4 10 1.5t13 -1.5q5 1 11 1t12.5 -0.5t9.5 -0.5h24q-1 21 1.5 44t0.5 32q-2 2 -2 29q2 16 5.5 65.5t4.5 53.5q1 7 -0.5 23t-1.5 18v67q1 4 0.5 15t1.5 17.5t7 10.5q5 7 19 1t17 -5q7 1 14 0.5t16 -1.5 t11 -1q5 -3 12 -3t15 1.5t12 1.5q9 0 23 -6q1 -1 3.5 -2t3 -1.5t1 -2.5t0.5 -6q-2 -5 -5 -33.5t-3 -38.5q-1 -8 0.5 -40t-2.5 -42q-3 -19 0 -37q2 -4 0 -31t0 -32q6 0 1 -39t-5 -45q0 -10 11 -13t28.5 -1.5t21.5 1.5q2 0 14.5 -1.5t20.5 -2t14 1.5q9 5 27.5 4.5t19.5 -6.5 q4 -10 1.5 -34t-1.5 -33q1 -6 1 -12.5t-0.5 -13.5t-0.5 -11q0 -2 1 -7t0.5 -7t-5.5 -2q-23 -6 -39 2q-6 1 -24 -0.5t-19 -1.5q-35 3 -69 0q-5 0 -5 -19t2 -42.5t1 -27.5q-2 -18 -2 -38q0 -12 1 -29t1 -25q-2 -10 -2 -45q0 -2 1.5 -19t0.5 -26q-3 -17 -2 -53.5t3.5 -89.5 t2.5 -55q0 -8 -0.5 -24.5t-0.5 -25t2 -20t7 -21.5q2 -2 9.5 -16t8.5 -18q4 -7 14.5 -14.5t19.5 -11.5l9 -3q15 0 19 -2q9 -1 41 4q4 0 17.5 10t23 15.5t14.5 -0.5q3 -12 2.5 -40.5t1.5 -37.5v-29q0 -4 -1 -9.5t-1 -9t2 -6.5q2 -4 -2 -6.5t-10.5 -4.5t-7.5 -3 q-31 -17 -47 -22q-1 0 -4.5 -1.5t-7 -2.5t-3.5 0q-4 0 -11.5 -4t-8.5 1q-6 4 -19 0q-22 -6 -45 9q-2 1 -14 4t-14.5 4t-12.5 4.5t-14 6l-12 7.5t-15 11t-14 14q-2 2 -9.5 11.5t-13.5 17.5t-8 12q-1 3 -10 22q-3 5 -5 18.5t-5 18.5q-12 15 -12 70q0 6 -5.5 34.5t-1.5 47.5 q4 23 0 49v47q1 10 -1.5 35t1.5 37q3 23 -2 49v49q0 7 -2.5 34.5t0.5 35.5q1 14 -0.5 27.5t-1.5 19.5q4 58 2 73q-3 1 -17 0t-24 -1.5t-12 1.5q-1 0 -8 -2t-8 -2z" />
<glyph unicode="u" horiz-adv-x="1042" d="M897 862q1 -2 2 -2.5t2.5 -2.5t3.5 -5q3 -9 -2 -16q-12 -97 -8 -226q1 -45 -1 -126.5t-1 -121.5q4 -104 2 -151q0 -13 -0.5 -52t-2.5 -65.5t-7 -50.5q1 -6 1.5 -14t-0.5 -17.5t-4.5 -15t-9.5 -4.5q-26 8 -36 10q-9 1 -51.5 -3.5t-47.5 3.5q0 1 -3.5 19t-7 38t-3.5 25 q-4 3 -23.5 -13t-29.5 -26q-4 0 -31 -18q-2 -1 -61 -23q-6 -3 -10 -5.5t-5.5 -3.5t-4.5 -2t-9 -1q-7 -1 -18 -4.5t-16.5 -4t-18.5 2.5q-3 0 -13 -2t-14 -2q-6 2 -23 2q-1 0 -9 -1t-14 -1.5t-13 0.5q-18 6 -54 6q-1 0 -11 -1t-16.5 -0.5t-9.5 3.5q-4 4 -11 8t-16 7.5t-11 4.5 t-50 33q-43 31 -63 104q-18 56 -18 68q0 8 -3 25.5t-2 27.5q0 31 -2 35q-5 15 -1.5 35t1.5 27q-2 13 2 43q2 48 -2 153q0 9 0.5 72t-4.5 72q-3 18 -3 79.5t9 65.5q1 1 4.5 6.5t6.5 10.5t4 5l7 -2q7 -2 13 -2q8 0 38.5 -3t37.5 -3h37q9 -17 6 -43q-3 -35 1 -104.5t1 -102.5 v-71q0 -10 -1.5 -31t-0.5 -31q1 -9 0 -25t0 -24q2 -27 4 -81t4 -81q0 -6 0.5 -22t1.5 -26t4 -22.5t9 -19.5q2 -2 12.5 -19.5t17.5 -23.5q3 -2 12.5 -10.5t10.5 -11.5q2 -5 10.5 -8.5t22.5 -6t20 -4.5q18 -8 33 -11.5t20 -4t22.5 2t22.5 3.5q2 0 19 2t30 4t17 6q8 4 25 7.5 t24 7.5q5 5 15 8t14 8q5 3 10 8t10 8q4 2 7.5 4.5t6.5 6.5t5 6l10 10q5 17 6.5 36.5t2.5 51t1 39.5q0 4 -1 27t-1.5 39.5t0.5 27.5q2 12 2 78q0 21 4 57q-4 24 -4 43q-2 23 -2 68q-2 25 -2 76q-1 13 0.5 40.5t1.5 34.5q0 8 2 21.5t2 25t-4 21.5q5 7 35.5 14.5t40.5 1.5 q5 -3 16 -2t25 2t26.5 2t20.5 -2t6 -10z" />
<glyph unicode="v" horiz-adv-x="786" d="M688 879q2 -2 29 -3q45 -4 45 -8q-4 -16 -16 -46.5t-21 -43.5q-4 -5 -6 -14t-6 -14q-1 -1 -3 -9t-3 -10q-1 -3 -4.5 -12.5t-6 -16.5t-4.5 -10q-4 -6 -14 -41q-2 -4 -8 -21.5t-8 -21.5q-4 -8 -17 -47q-2 -7 -12 -26.5t-12 -30.5q-4 -14 -17.5 -41.5t-17.5 -42.5 q0 -5 -13 -31q-4 -9 -12 -26t-12 -25q-22 -46 -31 -78q-4 -14 -15 -44t-16 -44q-5 -13 -15 -41.5t-17 -44.5q-8 -15 -21 -53q-2 -5 -9 -16t-9 -17q-4 -13 -30 -19t-38 1q-16 8 -29 8q-5 0 -9.5 0.5t-5.5 0t-3 0.5t-2 2t-2.5 5t-5.5 8q-3 2 -12 31q-3 13 -12.5 35t-12.5 30 q-4 12 -11 38t-12 42q0 1 -2.5 7.5t-6 15.5t-5.5 14q-2 6 -5 21t-6.5 26.5t-8.5 18.5q-3 4 -7 21t-6 20q-1 4 -6 25.5t-6 25.5q-2 10 -14 38.5t-13 30.5q-4 10 -14 47.5t-12 47.5q-3 13 -15.5 43t-15.5 43q-4 18 -29 90q-17 51 -18 59q0 1 -10 37.5t-8 52.5q1 3 7.5 4.5 t14.5 2t10 1.5q10 4 39 2.5t49 -6.5q7 -2 7 -14q5 -11 27 -96t28 -113q3 -17 16.5 -53t16.5 -45q13 -51 14 -53q2 -3 5.5 -14.5t6.5 -16.5q2 -3 7.5 -26t7.5 -27t7 -20t7 -19q3 -6 16 -45q10 -48 13 -54q-1 -10 2.5 -22.5t9.5 -27.5t8 -23q4 -22 12 -37q3 -6 3.5 -10.5 t4.5 -12.5q7 6 10.5 19t6.5 18q2 5 6 17.5t6 17.5q1 4 5.5 29t11.5 37q2 5 6 17.5t8 18.5q5 8 11.5 32.5t8.5 29.5q21 67 27 78q5 8 19.5 48.5t15.5 43.5q11 27 16 45q2 8 9.5 22.5t9.5 18.5t5.5 17.5t8.5 19.5q12 16 16 37q5 19 17 51.5t18 50.5q0 1 5 16t9 21q5 26 7 26 q5 1 19 5t26 2q3 -1 9.5 1.5t8.5 -1.5z" />
<glyph unicode="w" horiz-adv-x="1306" d="M1180 907q8 3 27 0.5t24 -10.5q7 -14 -4 -20q-6 -4 -7 -31.5t-3 -32.5q-11 -25 -13 -43q-11 -43 -26 -80q-9 -19 -13.5 -50t-9.5 -46q-3 -11 -7 -27.5t-7 -27.5l-15 -60q-6 -25 -16 -53q-14 -43 -16 -57q-3 -30 -21 -74q-2 -4 -5 -22.5t-5 -24.5l-21 -62q-1 -4 -7 -32 t-9 -35q-4 -13 -8 -39q-1 -3 -5 -22.5t-8 -36.5t-8 -19q-18 -9 -30 -6q-7 0 -19 -6q-12 -3 -57 4q-3 1 -14 0t-18.5 -0.5t-8.5 4.5q-2 9 -9 30.5t-7 28.5l-7 19q-2 12 -12 37q-3 5 -6 16.5t-6 15.5q-7 10 -14 37.5t-11 36.5q-5 14 -11 46t-11 46q-5 11 -11.5 35.5 t-11.5 34.5q-8 16 -31 108q-7 25 -18 72.5t-21 86.5t-22 73q-11 -16 -18 -43q-3 -10 -6.5 -22.5t-8 -27t-6.5 -20.5q-9 -34 -22 -57q-2 -5 -4.5 -14.5t-4.5 -14.5t-6 -26t-10 -29q-3 -4 -4.5 -24t0.5 -23q-9 -27 -23 -55q-2 -2 -5 -11t-6.5 -20t-4.5 -15q-3 -8 -9 -28.5 t-9 -28.5t-11.5 -28.5t-11.5 -28.5q-1 -4 -14 -37q-4 -5 -8.5 -24.5t-8.5 -26.5q-14 -42 -14 -51q0 -11 -7.5 -31t-8.5 -29q-3 -16 -21 -16q-3 0 -9 1.5t-10 2t-9 1t-8 0t-5 -2.5q-7 -4 -22.5 -2.5t-26.5 6.5q-5 2 -14 3t-15 3q-10 20 -12 33q-3 10 -8 30.5t-8 30.5 q-6 25 -19.5 88.5t-23.5 100.5q-22 86 -57 248.5t-52 234.5q-3 13 -10 32.5t-9.5 34.5t-0.5 35q6 1 16.5 7.5t19.5 5.5q7 -1 17.5 -1.5t15.5 -1.5t11.5 -3.5t11.5 -8.5q4 -4 9 -6.5t8 -3.5t6 -5.5t5 -12.5q6 -26 11 -62q17 -92 26 -119q8 -23 13 -48.5t10 -56t8 -46.5 q14 -60 21 -100q5 -18 30 -134q22 -92 29 -124q4 0 7.5 13.5t6 31t2.5 18.5q1 9 3.5 18t7 20.5t6.5 16.5q6 37 12 49q17 34 25 58q14 39 18 61q6 23 27 88q3 10 9.5 26t11 29t7.5 27q3 17 17.5 50.5t17.5 50.5q1 6 6 26.5t6 26.5q0 2 8.5 19t8.5 24l10 71q16 20 49 11 q4 -2 14 -3.5t11 1.5q0 -2 16 -2q13 0 30.5 0.5t24.5 0t15 -3t12 -10t6 -20.5q18 -47 29 -105q4 -17 8.5 -32t11.5 -34.5t11 -31.5q2 -7 12.5 -46t19.5 -56q7 -17 12.5 -55t12.5 -56q5 -12 12 -40t12 -40q12 -33 27.5 -97.5t24.5 -90.5q6 7 11 26t7 23q1 3 4 23t4 22 q2 13 6.5 40t6.5 44q2 18 18 64q13 42 31 145q6 33 30 106q3 8 10.5 43t10.5 43q3 14 7 35t7 35q1 3 2.5 14.5t3.5 21.5t5 20.5t8.5 16.5t11.5 5q5 0 5 1q0 2 1 2q2 0 6 -1q3 -1 21 4q31 0 37 10z" />
<glyph unicode="x" horiz-adv-x="980" d="M938 872q30 -5 14 -26q-14 -11 -23.5 -19t-13.5 -11.5t-8 -6.5q-9 -8 -17 -18.5t-17 -25.5t-13 -20q-12 -15 -36.5 -40.5t-26.5 -28.5q-4 -6 -13.5 -15.5t-15.5 -17.5q-2 -2 -17.5 -24.5t-29.5 -30.5q-8 -5 -22 -24t-17 -23q-46 -51 -57 -60q-11 -11 -31 -41l-19 -20 q4 -19 43 -58q8 -7 29.5 -34t24.5 -31q9 -11 26.5 -29t22.5 -24q10 -14 24 -29.5t31.5 -35t26.5 -29.5q10 -11 34 -31t33 -29q12 -18 29 -35q28 -23 35 -24q0 -3 2 -6.5t4.5 -7.5t3.5 -5q5 -8 -1.5 -14.5t-6.5 -7.5l-33 4q-3 0 -5 1t-5 1q-28 6 -45 4h-43q-3 1 -12.5 -1 t-17 -2t-11.5 5q-2 2 -4 6.5t-4 7.5q-13 33 -68 88q-5 4 -24.5 26t-24.5 26q-3 3 -18.5 17t-18.5 17q-2 2 -10.5 11.5t-16.5 17t-12 10.5q-7 5 -26 29l-6 6q-50 57 -52 49q-2 -2 -22 -19t-21 -24q-6 -15 -28 -37q-6 -5 -20 -22t-15 -18q-13 -11 -35 -38t-33 -38 q-5 -4 -55 -62l-11 -11q-11 -12 -16 -20.5t-6 -17.5q-2 2 -4 1q-2 2 -2 3q-7 -12 -9 -15t-8.5 -3t-11.5 -2q-6 -1 -22.5 2t-24.5 2q-31 -7 -84 -3q-25 1 -20 7v6q7 -3 17 4.5t9 18.5q9 2 19.5 10t16 15t15 20.5t11.5 15.5q3 9 43 49q6 5 22 29t23 31q40 34 47 45 q3 3 16 21.5t21 21.5q6 4 20 24t15 21q10 10 22 27t19 24q14 17 24 25q11 11 -22 36q-28 40 -68 84q-5 3 -15 15t-14 16q-12 14 -30 41q-5 8 -15.5 16.5t-13.5 12.5q-25 30 -29 37q-3 4 -27.5 27t-25.5 26q-8 11 -31 28q-8 9 -21 25.5t-18 22.5q-4 4 -12 11t-12 11t-7.5 11 t-2.5 14v10t3.5 13t12.5 3q7 0 43 -2.5t43 0.5q4 -1 14 -0.5t26 1.5t19 1q18 -18 23 -39q4 -9 12.5 -18t12.5 -16q10 -15 51 -56q5 -3 14 -13t14 -15q24 -25 50 -54t57 -64.5t49 -55.5q2 -2 4.5 -5t4 -4t3.5 -2.5t3 -1.5t3 0.5t4 3t5 6.5q12 17 14 21q23 32 41 47q5 4 15 16 t18 17q8 7 16.5 22t13.5 21q1 1 14 15t19 24q3 6 15.5 19.5t19.5 17.5q6 4 14.5 19t14.5 20q15 15 18 20q13 27 17 49q0 1 1 2q1 6 5 4h24q54 4 76 4q10 -2 42 1t42 1z" />
<glyph unicode="y" horiz-adv-x="940" d="M893 874q9 5 17 2t8 -8q-11 -26 -17 -32q-2 -4 -5 -11.5t-5 -11.5q-27 -61 -39 -84q-3 -7 -9.5 -26.5t-11.5 -28.5q-3 -6 -11.5 -24.5t-10.5 -22.5q0 -9 -10 -29q-4 -7 -8.5 -17.5t-6.5 -13.5q-6 -8 -12.5 -27.5t-9.5 -25.5q-3 -3 -7.5 -11.5t-4.5 -10.5q1 -6 -13 -35 q-1 -2 -5 -12t-9 -15q-18 -21 -29 -57q-2 -11 -12.5 -26t-13.5 -21q-4 -11 -15.5 -39.5t-17.5 -44.5q-1 -3 -10 -19.5t-11 -25.5q-17 -26 -20 -33q-4 -9 -13 -27t-14.5 -31.5t-9.5 -27.5q-6 -30 -18 -49q-3 -5 -11.5 -18.5t-11.5 -20.5q-4 -4 -12 -23t-14 -36l-5 -17 q-25 -49 -28 -57q-1 -2 -7.5 -17.5t-7.5 -17.5q-6 -9 -12 -27q-2 -9 -14 -33l-13 -26q-2 -5 -18 -36t-18 -36q-2 -7 -12 -20t-11 -15t-3 -9.5t-5 -12.5t-8 -8q-3 -2 -35 -28t-35 -28q-3 -3 -19 -8.5t-20 -9.5q-4 -5 -25 -9.5t-28 -9.5q-7 -4 -31 -4t-31 -4q-13 -7 -22.5 -5 t-7.5 13q2 16 2 52q4 32 -2 57q0 2 -0.5 6t-0.5 5.5t2.5 4t8.5 4.5q3 -1 5 -1.5t2.5 -1.5t1.5 -1.5l3 -1.5q2 0 7 2t8 2q6 0 11.5 2.5t10.5 2.5q23 2 86 65q7 7 24.5 37.5t22.5 42.5q2 5 10.5 19.5t15.5 27.5t7 18q0 1 6 13.5t6 13.5q5 13 19 42.5t16 35.5q5 13 23 49.5 t22 48.5q6 12 19 51q2 5 3.5 8t1 6.5t-0.5 5t-1.5 6l-2.5 7.5q-7 6 -14 22t-11 21q-5 8 -14.5 24.5t-14.5 24.5q-4 10 -15 26t-15 23q-17 37 -27 54q-5 8 -14 29t-17.5 37.5t-17.5 23.5q-2 10 -12 27.5t-13 25.5q-4 9 -13 27.5t-13 27.5q-2 4 -23 43t-33 60q-4 9 -20.5 39 t-22.5 49q-13 13 -28.5 35t-18.5 34q-14 12 -28 50q-1 5 2.5 14.5t3.5 13.5q5 1 22.5 -3.5t22.5 -4.5q1 -2 4 -1.5t8.5 2t7.5 1.5q1 0 26.5 -4.5t37.5 -3.5q19 5 24 2.5t11 -20.5q17 -43 53.5 -110t50.5 -99q1 -4 14.5 -24t16.5 -23t11 -24.5t9 -23.5q17 -17 51 -94 q6 -16 45 -71q2 -3 12 -17t16.5 -23.5t12.5 -22.5t5 -21q2 -1 35 68t67 144t39 89q9 27 32 75t31 68q20 53 21 61q1 12 18 54l13 24q49 0 67 2q8 2 40 1t38 7z" />
<glyph unicode="z" horiz-adv-x="911" d="M811 127q3 -7 6.5 -25t5.5 -22q3 -6 9.5 -21.5t9.5 -21.5q5 -6 2.5 -18.5t-10.5 -12.5q-21 -6 -27 -6h-113q-2 3 -5 3t-6.5 -1.5t-4.5 -1.5v2q-7 -3 -16 -3t-25 2.5t-19 2.5q-1 0 -18.5 -1t-31 -1t-13.5 2q-2 -3 -10.5 -3.5t-16.5 0t-14 -0.5q-36 5 -51 0 q-5 -1 -19.5 1.5t-15.5 2.5q-12 0 -16 4q-7 9 -50 0q-64 -18 -73 -4q-2 1 -11 1t-18.5 -0.5t-17.5 -1.5l-9 -1q-4 1 -42.5 -1t-43.5 -1q-6 0 -25.5 -3t-25.5 -2.5t-24 3.5q-11 1 -14 17t-7 22q-6 7 0.5 33.5t1.5 33.5q-6 6 -6 23q-2 5 4 14.5t16 20.5t11 12q15 21 49 51.5 t47 48.5q5 5 18.5 16t20.5 19q3 8 18.5 22t18.5 17t10.5 10t9.5 11q1 3 10 9t9 9q1 2 12 16.5t20.5 24.5t16.5 14q3 4 18.5 17.5t18.5 17.5q2 2 11.5 15t17.5 21.5t14 12.5q25 16 64 56t55 53q27 21 69 70q5 7 22 22.5t23 28.5q-3 -1 -11 -0.5t-11 -1.5q-7 -5 -15 -1.5 t-12 1.5q-28 -4 -104 6q-25 0 -65.5 -3t-63.5 -3q-14 1 -31 -2t-25 -4q-6 -1 -18 0t-19 0h-4q-3 1 -6 1t-6 -1q-8 4 -22 4q-7 0 -20.5 -1t-20.5 -1q-20 0 -82 -15q-11 -3 -18 1.5t-9.5 17.5t-3 22.5t-0.5 27.5v5q-13 43 6 53q15 6 72 6q1 0 9 -1t15 -1t11 2q7 4 16.5 4.5 t14.5 0t19.5 -3.5t16.5 -3q12 -2 35 0t35 0l24 -2q25 -1 29 2q1 0 18 -1.5t29.5 -1t14.5 4.5q6 11 83 0q5 -1 26.5 0.5t23.5 1.5q29 -3 55 0q6 0 41.5 2.5t42 2t41.5 -2.5q4 -1 24.5 2.5t49.5 2.5q8 -1 15 0.5t9 1t3 -3t3 -11.5l-2 -20q0 -5 0.5 -24t0 -27.5t-3.5 -20.5 t-9 -18q-36 -30 -41 -35q-27 -21 -31 -27q-4 -4 -20.5 -19.5t-30 -29t-18.5 -20.5q-9 -10 -24.5 -21t-22.5 -18q-2 -6 -15 -21t-14 -16q-3 -3 -8 -6.5t-8 -5.5t-3 -5q-1 -4 -7.5 -11t-16.5 -16l-10 -9q-10 -15 -30 -32t-28 -26q-1 -1 -20 -22t-29 -23q-6 -2 -18.5 -18 t-16.5 -19q-23 -29 -28 -32q-43 -23 -56 -54q-16 -26 -30 -32q-6 0 -28.5 -18.5t-29.5 -27.5q-2 -4 -23 -23.5t-20 -25.5q49 6 84 4q12 -2 37.5 0.5t40.5 -0.5q12 -10 72 -5.5t76 3.5q63 0 94 2q6 0 24 1.5t27 0.5q9 -2 24.5 2.5t22.5 2.5q2 0 13.5 -1.5t13.5 1.5l4 1 q3 1 6.5 1.5t9.5 -0.5q6 -2 12 -2q1 0 7 3t8 3l12 -30q0 -3 -2 -1z" />
<glyph unicode="{" horiz-adv-x="423" d="M72 684q1 6 -1.5 26.5t0 34.5t13.5 19q20 12 33 27q6 6 10.5 13.5t7.5 18t5 18t3.5 22t2 20.5t1 22t0.5 19q2 115 13 311q0 30 15.5 61.5t41.5 44.5q22 15 31 13q8 -1 8.5 -2t9.5 3.5t10 4.5q12 5 27 -3.5t16 -8.5v-62q-4 -3 -27 -12.5t-28 -24.5q-2 -5 -6.5 -57.5 t-5.5 -54.5q-8 -25 -1 -121t5 -127q0 -71 -27 -129q-11 -9 -13 -19t2.5 -18t10.5 -21t7 -24q1 -16 6 -66.5t4 -76.5q0 -53 -6 -117q-2 -22 0.5 -69.5t1.5 -67.5q0 -119 4 -146q1 -31 12.5 -47t38.5 -33q12 -7 17.5 -24.5t-0.5 -31.5t-21 -11q-62 10 -101 35t-55 75 q-3 13 -3.5 28.5t0.5 37t1 29.5l-3 48q-4 48 1 50q4 21 4.5 48.5t-1 64t-1.5 51.5q0 9 1.5 35.5t1.5 40t-1 37.5t-5 38.5t-11 31.5t-19.5 28.5t-29.5 17.5z" />
<glyph unicode="|" horiz-adv-x="454" d="M276 1298l21 -4q-8 -10 -8 -46.5t-2 -43.5q-9 -53 -4 -80q2 -19 -2 -88q0 -8 -1 -41t-1 -51v-67q-1 -8 -1.5 -17t-1.5 -21t-2 -20q0 -3 1 -8.5t1 -7.5q2 -46 4.5 -257t-1.5 -237q-4 -5 -1.5 -30.5t1.5 -30.5q-4 -1 0 -72t6 -88q2 -18 -7 -22t-28 -1t-25 3q-1 0 -13.5 -1 t-14.5 1q-9 2 -11 0t-2.5 -7t-3.5 -8q-12 3 -16 42t-2 75t0 53q-4 65 -3.5 163t3 252t2.5 163v24q0 10 2 23t2 22v21v6q-4 22 -2 37q0 51 2 80q4 38 1.5 145.5t-1.5 145.5q7 1 22.5 -2t18.5 -3q8 -1 22 0.5t21 -0.5q24 0 24 -2z" />
<glyph unicode="}" horiz-adv-x="464" d="M348 780q1 -5 39 -35q11 -9 6 -59q-2 -5 -2 -11.5t-2.5 -9.5t-11.5 -8q-9 -4 -13.5 -10.5t-8.5 -15t-7 -13.5q1 -5 -4 -16.5t-4 -17.5q-2 0 -3.5 -10.5t-3.5 -23t-5 -15.5q-1 -7 0.5 -58.5t-6.5 -58.5q0 -24 -3 -25q-4 -3 -2.5 -18.5t-3.5 -18.5q10 -21 0 -39 q-1 -6 -1.5 -31.5t-2.5 -33.5q-4 -13 -5 -32t3 -32q3 -9 -7.5 -45.5t-16.5 -44.5q-10 -10 -21 -37q-4 -7 -7.5 -12t-6 -7.5t-7.5 -7t-8 -7.5q-2 -1 -16 -8.5t-16 -14.5q-2 -3 -7.5 -2.5t-9 1.5t-4.5 -1q-19 0 -43 -8q-9 -1 -13.5 -2t-8.5 7t-5 14t-3.5 18.5t-4.5 21.5 q0 7 18 22t23 15q6 7 17 15t17.5 16t10.5 20q16 49 21 82q23 111 14 170q-2 13 -2.5 30t-1.5 23v35q0 1 -1.5 11.5t-0.5 19.5q2 9 2 29t2 30q4 28 4 52q0 30 13 51q2 4 14 22q0 4 -12.5 15.5t-14.5 17.5q-5 5 -6.5 12t-2.5 17.5t-1 13.5q0 26 -3 80.5t-3 83.5q1 36 -2.5 106 t-3.5 99q0 23 -6.5 72.5t-16.5 64.5q-6 9 -23.5 19t-25.5 10v39q0 6 10 10h35q2 0 13.5 -3t19.5 -3q9 0 24 -8t17 -9q14 -10 24 -24q2 -4 11.5 -24t11.5 -27t7.5 -24.5t7 -35t1.5 -39.5q0 -7 3 -31t3 -32v-49q3 -25 3 -97q0 -3 6 -84q0 -52 8 -63q1 -1 2 -3.5t2 -6t2.5 -7 t3 -5.5t2.5 -1z" />
<glyph unicode="~" horiz-adv-x="1062" d="M948 649q6 -7 16.5 -21.5t20.5 -25.5q1 -5 7.5 -16.5t8.5 -18.5q1 -3 -2 -6.5t-8 -3.5q0 -3 -1.5 -4t-3 -1t-1.5 -1q-2 0 -10 -6.5t-8 -7.5q-10 -7 -68 -43q-10 -5 -26 -14.5t-29 -16.5t-29 -12q-81 -21 -125 -17q-21 0 -37 4q-8 2 -23 2.5t-22 3.5q-2 0 -14 7.5t-25 16 t-14 9.5q-7 3 -21 7.5t-25 9t-17 8.5q-12 9 -49.5 18.5t-41.5 11.5q-21 3 -67 7q-9 3 -30 4t-32 -2l-3 -1q-3 -1 -8 -2t-11 -1q-12 0 -35 -9q-11 -4 -26 -14t-23 -14q-2 -1 -7.5 -6.5t-9.5 -8.5t-9 -6t-8.5 -2t-4.5 6q-3 12 -16.5 30t-22.5 24q-2 2 -9 7.5t-10 8.5t-5.5 10 t4.5 12q11 14 25 25t33 23.5t26 17.5q18 16 46.5 29.5t47.5 13.5q14 0 44 6t48 4q46 -4 137 -22l57 -15q5 -4 7.5 -5t4.5 -1.5t5 -1.5q4 -4 9.5 -5t10.5 -5q5 -2 12.5 -6.5l12.5 -7.5q39 -14 68 -31q8 -4 19.5 -6.5t21.5 -3t26 0.5t23.5 1.5t24 3t18.5 2.5q5 1 20.5 7.5 t24.5 6.5q32 11 49 31q1 1 3.5 5.5t4.5 7t4.5 6t5 6l5 5t5.5 3t5 0.5q2 -2 11.5 -8.5t14.5 -12.5z" />
<glyph unicode="&#xa1;" horiz-adv-x="425" d="M129 539q1 11 0.5 42t1.5 40q2 21 23 18q19 -4 77 0q23 3 30.5 -2t10.5 -27q7 -21 7 -35q-1 -27 -1 -38t2 -39t3 -43q0 -6 1 -30.5t1 -29.5q-3 -45 2 -76q2 -10 2.5 -29.5t1.5 -25.5q-1 -4 1 -12.5t1 -13.5q0 -5 -3 -20t-1 -23q4 -8 2.5 -36t-0.5 -36q1 -9 1 -31t1 -33 v-69q1 -8 -1.5 -49t1.5 -52q2 -12 2 -36q-1 -9 0.5 -25t1.5 -21v-100q0 -2 -0.5 -18t-0.5 -27t2 -24t5 -19q7 -12 -10 -12q-43 0 -47 -2q-5 -5 -30 -3t-30 1q-10 -4 -32 -4q-11 -1 -14 2t-9 4q-3 21 -2 26q3 8 3.5 17t-0.5 21.5t-1 17.5q4 106 4 159q-1 16 0.5 73t-2.5 71 q-1 3 0 13.5t0 12.5q-2 25 -2 80q0 5 -2 69.5t-4 98.5q-2 39 2 111q1 28 1 83.5t1 80.5zM250 733q-6 -1 -44 -1t-46 1q-5 1 -33 8q-3 12 -0.5 39t0.5 39q-6 21 0 41q3 16 1.5 27t1.5 23t13 22q8 0 26.5 -2t20.5 -2q6 2 19 1t18 -1t18 -2.5t19 -3.5q0 -3 5 -18.5t3 -29.5 q-1 -11 0.5 -30.5t1.5 -26.5t1 -20.5t1 -21.5t-1.5 -18t-7.5 -16t-17 -8z" />
<glyph unicode="&#xa2;" horiz-adv-x="749" d="M188 260q-25 18 -47 53q-5 8 -14.5 30t-11.5 26q-13 23 -17 55q-1 8 -3 22t-3 26t0 22q17 165 86 237q6 6 16.5 19.5t16.5 19.5q5 4 14.5 13.5t14.5 13.5q7 5 16.5 9.5t22 9.5t18.5 7q5 7 19 11.5t27 7t23 8.5t9 14q-8 73 -4 107q1 3 1 19.5t3 21.5q11 13 41.5 13.5 t34.5 -15.5l4 -8t3 -5.5t2 -6t1 -11.5q0 -6 1 -18.5t1 -18.5q0 -64 2 -76q49 -7 84 -24q12 -8 22 -8q5 0 12.5 -7t12.5 -8q5 -2 18.5 -10.5t20.5 -9.5q2 -1 10 -8.5t10 -8.5q3 0 8 -0.5t7 -1t4.5 -3t5.5 -7.5q1 -2 6 -9t7 -10.5t3 -9t-2 -10t-10 -8.5q-4 -3 -6.5 -5t-3 -3.5 t-3.5 -3t-9 -2.5q-4 -1 -8 -2.5t-9.5 -4.5t-9.5 -4q-13 -3 -29.5 10t-21.5 15q-32 11 -35 14q-23 10 -41 15q-3 1 -9.5 4t-12 5.5t-11 3.5t-8.5 -2t-4 -11q0 -7 -2 -24t-2 -23q0 -4 2 -26t2 -32q0 -14 -2 -39t-2 -37q0 -9 2.5 -32.5t1.5 -36.5q-2 -11 0.5 -36.5t1.5 -33.5 q-1 -7 0 -24.5t0 -22.5q-2 -15 2 -49v-64q10 0 22.5 2t27.5 6t20 5q24 6 49 24q6 5 23 15.5t26 19.5q4 7 10.5 4t10 -6t10 -11t10.5 -12q12 -11 16.5 -20.5t-2 -19t-10 -13.5t-18.5 -14t-17 -12q1 0 -2.5 -4t-7.5 -8l-4 -3q-25 -13 -31 -14q-2 -1 -57 -25q-8 -4 -27.5 -6.5 t-28.5 -7.5q-2 -2 -16 -2q-4 -28 -2 -43q0 -5 1.5 -20.5t2 -29t-0.5 -28t-5.5 -24t-13.5 -11.5q-5 -2 -19.5 -2.5t-19.5 2.5q-1 0 -5 1.5t-5 1.5t-3.5 1.5t-2.5 2.5t-2 3t-2 3.5t-0.5 5t-0.5 7.5v9q-1 10 -1 22t0.5 26t0.5 20q0 41 -2 53q-6 2 -20.5 1.5t-20.5 2.5 q-30 10 -37 10t-17.5 5t-22.5 12.5t-15 9.5q-25 15 -45 31q-4 3 -12.5 9t-12.5 9zM203 578q-1 -7 -5 -30t-5.5 -34.5t-1.5 -29t4 -31.5q19 -68 41 -91q31 -35 49 -51q23 -21 106 -30q9 78 -2.5 224t-7.5 210q0 49 -4 49q-26 -7 -35 -12q-19 -11 -53 -45q-3 -3 -13.5 -12.5 t-18 -17.5t-11.5 -15t-12.5 -20.5t-12.5 -20.5q-6 -7 -10.5 -22t-7.5 -21z" />
<glyph unicode="&#xa3;" horiz-adv-x="1118" d="M606 1298q3 -2 13 -5t12 -5q4 -1 16.5 -4t18.5 -6q2 -2 9 -5t9 -5q3 0 12 -5.5t13 -11.5q6 -6 24 -17.5t27 -21.5q36 -42 41 -53q4 -10 -11 -25.5t-32.5 -25.5t-18.5 -8q1 -2 0 -1q-7 2 -16 13q-2 5 -15 12.5t-16 12.5q-10 15 -100 69q-50 24 -123 21q-16 -1 -32 -6.5 t-34 -15t-28 -13.5q-28 -12 -41 -25q-5 -5 -22 -23t-23 -24t-18 -28.5t-15 -32.5q-14 -34 -16 -64q-4 -71 16 -123q23 -53 43 -75l31 -31q31 -24 35 -25q15 -6 39.5 -23t29.5 -20q13 -8 43.5 -23t42.5 -22q35 -20 47 -32q21 -29 21 -31q16 3 32 1.5t21 0.5q3 1 14.5 0.5 t14.5 1.5q5 1 12 0.5t18 -1.5t15 -1q7 0 30.5 1.5t32.5 0.5q30 5 51 2q15 -1 16.5 -24t-7 -46t-17.5 -24q-10 -1 -22.5 -1.5t-20.5 -1t-14 -1.5q-1 0 -10 2.5t-17 1.5q-2 0 -7 1t-10 1t-9 -2q-5 -2 -11.5 -2t-15 1t-14.5 1q-4 -2 -31 -2q3 -24 17.5 -74.5t17.5 -87.5 q4 -38 -2 -74q-11 -34 -15 -67q-1 -3 -2.5 -8.5t-2 -8t1 -6.5t5.5 -8q16 -12 23 -19q14 -16 47 -36q25 -15 37 -17q3 -1 13.5 -3.5t20 -4.5t15.5 -2q10 0 20 3.5t21 9.5t14 7q1 0 6 3t11.5 6.5t9.5 5.5q16 6 45 47t31 45q24 13 57 -14q11 -7 17.5 -21.5t-0.5 -25.5 q-11 -28 -25 -39q-4 -4 -10.5 -13.5t-12.5 -13.5q-7 -7 -20.5 -23t-26.5 -26q-13 -11 -30 -19q-16 -12 -17 -12q-2 0 -48.5 -8t-55.5 -8q-46 0 -60 4q-12 0 -32 10q-12 6 -27.5 17.5t-22.5 15.5q-11 7 -28 26.5t-23 24.5q-3 -1 -19 -23.5t-20 -25.5q-30 -22 -34 -23 q-35 -10 -41 -12q-80 -19 -93 -20q-8 -1 -24 -3.5t-27 -3.5q-3 -1 -5.5 -4t-10.5 -2q-11 0 -25 4l-5 1q-4 1 -9 1q-10 -2 -18 0t-17 6t-16 5q-8 2 -21 2q-14 1 -59 18q-1 0 -13 4t-18 8q-30 19 -39 64q-16 92 78 164q18 18 59 30q41 8 48 9q55 8 157 -21q49 -19 64 -31 q2 -2 20.5 -12.5t24.5 -19.5q2 -1 5 -3t5 -3v2q5 17 10 63q0 1 1 19t1 20q-1 10 -3 35t-5 35q-1 4 -4 17.5t-6 24.5t-7.5 26.5t-9.5 27t-11.5 21.5t-14.5 15t-17 3q-11 -1 -33 1.5t-32 2.5h-53q-2 0 -13 -2t-24 -2q-13 2 -42.5 2.5t-47.5 3.5q-16 -8 -35 -4q-23 4 -39 2 q3 13 2.5 46.5t7.5 41.5q5 8 49 8q6 0 16 -2t17 -2q1 0 12.5 -1.5t27.5 -2.5t28 0q1 0 9.5 -1t16 -0.5t13.5 3.5q-9 8 -25 14q-16 5 -28.5 13t-30.5 22.5t-23 18.5q-18 12 -53 47t-43 65q-3 9 -13.5 29.5t-13.5 32.5q-5 17 -10 61q-1 12 -3.5 37t-3 37t0.5 37q11 58 20 92 q5 19 31 63q34 48 66 68q15 9 51.5 30.5t52.5 30.5q19 11 76 19q3 1 18 3t19 3q40 7 47 4q7 -2 27.5 -4.5t23.5 -3.5q8 -2 27.5 -9t23.5 -10zM485 121q16 11 16 14q0 4 -16 15q-7 4 -22 12t-19 10q-2 2 -13.5 6.5t-14.5 7.5q-2 1 -29 15q-18 7 -22 8q-75 16 -119 -25 q-7 -5 -16 -16.5t-9 -17.5q0 -24 27 -44q37 -28 133 -14q5 1 49 6q28 2 55 23z" />
<glyph unicode="&#xa4;" horiz-adv-x="993" d="M92 805q-14 21 -8 35q2 4 16.5 10t18.5 10q41 41 59 21q19 -29 29 -37q7 -4 14.5 -16.5t11.5 -16.5q5 -5 9 -13t8 -12q16 -12 16 -22q9 3 24.5 16t22.5 15q5 1 45 18q33 16 35 18q3 2 16.5 2.5t18.5 2.5q10 4 19 5.5t20.5 2.5t19.5 2q10 1 30 1t30 1q3 0 15.5 -2t20.5 -3 t11 1q-1 -1 18 -5.5t40 -9t24 -6.5q6 -4 29 -10.5t28 -13.5q8 4 16.5 13.5t18 22.5t12.5 17t23 29q3 4 10 9t11.5 10t4.5 9q10 2 23 -5t21.5 -15.5t21.5 -23t16 -17.5q-1 -7 -6 -14.5t-13 -17t-11 -13.5q-21 -21 -29 -41q-3 -7 -15 -21t-14 -21.5t4 -27.5q2 -2 7.5 -8 t9 -11.5t4.5 -10.5q13 -43 18.5 -77t5 -57.5t-1.5 -52.5q0 -16 -3 -43.5t-3 -32.5q-6 -55 -18 -75q-44 -79 -58 -111q-1 -5 7.5 -17.5t19 -24.5t23 -26t14.5 -16t8 -8.5t11 -12t10.5 -13.5t5 -13t-5.5 -10q-3 -2 -9 -8.5t-13.5 -15t-10.5 -11.5q-25 -25 -45 -31 q-3 -1 -41 37q-3 3 -20 21.5t-25 25.5q-7 6 -20.5 22t-18.5 21q-1 -1 -8 -4t-13 -6.5t-6 -7.5q-15 -5 -42.5 -9t-37.5 -6q-13 -2 -32 0t-31 0q-11 -1 -27 3.5t-22 5.5q-7 1 -22 3t-27.5 3t-22.5 0q-7 0 -13 2t-13 6t-13 6q-2 0 -18.5 5t-22.5 5q-7 0 -19 -14l-12 -14 q-3 -4 -12 -15.5t-12 -15.5q-14 -19 -25 -23q-6 -3 -17 -18.5t-21.5 -24.5t-18.5 0q0 3 -14 12.5t-30.5 19.5t-19.5 13q-10 9 -2 27q1 4 17 20q6 4 17 17.5t16 17.5q51 51 39 68q-3 4 -9 10.5t-10 13t-6 13.5q-3 9 -35 65q-23 42 -29 88q-4 18 -4 68q3 105 88 225 q-2 8 -20 25.5t-21 21.5q-6 9 -25.5 29t-29.5 37zM225 506q-6 -15 -8 -44t-4 -40q-3 -15 23 -76q4 -10 17.5 -30.5t18.5 -20.5q2 0 9.5 -9t9.5 -10q13 -7 39 -26q9 -7 23.5 -12t33 -10t25.5 -7q37 -14 57 -14l15 -3q15 -4 20 -3q86 14 90 16q70 26 127 72q7 5 12.5 13.5 t10 19.5t7 18.5t5.5 20t4 14.5q18 50 14 86q-1 10 -2 29.5t-2 29.5q-1 3 -7.5 23t-6.5 28q0 19 -33 72q-27 45 -45 57q-11 6 -33.5 15t-32.5 14t-23.5 7.5t-31 4t-25.5 2.5q-25 5 -34 5q-8 1 -23 -4t-18 -5q-24 0 -43 -12q-8 0 -22 -8.5t-17 -9.5q-16 -7 -37 -22.5 t-29 -29.5q-3 -5 -17.5 -20t-17.5 -27q-1 -3 -13.5 -26.5t-14.5 -32.5q-1 -5 -10.5 -23t-10.5 -22z" />
<glyph unicode="&#xa5;" horiz-adv-x="1062" d="M893 449q-17 0 -51.5 1t-53.5 1q-35 0 -104 -5.5t-104 -5.5q-5 -8 -3 -46t1 -46q0 -44 -3 -82v-49q-1 -5 -2 -18.5t-2 -16.5q-2 -25 -2 -71v-14.5t-0.5 -20t-1.5 -23.5t-2.5 -20.5t-4.5 -16t-7 -4.5q-2 -13 -2 -13.5t-14 1.5q-7 2 -21 2.5t-18 1.5q-18 0 -43 -10 q-14 2 -43 2q-6 0 -13 10q-6 8 2 10q9 4 9.5 14t-2.5 21q0 90 -5 92q0 3 2.5 15t2.5 18q-3 3 -1.5 25.5t1.5 23.5q-1 20 1.5 54t2.5 47q0 4 -2.5 27.5t0.5 27.5v0v1v1v1v1v1v1v1v1v2v1v2v9q6 19 -11.5 23.5t-29.5 -0.5q-23 -5 -68.5 -5t-69.5 -5q-5 -1 -38 0.5t-57.5 2 t-33.5 -2.5q-9 -6 -26 -6q-8 0 -10.5 28t3 56.5t17.5 29.5q45 5 72 2q10 0 30.5 1t30.5 1q5 0 48 3.5t65 3.5l12 1q13 1 21 0.5t10 -4.5q3 3 20.5 4t18.5 -1q2 15 2 92q0 16 -6 18.5t-22.5 -1.5t-27.5 -3q-2 0 -12.5 -2t-18.5 -3t-16 1q-15 4 -34 0q-15 -2 -90.5 -8.5 t-82.5 -5.5q-4 1 -16 0t-21 0t-12 6q-10 10 -6 28q2 15 0.5 32t3.5 30t19 12q5 0 34.5 -0.5t60.5 -1t64.5 -0.5t54.5 1.5t21 4.5q7 -2 58 -2l-50 106q-21 39 -26 38q0 2 -17 28q-1 1 -4.5 10t-6.5 14.5t-7 6.5q-31 49 -35 70q-6 10 -18 28.5t-21 33.5t-14 30q-4 11 -18 33.5 t-19 31.5q-4 8 -13 25t-16.5 31t-15.5 24q-4 6 -17 40.5t-26 41.5q-2 -2 1 10l5 21q18 0 40 -5t32 -1q18 6 53 -7q2 -1 11.5 -2.5t15 -5t6.5 -10.5q-5 0 2 -21t12 -32q17 -34 19 -37t7.5 -12.5t6.5 -12.5q2 -8 29 -55l10 -20t12 -23q20 -33 33 -61q2 -3 12.5 -18t19.5 -29.5 t11 -20.5q9 -17 37 -61t33 -54q10 -17 14 -26q3 -9 11.5 -21t10.5 -16q4 -10 9 -13.5t10.5 0.5t9.5 8.5t9 12.5t7 10q33 37 43 62q1 2 19.5 29.5t19.5 29.5q18 20 64 94q5 7 13 18t11 15q11 11 21 31q1 2 25 26q7 6 20 30.5t18 29.5q7 6 16.5 19.5t12.5 17.5q34 34 45 65 q1 5 13.5 21.5t24.5 30.5t13 12q3 -1 5.5 -5.5t4 -5t9.5 6.5q6 -2 20 -2q5 0 14 -1t17 -1t14 2q21 -3 21 -9t-3 -12l-3 -6q-4 -8 -6.5 -12.5t-7 -9t-7.5 -9.5q-6 -8 -13.5 -29t-10.5 -26q-8 -16 -17 -25.5t-10 -11.5q-4 -5 -11.5 -17.5t-8.5 -13.5q-2 -3 -18 -23t-19 -26 q-17 -35 -23 -39q-4 -3 -9.5 -13.5t-10.5 -14.5q-3 -3 -13.5 -22.5t-13.5 -22.5q-5 -5 -24 -32.5t-21 -31.5q-24 -37 -41 -63q-2 -4 -14.5 -26.5t-20.5 -33.5q-2 -2 -10 -11t-12.5 -14.5t-9 -13.5t-5.5 -14q0 -2 -5 -11t-5 -12q0 -4 8.5 -4.5t17 0.5t13.5 0q13 4 30 6 t40.5 2t31.5 1h50q8 -1 11 2t13 -2q10 -2 31 2q14 2 28.5 0t30.5 -1t25 7q9 -6 22 -6q3 -17 0 -33q1 -6 5 -18t5.5 -18t-1.5 -15q-4 -5 -9.5 -6t-14 0.5t-11.5 1.5q-5 0 -23.5 -5t-27.5 -4q-12 2 -54 2t-43 -4q-4 -1 -11 -1t-16 0.5t-14 0.5q-17 0 -41 -4q-24 5 -28 4 q-13 -1 -39.5 -3.5t-40.5 -3t-41 0.5q-4 -9 -4 -28v-21q-3 -6 -2.5 -30t2.5 -31q16 3 51 0.5t53 1.5q49 10 84 6q3 0 21.5 3.5t31.5 5t17 -0.5q1 -3 40 -2.5t48 2.5q5 1 19 0.5t26 0.5t18 5q10 4 13.5 -2t1.5 -18q0 -8 3 -28.5t2 -35.5t-9 -24q0 -3 4 -3q-2 -7 -30.5 -3 t-33.5 3q-9 -1 -26.5 1.5t-26.5 1.5z" />
<glyph unicode="&#xa6;" horiz-adv-x="448" d="M176 53q-12 3 -16 42t-2 75t0 53q0 32 1 93.5t1 89.5q0 12 3 44t1 50q-6 57 16 61q11 1 23.5 0.5t26.5 1.5t20 8q2 0 14 -12q9 -4 6 -18q0 -5 -1.5 -33.5t-0.5 -38.5q1 -7 1.5 -29t2.5 -30q3 -24 -2 -103q-1 -8 2 -30t2 -29q-4 -1 0 -71.5t7 -88.5q1 -11 -1.5 -17.5 t-7.5 -9t-12 -3t-14.5 0.5t-14.5 0q-1 0 -13.5 -0.5t-14.5 0.5q-16 2 -18 1.5t-9 -7.5zM272 1290l19 -14q-8 -10 -7 -35t-1 -37q-9 -53 -4 -80q1 -21 0.5 -30t-2.5 -28.5t-3 -29.5q0 -2 4.5 -35.5t0.5 -56.5q-1 -10 -1 -33t1 -34q-1 -8 -1.5 -17t-1.5 -21t-2 -20 q0 -18 -6.5 -26t-19.5 -2q-7 4 -14 5.5t-16 2.5t-15 2l-5 -2q-6 -2 -12.5 -3t-13.5 -1t-10.5 4.5t-1.5 13.5q4 23 4 78v123q4 38 1.5 145.5t-1.5 145.5q7 1 22.5 -2t18.5 -3q5 -1 19.5 -1.5t23.5 -2.5q2 0 13 -2.5t11 -3.5z" />
<glyph unicode="&#xa7;" horiz-adv-x="1024" d="M686 1343q38 -23 43 -28q0 -4 -15 -22.5t-16 -24.5q-5 -21 -20 -33q-1 -1 -7.5 -4.5t-13 -6t-6.5 -1.5q-2 4 -28.5 26t-34.5 31q-23 8 -25 10q-26 13 -31 15q-12 5 -49 1t-49 -3q-13 0 -22 -3q-1 -1 -35 -12q-32 -8 -62 -43q-3 -3 -10.5 -17t-13 -26t-6.5 -12 q0 -7 -1 -19t-1 -22.5t2 -20.5q1 -19 19.5 -38t39.5 -27q14 -5 39 -16.5t39 -16.5q40 -16 65 -29q21 -11 64.5 -26t64.5 -27q5 -3 24.5 -14.5t37 -22.5t24.5 -16q15 -11 38.5 -48t29.5 -54q16 -49 2 -117q-16 -61 -37 -105q-12 -32 -45 -65q-7 -7 -53.5 -30t-52.5 -30 q13 -13 39 -18q5 -4 14 -10t14 -10t16.5 -16.5t20.5 -18.5q20 -14 35.5 -45.5t20 -46.5t14.5 -56q2 -7 4 -25.5t2 -19.5q0 -2 3 -10t3 -10q1 -13 -3 -41t-9 -43q-2 -7 -11 -23.5t-10 -17.5q-8 -21 -12 -27q-3 -8 -18 -31t-17 -28q-7 -12 -15.5 -21t-21 -17t-20.5 -12.5 t-25.5 -12.5t-23.5 -11q-8 -5 -26 -10.5t-23 -7.5q-15 0 -39 -4q-14 -5 -48.5 -4t-48.5 8q-32 14 -71 18q-24 3 -39 16q-3 3 -15 12.5t-18 16.5q-1 1 -5.5 3t-8.5 5.5t-6 8.5q-1 2 -5.5 8t-5.5 8q-21 30 -24 55q-1 1 7 9t20 17t21.5 16t12.5 9q12 10 19 10t9 -6t7 -15 t12 -13q3 -2 11 -10.5t16 -10.5l24 -12q66 -21 68 -22q26 -4 59 0q11 1 56 18q7 3 41 22q7 4 11.5 7.5t11.5 14.5t9 13q39 53 9 146q-13 45 -33 73q-6 10 -51 43q-20 13 -49 23q-42 18 -46 18q-5 1 -20 12.5t-18 12.5q-10 6 -32 15.5t-30 13.5q-5 3 -23 12t-27.5 14.5 t-22.5 15.5t-21 19q-50 63 -62 90q-10 22 -18 78q0 1 1.5 17.5t0.5 21.5q-1 7 6 25q3 8 8 28t10.5 33t14.5 22q11 13 35 52q3 5 13.5 13t14.5 13q27 27 89 43q-7 8 -32 13.5t-34 17.5q-2 2 -12 5t-13 5q-4 3 -14 8t-16 9q-14 6 -29 30q-10 15 -18 23q-2 2 -8 15.5t-9 17.5 q-1 1 -18 53q-15 50 10 113q4 10 15.5 28.5t15.5 28.5q4 13 30 39q4 4 14 16.5t17 18.5q42 37 72 47q105 31 211 12q47 -6 76 -25q18 -14 63 -41zM436 870q-30 -8 -53 -24q-8 -4 -41 -37q-16 -19 -27 -47q-7 -7 -10 -19q-2 -5 -5 -14t-5 -14q-10 -39 -8 -58q3 -21 16 -43 q11 -22 23 -34q6 -6 26 -21q2 -1 13 -10.5t14 -11.5q18 -14 37 -23q31 -18 45 -18h41q14 7 18 8q5 3 18.5 5.5t18.5 6.5q4 3 13.5 8t13.5 8q5 6 12 10t8 5t5 3t9.5 4t6.5 3q7 5 12 10t9 10.5t6 9t5 10.5t5 11q3 9 7 27t7 27q10 35 -4 90q-6 19 -35 57q-11 15 -37 30l-27 15 q-8 8 -22 8q-18 12 -43 12q-52 0 -72 -4z" />
<glyph unicode="&#xa8;" horiz-adv-x="1024" d="M416 1421q-1 -5 -2 -13.5t-2 -12.5q-1 -5 -1 -14t-1 -15q0 -23 -4 -35q-17 0 -23 -4q-1 -4 -18 -2.5t-21 0.5q-22 -5 -27.5 -0.5t-5.5 27.5q0 41 -4 57q-3 13 -0.5 16t10 1t11.5 -1q21 7 59 7q4 0 10 1.5t9 1t6 -4.5q0 -5 4 -9zM651 1434q19 0 25.5 -4.5t7.5 -22.5 q1 -7 4 -21.5t4.5 -23.5t-3.5 -16.5t-19 -8.5q-10 -1 -31 -4t-31 -4q-21 -3 -24 8q-2 11 1.5 31.5t2.5 28.5q0 1 -0.5 7t-0.5 10.5t0.5 9.5t3 7t7.5 1h12q13 4 19.5 4.5t12 -1t9.5 -1.5z" />
<glyph unicode="&#xa9;" horiz-adv-x="1245" d="M438 614q-60 34 -94 96.5t-37 133.5q0 7 -4.5 45t-2.5 63t13 47q3 7 8.5 22.5t10 26t10.5 19.5q1 2 15.5 24.5t23.5 28.5q21 27 33.5 40t42 31.5t67.5 29.5q19 6 53 10.5t41 5.5q66 9 101 -4q10 -3 30.5 -6t37 -7t30.5 -12q9 -4 26 -13.5t27 -14.5q16 -9 19 -20t-1.5 -18 t-14 -15t-9.5 -9q-8 -12 -23 -19.5t-30 -4.5q-21 6 -41 26q-5 5 -12 9t-17 8t-16 8q-16 10 -45 8.5t-47 1.5q-9 2 -30 0.5t-28 -4.5q-47 -21 -96 -70q-55 -59 -55 -108q0 -12 -1 -44.5t-0.5 -49t3.5 -42.5t11.5 -47t21.5 -40q27 -37 41.5 -49t46.5 -19q6 -1 17 -3.5 t19.5 -4.5t12.5 -4q8 -4 26 -4t23 -2q11 -4 72 -11q15 -1 30 4t32 12.5t26 10.5q5 2 28.5 16t37 19.5t24.5 -0.5q29 -34 6 -68q-27 -36 -43 -43q-17 -16 -33 -22q-5 -1 -19 -7.5t-20 -7.5q-28 -9 -49 -12q-5 -2 -48.5 -3.5t-49.5 -0.5q-10 2 -34.5 2.5t-31.5 1.5 q-22 2 -86 27q-6 2 -27 17t-22 15zM317 444q-21 18 -43 27q-9 4 -34 22.5t-31 24.5q-28 28 -37 43q-8 10 -29 39q-14 19 -26 66q-19 67 -21 98q-10 33 -10 133q0 13 12 82q0 1 7.5 44t17.5 62q8 15 18.5 53t18.5 52q37 53 47 63q8 7 27 35.5t30 36.5q30 18 37 25 q23 19 39 26q3 1 35 16.5t37 16.5q60 21 114 31q49 9 86 14h119q3 0 35 -4q38 -5 43 -4q25 2 70 -23q8 -4 21.5 -6.5t19.5 -5.5q15 -6 27.5 -19t15.5 -16q24 -12 32 -20q44 -44 105 -142q3 -6 9.5 -17t9.5 -16t7.5 -13.5t7.5 -16.5t5 -18q2 -14 9.5 -40.5t10.5 -45.5 q4 -13 2.5 -58.5t-0.5 -58.5q0 -7 -3.5 -48t-4.5 -48q-8 -58 -25 -111q-20 -62 -38 -88q-6 -8 -25.5 -40t-24.5 -38q-4 -5 -21.5 -22.5t-19.5 -20.5q-5 -5 -10 -13t-10 -12q-3 -3 -23 -18q-6 -5 -13 -10t-13 -10q-4 -4 -22 -17l-19 -12q-11 -8 -23.5 -14.5t-25.5 -12 t-15 -6.5q-37 -18 -88 -22q-121 -17 -135 -13q-9 3 -46.5 7.5t-45.5 7.5q-63 23 -86 26q-54 16 -68 25q-32 19 -39 24zM254 512q47 -22 74 -47q13 -13 46 -26t40 -17q12 -4 36.5 -14.5t45.5 -16.5t41 -6q44 0 65 -8q11 -5 55 2q30 0 62 4q57 11 129 51q113 53 172 135 q94 128 106 234q1 16 8 63.5t5 71.5q-1 12 -1 37t-0.5 40.5t-3 37t-8.5 37.5q-3 10 -8 29t-8 29.5t-9.5 25.5t-15.5 28q-6 8 -17 26.5t-17 26.5q-6 7 -19.5 22.5t-19.5 22.5q-20 25 -25 35q-5 6 -39 35q-22 22 -41 29q-11 4 -30 8.5t-25 7.5t-21 8q-7 -2 -22 2q-16 0 -41 5 q-19 4 -55 4h-45q-14 1 -74 -11q-21 -5 -76 -14t-59 -10q-10 -4 -28.5 -7.5t-27.5 -7.5q-11 -9 -32 -16q-15 -7 -51 -30.5t-46 -34.5q-40 -37 -61 -74q-4 -5 -16.5 -20.5t-16.5 -20.5q-8 -10 -15 -37.5t-11 -34.5q-6 -13 -12.5 -35.5t-10 -40.5t-8 -46t-6.5 -36 q-8 -44 -8 -114q0 -100 18 -144q5 -20 20.5 -53t28.5 -47q6 -7 19.5 -25.5t19.5 -25.5q1 -1 11.5 -10t19 -17t8.5 -10z" />
<glyph unicode="&#xaa;" horiz-adv-x="831" d="M811 502q-3 -8 -8.5 -10.5t-18.5 -1t-14 1.5q-3 1 -16.5 6.5t-25 9.5t-17.5 4t-28 14t-24 19l-24 22q-9 9 -12 11q-7 4 -16 -1t-20 -14t-16 -12q-39 -22 -45 -23q-8 -2 -25.5 -12t-29.5 -12q-7 -1 -23 -5.5t-28 -6.5q-7 -1 -31 -3.5t-31 -3.5q-39 0 -55 -2q-14 -2 -49 -2 q-2 0 -19 2t-22 2q-33 0 -78 56q-43 60 -43 106q0 65 27 111q13 26 33 49q1 1 6 7t12 14.5t12 13.5q4 2 21 13.5t22 14.5q7 5 20.5 10.5t20.5 10.5q24 14 39 18q3 1 23 10.5t28 10.5q12 1 54 20q6 3 21 6.5t22 6.5q25 8 55 12q7 1 15.5 4.5t13.5 3.5q4 0 15 3t15 3 q17 -2 31 12q8 15 7.5 25t-5.5 33t-6 31q-1 10 -11 30t-12 27q-4 6 -12 22q-3 5 -5.5 8.5t-6 7t-6.5 7.5q-35 37 -97 47q-90 13 -161 -43q-24 -18 -37 -35q-6 -8 -23 -33q-4 -3 -12 -18t-8 -20q-3 -9 -15 -33q-61 21 -75 41l14 28q10 39 16 45q12 14 21 46q4 4 13.5 17 t12.5 15q5 7 12.5 14t12.5 10.5t16.5 11.5t16.5 11q4 2 13 9t14 10t12.5 6t13.5 4q3 0 35 8q6 3 37 8q6 0 16 2.5t17 2.5q5 0 15 -0.5t18 -0.5t14 1q18 0 37.5 -5t48 -16.5t34.5 -13.5q9 -5 37 -22t33 -25q3 -3 12.5 -16.5t12.5 -16.5q2 -3 10 -25q14 -32 16 -41 q7 -27 15 -82q3 -12 8 -47q4 -36 -4 -90q0 -5 3 -54t3 -65q0 -10 -3 -34t-3 -33v-39q1 -6 3 -24.5t3 -24.5q1 -2 2.5 -12t3.5 -18.5t4 -12.5q11 -26 27 -37q25 -19 32 -19q3 -1 10 -2t11 -3.5t6 -8.5q5 -17 -4 -57zM582 664q4 14 2 50.5t-4 43.5l-9 145q-5 3 -12 3.5t-12 -1 t-13.5 -4.5t-11.5 -4q-8 -3 -24.5 -9.5t-31 -11.5t-26.5 -8q-50 -11 -67 -24q-82 -41 -94 -45q-5 -2 -14 -9.5t-22.5 -20t-17.5 -15.5q-18 -15 -24 -60l-4 -26q4 -36 14 -50q4 -6 37 -26q20 -10 28 -10h78q9 1 38 6t38 6q10 1 25.5 7.5t21.5 8.5q39 13 47 21q2 1 16.5 8 t27.5 14t14 11z" />
<glyph unicode="&#xab;" horiz-adv-x="604" d="M111 467q4 14 18 34.5t18 30.5q2 4 10 17t9 14q12 14 23.5 31t13.5 20q3 4 10 20t12 21q5 6 9.5 17.5t10.5 16.5t21 3q3 -5 10 -14.5t11.5 -17.5t7.5 -15q25 -25 6 -43q-2 -1 -3.5 -5.5t-7.5 -14.5t-18 -23q-7 -7 -24 -41q-4 -7 -15.5 -22t-15.5 -25q-12 -22 -7 -46.5 t15 -42t20.5 -31.5t10.5 -15q2 -1 14 -37q2 -4 5.5 -10t5.5 -10q1 -1 3.5 -5.5t4 -7t3.5 -7t3 -7.5t2 -7.5t0.5 -7.5t-2 -6t-4.5 -6q-2 -2 -7.5 -17t-15.5 -20q0 -3 -5 -14.5t-7 -13.5q0 -3 -0.5 -8t-1 -7.5t-4 -4.5t-10.5 -3q1 1 -12.5 26.5t-29.5 55.5t-18 33 q-3 7 -23.5 44t-29.5 58q-4 7 -13.5 27t-15.5 29q-4 14 -3.5 19.5t7.5 18.5t9 19zM444 653q3 3 4 7t2 7.5t3 5.5t6 1q6 -1 9 -7t5.5 -15t5.5 -13q3 -5 15 -19t16 -20t5.5 -10t0 -7.5t-2.5 -5.5t-5.5 -7.5t-7.5 -8.5q-6 -9 -31 -36t-33 -46q-3 -10 -18 -29t-19 -26 q1 -3 12 -17t13 -18t6 -14t8 -17.5t8 -11.5q11 -9 22 -24.5t11 -26.5q0 -1 7.5 -8t7.5 -8q6 -17 5 -24t-12 -19q-27 -34 -30 -70q-3 2 -11.5 3.5t-15.5 8.5q-5 5 -20 25q-38 55 -43 65q-2 4 -20 32t-19 34q-10 6 -19 15.5t-20.5 25.5t-14.5 20q-7 10 -5.5 16.5t12.5 20.5 q2 4 6 9t9 11t7 9q1 2 9.5 15t13.5 18q8 7 19 26.5t15 24.5q5 6 22 29.5t34 45.5t28 33z" />
<glyph unicode="&#xac;" horiz-adv-x="1056" d="M834 582q-6 0 -58 -1t-53 -1q-50 4 -90 0q-19 -1 -51 0.5t-43 1.5q-67 -14 -70 -11q-10 5 -26 5.5t-35.5 -1.5t-24.5 -2q-57 0 -76 -6q-2 0 -21 -1.5t-26 -0.5q-5 1 -12.5 -1t-9.5 -1q-6 2 -33 2q-11 -1 -31 -2t-31 -2q-3 -1 -12 -1.5t-16 -1.5t-9 -3q-9 -1 -13 3 t-5 11.5t-2 8.5q-1 3 1.5 10.5t2.5 11.5t-2 14t-2 18.5t4 12.5q9 12 12.5 13.5t20.5 0.5q16 0 41 5q7 2 43 1t39 1q6 3 21.5 1.5t21.5 0.5q14 4 51 4q119 3 244 0q82 -3 168 0q34 0 95 3.5t79 4.5q26 0 28 2q4 -7 4 -39q1 -11 -0.5 -35t-1.5 -28v-60q0 -6 -1 -25t-1 -28 l4 -37q3 -36 3 -41q0 -31 8 -43q10 -13 -3.5 -14.5t-19.5 2.5q-16 -14 -51 4q-25 12 -25 31q-1 16 0.5 57t1.5 55q0 3 0.5 13.5t0.5 18.5t-1 20t-3.5 20t-6.5 15.5t-11 11t-17 2.5z" />
<glyph unicode="&#xad;" horiz-adv-x="638" d="M524 719q7 -2 15 -10q4 -4 5.5 -14t3 -22.5t1.5 -15.5q3 -13 3.5 -15.5t-3 -8.5t-4.5 -12q-2 5 -13 10q-2 -4 -2 -11.5t-2 -12t-10 -3.5q-98 10 -112 6q-14 -3 -29 -4t-24.5 -1t-28 0.5t-31.5 0.5q-7 0 -36 -3.5t-40 -2.5q-6 0 -19.5 -1t-19.5 -1q-51 0 -63 2 q-14 4 -17 10t-1 19t1 20q-1 2 -3.5 8.5t-4.5 11.5t-3 11t1 10t8 6q34 9 70 9q12 0 34 -1.5t33 -1.5q7 0 35 1.5t37 1.5q5 0 20.5 2t24.5 2.5t19 -2.5q9 -4 31 1.5t28 4.5h72l7.5 2.5t8.5 2.5t8 1z" />
<glyph unicode="&#xae;" horiz-adv-x="1398" d="M270 383q0 5 -51 43q-3 4 -15 17.5t-16 21.5q-1 1 -7.5 9t-12 15t-4.5 9q-11 12 -37 65q-44 85 -52.5 197t13.5 205q21 119 68 188q3 5 19 34.5t30 41.5q16 20 26 35q8 14 19 22q7 7 26 24t25 23q6 4 23.5 19t27.5 22q34 19 105.5 38.5t87.5 25.5q17 2 45 7.5t45 9 t43.5 5t40.5 -3.5q12 -2 39 -3t43 -7q10 -4 38.5 -7t39.5 -5q102 -22 168 -56q4 -2 23.5 -13.5t27.5 -14.5q4 0 13 -9.5t13 -11.5q17 -8 35 -29.5t37 -52.5t27 -41q37 -48 67 -157q52 -222 -24 -367q-8 -14 -18 -48t-19 -52q-2 -4 -13.5 -35.5t-23.5 -42.5q-4 -5 -10 -14 t-12 -19t-9 -14t-9 -14t-9 -14.5t-8 -11.5t-10.5 -12t-12.5 -10q-8 -5 -29 -21.5t-34 -23.5q-9 -5 -68 -31q-14 -8 -32.5 -14t-28.5 -8.5t-36 -6.5t-32 -5q-43 -11 -180 -15q-109 -4 -170 19q-5 1 -26.5 0.5t-26.5 5.5q-12 2 -27.5 9t-24.5 9q-8 3 -22 7.5t-24 9t-19 10.5 q-25 15 -62 43zM215 461q5 -9 23 -23q3 -2 14.5 -12t15 -12.5t13.5 -11t14.5 -11.5t14 -10t15.5 -10.5t15 -9t16.5 -8.5t16.5 -6.5t18 -6.5q83 -29 160 -41q80 -15 170 -4q123 4 168 14q114 29 158 64q1 1 35 23.5t40 33.5q8 16 32.5 49.5t35.5 55.5q7 13 19 41.5t20 44.5 q34 95 35 96q41 107 22 213q-4 20 -8 59t-10 70t-19 55q-9 18 -20 37.5t-25 43.5t-22 38q-4 6 -18.5 22.5t-20.5 24.5q-2 5 -7.5 11.5t-10 11t-11 10.5t-8.5 8q-72 40 -125 61q-9 5 -40 12t-32 7q-29 16 -65 16q-6 1 -25.5 5t-25.5 5q-8 3 -13.5 3.5t-11 0.5t-10.5 1 q-25 4 -51 4q-47 3 -176 -28.5t-158 -47.5q-14 -7 -31.5 -21t-28.5 -20q-10 -5 -20 -15t-20.5 -23t-16.5 -19q-14 -13 -26 -29.5t-29 -44t-21 -33.5q-34 -65 -43 -96q-2 -7 -14.5 -36.5t-13.5 -45.5q-1 -19 -7 -54.5t-8 -50.5q-4 -84 4 -127q2 -11 7 -42t8.5 -50.5t12.5 -44 t21 -39.5q13 -18 35 -61q12 -22 33 -47zM483 1085q1 10 -1 41t5 35q7 13 27 13t35 2q52 12 121 8q17 -1 54.5 2.5t57.5 1.5q49 -3 88 -12q37 -9 58 -35q4 -5 18.5 -18t18.5 -21q12 -31 16 -70q2 -14 -6.5 -39t-9.5 -35q-1 -1 -5 -11t-10 -20.5t-14 -17.5q-4 -2 -14.5 -8.5 t-23 -14t-15.5 -9.5q-12 -8 -42 -17t-44 -18q9 -7 35 -10.5t34 -6.5q26 -11 39 -24q20 -22 43 -80q3 -10 8.5 -29.5t8.5 -29.5q0 -9 4.5 -27.5t5.5 -22.5q6 -28 24 -57q-1 -3 2.5 -11.5t2.5 -13.5q0 -5 -4 -9.5t-8 -6.5l-3 -2q-11 0 -22 -2t-17.5 -2t-15.5 4q-3 1 -6 2.5 t-5 3t-4.5 4.5t-4 5t-3.5 7l-3 7.5t-3.5 8.5t-3.5 9q-8 17 -21.5 57t-19.5 54q-21 49 -47 67q-7 2 -10 9q-1 3 -2 4q-4 3 -13.5 11t-14.5 12t-14.5 9t-21.5 9q-65 22 -129 12q-11 -1 -18.5 -6.5t-12 -14.5t-7 -18t-3.5 -22.5t-1 -22.5t0.5 -22.5t0.5 -18.5q1 -9 -1 -53 t3 -52q4 -13 -1 -16t-19 -2.5t-21 -3.5q-20 -11 -24.5 -11.5t-16.5 5.5q-33 11 -10 127q2 19 2 58t2 58q2 31 2.5 88.5t1.5 75.5q-5 102 -2 133zM588 1061q-4 -20 -4 -56.5t-2 -50.5q-5 -42 2 -55q7 0 25 -2.5t28 -1.5q5 0 21.5 1t22 1.5t20 1.5t21.5 2.5t19 3.5t20 5 t18 6.5t19 8.5t17 11q47 30 47 76q0 56 -24 69q-15 9 -56 13q-7 1 -22 -1t-19 -1q-11 1 -30 0t-31 0q-3 0 -15.5 1t-16.5 1t-14.5 -0.5t-15.5 -2.5t-12 -5.5t-11 -9.5t-7 -15z" />
<glyph unicode="&#xaf;" horiz-adv-x="518" d="M408 1395q7 -14 4 -23q-2 -8 -2 -20q0 -5 1.5 -14t1.5 -14t-3 -7q-5 -3 -34 -7t-38 -3q-16 1 -26 0.5t-30.5 -4t-25.5 -3.5q-32 0 -35 -2q-2 -2 -34 -4.5t-33 -3.5q-14 -11 -27 15q-8 32 -10 34q-15 11 -15 35q0 14 4 14.5t11.5 -4.5t11.5 -4q3 2 53 2q39 -3 66 2 q8 0 26 7q17 0 27 2q9 0 26 1t25 1q11 2 37 -2q3 0 9.5 1.5t9.5 0.5z" />
<glyph unicode="&#xb0;" horiz-adv-x="587" d="M133 1135q-4 4 -7 9t-6 11.5t-5 9.5q0 1 -4.5 36t-4.5 36q-4 12 1.5 41t9.5 35q3 4 13.5 21t21.5 26q55 55 122 63q38 3 52 -2q26 0 49 -10q6 -3 17 -10.5t18 -14.5l8 -6q33 -37 37 -43q31 -42 28 -108q-3 -74 -59 -119q-28 -24 -55 -38t-72 -19q-2 0 -7.5 -1.5t-8.5 -2 t-9 0t-12 3.5q-4 1 -15.5 4t-17.5 6q-9 0 -20 5t-26.5 15t-18.5 11q-5 3 -10.5 10t-11 17.5t-7.5 13.5zM233 1303q0 -1 -4 -11.5t-6.5 -22t-1.5 -22.5q0 -18 8 -30q0 -1 5.5 -12t9.5 -15q15 -18 40 -22.5t44 8.5q16 11 21.5 21t12.5 34q8 20 2.5 46.5t-20.5 39.5q-1 1 -6 4 t-6 6q-1 4 -4 6t-5.5 2.5t-6.5 0.5l-5 -1q-5 0 -11.5 3.5t-8.5 -1.5q-4 -3 -8 -4t-9 -4q-3 -2 -11.5 -2.5t-18.5 -9.5z" />
<glyph unicode="&#xb1;" horiz-adv-x="983" d="M831 567q4 -22 -6 -22q-3 0 -6 2l-10 -6q2 -2 -2 -6q-7 -8 -18 -9.5t-26.5 0.5t-19.5 2h-8q-31 -4 -45 -2q-3 2 -33.5 -1t-66.5 -6.5t-49 -2.5q-26 0 -29 -22q-2 -12 -2 -66q1 -10 -0.5 -45t4.5 -45q5 -14 2.5 -45t1.5 -47q2 -9 2.5 -14.5t-2 -9t-3.5 -4t-8 -2.5t-9 -3 q-4 -3 -12.5 -3t-14.5 -3q-2 -1 -4.5 -3t-4 -3t-4 -1.5t-5.5 -0.5q-8 2 -12.5 9.5t-5.5 18.5t-1 21t1 21t1 14q1 18 -0.5 61t0.5 59q0 3 2.5 34.5t2 36t-2.5 34.5q-2 13 -30 4q-4 -4 -25.5 -2t-28.5 2q-9 0 -25 -2t-24 -2h-43q-3 -1 -17 1.5t-16 2.5q-6 2 -13.5 2t-16 -1 t-13.5 -1q-12 1 -30 3t-31 3q-2 3 -2 11t1 18t1 12q-2 13 -1 15t11 6q2 0 8 1.5t9.5 2t5.5 -1.5q3 -3 23 1.5t24 2.5q12 -6 39 -6q15 0 43.5 2t52 2t43.5 -4q15 -4 32.5 -1.5t16.5 17.5q0 24 -4 70q-6 68 -2 200v13q1 17 4.5 20t21.5 4h9l7 1q6 0 11 -0.5t11 -1t9 -3t1 -6.5 q-1 -3 2.5 -17t3.5 -16q1 -6 0 -17.5t0 -17.5q9 -23 -2 -65q-3 -17 2 -76q1 -10 -1 -29.5t-1 -29.5q1 -4 1.5 -11t1 -9.5t2 -7t4.5 -4.5t8.5 -2t13.5 1q16 3 73 -2q38 0 54 4q12 1 20 0.5t26 -3t29 -3.5t36.5 3t39.5 0t18 -24zM565 16h-43q-20 3 -41 0q-39 -4 -63 -2 q-63 4 -199 4q-7 0 -32 -3.5t-35 1.5t-5 25q4 17 0 47q1 0 12 3t13 3q7 2 38.5 1t39.5 1q11 2 31.5 -2t29.5 -4q6 0 27 -1.5t31 -0.5q64 5 94 -2q16 -8 65 -3t66 3q23 -2 62.5 -1.5t62.5 -0.5q18 -2 51 3t49 3q16 0 34 -11q11 -7 3 -13q-5 -4 -7 -16.5t-3 -14.5t-3 -7.5 t-2.5 -7t-2.5 -4.5t-4.5 -3t-6 0.5t-8.5 2.5q-12 2 -17 2t-21 -3t-19 -3q-18 -2 -48.5 1.5t-45.5 2.5q-12 0 -33 -1.5t-38 -1.5t-32 3z" />
<glyph unicode="&#xb2;" horiz-adv-x="573" d="M416 709q57 7 76 -4v-29q1 -4 -9 -25q-7 -10 -51 -10q-8 0 -66 -6.5t-65 -5.5q-29 3 -63 0q-24 0 -56 -4q-4 0 -24 -2t-32.5 -1t-14.5 7q-1 3 -4.5 12.5t-5 15.5t-1 13.5t5.5 11.5q11 10 27 31t23 28q15 12 34 35l8 12q8 13 13 17q10 10 27.5 31.5t27.5 31.5q46 46 74 86 q78 114 59 199q-16 67 -20 76q-15 37 -51 61q-13 9 -45 13q-2 1 -9.5 3t-11 2.5t-9 1t-10 -0.5t-7.5 -4q-3 -2 -17.5 -4t-19.5 -9q-1 -3 -11 -8t-12 -8q-3 -3 -8 -7t-7 -6t-4 -6t-3 -10q-1 -1 -3 -6.5t-4 -10.5t-4 -7q-8 -8 -6 -31.5t8 -34.5q2 -4 7 -18.5t10.5 -25 t13.5 -19.5q-2 -8 -13 -20t-20 -15q-7 -2 -13.5 -5t-7.5 -4.5t-4.5 0.5t-4 2.5t-7.5 8.5q-8 10 -11.5 23t-5 31.5t-3.5 27.5q-13 74 41 147q45 67 111 76q51 5 106 -18q26 -10 45 -29q6 -8 35 -37q33 -26 33 -65q0 -5 3 -15.5t3 -15.5v-33v-63q0 -13 -8 -40t-9 -38 q0 -8 -7 -25.5t-13 -21.5q-6 -3 -15 -19.5t-12 -19.5q-5 -7 -13.5 -25.5t-16.5 -26.5q-2 -2 -16 -19t-17 -19q-4 -3 -15.5 -17t-15.5 -18t-20.5 -17t-22.5 -22q-3 -5 -27.5 -28t-23.5 -38q2 -2 13.5 -2t25.5 1t16 1q12 2 43 0.5t41 3.5q17 1 66 9z" />
<glyph unicode="&#xb3;" horiz-adv-x="503" d="M311 758q3 3 14 18.5t13 18.5q13 29 12.5 57.5t-24.5 46.5q-6 5 -15 10t-14 9q-21 12 -49 16q-8 1 -21 -0.5t-18 -1.5q-3 0 -6 0.5t-4.5 2l-3 3t-2.5 4.5l-1.5 4.5t-2 5.5t-1.5 6q-2 7 1 15.5t6 13.5t2 6q15 -2 18 -2.5t11.5 2t9.5 2.5q5 1 11.5 4t12.5 2q10 -6 19 3 q20 13 30.5 22t20.5 25.5t8 33.5q0 1 -1.5 13t-2 14t-2 11.5t-3.5 12.5t-5.5 9.5t-8 11t-10.5 8.5q-8 7 -30 10.5t-33 -1.5q-31 -16 -37 -27q-2 -2 -13 -14.5t-14 -18.5q-18 -30 -18 -39q0 -12 -4.5 -16t-12 -3t-16.5 -1q-11 -3 -17.5 -2t-5.5 10q0 24 5 31q4 27 12 39 q4 8 15.5 20t15.5 18q5 6 17 17t13 12q25 29 111 29q17 0 51 -17q14 -5 31 -20q46 -43 35 -131q-11 -66 -25 -72q-29 -10 -16 -26q1 -1 9.5 -8.5t12.5 -12.5q5 -6 17 -31q2 -4 5 -15t5 -15q8 -18 0 -50q-1 -4 -5.5 -27t-11.5 -38q-6 -24 -16 -39q-14 -24 -35 -39 q-4 -3 -7 -5t-8 -5t-9 -6q-4 2 -29 -10q-13 -5 -51 0q-11 2 -27 6.5t-20 5.5q-41 14 -49 20q-57 49 -66 88q-4 16 31 33q3 -3 7 -8t7 -8q13 -13 21 -17q8 -3 18.5 -15t19.5 -15q2 -1 14 -5t20.5 -6t20.5 -4.5t22 -1.5t18 6q2 2 13.5 6.5t14.5 10.5z" />
<glyph unicode="&#xb4;" horiz-adv-x="935" d="M573 1157q3 0 13 0.5t16 0t13.5 -1t11 -3t2.5 -6.5q-2 -11 -25 -29t-26 -22q-43 -43 -103 -86q-37 -26 -55 -52q-14 -3 -19.5 -2.5t-20 3.5t-24.5 4q-1 0 -7 -3t-17 -2q-5 1 -10 -1t-7 0t-6 14q-1 5 2.5 12t10.5 16t8 11q4 7 20.5 29.5t20.5 29.5q3 6 14 23.5t14 23.5 q6 13 37 39q12 10 68 10q8 0 33.5 -4.5t35.5 -3.5z" />
<glyph unicode="&#xb5;" horiz-adv-x="1007" d="M498 72q3 1 27 -0.5t50.5 2t38.5 16.5q2 3 6 4.5t10.5 4t12.5 5.5q15 9 23 17q18 18 24 33q35 77 37 114q3 81 12 164q2 19 0.5 62.5t1.5 60.5t-2 74v65q4 4 4.5 21t-1 40t-1.5 25q0 8 -1 32t-1 34q0 4 -0.5 10.5t-1 10t1.5 8t6 8.5q12 12 41 -2q8 -5 24 4.5t19 9.5 q6 -10 9 -23t3 -22t-0.5 -26t-0.5 -25q0 -3 2.5 -18t4 -25t-0.5 -15q0 -6 -1.5 -18.5t-0.5 -20.5q3 -19 1 -52t1 -50q2 -25 2.5 -69.5t1.5 -59.5q5 -39 2 -61q-3 -28 0 -56q2 -23 -2 -75q-1 -10 1 -30t1 -30q-3 0 -2 -65l2 -64q0 -9 1.5 -27.5t1 -32.5t-4.5 -30 q-6 -26 -14 -25h-2q-6 -3 -15 -0.5t-17.5 5t-8.5 0.5q-3 5 -13 2t-12 -7q-10 -15 -21 18q-4 13 -4 21q0 6 1 14t1 9q-2 7 -5.5 8.5t-6 0t-7.5 -5.5t-7 -5q-3 -1 -26 -20.5t-34 -20.5q-3 0 -45 -12q-28 -4 -32 -5q-12 -4 -25.5 -5.5t-31 -2.5t-29.5 -2q-4 0 -34 1l-30 1 q-44 7 -45 8q-52 27 -72 43q-9 7 -17.5 19t-14.5 18.5t-13 5.5q-8 -11 0 -45q1 -6 -1 -23.5t-1 -23.5q2 -18 2 -53q0 -37 -2 -55q-9 -168 -8 -215q1 -16 -1 -47.5t-1 -46.5q0 -2 0.5 -6t0.5 -6.5t-0.5 -5t-2 -4t-4.5 -1.5q-6 -1 -7 -5.5t-14 -4.5q-8 4 -12 2q-3 -2 -28 3 t-31 9q0 54 -6 72q-6 3 -1 54t5 56q1 10 -4 52q8 16 4 24q0 5 2 17t2 18q0 9 -3 25t-3 24q5 77 4 92q-1 10 0.5 31t1.5 27q3 9 -0.5 32.5t0.5 30.5q2 4 2 47q0 13 1 41t1 41q0 4 -2 41.5t-4 54.5q-10 92 -4 174v42t4 53q-1 5 0 34t0 35v45q0 9 3 27t3 27q-2 12 -2 100 q0 9 3.5 17t8.5 5q4 0 12 -1t11 -1q18 0 30 2q26 0 31 5q4 0 8 -2q2 -1 3.5 -0.5t5.5 1.5t6 1q0 -15 2 -25q0 -11 -1 -34t-1 -36q0 -20 -2 -28q-1 -6 4 -45q0 -81 -2 -97q-1 -15 -1 -45.5t-1 -46.5q0 -9 -1 -30t-1 -31q0 -8 1 -20.5t1 -20.5q-3 -29 0 -58q2 -9 1.5 -24.5 t0.5 -24.5q1 -3 3.5 -8t3 -8t-0.5 -8q-9 -18 14 -80q1 -3 3 -12.5t5 -16t8 -10.5q1 -3 6.5 -10t6.5 -8q2 -7 18 -19q4 -3 11.5 -11.5t11.5 -10.5q15 -10 22 -17q4 -4 15 -7t26 -6l15 -3q4 -4 22 -4q3 0 12.5 -2.5t12.5 0.5z" />
<glyph unicode="&#xb6;" horiz-adv-x="1296" d="M1018 1370q6 -4 7 -8.5t-0.5 -9.5t-0.5 -6q3 -9 3 -16.5t-2 -12t-7 -7.5t-9.5 -4.5t-12 -2.5t-12.5 -0.5t-12.5 0.5h-10.5q-6 0 -10 -1t-6.5 -4.5t-4 -6t-2 -8.5t-0.5 -9v-10v-9q0 -11 2 -34t2 -35q0 -10 -1.5 -46.5t-0.5 -54.5q0 -39 2 -57q0 -2 -0.5 -9.5t-0.5 -14.5 t1 -11q-5 -3 -2 -29t2 -34q-15 -193 -4 -473q0 -70 -2 -107q-1 -13 2 -38t2 -40q-4 -44 -2 -61q0 -6 1.5 -25t0.5 -28q-2 -21 3 -65t5 -48q0 -1 0.5 -5t1 -7.5t0 -7.5t-3.5 -5t-8 0q-6 2 -21 -1.5t-23.5 1t-6.5 23.5q5 16 0.5 96.5t-4.5 96.5q0 13 -3 40.5t-1 47.5 q1 18 0 55t0 53q1 21 -1 65t-1 66q2 33 -7 121q-1 12 1 49t1 51q-1 21 5 115v96l1 72q2 72 -1 74q-1 12 0.5 43t-0.5 43q-5 61 -3 82q-24 -4 -45 -4q-2 0 -19.5 -2.5t-21.5 0.5q-11 3 -32.5 1.5t-32.5 -4.5q-8 -2 -20 -1.5t-17 -0.5q-46 0 -61 -6q-4 -20 0 -63.5t0 -61.5 q4 -44 -2 -82q-5 -23 -5 -77v-93q-4 -62 -4 -88q0 -1 -2 -42t2 -42q4 -11 -4 -42l-2 -3q6 -10 6.5 -34.5t1.5 -30.5q0 -65 2 -78q5 -26 5 -81.5v-61.5q0 -40 -9 -150q-1 -26 4 -162q3 -20 0 -39q0 -9 3 -24q0 -37 -12 -41q-5 -2 -13 8q-2 0 -11 -2t-13.5 -2.5t-12.5 0 t-7.5 4.5l1.5 12q-6 10 -6 60q1 16 0.5 60.5t1.5 58.5q1 9 1 33.5t1.5 45.5t5.5 35q3 9 2.5 18t-2.5 25.5t-2 20.5q2 31 2 90v80q1 7 -1.5 37t1.5 36q0 11 -1 31.5t-1 37.5t2 32q2 12 -0.5 43.5t2.5 42.5q-5 5 -3 16t1 15q-2 5 -4.5 5.5t-8 -0.5t-7.5 -1q-41 7 -58 4 q-7 0 -18 3t-21 3q-14 -1 -37.5 1.5t-33.5 2.5q-22 0 -52 12q-28 11 -36 19l-7 5q-7 6 -14 11.5t-14 12.5t-8 10q-8 6 -20 23.5t-15 27.5q-19 48 -19 61v70q14 48 19 57q18 40 36.5 64t53.5 41q2 1 5.5 4.5t6.5 3.5q4 -2 12 6q4 4 12.5 6t12.5 6q8 8 8 11q17 0 25 4 q12 6 20 8q7 4 71.5 23.5t74.5 21.5l45 3q44 3 76.5 6t37.5 7q46 8 107 -2q12 -2 41.5 2t34.5 4q14 0 47.5 -2.5t52.5 -1.5q4 0 9 2t7.5 2t6.5 -4q5 -2 12 -6z" />
<glyph unicode="&#xb7;" horiz-adv-x="1024" d="M563 924q14 -2 29 -17q22 -28 26 -71q0 -14 -5 -25.5t-10.5 -17t-18 -17t-17.5 -16.5q-9 -12 -32.5 -17.5t-40.5 0.5q-9 0 -23 7q-11 4 -33 26q-19 19 -14 66q2 19 16.5 46.5t30.5 24.5l22 7q22 8 27 8q27 0 43 -4z" />
<glyph unicode="&#xb8;" horiz-adv-x="485" d="M354 -109q22 -15 26.5 -42t-1.5 -54q-1 -16 -6.5 -31t-9 -21t-17.5 -28q-3 -4 -14 -11.5t-15 -12.5q-6 -6 -21 -10t-20 -9q-24 -6 -28 -10q-4 3 -13 3.5t-22.5 -0.5t-15.5 -1q-4 0 -24.5 5t-38.5 10t-19 4q1 4 -6 11.5t-7 12.5q1 6 6.5 13.5t6.5 13.5t4 6.5t6 -1.5t6 1 q4 -2 8.5 -6t10.5 -6q2 -1 7 -2t7 -2q32 -13 76 22q25 18 27.5 54.5t-25.5 54.5q-2 1 -5 1.5t-7.5 1t-8.5 1.5q-6 2 -12.5 2.5t-8.5 0.5t-11.5 -2t-12.5 -3q0 6 2 8q-8 -4 -10 -10q0 2 -8 4t-16.5 4t-10.5 4q2 2 11.5 19.5t18.5 31.5t13 14q5 0 17 37q5 -1 11.5 9t10.5 20.5 t4 15.5l3 2q38 21 36 2q7 7 15 -1t3 -17q-14 -25 -18 -35q-11 -32 -8 -33q18 -6 24 -6q12 0 23.5 -3.5t18 -7.5t20 -12.5t18.5 -11.5z" />
<glyph unicode="&#xb9;" horiz-adv-x="432" d="M141 1155q-47 -6 -57 31q-4 14 4 19.5t22.5 9t20.5 8.5q3 2 9.5 8t8.5 8l7 7t7.5 8t5.5 8.5t5 11t4 12.5q0 2 1.5 14.5t3 21.5t5.5 11t13.5 1.5t13.5 0.5q8 0 21 -2.5t22.5 -2t17.5 6.5q7 -4 8.5 -12t-1 -21t-2.5 -16q-3 -29 2 -129q2 -36 -2 -106v-70q0 -5 -3 -38 t-2 -40q3 -44 3 -82q0 -8 1 -39.5t1 -40.5q0 -49 4 -55q0 -2 -7.5 -13t-11.5 -11q-12 2 -33.5 -3.5t-37.5 -3.5q-2 0 -2.5 11t-1.5 24t-3 15q4 5 2.5 26.5t-0.5 26.5q5 47 -4 131q4 22 4 48.5t-2 58t-2 46.5q0 41 -2 64v31q0 31 -6 41q1 -1 -2.5 -3t-8.5 -5.5t-10.5 -6.5 t-10 -6t-5.5 -4z" />
<glyph unicode="&#xba;" horiz-adv-x="909" d="M227 535q-13 7 -26 24q-4 5 -16.5 18t-18.5 21q-4 6 -9.5 21t-9.5 22q-5 3 -10.5 12t-5.5 15q0 8 -3.5 18.5t-9.5 23.5t-7 17q-17 44 -13 55q3 13 -2 42t-4 40t2 35.5t2 34.5q5 44 25 141q17 67 41 99q8 16 26 43q3 6 12 14t11 10q12 15 20 23q6 8 28 23.5t28 21.5t30 10 q7 1 21 6.5t18 5.5q6 0 30 9t30 14q6 4 23.5 2.5t25.5 1.5q8 2 23 -1t16 -3l96 -21q2 -2 18.5 -7t18.5 -7q4 -4 21 -17t24 -20q25 -32 27 -35q6 -12 28.5 -42.5t28.5 -51.5q1 -6 8.5 -19.5t7.5 -23.5q0 -5 5.5 -24.5t9.5 -24.5q0 -20 14 -62q3 -9 3 -26t1 -21 q11 -97 -6 -168q-2 -10 -4 -29.5t-2 -21.5q-1 -2 -3 -11.5t-4.5 -17.5t-4.5 -10q-4 -5 -11.5 -29t-15.5 -30q-4 -3 -8.5 -12t-7.5 -11q-15 -10 -35 -34l-25 -25q-8 -12 -24 -24t-27 -13q-2 0 -9 -5t-10 -5q-2 -2 -11.5 -6.5t-20 -9.5t-11.5 -5q-47 -16 -49 -16 q-5 -1 -20.5 -6.5t-24.5 -5.5q-2 0 -8.5 -1t-13.5 -1t-13 2q-2 1 -15.5 -2t-18.5 2q-10 5 -33 2q-26 -2 -42.5 1.5t-23 7t-28.5 19.5q-7 5 -12.5 13.5t-8.5 11.5q-4 4 -37 23zM250 946q0 -5 -4 -31t0 -28q1 -1 -0.5 -10.5t-2 -19.5t2.5 -17q3 -6 7 -35.5t7 -38.5 q12 -36 12 -41q0 -4 7 -23t6 -26q0 -3 14 -22.5t16 -24.5q4 -6 8.5 -11t10.5 -10.5t8 -7.5q19 -19 55 -39q5 -4 12 -6.5t15.5 -3t14.5 -1t14 0t10 0.5q20 0 37 5t24.5 9.5t17.5 12.5t11 8q29 16 51 49q0 1 12 15.5t13 19.5q8 38 20 47q10 8 15.5 55.5t5.5 73.5q0 14 1 61.5 t0.5 70t-6.5 58t-18 62.5q-5 10 -18.5 29.5t-20.5 31.5q-9 17 -37 45q-23 23 -58.5 37.5t-79.5 12t-77 -30.5q-10 -8 -30 -30.5t-23 -29.5q-26 -59 -29 -73q-2 -8 -7 -25t-7 -25q-10 -42 -10 -94z" />
<glyph unicode="&#xbb;" horiz-adv-x="610" d="M117 188q-14 14 -17 37q0 3 -4 8t-4 10t8 13q4 4 10 10.5t9 9.5q4 4 24 29q3 5 15 23q4 7 10 18.5t8 15.5q3 5 11.5 24.5t15.5 25.5q1 7 -3 18t-11.5 24.5t-8.5 16.5q-5 4 -14.5 17.5t-13.5 17.5q-6 6 -12.5 18.5t-8.5 14.5q-5 8 -17 20.5t-14 18t2 22.5q12 20 21 29 q4 5 12 33q8 25 37 -26q5 -9 6 -11q45 -64 51 -76q7 -14 23 -34.5t22 -29.5q4 -7 16.5 -23t18.5 -26q4 -9 -3.5 -23.5t-20 -30.5t-15.5 -22q-10 -12 -12 -18q-1 -3 -4.5 -5.5t-5.5 -6.5q-14 -21 -15 -23q-9 -16 -53 -71q-5 -3 -22 -30.5t-17 -31.5q-3 3 -6.5 -2.5t-9.5 2.5 q-1 3 -4 8t-4 6zM430 244q-3 -4 -7.5 -13.5t-10 -19t-13.5 -16.5q-12 -10 -30 -32.5t-23 -31.5q-9 -18 -22 -10q-5 3 -10.5 15.5t-10.5 17.5q-4 4 -10 20.5t-12 20.5q-6 24 10 45q3 3 10 17t10 17q13 13 29 43t22 39q4 6 9 23.5t8 21.5q12 20 -2 48q-2 3 -8 7.5t-7 10.5 q-1 4 -6.5 10.5t-7.5 9.5q-4 6 -9 18.5t-9 18.5q-3 5 -8.5 15t-10.5 17.5t-10 12.5q-3 3 -9 10.5t-9 10.5l-10 7l-1 1q-1 2 -4 5.5t-3.5 4.5t-0.5 3.5t1.5 5t4.5 6.5q15 25 19 28t10.5 12.5t13.5 12.5t15 16q17 27 40 -21q15 -32 17 -34q10 -12 25 -36t24 -36q13 -18 29 -53 q10 -27 22 -45q21 -30 25 -43q1 -3 4 -15.5t4 -15.5q2 -7 -12 -22q-14 -14 -19 -29q-27 -49 -30 -53q-5 -7 -12 -21.5t-15 -23.5z" />
<glyph unicode="&#xbc;" horiz-adv-x="1122" d="M223 1243l25 53q1 3 2 4t2.5 0t2.5 -2.5t3.5 -3.5t5.5 -4q4 -3 13.5 -3t13.5 -3q3 -2 8 -2.5t8 -1.5t5 -8t1 -21q0 -1 1 -29t1 -51.5t-2 -27.5q-6 -18 -6 -158v-78v-53q-6 -133 -6 -137v-9v-9t-0.5 -7.5t-2 -6.5t-4.5 -4t-8 -1.5t-12 2.5q-9 -3 -19.5 -2.5t-16.5 -1.5 q-15 -4 -18.5 7t-1 32t2.5 24q-4 46 -4 84q4 69 2 105q-3 40 0 80q0 21 -4 61q0 1 -1 12.5t-1 21.5t2 13q-22 -11 -37 -16q-6 -2 -47 -8q-10 0 -12 8q-1 2 -2 7t-1.5 7l-1.5 6t-1 5.5t0.5 4.5t2 4.5l3.5 3.5t5 3t7 2q18 4 38.5 18.5t29.5 28.5q5 7 24 51zM1004 371 q2 0 14.5 -3t19.5 -3v-33q0 -7 -2.5 -17.5t-3.5 -13.5q-7 2 -24.5 -0.5t-22.5 -1.5q-43 9 -53 6l-6 -1q-7 0 -13.5 -0.5t-13.5 0t-10 1.5q-18 -30 -21 -92q-1 -9 -3.5 -39.5t-2.5 -48.5q0 -1 0.5 -18.5t0 -30.5t-1 -30t-3 -28t-6.5 -14l-21 -6q-15 8 -36 6q-1 0 -5 11.5 t-4 13.5q1 9 2.5 28.5t2.5 28.5q1 8 2 24t2 23q1 6 2.5 16.5t2.5 19.5t1 17q0 5 2 20.5t4.5 32.5t3.5 34.5t-0.5 29t-7.5 12.5q-35 7 -80 7q-15 0 -53 3t-43 3q-4 -1 -24 0.5t-23 3.5q-8 0 -13.5 8t-1.5 18q1 2 23 35q8 13 26.5 36t26.5 36q8 11 27.5 33t29.5 37 q12 19 37.5 47t34.5 41q8 12 26 33.5t25 33.5q15 23 23.5 34t25.5 22t37 12q26 0 29 -4q8 -8 0 -31q-3 -14 -3.5 -44.5t-4.5 -47.5q-2 -10 -7.5 -31t-8.5 -38t-3 -32q0 -19 -6.5 -63t-7.5 -57q0 -3 -1.5 -9.5t-1.5 -9t1.5 -6t6.5 -4.5t13 -2q20 0 48 -4q8 -2 23 -2.5 t20 -1.5zM840 586q3 8 0 18q-12 -23 -62 -82q-10 -14 -28 -35.5t-25 -29.5l-8 -8q-28 -29 -15 -35q4 -2 13 -2q6 -3 14.5 -4t19 -1t15.5 -1q9 0 27 -3l24 -4q2 15 5 43t5 41q0 9 4 45q0 14 11 58zM750 1010q-5 -8 -9.5 -16t-9 -17.5t-8.5 -15.5q-2 -3 -13 -20.5t-12 -20.5 q-4 -7 -26.5 -40.5t-28.5 -43.5q-2 -4 -12 -29q-3 -8 -10.5 -19.5t-8.5 -13.5q-18 -30 -20 -33q-385 -694 -385 -696l-12 -20q-4 -12 -8.5 -15t-10.5 -18q0 -1 -1 -3t-1 -3q-1 -3 -4.5 -17t-8 -21t-11.5 -5q-6 2 -22 2.5t-24 3.5q-2 1 -2.5 3t0 3.5t-1 3t-5 1.5t-11.5 -1 q-7 -1 -5 8q1 1 11 25q29 46 31 51q22 53 59 113q7 14 28 48.5t28 49.5q9 16 31.5 52t29.5 50q13 27 35 64q9 14 24.5 41t24.5 41q4 13 20 35q5 8 14 25.5t13 23.5q15 27 33 51q2 4 10 19.5t10 19.5q21 31 25 41q8 21 28.5 54t24.5 40q5 10 20 32.5t19 33.5q13 30 55 90 q11 13 31 53l11 18q11 19 16 29q10 22 28.5 49.5t24.5 40.5q2 8 12 24.5t12 24.5q0 4 5 19t8 16q9 3 14 10.5t6.5 14t8.5 11t20 1.5q1 -2 7 -1t7 1q2 -1 4.5 2.5t5.5 3.5q4 0 8 -3.5t7 -2.5q3 -9 -4.5 -34t-16.5 -34q-4 -7 -17.5 -28t-16.5 -29q-15 -30 -21 -39 q-27 -43 -39 -55q-6 -6 -12.5 -25t-11.5 -24z" />
<glyph unicode="&#xbd;" horiz-adv-x="1290" d="M1130 121q57 7 76 -4v-29q2 -5 -8 -25q-7 -10 -51 -10q-10 0 -68 -3t-63 -3q-20 0 -66 -4q-10 0 -27 -6.5t-24 -7.5q-4 0 -24 -2t-33 -1t-15 7q-1 2 -4.5 12t-4.5 15.5t-0.5 13.5t5.5 12q11 10 26.5 31t22.5 28q17 14 35 35q30 39 37 45q10 10 19.5 23.5t19.5 23.5 q46 46 74 86q79 116 59 205q-13 54 -20 70q-9 22 -20 34.5t-32 24.5q-19 12 -45 15q-24 6 -43 2q-2 0 -10.5 -1t-12.5 -2t-9.5 -3.5t-8.5 -6.5q-1 -3 -10.5 -8t-11.5 -8q-17 -17 -19 -35q-1 -1 -3.5 -14t-4.5 -15q-8 -5 -10 -28t2 -33q9 -28 35 -57q-2 -8 -13 -20t-20 -15 q-7 -2 -13.5 -5t-7.5 -4.5t-4.5 0.5t-4 2.5t-7.5 8.5q-8 10 -11.5 23t-5 31.5t-3.5 27.5q-13 74 41 147q46 67 110 76q51 6 107 -18q26 -10 45 -29q2 -3 17 -17t18 -20q3 -5 13.5 -19.5t15 -24.5t4.5 -21q0 -5 3 -15.5t3 -15.5q0 -3 -1.5 -14t-0.5 -19q1 -11 -0.5 -37.5 t-1.5 -34.5q0 -14 -3 -31.5t-4 -27.5q0 -7 -10 -28t-16 -29q-4 -4 -12.5 -19.5t-12.5 -19.5q-5 -6 -14 -23.5t-17 -25.5q-9 -9 -25.5 -30t-21.5 -26q-3 -3 -9 -10t-9 -10q-4 -4 -20.5 -17t-22.5 -22q-3 -5 -27.5 -28t-23.5 -38q2 -2 13.5 0.5t25 5.5t16.5 3q15 2 41 2t41 2 q10 1 30.5 3t34.5 5zM141 1155q-17 -4 -27 -5t-15.5 3t-7 5.5t-4 13t-3.5 14.5q-4 14 4.5 20t23 9.5t19.5 7.5q3 2 9.5 8t8.5 8l7 7t7.5 8t5.5 8.5t5 11t4 12.5q0 2 1.5 13.5t3.5 20.5t5 13h33q7 0 19 -2t20 -1t16 7q7 -4 8.5 -12t-1 -21t-2.5 -16q-3 -29 2 -129 q2 -35 -2 -104q0 -6 2 -35.5t2 -36.5q0 -3 -1 -22t-1.5 -32.5t0.5 -23.5q2 -29 2 -84v-78q0 -2 -1 -15.5t-1 -25t2 -14.5q0 -2 -7.5 -13t-11.5 -11q-17 -4 -38 -3t-33 -4q1 4 0.5 12.5t-1.5 21.5t-1 16q-3 24 -3 53q-1 14 -1.5 61.5t-2.5 69.5q-2 25 -2 75t-2 74 q0 4 1.5 29.5t0.5 38.5v31q0 31 -6 41q1 -1 -2.5 -3.5t-8 -5.5t-10 -6.5t-10 -6t-6.5 -3.5zM172 -6q-13 -6 -44 -3q-27 3 -13 17q11 11 18 23q7 13 30 45t32 53q10 26 42 71t42 64q7 15 17 30t24 33t20 27q25 32 69.5 102.5t67.5 100.5q13 16 34 56.5t36 58.5q1 2 31.5 51 t39.5 61q70 88 89 138q8 17 24.5 40t22.5 35q11 30 43 72q9 11 16 21.5t15 23.5t14 23q32 36 39 51q4 7 18.5 23.5t18.5 23.5q2 3 13 26.5t17 30.5q5 6 10.5 16.5t10.5 16.5q12 3 35 -2q26 0 32 -2q4 -1 6.5 -2t3.5 -2.5t3.5 -4.5t5.5 -5q-6 -24 -39 -67.5t-35 -47.5 q-5 -9 -17.5 -27t-21.5 -33t-16 -30q-4 -7 -11 -19.5t-13.5 -23t-12.5 -19.5q-22 -33 -37 -53q-10 -15 -21 -41q-7 -21 -34 -51q-15 -18 -38 -58.5t-38 -58.5q-28 -38 -47 -73q-8 -12 -23 -35.5t-27 -41.5t-24 -32q-29 -36 -53 -80q-12 -20 -43.5 -65.5t-46.5 -71.5 q-11 -20 -35.5 -52.5t-32.5 -45.5q-20 -33 -43 -66q-11 -14 -27.5 -42t-29.5 -44q-7 -10 -19.5 -28.5t-19.5 -28.5q-3 -6 -15.5 -24.5t-15.5 -24.5l-11 -16.5t-11 -20.5q-2 -6 -5 -7.5t-6 0t-5 4t-5 6.5t-4 5z" />
<glyph unicode="&#xbe;" horiz-adv-x="1140" d="M981 666q-9 -36 -10 -105.5t-4 -93.5q-2 -23 -2 -74q0 -3 -1.5 -14t-0.5 -14q14 -17 32 -15q59 5 62 0q8 -11 1 -34.5t-24 -20.5q-9 -2 -36.5 -0.5t-39.5 0.5q2 -14 2 -41.5t1 -34.5v-106q0 -6 3.5 -16t1 -14t-13.5 -5q-29 -4 -39 0q-12 5 -16.5 32t-3 51.5t-0.5 39.5 q0 3 1 16l2 26t0.5 27t-4 22.5t-9.5 8.5q-9 1 -18.5 1t-20.5 -0.5t-17 -0.5q-10 0 -47 -4t-49 -8q-2 -3 -14 -1.5t-19 1.5q-4 0 -15.5 -1.5t-18 0t-11.5 7.5q-1 14 16.5 37.5t20.5 29.5q9 11 24 32.5t21 29.5q16 16 33.5 42.5t30.5 39.5q8 9 18 31.5t12 25.5q4 9 19.5 26.5 t17.5 20.5q4 5 9 14.5t8 12.5l5 9q6 9 10 12.5t9 3.5q1 0 11 -0.5t18.5 -0.5t17 1t11.5 4h16zM887 387q4 12 4 53v9.5v16t-0.5 20.5t-1 18.5t-2 14.5t-2.5 5q-6 -6 -15 -19t-19 -29t-15 -23q-18 -26 -25 -39q-1 -2 -8 -9.5t-12.5 -14t-4.5 -9.5q10 -5 34 -5.5t32 5.5 q1 -1 6 -0.5t11.5 2t7.5 2.5q3 2 10 2zM332 770q16 16 20 29q9 24 12 35.5t-0.5 30.5t-19.5 32q-7 6 -15 12l-12 9q-21 12 -49 16q-8 1 -21 -0.5t-18 -1.5t-8 1t-5 4.5t-3 5t-2.5 7.5t-1.5 8q-3 12 -1 23.5t9 11.5q6 0 8.5 -1t3.5 -1q5 1 13.5 2t13.5 2t10 3.5t7 3t8 -0.5 q11 -4 18 3q64 33 59 81q0 3 -1.5 15.5t-2 16t-3 13t-5.5 14t-8 10.5t-12 11q-8 7 -30.5 10.5t-33.5 -1.5q-31 -16 -37 -27q-1 -1 -11.5 -14t-14.5 -19q-19 -32 -19 -39q0 -12 -4.5 -16t-12 -3t-16.5 -1q-11 -3 -17 -2t-5 10q0 28 2 33t5.5 17.5t8.5 19.5q9 16 27 41 q8 10 35 26q42 29 110 29q18 0 52 -17q15 -6 41 -28q22 -21 26.5 -55.5t-2.5 -67.5q-11 -66 -24 -72q-30 -10 -17 -26l21 -21q8 -10 18 -31q2 -4 5 -15t5 -15q9 -22 2 -52q-2 -6 -5 -19t-6.5 -24.5t-8.5 -23.5q-5 -10 -19 -31q-21 -36 -30 -43q-4 -3 -12.5 -8t-12.5 -8 q-3 -2 -14 -5t-15 -5q-20 -8 -63 4q-6 2 -17.5 4t-17.5 4q-30 5 -49 20q-57 49 -66 88q-4 16 31 33q3 -3 10.5 -8t10.5 -8q1 -1 6.5 -8.5t7.5 -8.5q8 -3 19 -15t20 -15q63 -19 92 -2q1 1 14 7.5t17 12.5zM870 1270q3 5 13 15.5t14 19.5q6 10 32.5 -8.5t31.5 -32.5 q0 -3 -9 -16.5t-18 -26t-10 -11.5q-2 0 -7 -7.5t-14.5 -22.5t-15.5 -23l-113 -188q-20 -41 -24 -43l-209 -355q-10 -15 -15 -20l-28 -49q-13 -26 -146 -248q-8 -16 -14 -25l-19 -28q-3 -7 -9 -19.5t-7 -15.5q-1 -4 -4 -9.5t-7 -12t-5 -9.5q-19 -39 -33 -57q-6 -17 -25 -46 t-26 -44q-3 -6 -13.5 -19.5t-13.5 -23.5q-7 -17 -14.5 -23t-24.5 -2q-14 0 -26 6q-8 3 -15 -2.5t-12 0.5q-2 19 25 51q5 6 14 24t14 24q34 48 39 63q2 7 10.5 16.5t10.5 12.5l77 131l5 6l8 14q1 2 3 6.5t3 6.5l6 10q3 11 9.5 23t19.5 31.5t16 23.5l45 73q4 7 11.5 21.5 t11.5 21.5q3 4 5.5 7.5t5 7.5t3.5 6l31 51q2 6 11 21.5t15 21.5q4 4 15.5 29t15.5 30q5 8 11 21t10 18q4 6 11 21.5t11 21.5q2 4 9.5 14.5t11.5 18t6 14.5q3 9 32 52q1 2 8.5 17.5t10.5 18.5q31 35 47 64q2 3 14 27q13 29 21 41q7 8 13 25t9 22q4 6 15.5 21t15.5 24 q7 14 27 46.5t28 51.5q4 10 15.5 26t15.5 23q9 19 14 25z" />
<glyph unicode="&#xbf;" horiz-adv-x="970" d="M520 389q-3 -3 -9.5 -16.5t-10.5 -18.5q-2 -2 -10 -6t-11 -10t-15 -16t-15 -13q-9 -11 -29 -27t-27 -24q-11 -9 -21 -21t-20.5 -28.5t-17.5 -24.5q-10 -11 -22.5 -34.5t-18.5 -30.5q-6 -8 -10 -20.5t-6 -21.5t-5 -26.5t-4 -23.5q-3 -11 -3.5 -23.5t0 -21.5t2 -24.5 t1.5 -23.5q5 -49 31 -102q2 -10 13.5 -34t19.5 -31q2 -2 21 -21.5t36 -33t27 -13.5q6 0 16.5 -7.5t11.5 -8.5q7 -3 22.5 -5.5t22.5 -5.5q66 -25 146 29q11 6 22 17.5t23 25.5t18 20q11 9 39 80q1 3 8.5 17t8.5 20q32 8 39 -4q3 -5 9.5 -9.5t18 -9t13.5 -5.5q11 -6 12.5 -12 t-0.5 -19q-1 -4 -4.5 -16t-3.5 -15q-7 -33 -9 -39q-1 -3 -9.5 -26t-10.5 -25q-4 -4 -14.5 -18t-18.5 -21q-9 -7 -24 -25t-23 -24q-32 -24 -37 -27q-3 -2 -20 -7t-21 -7q-49 -24 -59 -27q-19 -6 -31 -8q-27 -4 -37 0q-1 3 -14 0.5t-16 -2.5q-59 4 -86 14q-51 18 -78 52 q-17 23 -27 20q-29 25 -33 31q-2 3 -7 10t-9.5 12t-9.5 9q-15 9 -37 34q-18 23 -23 39q-5 4 -9 10.5t-7.5 16t-5.5 12.5q-21 42 -27 96q-1 9 -2 29t-2 29q-2 18 -2 51q1 5 -1 35.5t3 32.5q5 7 8.5 17.5t5.5 14.5q1 2 3 12t4 18.5t4 10.5q18 21 20 27q7 20 27 53q5 8 15 23.5 t15 23.5q14 24 52 54q22 16 49 47l37 37q1 1 12.5 23.5t19.5 29.5q2 6 11 24.5t10 28.5q1 8 2.5 21t2.5 24.5t1 22.5q-4 66 8 102q1 -1 9 2.5t10 5.5l18 -8v0q11 10 33 6q7 0 23 -3t24 -3q18 -13 21 -32t-1 -40q-2 -18 -2 -51q-3 -29 -10 -72q-5 -46 -18 -59 q-5 -5 -11 -19.5t-14 -19.5zM563 911q8 2 11.5 -1.5t3.5 -11.5t-1 -16t-2.5 -16.5t-1.5 -11.5q0 -5 1 -17.5t1 -21.5t-2 -17.5t-8 -11.5q-13 -4 -35.5 -2.5t-37.5 -1.5q-2 0 -10 -1.5t-14 -2.5t-13 -1.5t-12 1.5t-7 6q6 60 8 60q-9 69 7 74q16 7 36 0q6 -1 16 0.5t15 1.5 q2 -1 5.5 -2.5t14 -4t17.5 1.5q8 0 8 -4z" />
<glyph unicode="&#xc0;" d="M1124 59q-4 -15 19 -49q-1 -9 -2.5 -14.5t-5.5 -7.5t-6.5 -2.5t-11 -1t-13.5 -0.5q-7 -4 -24.5 -2t-22.5 10q-14 -8 -49 4h-4q-4 -1 -6.5 -1t-5 2t-3.5 5q-3 4 2.5 8.5t5.5 7.5q-3 14 -14 36.5t-14 33.5q-1 6 -10 22t-9 19q-1 8 -5 17t-10.5 20.5t-8.5 15.5 q-9 19 -20 56.5t-15 48.5q-5 11 -12.5 34t-12.5 35q-2 5 -7.5 17t-10 20.5t-8.5 12.5q-9 9 -26.5 13.5t-31.5 4.5t-37 -1t-30 -1q-14 0 -45 -1t-49 -1h-140q-31 0 -43 6q-1 1 -7.5 -2t-8.5 -2q-7 3 -26 -0.5t-27 -1.5q-1 3 -23.5 0.5t-26.5 -2.5q-3 0 -11.5 1.5t-13.5 1.5 t-12 0.5t-12 -1t-8 -4.5q-9 -8 -10 -22.5t-4 -20.5q-17 -29 -19 -31q-10 -13 -16 -43q-6 -19 -20.5 -59.5t-20.5 -59.5q-6 -14 -16 -61q-1 -4 -2.5 -17.5t-5 -24t-9.5 -14.5q-2 -5 -3.5 -17.5t-2.5 -14.5l-4.5 -13.5t-3.5 -17.5q-2 0 -6 -1l-6 -1.5t-5 1.5t-4 7 q-3 -2 -28 -2t-33 -2q-4 -1 -13.5 0t-13.5 0q-5 9 -4.5 23.5t4.5 21.5q2 4 6 26t11 29q-1 17 8 41.5t10 32.5q2 14 10 39.5t9 30.5q13 40 44.5 113t43.5 110q13 42 43.5 115.5t38.5 95.5q3 6 18.5 47t29.5 78.5t17 40.5q6 6 19 41t23.5 68t8.5 34q22 40 37 94q2 9 13 34 t12 40q47 88 69 162q5 4 8.5 19t6.5 20q3 1 16.5 -1.5t16.5 1.5q16 -5 36 -2q12 2 19 6v-3q-1 -5 0 -6.5t8 1.5q14 9 17 -4q1 -2 2 -8l1 -5q1 -10 5 -20.5t11 -23t9 -17.5q0 -1 5.5 -13.5t9.5 -24t4 -15.5q1 -13 9.5 -39.5t10.5 -36.5q1 -5 13.5 -32t15.5 -44q0 -3 15 -39 t19 -43q18 -41 23 -59q1 -6 16 -41q1 -3 8.5 -21.5t13 -35.5t5.5 -23q4 -3 6.5 -14.5t5.5 -14.5q4 -9 12.5 -27.5t12.5 -27.5q3 -8 37 -83t45 -114q3 -15 16.5 -36.5t16.5 -30.5q5 -12 20.5 -50t22.5 -59q1 -6 17 -45t17 -49q5 -12 22.5 -41t20.5 -53q2 -17 21 -60 q-1 -7 6.5 -24.5t13.5 -20.5zM772 539q0 -1 1 0t2.5 3t2.5 3q0 -5 8 -5.5t11 1.5q-1 4 -9.5 25.5t-9.5 33.5q1 3 -4 15.5t-4 19.5q-4 9 -14 41.5t-19 48.5q-4 5 -14 41q-5 8 -23 51q-8 35 -36 98q-2 6 -15 40t-20 51q-4 7 -15 42.5t-24 47.5q-5 5 -14.5 34.5t-20.5 30.5 q-7 -1 -13 -19.5t-10 -21.5q0 -4 -7.5 -21t-12.5 -20q3 -1 -8.5 -29.5t-14.5 -31.5q0 -26 -30 -74q-4 -6 -9 -27.5t-10 -29.5q-8 -11 -19 -38.5t-13 -31.5q-25 -47 -29 -74q-2 -12 -15 -42t-16 -42q1 -3 -5 -14t-7 -14q-2 -8 -9.5 -19.5t-9.5 -19.5q-1 -4 -6 -13.5t-6 -14 t2 -15.5l35 -4q2 -1 15 -1t14 1q10 -5 18 -2q7 6 70 1t71 -5h60q10 1 30 -1t29 -1q2 0 11.5 1.5t11.5 0.5q27 -5 61 2q12 2 39 -2zM629 1569q4 -5 16 -18t20.5 -24.5t10.5 -19.5q3 -14 -10 -16.5t-27 0.5t-14 2q-1 -4 -11 -5t-29.5 0t-23.5 1q-6 0 -8.5 12t-9.5 17 q-3 2 -7 6.5t-9.5 10.5t-8.5 9q-6 6 -29.5 26t-33.5 34q-6 6 -28.5 23.5t-29.5 31.5q-2 10 7 13t21 2t13 -1q10 4 23 1.5t20 0.5q13 7 40.5 3.5t35.5 -19.5q10 -19 35 -41q4 -6 18.5 -24.5t18.5 -24.5z" />
<glyph unicode="&#xc1;" d="M1124 59q-4 -15 19 -49q-1 -9 -2.5 -14.5t-5.5 -7.5t-6.5 -2.5t-11 -1t-13.5 -0.5q-7 -4 -24.5 -2t-22.5 10q-14 -8 -49 4h-4q-4 -1 -6.5 -1t-5 2t-3.5 5q-3 4 2.5 8.5t5.5 7.5q-3 14 -14 36.5t-14 33.5q-1 6 -10 22t-9 19q-1 8 -5 17t-10.5 20.5t-8.5 15.5 q-9 19 -20 56.5t-15 48.5q-5 11 -12.5 34t-12.5 35q-2 5 -7.5 17t-10 20.5t-8.5 12.5q-9 9 -26.5 13.5t-31.5 4.5t-37 -1t-30 -1q-14 0 -45 -1t-49 -1h-140q-31 0 -43 6q-1 1 -7.5 -2t-8.5 -2q-7 3 -26 -0.5t-27 -1.5q-1 3 -23.5 0.5t-26.5 -2.5q-3 0 -11.5 1.5t-13.5 1.5 t-12 0.5t-12 -1t-8 -4.5q-9 -8 -10 -22.5t-4 -20.5q-17 -29 -19 -31q-10 -13 -16 -43q-6 -19 -20.5 -59.5t-20.5 -59.5q-6 -14 -16 -61q-1 -4 -2.5 -17.5t-5 -24t-9.5 -14.5q-2 -5 -3.5 -17.5t-2.5 -14.5l-4.5 -13.5t-3.5 -17.5q-2 0 -6 -1l-6 -1.5t-5 1.5t-4 7 q-3 -2 -28 -2t-33 -2q-4 -1 -13.5 0t-13.5 0q-5 9 -4.5 23.5t4.5 21.5q2 4 6 26t11 29q-1 17 8 41.5t10 32.5q2 14 10 39.5t9 30.5q13 40 44.5 113t43.5 110q13 42 43.5 115.5t38.5 95.5q3 6 18.5 47t29.5 78.5t17 40.5q6 6 19 41t23.5 68t8.5 34q22 40 37 94q2 9 13 34 t12 40q47 88 69 162q5 4 8.5 19t6.5 20q3 1 16.5 -1.5t16.5 1.5q16 -5 36 -2q12 2 19 6v-3q-1 -5 0 -6.5t8 1.5q14 9 17 -4q1 -2 2 -8l1 -5q1 -10 5 -20.5t11 -23t9 -17.5q0 -1 5.5 -13.5t9.5 -24t4 -15.5q1 -13 9.5 -39.5t10.5 -36.5q1 -5 13.5 -32t15.5 -44q0 -3 15 -39 t19 -43q18 -41 23 -59q1 -6 16 -41q1 -3 8.5 -21.5t13 -35.5t5.5 -23q4 -3 6.5 -14.5t5.5 -14.5q4 -9 12.5 -27.5t12.5 -27.5q3 -8 37 -83t45 -114q3 -15 16.5 -36.5t16.5 -30.5q5 -12 20.5 -50t22.5 -59q1 -6 17 -45t17 -49q5 -12 22.5 -41t20.5 -53q2 -17 21 -60 q-1 -7 6.5 -24.5t13.5 -20.5zM772 539q0 -1 1 0t2.5 3t2.5 3q0 -5 8 -5.5t11 1.5q-1 4 -9.5 25.5t-9.5 33.5q1 3 -4 15.5t-4 19.5q-4 9 -14 41.5t-19 48.5q-4 5 -14 41q-5 8 -23 51q-8 35 -36 98q-2 6 -15 40t-20 51q-4 7 -15 42.5t-24 47.5q-5 5 -14.5 34.5t-20.5 30.5 q-7 -1 -13 -19.5t-10 -21.5q0 -4 -7.5 -21t-12.5 -20q3 -1 -8.5 -29.5t-14.5 -31.5q0 -26 -30 -74q-4 -6 -9 -27.5t-10 -29.5q-8 -11 -19 -38.5t-13 -31.5q-25 -47 -29 -74q-2 -12 -15 -42t-16 -42q1 -3 -5 -14t-7 -14q-2 -8 -9.5 -19.5t-9.5 -19.5q-1 -4 -6 -13.5t-6 -14 t2 -15.5l35 -4q2 -1 15 -1t14 1q10 -5 18 -2q7 6 70 1t71 -5h60q10 1 30 -1t29 -1q2 0 11.5 1.5t11.5 0.5q27 -5 61 2q12 2 39 -2zM760 1667q3 0 13 0.5t16 0t13.5 -1t10.5 -3t2 -6.5q-2 -11 -25 -29t-26 -22q-46 -46 -102 -86q-39 -27 -56 -52q-13 -3 -19 -2.5t-20 3.5 t-24 4q-1 0 -7.5 -3t-17.5 -2q-5 1 -10 -1t-6.5 0t-5.5 14q-1 5 2.5 12t10 16t7.5 11q4 7 20.5 29.5t20.5 29.5q3 6 14.5 23.5t14.5 23.5q6 13 37 39q13 10 67 10q8 0 34 -4.5t36 -3.5z" />
<glyph unicode="&#xc2;" d="M1124 59q-4 -15 19 -49q-1 -9 -2.5 -14.5t-5.5 -7.5t-6.5 -2.5t-11 -1t-13.5 -0.5q-7 -4 -24.5 -2t-22.5 10q-14 -8 -49 4h-4q-4 -1 -6.5 -1t-5 2t-3.5 5q-3 4 2.5 8.5t5.5 7.5q-3 14 -14 36.5t-14 33.5q-1 6 -10 22t-9 19q-1 8 -5 17t-10.5 20.5t-8.5 15.5 q-9 19 -20 56.5t-15 48.5q-5 11 -12.5 34t-12.5 35q-2 5 -7.5 17t-10 20.5t-8.5 12.5q-9 9 -26.5 13.5t-31.5 4.5t-37 -1t-30 -1q-14 0 -45 -1t-49 -1h-140q-31 0 -43 6q-1 1 -7.5 -2t-8.5 -2q-7 3 -26 -0.5t-27 -1.5q-1 3 -23.5 0.5t-26.5 -2.5q-3 0 -11.5 1.5t-13.5 1.5 t-12 0.5t-12 -1t-8 -4.5q-9 -8 -10 -22.5t-4 -20.5q-17 -29 -19 -31q-10 -13 -16 -43q-6 -19 -20.5 -59.5t-20.5 -59.5q-6 -14 -16 -61q-1 -4 -2.5 -17.5t-5 -24t-9.5 -14.5q-2 -5 -3.5 -17.5t-2.5 -14.5l-4.5 -13.5t-3.5 -17.5q-2 0 -6 -1l-6 -1.5t-5 1.5t-4 7 q-3 -2 -28 -2t-33 -2q-4 -1 -13.5 0t-13.5 0q-5 9 -4.5 23.5t4.5 21.5q2 4 6 26t11 29q-1 17 8 41.5t10 32.5q2 14 10 39.5t9 30.5q13 40 44.5 113t43.5 110q13 42 43.5 115.5t38.5 95.5q3 6 18.5 47t29.5 78.5t17 40.5q6 6 19 41t23.5 68t8.5 34q22 40 37 94q2 9 13 34 t12 40q47 88 69 162q5 4 8.5 19t6.5 20q3 1 16.5 -1.5t16.5 1.5q16 -5 36 -2q12 2 19 6v-3q-1 -5 0 -6.5t8 1.5q14 9 17 -4q1 -2 2 -8l1 -5q1 -10 5 -20.5t11 -23t9 -17.5q0 -1 5.5 -13.5t9.5 -24t4 -15.5q1 -13 9.5 -39.5t10.5 -36.5q1 -5 13.5 -32t15.5 -44q0 -3 15 -39 t19 -43q18 -41 23 -59q1 -6 16 -41q1 -3 8.5 -21.5t13 -35.5t5.5 -23q4 -3 6.5 -14.5t5.5 -14.5q4 -9 12.5 -27.5t12.5 -27.5q3 -8 37 -83t45 -114q3 -15 16.5 -36.5t16.5 -30.5q5 -12 20.5 -50t22.5 -59q1 -6 17 -45t17 -49q5 -12 22.5 -41t20.5 -53q2 -17 21 -60 q-1 -7 6.5 -24.5t13.5 -20.5zM772 539q0 -1 1 0t2.5 3t2.5 3q0 -5 8 -5.5t11 1.5q-1 4 -9.5 25.5t-9.5 33.5q1 3 -4 15.5t-4 19.5q-4 9 -14 41.5t-19 48.5q-4 5 -14 41q-5 8 -23 51q-8 35 -36 98q-2 6 -15 40t-20 51q-4 7 -15 42.5t-24 47.5q-5 5 -14.5 34.5t-20.5 30.5 q-7 -1 -13 -19.5t-10 -21.5q0 -4 -7.5 -21t-12.5 -20q3 -1 -8.5 -29.5t-14.5 -31.5q0 -26 -30 -74q-4 -6 -9 -27.5t-10 -29.5q-8 -11 -19 -38.5t-13 -31.5q-25 -47 -29 -74q-2 -12 -15 -42t-16 -42q1 -3 -5 -14t-7 -14q-2 -8 -9.5 -19.5t-9.5 -19.5q-1 -4 -6 -13.5t-6 -14 t2 -15.5l35 -4q2 -1 15 -1t14 1q10 -5 18 -2q7 6 70 1t71 -5h60q10 1 30 -1t29 -1q2 0 11.5 1.5t11.5 0.5q27 -5 61 2q12 2 39 -2zM356 1468q-1 4 1 6.5t5.5 6t4.5 6.5q7 7 24.5 20t26.5 21q21 21 45 33q5 2 14 13.5t10 12.5q9 9 32 21t30 18q17 11 21 11t18 -9q2 -1 7 -5.5 t9 -6.5l33 -26q33 -27 41 -31t35 -26t37 -28q33 -17 18 -30q-5 -4 -13.5 -15t-15 -15.5t-10.5 -0.5q-13 13 -43.5 27.5t-36.5 19.5q-18 16 -74 27q-5 0 -9.5 1t-10.5 1q-11 0 -33 -11q-6 -3 -35 -20q-44 -31 -47 -35q-16 -10 -23.5 -9t-27.5 9q-4 1 -12.5 1.5t-13.5 3 t-7 9.5z" />
</font>
</defs>
</svg>
